G04 #@! TF.GenerationSoftware,KiCad,Pcbnew,5.1.5+dfsg1-2build2*
G04 #@! TF.CreationDate,2022-10-22T21:51:20+00:00*
G04 #@! TF.ProjectId,board,626f6172-642e-46b6-9963-61645f706362,v1.0.0*
G04 #@! TF.SameCoordinates,Original*
G04 #@! TF.FileFunction,Legend,Top*
G04 #@! TF.FilePolarity,Positive*
%FSLAX46Y46*%
G04 Gerber Fmt 4.6, Leading zero omitted, Abs format (unit mm)*
G04 Created by KiCad (PCBNEW 5.1.5+dfsg1-2build2) date 2022-10-22 21:51:20*
%MOMM*%
%LPD*%
G04 APERTURE LIST*
%ADD10C,0.150000*%
G04 #@! TA.AperFunction,Profile*
%ADD11C,0.150000*%
G04 #@! TD*
%ADD12C,0.100000*%
G04 APERTURE END LIST*
D10*
X51102380Y-3389880D02*
X51340476Y-4389880D01*
X51530952Y-3675595D01*
X51721428Y-4389880D01*
X51959523Y-3389880D01*
X52340476Y-4389880D02*
X52340476Y-3389880D01*
X52769047Y-4389880D02*
X52769047Y-3866071D01*
X52721428Y-3770833D01*
X52626190Y-3723214D01*
X52483333Y-3723214D01*
X52388095Y-3770833D01*
X52340476Y-3818452D01*
X53150000Y-3723214D02*
X53388095Y-4389880D01*
X53626190Y-3723214D02*
X53388095Y-4389880D01*
X53292857Y-4627976D01*
X53245238Y-4675595D01*
X53150000Y-4723214D01*
X55197619Y-4389880D02*
X55197619Y-3389880D01*
X55197619Y-4342261D02*
X55102380Y-4389880D01*
X54911904Y-4389880D01*
X54816666Y-4342261D01*
X54769047Y-4294642D01*
X54721428Y-4199404D01*
X54721428Y-3913690D01*
X54769047Y-3818452D01*
X54816666Y-3770833D01*
X54911904Y-3723214D01*
X55102380Y-3723214D01*
X55197619Y-3770833D01*
X55816666Y-4389880D02*
X55721428Y-4342261D01*
X55673809Y-4294642D01*
X55626190Y-4199404D01*
X55626190Y-3913690D01*
X55673809Y-3818452D01*
X55721428Y-3770833D01*
X55816666Y-3723214D01*
X55959523Y-3723214D01*
X56054761Y-3770833D01*
X56102380Y-3818452D01*
X56150000Y-3913690D01*
X56150000Y-4199404D01*
X56102380Y-4294642D01*
X56054761Y-4342261D01*
X55959523Y-4389880D01*
X55816666Y-4389880D01*
X57292857Y-4342261D02*
X57388095Y-4389880D01*
X57578571Y-4389880D01*
X57673809Y-4342261D01*
X57721428Y-4247023D01*
X57721428Y-4199404D01*
X57673809Y-4104166D01*
X57578571Y-4056547D01*
X57435714Y-4056547D01*
X57340476Y-4008928D01*
X57292857Y-3913690D01*
X57292857Y-3866071D01*
X57340476Y-3770833D01*
X57435714Y-3723214D01*
X57578571Y-3723214D01*
X57673809Y-3770833D01*
X58530952Y-4342261D02*
X58435714Y-4389880D01*
X58245238Y-4389880D01*
X58150000Y-4342261D01*
X58102380Y-4247023D01*
X58102380Y-3866071D01*
X58150000Y-3770833D01*
X58245238Y-3723214D01*
X58435714Y-3723214D01*
X58530952Y-3770833D01*
X58578571Y-3866071D01*
X58578571Y-3961309D01*
X58102380Y-4056547D01*
X59435714Y-4389880D02*
X59435714Y-3866071D01*
X59388095Y-3770833D01*
X59292857Y-3723214D01*
X59102380Y-3723214D01*
X59007142Y-3770833D01*
X59435714Y-4342261D02*
X59340476Y-4389880D01*
X59102380Y-4389880D01*
X59007142Y-4342261D01*
X58959523Y-4247023D01*
X58959523Y-4151785D01*
X59007142Y-4056547D01*
X59102380Y-4008928D01*
X59340476Y-4008928D01*
X59435714Y-3961309D01*
X60340476Y-3723214D02*
X60340476Y-4532738D01*
X60292857Y-4627976D01*
X60245238Y-4675595D01*
X60150000Y-4723214D01*
X60007142Y-4723214D01*
X59911904Y-4675595D01*
X60340476Y-4342261D02*
X60245238Y-4389880D01*
X60054761Y-4389880D01*
X59959523Y-4342261D01*
X59911904Y-4294642D01*
X59864285Y-4199404D01*
X59864285Y-3913690D01*
X59911904Y-3818452D01*
X59959523Y-3770833D01*
X60054761Y-3723214D01*
X60245238Y-3723214D01*
X60340476Y-3770833D01*
X61245238Y-3723214D02*
X61245238Y-4389880D01*
X60816666Y-3723214D02*
X60816666Y-4247023D01*
X60864285Y-4342261D01*
X60959523Y-4389880D01*
X61102380Y-4389880D01*
X61197619Y-4342261D01*
X61245238Y-4294642D01*
X61864285Y-4389880D02*
X61769047Y-4342261D01*
X61721428Y-4247023D01*
X61721428Y-3389880D01*
X62388095Y-4389880D02*
X62292857Y-4342261D01*
X62245238Y-4247023D01*
X62245238Y-3389880D01*
X62721428Y-4342261D02*
X62816666Y-4389880D01*
X63007142Y-4389880D01*
X63102380Y-4342261D01*
X63150000Y-4247023D01*
X63150000Y-4199404D01*
X63102380Y-4104166D01*
X63007142Y-4056547D01*
X62864285Y-4056547D01*
X62769047Y-4008928D01*
X62721428Y-3913690D01*
X62721428Y-3866071D01*
X62769047Y-3770833D01*
X62864285Y-3723214D01*
X63007142Y-3723214D01*
X63102380Y-3770833D01*
X53007142Y-6039880D02*
X52911904Y-5992261D01*
X52864285Y-5897023D01*
X52864285Y-5039880D01*
X53388095Y-6039880D02*
X53388095Y-5373214D01*
X53388095Y-5039880D02*
X53340476Y-5087500D01*
X53388095Y-5135119D01*
X53435714Y-5087500D01*
X53388095Y-5039880D01*
X53388095Y-5135119D01*
X53769047Y-5373214D02*
X54007142Y-6039880D01*
X54245238Y-5373214D01*
X55007142Y-5992261D02*
X54911904Y-6039880D01*
X54721428Y-6039880D01*
X54626190Y-5992261D01*
X54578571Y-5897023D01*
X54578571Y-5516071D01*
X54626190Y-5420833D01*
X54721428Y-5373214D01*
X54911904Y-5373214D01*
X55007142Y-5420833D01*
X55054761Y-5516071D01*
X55054761Y-5611309D01*
X54578571Y-5706547D01*
X56673809Y-6039880D02*
X56673809Y-5516071D01*
X56626190Y-5420833D01*
X56530952Y-5373214D01*
X56340476Y-5373214D01*
X56245238Y-5420833D01*
X56673809Y-5992261D02*
X56578571Y-6039880D01*
X56340476Y-6039880D01*
X56245238Y-5992261D01*
X56197619Y-5897023D01*
X56197619Y-5801785D01*
X56245238Y-5706547D01*
X56340476Y-5658928D01*
X56578571Y-5658928D01*
X56673809Y-5611309D01*
X57007142Y-5373214D02*
X57388095Y-5373214D01*
X57150000Y-5039880D02*
X57150000Y-5897023D01*
X57197619Y-5992261D01*
X57292857Y-6039880D01*
X57388095Y-6039880D01*
X58435714Y-5992261D02*
X58530952Y-6039880D01*
X58721428Y-6039880D01*
X58816666Y-5992261D01*
X58864285Y-5897023D01*
X58864285Y-5849404D01*
X58816666Y-5754166D01*
X58721428Y-5706547D01*
X58578571Y-5706547D01*
X58483333Y-5658928D01*
X58435714Y-5563690D01*
X58435714Y-5516071D01*
X58483333Y-5420833D01*
X58578571Y-5373214D01*
X58721428Y-5373214D01*
X58816666Y-5420833D01*
X59673809Y-5992261D02*
X59578571Y-6039880D01*
X59388095Y-6039880D01*
X59292857Y-5992261D01*
X59245238Y-5897023D01*
X59245238Y-5516071D01*
X59292857Y-5420833D01*
X59388095Y-5373214D01*
X59578571Y-5373214D01*
X59673809Y-5420833D01*
X59721428Y-5516071D01*
X59721428Y-5611309D01*
X59245238Y-5706547D01*
X60578571Y-6039880D02*
X60578571Y-5516071D01*
X60530952Y-5420833D01*
X60435714Y-5373214D01*
X60245238Y-5373214D01*
X60150000Y-5420833D01*
X60578571Y-5992261D02*
X60483333Y-6039880D01*
X60245238Y-6039880D01*
X60150000Y-5992261D01*
X60102380Y-5897023D01*
X60102380Y-5801785D01*
X60150000Y-5706547D01*
X60245238Y-5658928D01*
X60483333Y-5658928D01*
X60578571Y-5611309D01*
X61197619Y-5944642D02*
X61245238Y-5992261D01*
X61197619Y-6039880D01*
X61150000Y-5992261D01*
X61197619Y-5944642D01*
X61197619Y-6039880D01*
X61007142Y-5087500D02*
X61102380Y-5039880D01*
X61340476Y-5039880D01*
X61435714Y-5087500D01*
X61483333Y-5182738D01*
X61483333Y-5277976D01*
X61435714Y-5373214D01*
X61388095Y-5420833D01*
X61292857Y-5468452D01*
X61245238Y-5516071D01*
X61197619Y-5611309D01*
X61197619Y-5658928D01*
X144608571Y-37240571D02*
X144656190Y-37097714D01*
X144703809Y-37050095D01*
X144799047Y-37002476D01*
X144941904Y-37002476D01*
X145037142Y-37050095D01*
X145084761Y-37097714D01*
X145132380Y-37192952D01*
X145132380Y-37573904D01*
X144132380Y-37573904D01*
X144132380Y-37240571D01*
X144180000Y-37145333D01*
X144227619Y-37097714D01*
X144322857Y-37050095D01*
X144418095Y-37050095D01*
X144513333Y-37097714D01*
X144560952Y-37145333D01*
X144608571Y-37240571D01*
X144608571Y-37573904D01*
X145132380Y-36145333D02*
X144608571Y-36145333D01*
X144513333Y-36192952D01*
X144465714Y-36288190D01*
X144465714Y-36478666D01*
X144513333Y-36573904D01*
X145084761Y-36145333D02*
X145132380Y-36240571D01*
X145132380Y-36478666D01*
X145084761Y-36573904D01*
X144989523Y-36621523D01*
X144894285Y-36621523D01*
X144799047Y-36573904D01*
X144751428Y-36478666D01*
X144751428Y-36240571D01*
X144703809Y-36145333D01*
X144465714Y-35764380D02*
X145132380Y-35526285D01*
X144465714Y-35288190D02*
X145132380Y-35526285D01*
X145370476Y-35621523D01*
X145418095Y-35669142D01*
X145465714Y-35764380D01*
X144465714Y-34478666D02*
X145275238Y-34478666D01*
X145370476Y-34526285D01*
X145418095Y-34573904D01*
X145465714Y-34669142D01*
X145465714Y-34812000D01*
X145418095Y-34907238D01*
X145084761Y-34478666D02*
X145132380Y-34573904D01*
X145132380Y-34764380D01*
X145084761Y-34859619D01*
X145037142Y-34907238D01*
X144941904Y-34954857D01*
X144656190Y-34954857D01*
X144560952Y-34907238D01*
X144513333Y-34859619D01*
X144465714Y-34764380D01*
X144465714Y-34573904D01*
X144513333Y-34478666D01*
X144465714Y-33573904D02*
X145132380Y-33573904D01*
X144465714Y-34002476D02*
X144989523Y-34002476D01*
X145084761Y-33954857D01*
X145132380Y-33859619D01*
X145132380Y-33716761D01*
X145084761Y-33621523D01*
X145037142Y-33573904D01*
X145132380Y-32954857D02*
X145084761Y-33050095D01*
X144989523Y-33097714D01*
X144132380Y-33097714D01*
X145132380Y-32431047D02*
X145084761Y-32526285D01*
X144989523Y-32573904D01*
X144132380Y-32573904D01*
X144608571Y-30954857D02*
X144656190Y-30812000D01*
X144703809Y-30764380D01*
X144799047Y-30716761D01*
X144941904Y-30716761D01*
X145037142Y-30764380D01*
X145084761Y-30812000D01*
X145132380Y-30907238D01*
X145132380Y-31288190D01*
X144132380Y-31288190D01*
X144132380Y-30954857D01*
X144180000Y-30859619D01*
X144227619Y-30812000D01*
X144322857Y-30764380D01*
X144418095Y-30764380D01*
X144513333Y-30812000D01*
X144560952Y-30859619D01*
X144608571Y-30954857D01*
X144608571Y-31288190D01*
X145132380Y-30145333D02*
X145084761Y-30240571D01*
X145037142Y-30288190D01*
X144941904Y-30335809D01*
X144656190Y-30335809D01*
X144560952Y-30288190D01*
X144513333Y-30240571D01*
X144465714Y-30145333D01*
X144465714Y-30002476D01*
X144513333Y-29907238D01*
X144560952Y-29859619D01*
X144656190Y-29812000D01*
X144941904Y-29812000D01*
X145037142Y-29859619D01*
X145084761Y-29907238D01*
X145132380Y-30002476D01*
X145132380Y-30145333D01*
X145132380Y-28954857D02*
X144608571Y-28954857D01*
X144513333Y-29002476D01*
X144465714Y-29097714D01*
X144465714Y-29288190D01*
X144513333Y-29383428D01*
X145084761Y-28954857D02*
X145132380Y-29050095D01*
X145132380Y-29288190D01*
X145084761Y-29383428D01*
X144989523Y-29431047D01*
X144894285Y-29431047D01*
X144799047Y-29383428D01*
X144751428Y-29288190D01*
X144751428Y-29050095D01*
X144703809Y-28954857D01*
X145132380Y-28478666D02*
X144465714Y-28478666D01*
X144656190Y-28478666D02*
X144560952Y-28431047D01*
X144513333Y-28383428D01*
X144465714Y-28288190D01*
X144465714Y-28192952D01*
X145132380Y-27431047D02*
X144132380Y-27431047D01*
X145084761Y-27431047D02*
X145132380Y-27526285D01*
X145132380Y-27716761D01*
X145084761Y-27812000D01*
X145037142Y-27859619D01*
X144941904Y-27907238D01*
X144656190Y-27907238D01*
X144560952Y-27859619D01*
X144513333Y-27812000D01*
X144465714Y-27716761D01*
X144465714Y-27526285D01*
X144513333Y-27431047D01*
X144465714Y-26288190D02*
X145132380Y-26050095D01*
X144465714Y-25812000D01*
X144132380Y-25240571D02*
X144132380Y-25145333D01*
X144180000Y-25050095D01*
X144227619Y-25002476D01*
X144322857Y-24954857D01*
X144513333Y-24907238D01*
X144751428Y-24907238D01*
X144941904Y-24954857D01*
X145037142Y-25002476D01*
X145084761Y-25050095D01*
X145132380Y-25145333D01*
X145132380Y-25240571D01*
X145084761Y-25335809D01*
X145037142Y-25383428D01*
X144941904Y-25431047D01*
X144751428Y-25478666D01*
X144513333Y-25478666D01*
X144322857Y-25431047D01*
X144227619Y-25383428D01*
X144180000Y-25335809D01*
X144132380Y-25240571D01*
X145037142Y-24478666D02*
X145084761Y-24431047D01*
X145132380Y-24478666D01*
X145084761Y-24526285D01*
X145037142Y-24478666D01*
X145132380Y-24478666D01*
X145132380Y-23478666D02*
X145132380Y-24050095D01*
X145132380Y-23764380D02*
X144132380Y-23764380D01*
X144275238Y-23859619D01*
X144370476Y-23954857D01*
X144418095Y-24050095D01*
X144227619Y-22335809D02*
X144180000Y-22288190D01*
X144132380Y-22192952D01*
X144132380Y-21954857D01*
X144180000Y-21859619D01*
X144227619Y-21812000D01*
X144322857Y-21764380D01*
X144418095Y-21764380D01*
X144560952Y-21812000D01*
X145132380Y-22383428D01*
X145132380Y-21764380D01*
X144132380Y-21145333D02*
X144132380Y-21050095D01*
X144180000Y-20954857D01*
X144227619Y-20907238D01*
X144322857Y-20859619D01*
X144513333Y-20812000D01*
X144751428Y-20812000D01*
X144941904Y-20859619D01*
X145037142Y-20907238D01*
X145084761Y-20954857D01*
X145132380Y-21050095D01*
X145132380Y-21145333D01*
X145084761Y-21240571D01*
X145037142Y-21288190D01*
X144941904Y-21335809D01*
X144751428Y-21383428D01*
X144513333Y-21383428D01*
X144322857Y-21335809D01*
X144227619Y-21288190D01*
X144180000Y-21240571D01*
X144132380Y-21145333D01*
X144227619Y-20431047D02*
X144180000Y-20383428D01*
X144132380Y-20288190D01*
X144132380Y-20050095D01*
X144180000Y-19954857D01*
X144227619Y-19907238D01*
X144322857Y-19859619D01*
X144418095Y-19859619D01*
X144560952Y-19907238D01*
X145132380Y-20478666D01*
X145132380Y-19859619D01*
X144227619Y-19478666D02*
X144180000Y-19431047D01*
X144132380Y-19335809D01*
X144132380Y-19097714D01*
X144180000Y-19002476D01*
X144227619Y-18954857D01*
X144322857Y-18907238D01*
X144418095Y-18907238D01*
X144560952Y-18954857D01*
X145132380Y-19526285D01*
X145132380Y-18907238D01*
X144751428Y-18478666D02*
X144751428Y-17716761D01*
X145132380Y-16716761D02*
X145132380Y-17288190D01*
X145132380Y-17002476D02*
X144132380Y-17002476D01*
X144275238Y-17097714D01*
X144370476Y-17192952D01*
X144418095Y-17288190D01*
X144132380Y-16097714D02*
X144132380Y-16002476D01*
X144180000Y-15907238D01*
X144227619Y-15859619D01*
X144322857Y-15812000D01*
X144513333Y-15764380D01*
X144751428Y-15764380D01*
X144941904Y-15812000D01*
X145037142Y-15859619D01*
X145084761Y-15907238D01*
X145132380Y-16002476D01*
X145132380Y-16097714D01*
X145084761Y-16192952D01*
X145037142Y-16240571D01*
X144941904Y-16288190D01*
X144751428Y-16335809D01*
X144513333Y-16335809D01*
X144322857Y-16288190D01*
X144227619Y-16240571D01*
X144180000Y-16192952D01*
X144132380Y-16097714D01*
X144751428Y-15335809D02*
X144751428Y-14573904D01*
X145132380Y-13573904D02*
X145132380Y-14145333D01*
X145132380Y-13859619D02*
X144132380Y-13859619D01*
X144275238Y-13954857D01*
X144370476Y-14050095D01*
X144418095Y-14145333D01*
X144132380Y-12716761D02*
X144132380Y-12907238D01*
X144180000Y-13002476D01*
X144227619Y-13050095D01*
X144370476Y-13145333D01*
X144560952Y-13192952D01*
X144941904Y-13192952D01*
X145037142Y-13145333D01*
X145084761Y-13097714D01*
X145132380Y-13002476D01*
X145132380Y-12812000D01*
X145084761Y-12716761D01*
X145037142Y-12669142D01*
X144941904Y-12621523D01*
X144703809Y-12621523D01*
X144608571Y-12669142D01*
X144560952Y-12716761D01*
X144513333Y-12812000D01*
X144513333Y-13002476D01*
X144560952Y-13097714D01*
X144608571Y-13145333D01*
X144703809Y-13192952D01*
X144132380Y-10618190D02*
X144846666Y-10618190D01*
X144989523Y-10665809D01*
X145084761Y-10761047D01*
X145132380Y-10903904D01*
X145132380Y-10999142D01*
X145132380Y-9665809D02*
X145132380Y-10142000D01*
X144132380Y-10142000D01*
X145037142Y-8761047D02*
X145084761Y-8808666D01*
X145132380Y-8951523D01*
X145132380Y-9046761D01*
X145084761Y-9189619D01*
X144989523Y-9284857D01*
X144894285Y-9332476D01*
X144703809Y-9380095D01*
X144560952Y-9380095D01*
X144370476Y-9332476D01*
X144275238Y-9284857D01*
X144180000Y-9189619D01*
X144132380Y-9046761D01*
X144132380Y-8951523D01*
X144180000Y-8808666D01*
X144227619Y-8761047D01*
X144132380Y-8046761D02*
X144846666Y-8046761D01*
X144989523Y-8094380D01*
X145084761Y-8189619D01*
X145132380Y-8332476D01*
X145132380Y-8427714D01*
X145132380Y-7094380D02*
X145132380Y-7570571D01*
X144132380Y-7570571D01*
X145037142Y-6189619D02*
X145084761Y-6237238D01*
X145132380Y-6380095D01*
X145132380Y-6475333D01*
X145084761Y-6618190D01*
X144989523Y-6713428D01*
X144894285Y-6761047D01*
X144703809Y-6808666D01*
X144560952Y-6808666D01*
X144370476Y-6761047D01*
X144275238Y-6713428D01*
X144180000Y-6618190D01*
X144132380Y-6475333D01*
X144132380Y-6380095D01*
X144180000Y-6237238D01*
X144227619Y-6189619D01*
X144132380Y-5475333D02*
X144846666Y-5475333D01*
X144989523Y-5522952D01*
X145084761Y-5618190D01*
X145132380Y-5761047D01*
X145132380Y-5856285D01*
X145132380Y-4522952D02*
X145132380Y-4999142D01*
X144132380Y-4999142D01*
X145037142Y-3618190D02*
X145084761Y-3665809D01*
X145132380Y-3808666D01*
X145132380Y-3903904D01*
X145084761Y-4046761D01*
X144989523Y-4142000D01*
X144894285Y-4189619D01*
X144703809Y-4237238D01*
X144560952Y-4237238D01*
X144370476Y-4189619D01*
X144275238Y-4142000D01*
X144180000Y-4046761D01*
X144132380Y-3903904D01*
X144132380Y-3808666D01*
X144180000Y-3665809D01*
X144227619Y-3618190D01*
X144132380Y-2903904D02*
X144846666Y-2903904D01*
X144989523Y-2951523D01*
X145084761Y-3046761D01*
X145132380Y-3189619D01*
X145132380Y-3284857D01*
X145132380Y-1951523D02*
X145132380Y-2427714D01*
X144132380Y-2427714D01*
X145037142Y-1046761D02*
X145084761Y-1094380D01*
X145132380Y-1237238D01*
X145132380Y-1332476D01*
X145084761Y-1475333D01*
X144989523Y-1570571D01*
X144894285Y-1618190D01*
X144703809Y-1665809D01*
X144560952Y-1665809D01*
X144370476Y-1618190D01*
X144275238Y-1570571D01*
X144180000Y-1475333D01*
X144132380Y-1332476D01*
X144132380Y-1237238D01*
X144180000Y-1094380D01*
X144227619Y-1046761D01*
D11*
X9525000Y-10525000D02*
X46625000Y-10525000D01*
X8525000Y-9525000D02*
X8525000Y47625000D01*
X9525000Y-10525000D02*
G75*
G02X8525000Y-9525000I0J1000000D01*
G01*
X9525000Y48625000D02*
X46625000Y48625000D01*
X8525000Y47625000D02*
G75*
G02X9525000Y48625000I1000000J0D01*
G01*
X65625000Y61198000D02*
X47625000Y61198000D01*
X46625000Y60198000D02*
G75*
G02X47625000Y61198000I1000000J0D01*
G01*
X46625000Y60198000D02*
X46625000Y48625000D01*
X86675000Y61198000D02*
X86675000Y64960500D01*
X85675000Y65960500D02*
G75*
G02X86675000Y64960500I0J-1000000D01*
G01*
X85675000Y65960500D02*
X66625000Y65960500D01*
X65625000Y64960500D02*
G75*
G02X66625000Y65960500I1000000J0D01*
G01*
X65625000Y64960500D02*
X65625000Y61198000D01*
X105675000Y58340500D02*
X105675000Y60198000D01*
X104675000Y61198000D02*
G75*
G02X105675000Y60198000I0J-1000000D01*
G01*
X104675000Y61198000D02*
X86675000Y61198000D01*
X124725000Y56190500D02*
X124725000Y57340500D01*
X123725000Y58340500D02*
G75*
G02X124725000Y57340500I0J-1000000D01*
G01*
X123725000Y58340500D02*
X105675000Y58340500D01*
X65575000Y-37909500D02*
X65575000Y-18968378D01*
X66575000Y-38909500D02*
X144200000Y-38909500D01*
X66575000Y-38909500D02*
G75*
G02X65575000Y-37909500I0J1000000D01*
G01*
X65575000Y-18968378D02*
X46625000Y-10525000D01*
X146200000Y-36909500D02*
G75*
G02X144200000Y-38909500I-2000000J0D01*
G01*
X146200000Y-36909500D02*
X146200000Y54190500D01*
X144200000Y56190500D02*
G75*
G02X146200000Y54190500I0J-2000000D01*
G01*
X144200000Y56190500D02*
X124725000Y56190500D01*
X30625000Y28575000D02*
G75*
G03X30625000Y28575000I-2050000J0D01*
G01*
X30625000Y9525000D02*
G75*
G03X30625000Y9525000I-2050000J0D01*
G01*
X106725000Y41148000D02*
G75*
G03X106725000Y41148000I-2050000J0D01*
G01*
X106725000Y22098000D02*
G75*
G03X106725000Y22098000I-2050000J0D01*
G01*
X125775000Y-18859500D02*
G75*
G03X125775000Y-18859500I-2050000J0D01*
G01*
X87675000Y-18859500D02*
G75*
G03X87675000Y-18859500I-2050000J0D01*
G01*
D12*
G04 #@! TO.C,D1*
X19300000Y-5000000D02*
X19800000Y-5000000D01*
X19300000Y-5400000D02*
X18700000Y-5000000D01*
X19300000Y-4600000D02*
X19300000Y-5400000D01*
X18700000Y-5000000D02*
X19300000Y-4600000D01*
X18700000Y-5000000D02*
X18700000Y-5550000D01*
X18700000Y-5000000D02*
X18700000Y-4450000D01*
X18300000Y-5000000D02*
X18700000Y-5000000D01*
G04 #@! TO.C,D2*
X19300000Y14050000D02*
X19800000Y14050000D01*
X19300000Y13650000D02*
X18700000Y14050000D01*
X19300000Y14450000D02*
X19300000Y13650000D01*
X18700000Y14050000D02*
X19300000Y14450000D01*
X18700000Y14050000D02*
X18700000Y13500000D01*
X18700000Y14050000D02*
X18700000Y14600000D01*
X18300000Y14050000D02*
X18700000Y14050000D01*
G04 #@! TO.C,D3*
X19300000Y33100000D02*
X19800000Y33100000D01*
X19300000Y32700000D02*
X18700000Y33100000D01*
X19300000Y33500000D02*
X19300000Y32700000D01*
X18700000Y33100000D02*
X19300000Y33500000D01*
X18700000Y33100000D02*
X18700000Y32550000D01*
X18700000Y33100000D02*
X18700000Y33650000D01*
X18300000Y33100000D02*
X18700000Y33100000D01*
G04 #@! TO.C,D4*
X38350000Y-5000000D02*
X38850000Y-5000000D01*
X38350000Y-5400000D02*
X37750000Y-5000000D01*
X38350000Y-4600000D02*
X38350000Y-5400000D01*
X37750000Y-5000000D02*
X38350000Y-4600000D01*
X37750000Y-5000000D02*
X37750000Y-5550000D01*
X37750000Y-5000000D02*
X37750000Y-4450000D01*
X37350000Y-5000000D02*
X37750000Y-5000000D01*
G04 #@! TO.C,D5*
X38350000Y14050000D02*
X38850000Y14050000D01*
X38350000Y13650000D02*
X37750000Y14050000D01*
X38350000Y14450000D02*
X38350000Y13650000D01*
X37750000Y14050000D02*
X38350000Y14450000D01*
X37750000Y14050000D02*
X37750000Y13500000D01*
X37750000Y14050000D02*
X37750000Y14600000D01*
X37350000Y14050000D02*
X37750000Y14050000D01*
G04 #@! TO.C,D6*
X38350000Y33100000D02*
X38850000Y33100000D01*
X38350000Y32700000D02*
X37750000Y33100000D01*
X38350000Y33500000D02*
X38350000Y32700000D01*
X37750000Y33100000D02*
X38350000Y33500000D01*
X37750000Y33100000D02*
X37750000Y32550000D01*
X37750000Y33100000D02*
X37750000Y33650000D01*
X37350000Y33100000D02*
X37750000Y33100000D01*
G04 #@! TO.C,D7*
X57400000Y7573000D02*
X57900000Y7573000D01*
X57400000Y7173000D02*
X56800000Y7573000D01*
X57400000Y7973000D02*
X57400000Y7173000D01*
X56800000Y7573000D02*
X57400000Y7973000D01*
X56800000Y7573000D02*
X56800000Y7023000D01*
X56800000Y7573000D02*
X56800000Y8123000D01*
X56400000Y7573000D02*
X56800000Y7573000D01*
G04 #@! TO.C,D8*
X57400000Y26623000D02*
X57900000Y26623000D01*
X57400000Y26223000D02*
X56800000Y26623000D01*
X57400000Y27023000D02*
X57400000Y26223000D01*
X56800000Y26623000D02*
X57400000Y27023000D01*
X56800000Y26623000D02*
X56800000Y26073000D01*
X56800000Y26623000D02*
X56800000Y27173000D01*
X56400000Y26623000D02*
X56800000Y26623000D01*
G04 #@! TO.C,D9*
X57400000Y45673000D02*
X57900000Y45673000D01*
X57400000Y45273000D02*
X56800000Y45673000D01*
X57400000Y46073000D02*
X57400000Y45273000D01*
X56800000Y45673000D02*
X57400000Y46073000D01*
X56800000Y45673000D02*
X56800000Y45123000D01*
X56800000Y45673000D02*
X56800000Y46223000D01*
X56400000Y45673000D02*
X56800000Y45673000D01*
G04 #@! TO.C,D10*
X76400000Y12335500D02*
X76900000Y12335500D01*
X76400000Y11935500D02*
X75800000Y12335500D01*
X76400000Y12735500D02*
X76400000Y11935500D01*
X75800000Y12335500D02*
X76400000Y12735500D01*
X75800000Y12335500D02*
X75800000Y11785500D01*
X75800000Y12335500D02*
X75800000Y12885500D01*
X75400000Y12335500D02*
X75800000Y12335500D01*
G04 #@! TO.C,D11*
X76400000Y31385500D02*
X76900000Y31385500D01*
X76400000Y30985500D02*
X75800000Y31385500D01*
X76400000Y31785500D02*
X76400000Y30985500D01*
X75800000Y31385500D02*
X76400000Y31785500D01*
X75800000Y31385500D02*
X75800000Y30835500D01*
X75800000Y31385500D02*
X75800000Y31935500D01*
X75400000Y31385500D02*
X75800000Y31385500D01*
G04 #@! TO.C,D12*
X76400000Y50435500D02*
X76900000Y50435500D01*
X76400000Y50035500D02*
X75800000Y50435500D01*
X76400000Y50835500D02*
X76400000Y50035500D01*
X75800000Y50435500D02*
X76400000Y50835500D01*
X75800000Y50435500D02*
X75800000Y49885500D01*
X75800000Y50435500D02*
X75800000Y50985500D01*
X75400000Y50435500D02*
X75800000Y50435500D01*
G04 #@! TO.C,D13*
X95400000Y7573000D02*
X95900000Y7573000D01*
X95400000Y7173000D02*
X94800000Y7573000D01*
X95400000Y7973000D02*
X95400000Y7173000D01*
X94800000Y7573000D02*
X95400000Y7973000D01*
X94800000Y7573000D02*
X94800000Y7023000D01*
X94800000Y7573000D02*
X94800000Y8123000D01*
X94400000Y7573000D02*
X94800000Y7573000D01*
G04 #@! TO.C,D14*
X95400000Y26623000D02*
X95900000Y26623000D01*
X95400000Y26223000D02*
X94800000Y26623000D01*
X95400000Y27023000D02*
X95400000Y26223000D01*
X94800000Y26623000D02*
X95400000Y27023000D01*
X94800000Y26623000D02*
X94800000Y26073000D01*
X94800000Y26623000D02*
X94800000Y27173000D01*
X94400000Y26623000D02*
X94800000Y26623000D01*
G04 #@! TO.C,D15*
X95400000Y45673000D02*
X95900000Y45673000D01*
X95400000Y45273000D02*
X94800000Y45673000D01*
X95400000Y46073000D02*
X95400000Y45273000D01*
X94800000Y45673000D02*
X95400000Y46073000D01*
X94800000Y45673000D02*
X94800000Y45123000D01*
X94800000Y45673000D02*
X94800000Y46223000D01*
X94400000Y45673000D02*
X94800000Y45673000D01*
G04 #@! TO.C,D16*
X114450000Y4715500D02*
X114950000Y4715500D01*
X114450000Y4315500D02*
X113850000Y4715500D01*
X114450000Y5115500D02*
X114450000Y4315500D01*
X113850000Y4715500D02*
X114450000Y5115500D01*
X113850000Y4715500D02*
X113850000Y4165500D01*
X113850000Y4715500D02*
X113850000Y5265500D01*
X113450000Y4715500D02*
X113850000Y4715500D01*
G04 #@! TO.C,D17*
X114450000Y23765500D02*
X114950000Y23765500D01*
X114450000Y23365500D02*
X113850000Y23765500D01*
X114450000Y24165500D02*
X114450000Y23365500D01*
X113850000Y23765500D02*
X114450000Y24165500D01*
X113850000Y23765500D02*
X113850000Y23215500D01*
X113850000Y23765500D02*
X113850000Y24315500D01*
X113450000Y23765500D02*
X113850000Y23765500D01*
G04 #@! TO.C,D18*
X114450000Y42815500D02*
X114950000Y42815500D01*
X114450000Y42415500D02*
X113850000Y42815500D01*
X114450000Y43215500D02*
X114450000Y42415500D01*
X113850000Y42815500D02*
X114450000Y43215500D01*
X113850000Y42815500D02*
X113850000Y42265500D01*
X113850000Y42815500D02*
X113850000Y43365500D01*
X113450000Y42815500D02*
X113850000Y42815500D01*
G04 #@! TO.C,D19*
X76350000Y-14334500D02*
X76850000Y-14334500D01*
X76350000Y-14734500D02*
X75750000Y-14334500D01*
X76350000Y-13934500D02*
X76350000Y-14734500D01*
X75750000Y-14334500D02*
X76350000Y-13934500D01*
X75750000Y-14334500D02*
X75750000Y-14884500D01*
X75750000Y-14334500D02*
X75750000Y-13784500D01*
X75350000Y-14334500D02*
X75750000Y-14334500D01*
G04 #@! TO.C,D20*
X76350000Y-33384500D02*
X76850000Y-33384500D01*
X76350000Y-33784500D02*
X75750000Y-33384500D01*
X76350000Y-32984500D02*
X76350000Y-33784500D01*
X75750000Y-33384500D02*
X76350000Y-32984500D01*
X75750000Y-33384500D02*
X75750000Y-33934500D01*
X75750000Y-33384500D02*
X75750000Y-32834500D01*
X75350000Y-33384500D02*
X75750000Y-33384500D01*
G04 #@! TO.C,D21*
X95400000Y-14334500D02*
X95900000Y-14334500D01*
X95400000Y-14734500D02*
X94800000Y-14334500D01*
X95400000Y-13934500D02*
X95400000Y-14734500D01*
X94800000Y-14334500D02*
X95400000Y-13934500D01*
X94800000Y-14334500D02*
X94800000Y-14884500D01*
X94800000Y-14334500D02*
X94800000Y-13784500D01*
X94400000Y-14334500D02*
X94800000Y-14334500D01*
G04 #@! TO.C,D22*
X95400000Y-33384500D02*
X95900000Y-33384500D01*
X95400000Y-33784500D02*
X94800000Y-33384500D01*
X95400000Y-32984500D02*
X95400000Y-33784500D01*
X94800000Y-33384500D02*
X95400000Y-32984500D01*
X94800000Y-33384500D02*
X94800000Y-33934500D01*
X94800000Y-33384500D02*
X94800000Y-32834500D01*
X94400000Y-33384500D02*
X94800000Y-33384500D01*
G04 #@! TO.C,D23*
X114450000Y-14334500D02*
X114950000Y-14334500D01*
X114450000Y-14734500D02*
X113850000Y-14334500D01*
X114450000Y-13934500D02*
X114450000Y-14734500D01*
X113850000Y-14334500D02*
X114450000Y-13934500D01*
X113850000Y-14334500D02*
X113850000Y-14884500D01*
X113850000Y-14334500D02*
X113850000Y-13784500D01*
X113450000Y-14334500D02*
X113850000Y-14334500D01*
G04 #@! TO.C,D24*
X114450000Y-33384500D02*
X114950000Y-33384500D01*
X114450000Y-33784500D02*
X113850000Y-33384500D01*
X114450000Y-32984500D02*
X114450000Y-33784500D01*
X113850000Y-33384500D02*
X114450000Y-32984500D01*
X113850000Y-33384500D02*
X113850000Y-33934500D01*
X113850000Y-33384500D02*
X113850000Y-32834500D01*
X113450000Y-33384500D02*
X113850000Y-33384500D01*
G04 #@! TO.C,D25*
X133500000Y-14334500D02*
X134000000Y-14334500D01*
X133500000Y-14734500D02*
X132900000Y-14334500D01*
X133500000Y-13934500D02*
X133500000Y-14734500D01*
X132900000Y-14334500D02*
X133500000Y-13934500D01*
X132900000Y-14334500D02*
X132900000Y-14884500D01*
X132900000Y-14334500D02*
X132900000Y-13784500D01*
X132500000Y-14334500D02*
X132900000Y-14334500D01*
G04 #@! TO.C,D26*
X133500000Y-33384500D02*
X134000000Y-33384500D01*
X133500000Y-33784500D02*
X132900000Y-33384500D01*
X133500000Y-32984500D02*
X133500000Y-33784500D01*
X132900000Y-33384500D02*
X133500000Y-32984500D01*
X132900000Y-33384500D02*
X132900000Y-33934500D01*
X132900000Y-33384500D02*
X132900000Y-32834500D01*
X132500000Y-33384500D02*
X132900000Y-33384500D01*
D10*
G04 #@! TO.C,MCU2*
X127810000Y53345500D02*
X127810000Y20325500D01*
X127810000Y20325500D02*
X145590000Y20325500D01*
X145590000Y20325500D02*
X145590000Y53345500D01*
X145590000Y53345500D02*
X127810000Y53345500D01*
X130350000Y50805500D02*
X130350000Y48265500D01*
X130350000Y50805500D02*
X127810000Y50805500D01*
X130350000Y48265500D02*
X127810000Y48265500D01*
G04 #@! TO.C,B1*
X125450000Y14065500D02*
X125450000Y8065500D01*
X125450000Y8065500D02*
X125700000Y8065500D01*
X125450000Y14065500D02*
X125700000Y14065500D01*
X128950000Y14065500D02*
X128700000Y14065500D01*
X128950000Y14065500D02*
X128950000Y8065500D01*
X128950000Y8065500D02*
X128700000Y8065500D01*
G04 #@! TD*
G04 #@! TO.C,MCU2*
X131347619Y49173595D02*
X131080952Y49554547D01*
X130890476Y49173595D02*
X130890476Y49973595D01*
X131195238Y49973595D01*
X131271428Y49935500D01*
X131309523Y49897404D01*
X131347619Y49821214D01*
X131347619Y49706928D01*
X131309523Y49630738D01*
X131271428Y49592642D01*
X131195238Y49554547D01*
X130890476Y49554547D01*
X131652380Y49402166D02*
X132033333Y49402166D01*
X131576190Y49173595D02*
X131842857Y49973595D01*
X132109523Y49173595D01*
X132300000Y49973595D02*
X132490476Y49173595D01*
X132642857Y49745023D01*
X132795238Y49173595D01*
X132985714Y49973595D01*
X131290476Y47395500D02*
X131214285Y47433595D01*
X131100000Y47433595D01*
X130985714Y47395500D01*
X130909523Y47319309D01*
X130871428Y47243119D01*
X130833333Y47090738D01*
X130833333Y46976452D01*
X130871428Y46824071D01*
X130909523Y46747880D01*
X130985714Y46671690D01*
X131100000Y46633595D01*
X131176190Y46633595D01*
X131290476Y46671690D01*
X131328571Y46709785D01*
X131328571Y46976452D01*
X131176190Y46976452D01*
X131671428Y46633595D02*
X131671428Y47433595D01*
X132128571Y46633595D01*
X132128571Y47433595D01*
X132509523Y46633595D02*
X132509523Y47433595D01*
X132700000Y47433595D01*
X132814285Y47395500D01*
X132890476Y47319309D01*
X132928571Y47243119D01*
X132966666Y47090738D01*
X132966666Y46976452D01*
X132928571Y46824071D01*
X132890476Y46747880D01*
X132814285Y46671690D01*
X132700000Y46633595D01*
X132509523Y46633595D01*
X131461904Y44093595D02*
X131195238Y44474547D01*
X131004761Y44093595D02*
X131004761Y44893595D01*
X131309523Y44893595D01*
X131385714Y44855500D01*
X131423809Y44817404D01*
X131461904Y44741214D01*
X131461904Y44626928D01*
X131423809Y44550738D01*
X131385714Y44512642D01*
X131309523Y44474547D01*
X131004761Y44474547D01*
X131766666Y44131690D02*
X131880952Y44093595D01*
X132071428Y44093595D01*
X132147619Y44131690D01*
X132185714Y44169785D01*
X132223809Y44245976D01*
X132223809Y44322166D01*
X132185714Y44398357D01*
X132147619Y44436452D01*
X132071428Y44474547D01*
X131919047Y44512642D01*
X131842857Y44550738D01*
X131804761Y44588833D01*
X131766666Y44665023D01*
X131766666Y44741214D01*
X131804761Y44817404D01*
X131842857Y44855500D01*
X131919047Y44893595D01*
X132109523Y44893595D01*
X132223809Y44855500D01*
X132452380Y44893595D02*
X132909523Y44893595D01*
X132680952Y44093595D02*
X132680952Y44893595D01*
X130833333Y42353595D02*
X131100000Y41553595D01*
X131366666Y42353595D01*
X132090476Y41629785D02*
X132052380Y41591690D01*
X131938095Y41553595D01*
X131861904Y41553595D01*
X131747619Y41591690D01*
X131671428Y41667880D01*
X131633333Y41744071D01*
X131595238Y41896452D01*
X131595238Y42010738D01*
X131633333Y42163119D01*
X131671428Y42239309D01*
X131747619Y42315500D01*
X131861904Y42353595D01*
X131938095Y42353595D01*
X132052380Y42315500D01*
X132090476Y42277404D01*
X132890476Y41629785D02*
X132852380Y41591690D01*
X132738095Y41553595D01*
X132661904Y41553595D01*
X132547619Y41591690D01*
X132471428Y41667880D01*
X132433333Y41744071D01*
X132395238Y41896452D01*
X132395238Y42010738D01*
X132433333Y42163119D01*
X132471428Y42239309D01*
X132547619Y42315500D01*
X132661904Y42353595D01*
X132738095Y42353595D01*
X132852380Y42315500D01*
X132890476Y42277404D01*
X130928571Y39013595D02*
X130928571Y39813595D01*
X131233333Y39813595D01*
X131309523Y39775500D01*
X131347619Y39737404D01*
X131385714Y39661214D01*
X131385714Y39546928D01*
X131347619Y39470738D01*
X131309523Y39432642D01*
X131233333Y39394547D01*
X130928571Y39394547D01*
X131690476Y39737404D02*
X131728571Y39775500D01*
X131804761Y39813595D01*
X131995238Y39813595D01*
X132071428Y39775500D01*
X132109523Y39737404D01*
X132147619Y39661214D01*
X132147619Y39585023D01*
X132109523Y39470738D01*
X131652380Y39013595D01*
X132147619Y39013595D01*
X132909523Y39013595D02*
X132452380Y39013595D01*
X132680952Y39013595D02*
X132680952Y39813595D01*
X132604761Y39699309D01*
X132528571Y39623119D01*
X132452380Y39585023D01*
X130928571Y36473595D02*
X130928571Y37273595D01*
X131233333Y37273595D01*
X131309523Y37235500D01*
X131347619Y37197404D01*
X131385714Y37121214D01*
X131385714Y37006928D01*
X131347619Y36930738D01*
X131309523Y36892642D01*
X131233333Y36854547D01*
X130928571Y36854547D01*
X131690476Y37197404D02*
X131728571Y37235500D01*
X131804761Y37273595D01*
X131995238Y37273595D01*
X132071428Y37235500D01*
X132109523Y37197404D01*
X132147619Y37121214D01*
X132147619Y37045023D01*
X132109523Y36930738D01*
X131652380Y36473595D01*
X132147619Y36473595D01*
X132642857Y37273595D02*
X132719047Y37273595D01*
X132795238Y37235500D01*
X132833333Y37197404D01*
X132871428Y37121214D01*
X132909523Y36968833D01*
X132909523Y36778357D01*
X132871428Y36625976D01*
X132833333Y36549785D01*
X132795238Y36511690D01*
X132719047Y36473595D01*
X132642857Y36473595D01*
X132566666Y36511690D01*
X132528571Y36549785D01*
X132490476Y36625976D01*
X132452380Y36778357D01*
X132452380Y36968833D01*
X132490476Y37121214D01*
X132528571Y37197404D01*
X132566666Y37235500D01*
X132642857Y37273595D01*
X130928571Y33933595D02*
X130928571Y34733595D01*
X131233333Y34733595D01*
X131309523Y34695500D01*
X131347619Y34657404D01*
X131385714Y34581214D01*
X131385714Y34466928D01*
X131347619Y34390738D01*
X131309523Y34352642D01*
X131233333Y34314547D01*
X130928571Y34314547D01*
X132147619Y33933595D02*
X131690476Y33933595D01*
X131919047Y33933595D02*
X131919047Y34733595D01*
X131842857Y34619309D01*
X131766666Y34543119D01*
X131690476Y34505023D01*
X132528571Y33933595D02*
X132680952Y33933595D01*
X132757142Y33971690D01*
X132795238Y34009785D01*
X132871428Y34124071D01*
X132909523Y34276452D01*
X132909523Y34581214D01*
X132871428Y34657404D01*
X132833333Y34695500D01*
X132757142Y34733595D01*
X132604761Y34733595D01*
X132528571Y34695500D01*
X132490476Y34657404D01*
X132452380Y34581214D01*
X132452380Y34390738D01*
X132490476Y34314547D01*
X132528571Y34276452D01*
X132604761Y34238357D01*
X132757142Y34238357D01*
X132833333Y34276452D01*
X132871428Y34314547D01*
X132909523Y34390738D01*
X130928571Y31393595D02*
X130928571Y32193595D01*
X131233333Y32193595D01*
X131309523Y32155500D01*
X131347619Y32117404D01*
X131385714Y32041214D01*
X131385714Y31926928D01*
X131347619Y31850738D01*
X131309523Y31812642D01*
X131233333Y31774547D01*
X130928571Y31774547D01*
X132147619Y31393595D02*
X131690476Y31393595D01*
X131919047Y31393595D02*
X131919047Y32193595D01*
X131842857Y32079309D01*
X131766666Y32003119D01*
X131690476Y31965023D01*
X132604761Y31850738D02*
X132528571Y31888833D01*
X132490476Y31926928D01*
X132452380Y32003119D01*
X132452380Y32041214D01*
X132490476Y32117404D01*
X132528571Y32155500D01*
X132604761Y32193595D01*
X132757142Y32193595D01*
X132833333Y32155500D01*
X132871428Y32117404D01*
X132909523Y32041214D01*
X132909523Y32003119D01*
X132871428Y31926928D01*
X132833333Y31888833D01*
X132757142Y31850738D01*
X132604761Y31850738D01*
X132528571Y31812642D01*
X132490476Y31774547D01*
X132452380Y31698357D01*
X132452380Y31545976D01*
X132490476Y31469785D01*
X132528571Y31431690D01*
X132604761Y31393595D01*
X132757142Y31393595D01*
X132833333Y31431690D01*
X132871428Y31469785D01*
X132909523Y31545976D01*
X132909523Y31698357D01*
X132871428Y31774547D01*
X132833333Y31812642D01*
X132757142Y31850738D01*
X130928571Y28853595D02*
X130928571Y29653595D01*
X131233333Y29653595D01*
X131309523Y29615500D01*
X131347619Y29577404D01*
X131385714Y29501214D01*
X131385714Y29386928D01*
X131347619Y29310738D01*
X131309523Y29272642D01*
X131233333Y29234547D01*
X130928571Y29234547D01*
X132147619Y28853595D02*
X131690476Y28853595D01*
X131919047Y28853595D02*
X131919047Y29653595D01*
X131842857Y29539309D01*
X131766666Y29463119D01*
X131690476Y29425023D01*
X132871428Y29653595D02*
X132490476Y29653595D01*
X132452380Y29272642D01*
X132490476Y29310738D01*
X132566666Y29348833D01*
X132757142Y29348833D01*
X132833333Y29310738D01*
X132871428Y29272642D01*
X132909523Y29196452D01*
X132909523Y29005976D01*
X132871428Y28929785D01*
X132833333Y28891690D01*
X132757142Y28853595D01*
X132566666Y28853595D01*
X132490476Y28891690D01*
X132452380Y28929785D01*
X130928571Y26313595D02*
X130928571Y27113595D01*
X131233333Y27113595D01*
X131309523Y27075500D01*
X131347619Y27037404D01*
X131385714Y26961214D01*
X131385714Y26846928D01*
X131347619Y26770738D01*
X131309523Y26732642D01*
X131233333Y26694547D01*
X130928571Y26694547D01*
X132147619Y26313595D02*
X131690476Y26313595D01*
X131919047Y26313595D02*
X131919047Y27113595D01*
X131842857Y26999309D01*
X131766666Y26923119D01*
X131690476Y26885023D01*
X132833333Y26846928D02*
X132833333Y26313595D01*
X132642857Y27151690D02*
X132452380Y26580261D01*
X132947619Y26580261D01*
X130928571Y23773595D02*
X130928571Y24573595D01*
X131233333Y24573595D01*
X131309523Y24535500D01*
X131347619Y24497404D01*
X131385714Y24421214D01*
X131385714Y24306928D01*
X131347619Y24230738D01*
X131309523Y24192642D01*
X131233333Y24154547D01*
X130928571Y24154547D01*
X132147619Y23773595D02*
X131690476Y23773595D01*
X131919047Y23773595D02*
X131919047Y24573595D01*
X131842857Y24459309D01*
X131766666Y24383119D01*
X131690476Y24345023D01*
X132833333Y24573595D02*
X132680952Y24573595D01*
X132604761Y24535500D01*
X132566666Y24497404D01*
X132490476Y24383119D01*
X132452380Y24230738D01*
X132452380Y23925976D01*
X132490476Y23849785D01*
X132528571Y23811690D01*
X132604761Y23773595D01*
X132757142Y23773595D01*
X132833333Y23811690D01*
X132871428Y23849785D01*
X132909523Y23925976D01*
X132909523Y24116452D01*
X132871428Y24192642D01*
X132833333Y24230738D01*
X132757142Y24268833D01*
X132604761Y24268833D01*
X132528571Y24230738D01*
X132490476Y24192642D01*
X132452380Y24116452D01*
X130928571Y21233595D02*
X130928571Y22033595D01*
X131233333Y22033595D01*
X131309523Y21995500D01*
X131347619Y21957404D01*
X131385714Y21881214D01*
X131385714Y21766928D01*
X131347619Y21690738D01*
X131309523Y21652642D01*
X131233333Y21614547D01*
X130928571Y21614547D01*
X132147619Y21233595D02*
X131690476Y21233595D01*
X131919047Y21233595D02*
X131919047Y22033595D01*
X131842857Y21919309D01*
X131766666Y21843119D01*
X131690476Y21805023D01*
X132642857Y22033595D02*
X132719047Y22033595D01*
X132795238Y21995500D01*
X132833333Y21957404D01*
X132871428Y21881214D01*
X132909523Y21728833D01*
X132909523Y21538357D01*
X132871428Y21385976D01*
X132833333Y21309785D01*
X132795238Y21271690D01*
X132719047Y21233595D01*
X132642857Y21233595D01*
X132566666Y21271690D01*
X132528571Y21309785D01*
X132490476Y21385976D01*
X132452380Y21538357D01*
X132452380Y21728833D01*
X132490476Y21881214D01*
X132528571Y21957404D01*
X132566666Y21995500D01*
X132642857Y22033595D01*
X140528571Y49173595D02*
X140528571Y49973595D01*
X140833333Y49973595D01*
X140909523Y49935500D01*
X140947619Y49897404D01*
X140985714Y49821214D01*
X140985714Y49706928D01*
X140947619Y49630738D01*
X140909523Y49592642D01*
X140833333Y49554547D01*
X140528571Y49554547D01*
X141480952Y49973595D02*
X141557142Y49973595D01*
X141633333Y49935500D01*
X141671428Y49897404D01*
X141709523Y49821214D01*
X141747619Y49668833D01*
X141747619Y49478357D01*
X141709523Y49325976D01*
X141671428Y49249785D01*
X141633333Y49211690D01*
X141557142Y49173595D01*
X141480952Y49173595D01*
X141404761Y49211690D01*
X141366666Y49249785D01*
X141328571Y49325976D01*
X141290476Y49478357D01*
X141290476Y49668833D01*
X141328571Y49821214D01*
X141366666Y49897404D01*
X141404761Y49935500D01*
X141480952Y49973595D01*
X142509523Y49173595D02*
X142052380Y49173595D01*
X142280952Y49173595D02*
X142280952Y49973595D01*
X142204761Y49859309D01*
X142128571Y49783119D01*
X142052380Y49745023D01*
X140528571Y46633595D02*
X140528571Y47433595D01*
X140833333Y47433595D01*
X140909523Y47395500D01*
X140947619Y47357404D01*
X140985714Y47281214D01*
X140985714Y47166928D01*
X140947619Y47090738D01*
X140909523Y47052642D01*
X140833333Y47014547D01*
X140528571Y47014547D01*
X141480952Y47433595D02*
X141557142Y47433595D01*
X141633333Y47395500D01*
X141671428Y47357404D01*
X141709523Y47281214D01*
X141747619Y47128833D01*
X141747619Y46938357D01*
X141709523Y46785976D01*
X141671428Y46709785D01*
X141633333Y46671690D01*
X141557142Y46633595D01*
X141480952Y46633595D01*
X141404761Y46671690D01*
X141366666Y46709785D01*
X141328571Y46785976D01*
X141290476Y46938357D01*
X141290476Y47128833D01*
X141328571Y47281214D01*
X141366666Y47357404D01*
X141404761Y47395500D01*
X141480952Y47433595D01*
X142242857Y47433595D02*
X142319047Y47433595D01*
X142395238Y47395500D01*
X142433333Y47357404D01*
X142471428Y47281214D01*
X142509523Y47128833D01*
X142509523Y46938357D01*
X142471428Y46785976D01*
X142433333Y46709785D01*
X142395238Y46671690D01*
X142319047Y46633595D01*
X142242857Y46633595D01*
X142166666Y46671690D01*
X142128571Y46709785D01*
X142090476Y46785976D01*
X142052380Y46938357D01*
X142052380Y47128833D01*
X142090476Y47281214D01*
X142128571Y47357404D01*
X142166666Y47395500D01*
X142242857Y47433595D01*
X140890476Y44855500D02*
X140814285Y44893595D01*
X140700000Y44893595D01*
X140585714Y44855500D01*
X140509523Y44779309D01*
X140471428Y44703119D01*
X140433333Y44550738D01*
X140433333Y44436452D01*
X140471428Y44284071D01*
X140509523Y44207880D01*
X140585714Y44131690D01*
X140700000Y44093595D01*
X140776190Y44093595D01*
X140890476Y44131690D01*
X140928571Y44169785D01*
X140928571Y44436452D01*
X140776190Y44436452D01*
X141271428Y44093595D02*
X141271428Y44893595D01*
X141728571Y44093595D01*
X141728571Y44893595D01*
X142109523Y44093595D02*
X142109523Y44893595D01*
X142300000Y44893595D01*
X142414285Y44855500D01*
X142490476Y44779309D01*
X142528571Y44703119D01*
X142566666Y44550738D01*
X142566666Y44436452D01*
X142528571Y44284071D01*
X142490476Y44207880D01*
X142414285Y44131690D01*
X142300000Y44093595D01*
X142109523Y44093595D01*
X140890476Y42315500D02*
X140814285Y42353595D01*
X140700000Y42353595D01*
X140585714Y42315500D01*
X140509523Y42239309D01*
X140471428Y42163119D01*
X140433333Y42010738D01*
X140433333Y41896452D01*
X140471428Y41744071D01*
X140509523Y41667880D01*
X140585714Y41591690D01*
X140700000Y41553595D01*
X140776190Y41553595D01*
X140890476Y41591690D01*
X140928571Y41629785D01*
X140928571Y41896452D01*
X140776190Y41896452D01*
X141271428Y41553595D02*
X141271428Y42353595D01*
X141728571Y41553595D01*
X141728571Y42353595D01*
X142109523Y41553595D02*
X142109523Y42353595D01*
X142300000Y42353595D01*
X142414285Y42315500D01*
X142490476Y42239309D01*
X142528571Y42163119D01*
X142566666Y42010738D01*
X142566666Y41896452D01*
X142528571Y41744071D01*
X142490476Y41667880D01*
X142414285Y41591690D01*
X142300000Y41553595D01*
X142109523Y41553595D01*
X140528571Y39013595D02*
X140528571Y39813595D01*
X140833333Y39813595D01*
X140909523Y39775500D01*
X140947619Y39737404D01*
X140985714Y39661214D01*
X140985714Y39546928D01*
X140947619Y39470738D01*
X140909523Y39432642D01*
X140833333Y39394547D01*
X140528571Y39394547D01*
X141480952Y39813595D02*
X141557142Y39813595D01*
X141633333Y39775500D01*
X141671428Y39737404D01*
X141709523Y39661214D01*
X141747619Y39508833D01*
X141747619Y39318357D01*
X141709523Y39165976D01*
X141671428Y39089785D01*
X141633333Y39051690D01*
X141557142Y39013595D01*
X141480952Y39013595D01*
X141404761Y39051690D01*
X141366666Y39089785D01*
X141328571Y39165976D01*
X141290476Y39318357D01*
X141290476Y39508833D01*
X141328571Y39661214D01*
X141366666Y39737404D01*
X141404761Y39775500D01*
X141480952Y39813595D01*
X142052380Y39737404D02*
X142090476Y39775500D01*
X142166666Y39813595D01*
X142357142Y39813595D01*
X142433333Y39775500D01*
X142471428Y39737404D01*
X142509523Y39661214D01*
X142509523Y39585023D01*
X142471428Y39470738D01*
X142014285Y39013595D01*
X142509523Y39013595D01*
X140528571Y36473595D02*
X140528571Y37273595D01*
X140833333Y37273595D01*
X140909523Y37235500D01*
X140947619Y37197404D01*
X140985714Y37121214D01*
X140985714Y37006928D01*
X140947619Y36930738D01*
X140909523Y36892642D01*
X140833333Y36854547D01*
X140528571Y36854547D01*
X141480952Y37273595D02*
X141557142Y37273595D01*
X141633333Y37235500D01*
X141671428Y37197404D01*
X141709523Y37121214D01*
X141747619Y36968833D01*
X141747619Y36778357D01*
X141709523Y36625976D01*
X141671428Y36549785D01*
X141633333Y36511690D01*
X141557142Y36473595D01*
X141480952Y36473595D01*
X141404761Y36511690D01*
X141366666Y36549785D01*
X141328571Y36625976D01*
X141290476Y36778357D01*
X141290476Y36968833D01*
X141328571Y37121214D01*
X141366666Y37197404D01*
X141404761Y37235500D01*
X141480952Y37273595D01*
X142014285Y37273595D02*
X142509523Y37273595D01*
X142242857Y36968833D01*
X142357142Y36968833D01*
X142433333Y36930738D01*
X142471428Y36892642D01*
X142509523Y36816452D01*
X142509523Y36625976D01*
X142471428Y36549785D01*
X142433333Y36511690D01*
X142357142Y36473595D01*
X142128571Y36473595D01*
X142052380Y36511690D01*
X142014285Y36549785D01*
X140528571Y33933595D02*
X140528571Y34733595D01*
X140833333Y34733595D01*
X140909523Y34695500D01*
X140947619Y34657404D01*
X140985714Y34581214D01*
X140985714Y34466928D01*
X140947619Y34390738D01*
X140909523Y34352642D01*
X140833333Y34314547D01*
X140528571Y34314547D01*
X141480952Y34733595D02*
X141557142Y34733595D01*
X141633333Y34695500D01*
X141671428Y34657404D01*
X141709523Y34581214D01*
X141747619Y34428833D01*
X141747619Y34238357D01*
X141709523Y34085976D01*
X141671428Y34009785D01*
X141633333Y33971690D01*
X141557142Y33933595D01*
X141480952Y33933595D01*
X141404761Y33971690D01*
X141366666Y34009785D01*
X141328571Y34085976D01*
X141290476Y34238357D01*
X141290476Y34428833D01*
X141328571Y34581214D01*
X141366666Y34657404D01*
X141404761Y34695500D01*
X141480952Y34733595D01*
X142433333Y34466928D02*
X142433333Y33933595D01*
X142242857Y34771690D02*
X142052380Y34200261D01*
X142547619Y34200261D01*
X140528571Y31393595D02*
X140528571Y32193595D01*
X140833333Y32193595D01*
X140909523Y32155500D01*
X140947619Y32117404D01*
X140985714Y32041214D01*
X140985714Y31926928D01*
X140947619Y31850738D01*
X140909523Y31812642D01*
X140833333Y31774547D01*
X140528571Y31774547D01*
X141480952Y32193595D02*
X141557142Y32193595D01*
X141633333Y32155500D01*
X141671428Y32117404D01*
X141709523Y32041214D01*
X141747619Y31888833D01*
X141747619Y31698357D01*
X141709523Y31545976D01*
X141671428Y31469785D01*
X141633333Y31431690D01*
X141557142Y31393595D01*
X141480952Y31393595D01*
X141404761Y31431690D01*
X141366666Y31469785D01*
X141328571Y31545976D01*
X141290476Y31698357D01*
X141290476Y31888833D01*
X141328571Y32041214D01*
X141366666Y32117404D01*
X141404761Y32155500D01*
X141480952Y32193595D01*
X142471428Y32193595D02*
X142090476Y32193595D01*
X142052380Y31812642D01*
X142090476Y31850738D01*
X142166666Y31888833D01*
X142357142Y31888833D01*
X142433333Y31850738D01*
X142471428Y31812642D01*
X142509523Y31736452D01*
X142509523Y31545976D01*
X142471428Y31469785D01*
X142433333Y31431690D01*
X142357142Y31393595D01*
X142166666Y31393595D01*
X142090476Y31431690D01*
X142052380Y31469785D01*
X140528571Y28853595D02*
X140528571Y29653595D01*
X140833333Y29653595D01*
X140909523Y29615500D01*
X140947619Y29577404D01*
X140985714Y29501214D01*
X140985714Y29386928D01*
X140947619Y29310738D01*
X140909523Y29272642D01*
X140833333Y29234547D01*
X140528571Y29234547D01*
X141480952Y29653595D02*
X141557142Y29653595D01*
X141633333Y29615500D01*
X141671428Y29577404D01*
X141709523Y29501214D01*
X141747619Y29348833D01*
X141747619Y29158357D01*
X141709523Y29005976D01*
X141671428Y28929785D01*
X141633333Y28891690D01*
X141557142Y28853595D01*
X141480952Y28853595D01*
X141404761Y28891690D01*
X141366666Y28929785D01*
X141328571Y29005976D01*
X141290476Y29158357D01*
X141290476Y29348833D01*
X141328571Y29501214D01*
X141366666Y29577404D01*
X141404761Y29615500D01*
X141480952Y29653595D01*
X142433333Y29653595D02*
X142280952Y29653595D01*
X142204761Y29615500D01*
X142166666Y29577404D01*
X142090476Y29463119D01*
X142052380Y29310738D01*
X142052380Y29005976D01*
X142090476Y28929785D01*
X142128571Y28891690D01*
X142204761Y28853595D01*
X142357142Y28853595D01*
X142433333Y28891690D01*
X142471428Y28929785D01*
X142509523Y29005976D01*
X142509523Y29196452D01*
X142471428Y29272642D01*
X142433333Y29310738D01*
X142357142Y29348833D01*
X142204761Y29348833D01*
X142128571Y29310738D01*
X142090476Y29272642D01*
X142052380Y29196452D01*
X140528571Y26313595D02*
X140528571Y27113595D01*
X140833333Y27113595D01*
X140909523Y27075500D01*
X140947619Y27037404D01*
X140985714Y26961214D01*
X140985714Y26846928D01*
X140947619Y26770738D01*
X140909523Y26732642D01*
X140833333Y26694547D01*
X140528571Y26694547D01*
X141480952Y27113595D02*
X141557142Y27113595D01*
X141633333Y27075500D01*
X141671428Y27037404D01*
X141709523Y26961214D01*
X141747619Y26808833D01*
X141747619Y26618357D01*
X141709523Y26465976D01*
X141671428Y26389785D01*
X141633333Y26351690D01*
X141557142Y26313595D01*
X141480952Y26313595D01*
X141404761Y26351690D01*
X141366666Y26389785D01*
X141328571Y26465976D01*
X141290476Y26618357D01*
X141290476Y26808833D01*
X141328571Y26961214D01*
X141366666Y27037404D01*
X141404761Y27075500D01*
X141480952Y27113595D01*
X142014285Y27113595D02*
X142547619Y27113595D01*
X142204761Y26313595D01*
X140528571Y23773595D02*
X140528571Y24573595D01*
X140833333Y24573595D01*
X140909523Y24535500D01*
X140947619Y24497404D01*
X140985714Y24421214D01*
X140985714Y24306928D01*
X140947619Y24230738D01*
X140909523Y24192642D01*
X140833333Y24154547D01*
X140528571Y24154547D01*
X141480952Y24573595D02*
X141557142Y24573595D01*
X141633333Y24535500D01*
X141671428Y24497404D01*
X141709523Y24421214D01*
X141747619Y24268833D01*
X141747619Y24078357D01*
X141709523Y23925976D01*
X141671428Y23849785D01*
X141633333Y23811690D01*
X141557142Y23773595D01*
X141480952Y23773595D01*
X141404761Y23811690D01*
X141366666Y23849785D01*
X141328571Y23925976D01*
X141290476Y24078357D01*
X141290476Y24268833D01*
X141328571Y24421214D01*
X141366666Y24497404D01*
X141404761Y24535500D01*
X141480952Y24573595D01*
X142204761Y24230738D02*
X142128571Y24268833D01*
X142090476Y24306928D01*
X142052380Y24383119D01*
X142052380Y24421214D01*
X142090476Y24497404D01*
X142128571Y24535500D01*
X142204761Y24573595D01*
X142357142Y24573595D01*
X142433333Y24535500D01*
X142471428Y24497404D01*
X142509523Y24421214D01*
X142509523Y24383119D01*
X142471428Y24306928D01*
X142433333Y24268833D01*
X142357142Y24230738D01*
X142204761Y24230738D01*
X142128571Y24192642D01*
X142090476Y24154547D01*
X142052380Y24078357D01*
X142052380Y23925976D01*
X142090476Y23849785D01*
X142128571Y23811690D01*
X142204761Y23773595D01*
X142357142Y23773595D01*
X142433333Y23811690D01*
X142471428Y23849785D01*
X142509523Y23925976D01*
X142509523Y24078357D01*
X142471428Y24154547D01*
X142433333Y24192642D01*
X142357142Y24230738D01*
X140528571Y21233595D02*
X140528571Y22033595D01*
X140833333Y22033595D01*
X140909523Y21995500D01*
X140947619Y21957404D01*
X140985714Y21881214D01*
X140985714Y21766928D01*
X140947619Y21690738D01*
X140909523Y21652642D01*
X140833333Y21614547D01*
X140528571Y21614547D01*
X141480952Y22033595D02*
X141557142Y22033595D01*
X141633333Y21995500D01*
X141671428Y21957404D01*
X141709523Y21881214D01*
X141747619Y21728833D01*
X141747619Y21538357D01*
X141709523Y21385976D01*
X141671428Y21309785D01*
X141633333Y21271690D01*
X141557142Y21233595D01*
X141480952Y21233595D01*
X141404761Y21271690D01*
X141366666Y21309785D01*
X141328571Y21385976D01*
X141290476Y21538357D01*
X141290476Y21728833D01*
X141328571Y21881214D01*
X141366666Y21957404D01*
X141404761Y21995500D01*
X141480952Y22033595D01*
X142128571Y21233595D02*
X142280952Y21233595D01*
X142357142Y21271690D01*
X142395238Y21309785D01*
X142471428Y21424071D01*
X142509523Y21576452D01*
X142509523Y21881214D01*
X142471428Y21957404D01*
X142433333Y21995500D01*
X142357142Y22033595D01*
X142204761Y22033595D01*
X142128571Y21995500D01*
X142090476Y21957404D01*
X142052380Y21881214D01*
X142052380Y21690738D01*
X142090476Y21614547D01*
X142128571Y21576452D01*
X142204761Y21538357D01*
X142357142Y21538357D01*
X142433333Y21576452D01*
X142471428Y21614547D01*
X142509523Y21690738D01*
G04 #@! TO.C,B1*
X127652380Y9613119D02*
X127176190Y9279785D01*
X127652380Y9041690D02*
X126652380Y9041690D01*
X126652380Y9422642D01*
X126700000Y9517880D01*
X126747619Y9565500D01*
X126842857Y9613119D01*
X126985714Y9613119D01*
X127080952Y9565500D01*
X127128571Y9517880D01*
X127176190Y9422642D01*
X127176190Y9041690D01*
X127128571Y10041690D02*
X127128571Y10375023D01*
X127652380Y10517880D02*
X127652380Y10041690D01*
X126652380Y10041690D01*
X126652380Y10517880D01*
X127604761Y10898833D02*
X127652380Y11041690D01*
X127652380Y11279785D01*
X127604761Y11375023D01*
X127557142Y11422642D01*
X127461904Y11470261D01*
X127366666Y11470261D01*
X127271428Y11422642D01*
X127223809Y11375023D01*
X127176190Y11279785D01*
X127128571Y11089309D01*
X127080952Y10994071D01*
X127033333Y10946452D01*
X126938095Y10898833D01*
X126842857Y10898833D01*
X126747619Y10946452D01*
X126700000Y10994071D01*
X126652380Y11089309D01*
X126652380Y11327404D01*
X126700000Y11470261D01*
X127128571Y11898833D02*
X127128571Y12232166D01*
X127652380Y12375023D02*
X127652380Y11898833D01*
X126652380Y11898833D01*
X126652380Y12375023D01*
X126652380Y12660738D02*
X126652380Y13232166D01*
X127652380Y12946452D02*
X126652380Y12946452D01*
G04 #@! TD*
M02*
