%TF.GenerationSoftware,KiCad,Pcbnew,(6.0.8)*%
%TF.CreationDate,2022-10-22T23:06:45+01:00*%
%TF.ProjectId,board,626f6172-642e-46b6-9963-61645f706362,v1.0.0*%
%TF.SameCoordinates,Original*%
%TF.FileFunction,Drillmap*%
%TF.FilePolarity,Positive*%
%FSLAX45Y45*%
G04 Gerber Fmt 4.5, Leading zero omitted, Abs format (unit mm)*
G04 Created by KiCad (PCBNEW (6.0.8)) date 2022-10-22 23:06:45*
%MOMM*%
%LPD*%
G01*
G04 APERTURE LIST*
%ADD10C,0.150000*%
%ADD11C,0.200000*%
%ADD12C,0.120000*%
%ADD13C,0.170180*%
%ADD14C,0.300000*%
%ADD15C,0.398780*%
G04 APERTURE END LIST*
D10*
X952500Y-1052500D02*
X4662500Y-1052500D01*
X852500Y-952500D02*
X852500Y4762500D01*
X852500Y-952500D02*
G75*
G03*
X952500Y-1052500I100000J0D01*
G01*
X952500Y4862500D02*
X4662500Y4862500D01*
X952500Y4862500D02*
G75*
G03*
X852500Y4762500I0J-100000D01*
G01*
X6562500Y6119800D02*
X4762500Y6119800D01*
X4762500Y6119800D02*
G75*
G03*
X4662500Y6019800I0J-100000D01*
G01*
X4662500Y6019800D02*
X4662500Y4862500D01*
X8667500Y6119800D02*
X8667500Y6496050D01*
X8667500Y6496050D02*
G75*
G03*
X8567500Y6596050I-100000J0D01*
G01*
X8567500Y6596050D02*
X6662500Y6596050D01*
X6662500Y6596050D02*
G75*
G03*
X6562500Y6496050I0J-100000D01*
G01*
X6562500Y6496050D02*
X6562500Y6119800D01*
X10567500Y5834050D02*
X10567500Y6019800D01*
X10567500Y6019800D02*
G75*
G03*
X10467500Y6119800I-100000J0D01*
G01*
X10467500Y6119800D02*
X8667500Y6119800D01*
X12472500Y5619050D02*
X12472500Y5734050D01*
X12472500Y5734050D02*
G75*
G03*
X12372500Y5834050I-100000J0D01*
G01*
X12372500Y5834050D02*
X10567500Y5834050D01*
X6557500Y-3790950D02*
X6557500Y-1896838D01*
X6657500Y-3890950D02*
X14420000Y-3890950D01*
X6557500Y-3790950D02*
G75*
G03*
X6657500Y-3890950I100000J0D01*
G01*
X6557500Y-1896838D02*
X4662500Y-1052500D01*
X14420000Y-3890950D02*
G75*
G03*
X14620000Y-3690950I0J200000D01*
G01*
X14620000Y-3690950D02*
X14620000Y5419050D01*
X14620000Y5419050D02*
G75*
G03*
X14420000Y5619050I-200000J0D01*
G01*
X14420000Y5619050D02*
X12472500Y5619050D01*
X3062500Y2857500D02*
G75*
G03*
X3062500Y2857500I-205000J0D01*
G01*
X3062500Y952500D02*
G75*
G03*
X3062500Y952500I-205000J0D01*
G01*
X10672500Y4114800D02*
G75*
G03*
X10672500Y4114800I-205000J0D01*
G01*
X10672500Y2209800D02*
G75*
G03*
X10672500Y2209800I-205000J0D01*
G01*
X12577500Y-1885950D02*
G75*
G03*
X12577500Y-1885950I-205000J0D01*
G01*
X8767500Y-1885950D02*
G75*
G03*
X8767500Y-1885950I-205000J0D01*
G01*
D11*
D12*
X13700000Y1261550D02*
X13820000Y1141550D01*
X13820000Y1261550D02*
X13700000Y1141550D01*
X13700000Y1061550D02*
X13820000Y941550D01*
X13820000Y1061550D02*
X13700000Y941550D01*
X14400000Y1261550D02*
X14520000Y1141550D01*
X14520000Y1261550D02*
X14400000Y1141550D01*
X14400000Y1061550D02*
X14520000Y941550D01*
X14520000Y1061550D02*
X14400000Y941550D01*
D13*
X1482090Y3810000D02*
G75*
G03*
X1482090Y3810000I-85090J0D01*
G01*
X1482090Y1905000D02*
G75*
G03*
X1482090Y1905000I-85090J0D01*
G01*
X1482090Y0D02*
G75*
G03*
X1482090Y0I-85090J0D01*
G01*
X2498090Y3810000D02*
G75*
G03*
X2498090Y3810000I-85090J0D01*
G01*
X2498090Y1905000D02*
G75*
G03*
X2498090Y1905000I-85090J0D01*
G01*
X2498090Y0D02*
G75*
G03*
X2498090Y0I-85090J0D01*
G01*
X3387090Y3810000D02*
G75*
G03*
X3387090Y3810000I-85090J0D01*
G01*
X3387090Y1905000D02*
G75*
G03*
X3387090Y1905000I-85090J0D01*
G01*
X3387090Y0D02*
G75*
G03*
X3387090Y0I-85090J0D01*
G01*
X4403090Y3810000D02*
G75*
G03*
X4403090Y3810000I-85090J0D01*
G01*
X4403090Y1905000D02*
G75*
G03*
X4403090Y1905000I-85090J0D01*
G01*
X4403090Y0D02*
G75*
G03*
X4403090Y0I-85090J0D01*
G01*
X5292090Y5067300D02*
G75*
G03*
X5292090Y5067300I-85090J0D01*
G01*
X5292090Y3162300D02*
G75*
G03*
X5292090Y3162300I-85090J0D01*
G01*
X5292090Y1257300D02*
G75*
G03*
X5292090Y1257300I-85090J0D01*
G01*
X6308090Y5067300D02*
G75*
G03*
X6308090Y5067300I-85090J0D01*
G01*
X6308090Y3162300D02*
G75*
G03*
X6308090Y3162300I-85090J0D01*
G01*
X6308090Y1257300D02*
G75*
G03*
X6308090Y1257300I-85090J0D01*
G01*
X7187090Y-933450D02*
G75*
G03*
X7187090Y-933450I-85090J0D01*
G01*
X7187090Y-2838450D02*
G75*
G03*
X7187090Y-2838450I-85090J0D01*
G01*
X7192090Y5543550D02*
G75*
G03*
X7192090Y5543550I-85090J0D01*
G01*
X7192090Y3638550D02*
G75*
G03*
X7192090Y3638550I-85090J0D01*
G01*
X7192090Y1733550D02*
G75*
G03*
X7192090Y1733550I-85090J0D01*
G01*
X8203090Y-933450D02*
G75*
G03*
X8203090Y-933450I-85090J0D01*
G01*
X8203090Y-2838450D02*
G75*
G03*
X8203090Y-2838450I-85090J0D01*
G01*
X8208090Y5543550D02*
G75*
G03*
X8208090Y5543550I-85090J0D01*
G01*
X8208090Y3638550D02*
G75*
G03*
X8208090Y3638550I-85090J0D01*
G01*
X8208090Y1733550D02*
G75*
G03*
X8208090Y1733550I-85090J0D01*
G01*
X9092090Y5067300D02*
G75*
G03*
X9092090Y5067300I-85090J0D01*
G01*
X9092090Y3162300D02*
G75*
G03*
X9092090Y3162300I-85090J0D01*
G01*
X9092090Y1257300D02*
G75*
G03*
X9092090Y1257300I-85090J0D01*
G01*
X9092090Y-933450D02*
G75*
G03*
X9092090Y-933450I-85090J0D01*
G01*
X9092090Y-2838450D02*
G75*
G03*
X9092090Y-2838450I-85090J0D01*
G01*
X10108090Y5067300D02*
G75*
G03*
X10108090Y5067300I-85090J0D01*
G01*
X10108090Y3162300D02*
G75*
G03*
X10108090Y3162300I-85090J0D01*
G01*
X10108090Y1257300D02*
G75*
G03*
X10108090Y1257300I-85090J0D01*
G01*
X10108090Y-933450D02*
G75*
G03*
X10108090Y-933450I-85090J0D01*
G01*
X10108090Y-2838450D02*
G75*
G03*
X10108090Y-2838450I-85090J0D01*
G01*
X10997090Y4781550D02*
G75*
G03*
X10997090Y4781550I-85090J0D01*
G01*
X10997090Y2876550D02*
G75*
G03*
X10997090Y2876550I-85090J0D01*
G01*
X10997090Y971550D02*
G75*
G03*
X10997090Y971550I-85090J0D01*
G01*
X10997090Y-933450D02*
G75*
G03*
X10997090Y-933450I-85090J0D01*
G01*
X10997090Y-2838450D02*
G75*
G03*
X10997090Y-2838450I-85090J0D01*
G01*
X12013090Y4781550D02*
G75*
G03*
X12013090Y4781550I-85090J0D01*
G01*
X12013090Y2876550D02*
G75*
G03*
X12013090Y2876550I-85090J0D01*
G01*
X12013090Y971550D02*
G75*
G03*
X12013090Y971550I-85090J0D01*
G01*
X12013090Y-933450D02*
G75*
G03*
X12013090Y-933450I-85090J0D01*
G01*
X12013090Y-2838450D02*
G75*
G03*
X12013090Y-2838450I-85090J0D01*
G01*
X12902090Y-933450D02*
G75*
G03*
X12902090Y-933450I-85090J0D01*
G01*
X12902090Y-2838450D02*
G75*
G03*
X12902090Y-2838450I-85090J0D01*
G01*
X13918090Y-933450D02*
G75*
G03*
X13918090Y-933450I-85090J0D01*
G01*
X13918090Y-2838450D02*
G75*
G03*
X13918090Y-2838450I-85090J0D01*
G01*
D14*
X1524000Y4214000D02*
X1524000Y3914000D01*
X1374000Y4064000D02*
X1674000Y4064000D01*
X1524000Y2309000D02*
X1524000Y2009000D01*
X1374000Y2159000D02*
X1674000Y2159000D01*
X1524000Y404000D02*
X1524000Y104000D01*
X1374000Y254000D02*
X1674000Y254000D01*
X1651000Y4468000D02*
X1651000Y4168000D01*
X1501000Y4318000D02*
X1801000Y4318000D01*
X1651000Y2563000D02*
X1651000Y2263000D01*
X1501000Y2413000D02*
X1801000Y2413000D01*
X1651000Y658000D02*
X1651000Y358000D01*
X1501000Y508000D02*
X1801000Y508000D01*
X2159000Y4468000D02*
X2159000Y4168000D01*
X2009000Y4318000D02*
X2309000Y4318000D01*
X2159000Y2563000D02*
X2159000Y2263000D01*
X2009000Y2413000D02*
X2309000Y2413000D01*
X2159000Y658000D02*
X2159000Y358000D01*
X2009000Y508000D02*
X2309000Y508000D01*
X2286000Y4214000D02*
X2286000Y3914000D01*
X2136000Y4064000D02*
X2436000Y4064000D01*
X2286000Y2309000D02*
X2286000Y2009000D01*
X2136000Y2159000D02*
X2436000Y2159000D01*
X2286000Y404000D02*
X2286000Y104000D01*
X2136000Y254000D02*
X2436000Y254000D01*
X3429000Y4214000D02*
X3429000Y3914000D01*
X3279000Y4064000D02*
X3579000Y4064000D01*
X3429000Y2309000D02*
X3429000Y2009000D01*
X3279000Y2159000D02*
X3579000Y2159000D01*
X3429000Y404000D02*
X3429000Y104000D01*
X3279000Y254000D02*
X3579000Y254000D01*
X3556000Y4468000D02*
X3556000Y4168000D01*
X3406000Y4318000D02*
X3706000Y4318000D01*
X3556000Y2563000D02*
X3556000Y2263000D01*
X3406000Y2413000D02*
X3706000Y2413000D01*
X3556000Y658000D02*
X3556000Y358000D01*
X3406000Y508000D02*
X3706000Y508000D01*
X4064000Y4468000D02*
X4064000Y4168000D01*
X3914000Y4318000D02*
X4214000Y4318000D01*
X4064000Y2563000D02*
X4064000Y2263000D01*
X3914000Y2413000D02*
X4214000Y2413000D01*
X4064000Y658000D02*
X4064000Y358000D01*
X3914000Y508000D02*
X4214000Y508000D01*
X4191000Y4214000D02*
X4191000Y3914000D01*
X4041000Y4064000D02*
X4341000Y4064000D01*
X4191000Y2309000D02*
X4191000Y2009000D01*
X4041000Y2159000D02*
X4341000Y2159000D01*
X4191000Y404000D02*
X4191000Y104000D01*
X4041000Y254000D02*
X4341000Y254000D01*
X5334000Y5471300D02*
X5334000Y5171300D01*
X5184000Y5321300D02*
X5484000Y5321300D01*
X5334000Y3566300D02*
X5334000Y3266300D01*
X5184000Y3416300D02*
X5484000Y3416300D01*
X5334000Y1661300D02*
X5334000Y1361300D01*
X5184000Y1511300D02*
X5484000Y1511300D01*
X5461000Y5725300D02*
X5461000Y5425300D01*
X5311000Y5575300D02*
X5611000Y5575300D01*
X5461000Y3820300D02*
X5461000Y3520300D01*
X5311000Y3670300D02*
X5611000Y3670300D01*
X5461000Y1915300D02*
X5461000Y1615300D01*
X5311000Y1765300D02*
X5611000Y1765300D01*
X5969000Y5725300D02*
X5969000Y5425300D01*
X5819000Y5575300D02*
X6119000Y5575300D01*
X5969000Y3820300D02*
X5969000Y3520300D01*
X5819000Y3670300D02*
X6119000Y3670300D01*
X5969000Y1915300D02*
X5969000Y1615300D01*
X5819000Y1765300D02*
X6119000Y1765300D01*
X6096000Y5471300D02*
X6096000Y5171300D01*
X5946000Y5321300D02*
X6246000Y5321300D01*
X6096000Y3566300D02*
X6096000Y3266300D01*
X5946000Y3416300D02*
X6246000Y3416300D01*
X6096000Y1661300D02*
X6096000Y1361300D01*
X5946000Y1511300D02*
X6246000Y1511300D01*
X7229000Y-529450D02*
X7229000Y-829450D01*
X7079000Y-679450D02*
X7379000Y-679450D01*
X7229000Y-2434450D02*
X7229000Y-2734450D01*
X7079000Y-2584450D02*
X7379000Y-2584450D01*
X7234000Y5947550D02*
X7234000Y5647550D01*
X7084000Y5797550D02*
X7384000Y5797550D01*
X7234000Y4042550D02*
X7234000Y3742550D01*
X7084000Y3892550D02*
X7384000Y3892550D01*
X7234000Y2137550D02*
X7234000Y1837550D01*
X7084000Y1987550D02*
X7384000Y1987550D01*
X7356000Y-275450D02*
X7356000Y-575450D01*
X7206000Y-425450D02*
X7506000Y-425450D01*
X7356000Y-2180450D02*
X7356000Y-2480450D01*
X7206000Y-2330450D02*
X7506000Y-2330450D01*
X7361000Y6201550D02*
X7361000Y5901550D01*
X7211000Y6051550D02*
X7511000Y6051550D01*
X7361000Y4296550D02*
X7361000Y3996550D01*
X7211000Y4146550D02*
X7511000Y4146550D01*
X7361000Y2391550D02*
X7361000Y2091550D01*
X7211000Y2241550D02*
X7511000Y2241550D01*
X7864000Y-275450D02*
X7864000Y-575450D01*
X7714000Y-425450D02*
X8014000Y-425450D01*
X7864000Y-2180450D02*
X7864000Y-2480450D01*
X7714000Y-2330450D02*
X8014000Y-2330450D01*
X7869000Y6201550D02*
X7869000Y5901550D01*
X7719000Y6051550D02*
X8019000Y6051550D01*
X7869000Y4296550D02*
X7869000Y3996550D01*
X7719000Y4146550D02*
X8019000Y4146550D01*
X7869000Y2391550D02*
X7869000Y2091550D01*
X7719000Y2241550D02*
X8019000Y2241550D01*
X7991000Y-529450D02*
X7991000Y-829450D01*
X7841000Y-679450D02*
X8141000Y-679450D01*
X7991000Y-2434450D02*
X7991000Y-2734450D01*
X7841000Y-2584450D02*
X8141000Y-2584450D01*
X7996000Y5947550D02*
X7996000Y5647550D01*
X7846000Y5797550D02*
X8146000Y5797550D01*
X7996000Y4042550D02*
X7996000Y3742550D01*
X7846000Y3892550D02*
X8146000Y3892550D01*
X7996000Y2137550D02*
X7996000Y1837550D01*
X7846000Y1987550D02*
X8146000Y1987550D01*
X9134000Y5471300D02*
X9134000Y5171300D01*
X8984000Y5321300D02*
X9284000Y5321300D01*
X9134000Y3566300D02*
X9134000Y3266300D01*
X8984000Y3416300D02*
X9284000Y3416300D01*
X9134000Y1661300D02*
X9134000Y1361300D01*
X8984000Y1511300D02*
X9284000Y1511300D01*
X9134000Y-529450D02*
X9134000Y-829450D01*
X8984000Y-679450D02*
X9284000Y-679450D01*
X9134000Y-2434450D02*
X9134000Y-2734450D01*
X8984000Y-2584450D02*
X9284000Y-2584450D01*
X9261000Y5725300D02*
X9261000Y5425300D01*
X9111000Y5575300D02*
X9411000Y5575300D01*
X9261000Y3820300D02*
X9261000Y3520300D01*
X9111000Y3670300D02*
X9411000Y3670300D01*
X9261000Y1915300D02*
X9261000Y1615300D01*
X9111000Y1765300D02*
X9411000Y1765300D01*
X9261000Y-275450D02*
X9261000Y-575450D01*
X9111000Y-425450D02*
X9411000Y-425450D01*
X9261000Y-2180450D02*
X9261000Y-2480450D01*
X9111000Y-2330450D02*
X9411000Y-2330450D01*
X9769000Y5725300D02*
X9769000Y5425300D01*
X9619000Y5575300D02*
X9919000Y5575300D01*
X9769000Y3820300D02*
X9769000Y3520300D01*
X9619000Y3670300D02*
X9919000Y3670300D01*
X9769000Y1915300D02*
X9769000Y1615300D01*
X9619000Y1765300D02*
X9919000Y1765300D01*
X9769000Y-275450D02*
X9769000Y-575450D01*
X9619000Y-425450D02*
X9919000Y-425450D01*
X9769000Y-2180450D02*
X9769000Y-2480450D01*
X9619000Y-2330450D02*
X9919000Y-2330450D01*
X9896000Y5471300D02*
X9896000Y5171300D01*
X9746000Y5321300D02*
X10046000Y5321300D01*
X9896000Y3566300D02*
X9896000Y3266300D01*
X9746000Y3416300D02*
X10046000Y3416300D01*
X9896000Y1661300D02*
X9896000Y1361300D01*
X9746000Y1511300D02*
X10046000Y1511300D01*
X9896000Y-529450D02*
X9896000Y-829450D01*
X9746000Y-679450D02*
X10046000Y-679450D01*
X9896000Y-2434450D02*
X9896000Y-2734450D01*
X9746000Y-2584450D02*
X10046000Y-2584450D01*
X11039000Y5185550D02*
X11039000Y4885550D01*
X10889000Y5035550D02*
X11189000Y5035550D01*
X11039000Y3280550D02*
X11039000Y2980550D01*
X10889000Y3130550D02*
X11189000Y3130550D01*
X11039000Y1375550D02*
X11039000Y1075550D01*
X10889000Y1225550D02*
X11189000Y1225550D01*
X11039000Y-529450D02*
X11039000Y-829450D01*
X10889000Y-679450D02*
X11189000Y-679450D01*
X11039000Y-2434450D02*
X11039000Y-2734450D01*
X10889000Y-2584450D02*
X11189000Y-2584450D01*
X11166000Y5439550D02*
X11166000Y5139550D01*
X11016000Y5289550D02*
X11316000Y5289550D01*
X11166000Y3534550D02*
X11166000Y3234550D01*
X11016000Y3384550D02*
X11316000Y3384550D01*
X11166000Y1629550D02*
X11166000Y1329550D01*
X11016000Y1479550D02*
X11316000Y1479550D01*
X11166000Y-275450D02*
X11166000Y-575450D01*
X11016000Y-425450D02*
X11316000Y-425450D01*
X11166000Y-2180450D02*
X11166000Y-2480450D01*
X11016000Y-2330450D02*
X11316000Y-2330450D01*
X11674000Y5439550D02*
X11674000Y5139550D01*
X11524000Y5289550D02*
X11824000Y5289550D01*
X11674000Y3534550D02*
X11674000Y3234550D01*
X11524000Y3384550D02*
X11824000Y3384550D01*
X11674000Y1629550D02*
X11674000Y1329550D01*
X11524000Y1479550D02*
X11824000Y1479550D01*
X11674000Y-275450D02*
X11674000Y-575450D01*
X11524000Y-425450D02*
X11824000Y-425450D01*
X11674000Y-2180450D02*
X11674000Y-2480450D01*
X11524000Y-2330450D02*
X11824000Y-2330450D01*
X11801000Y5185550D02*
X11801000Y4885550D01*
X11651000Y5035550D02*
X11951000Y5035550D01*
X11801000Y3280550D02*
X11801000Y2980550D01*
X11651000Y3130550D02*
X11951000Y3130550D01*
X11801000Y1375550D02*
X11801000Y1075550D01*
X11651000Y1225550D02*
X11951000Y1225550D01*
X11801000Y-529450D02*
X11801000Y-829450D01*
X11651000Y-679450D02*
X11951000Y-679450D01*
X11801000Y-2434450D02*
X11801000Y-2734450D01*
X11651000Y-2584450D02*
X11951000Y-2584450D01*
X12944000Y-529450D02*
X12944000Y-829450D01*
X12794000Y-679450D02*
X13094000Y-679450D01*
X12944000Y-2434450D02*
X12944000Y-2734450D01*
X12794000Y-2584450D02*
X13094000Y-2584450D01*
X13071000Y-275450D02*
X13071000Y-575450D01*
X12921000Y-425450D02*
X13221000Y-425450D01*
X13071000Y-2180450D02*
X13071000Y-2480450D01*
X12921000Y-2330450D02*
X13221000Y-2330450D01*
X13579000Y-275450D02*
X13579000Y-575450D01*
X13429000Y-425450D02*
X13729000Y-425450D01*
X13579000Y-2180450D02*
X13579000Y-2480450D01*
X13429000Y-2330450D02*
X13729000Y-2330450D01*
X13706000Y-529450D02*
X13706000Y-829450D01*
X13556000Y-679450D02*
X13856000Y-679450D01*
X13706000Y-2434450D02*
X13706000Y-2734450D01*
X13556000Y-2584450D02*
X13856000Y-2584450D01*
D15*
X2045991Y3669009D02*
X2045991Y3950991D01*
X1764009Y3950991D01*
X1764009Y3669009D01*
X2045991Y3669009D01*
X2045991Y1764009D02*
X2045991Y2045991D01*
X1764009Y2045991D01*
X1764009Y1764009D01*
X2045991Y1764009D01*
X2045991Y-140991D02*
X2045991Y140991D01*
X1764009Y140991D01*
X1764009Y-140991D01*
X2045991Y-140991D01*
X3950991Y3669009D02*
X3950991Y3950991D01*
X3669009Y3950991D01*
X3669009Y3669009D01*
X3950991Y3669009D01*
X3950991Y1764009D02*
X3950991Y2045991D01*
X3669009Y2045991D01*
X3669009Y1764009D01*
X3950991Y1764009D01*
X3950991Y-140991D02*
X3950991Y140991D01*
X3669009Y140991D01*
X3669009Y-140991D01*
X3950991Y-140991D01*
X5855991Y4926309D02*
X5855991Y5208291D01*
X5574009Y5208291D01*
X5574009Y4926309D01*
X5855991Y4926309D01*
X5855991Y3021309D02*
X5855991Y3303291D01*
X5574009Y3303291D01*
X5574009Y3021309D01*
X5855991Y3021309D01*
X5855991Y1116309D02*
X5855991Y1398291D01*
X5574009Y1398291D01*
X5574009Y1116309D01*
X5855991Y1116309D01*
X7750991Y-1074441D02*
X7750991Y-792459D01*
X7469009Y-792459D01*
X7469009Y-1074441D01*
X7750991Y-1074441D01*
X7750991Y-2979441D02*
X7750991Y-2697459D01*
X7469009Y-2697459D01*
X7469009Y-2979441D01*
X7750991Y-2979441D01*
X7755991Y5402559D02*
X7755991Y5684541D01*
X7474009Y5684541D01*
X7474009Y5402559D01*
X7755991Y5402559D01*
X7755991Y3497559D02*
X7755991Y3779541D01*
X7474009Y3779541D01*
X7474009Y3497559D01*
X7755991Y3497559D01*
X7755991Y1592559D02*
X7755991Y1874541D01*
X7474009Y1874541D01*
X7474009Y1592559D01*
X7755991Y1592559D01*
X9655991Y4926309D02*
X9655991Y5208291D01*
X9374009Y5208291D01*
X9374009Y4926309D01*
X9655991Y4926309D01*
X9655991Y3021309D02*
X9655991Y3303291D01*
X9374009Y3303291D01*
X9374009Y3021309D01*
X9655991Y3021309D01*
X9655991Y1116309D02*
X9655991Y1398291D01*
X9374009Y1398291D01*
X9374009Y1116309D01*
X9655991Y1116309D01*
X9655991Y-1074441D02*
X9655991Y-792459D01*
X9374009Y-792459D01*
X9374009Y-1074441D01*
X9655991Y-1074441D01*
X9655991Y-2979441D02*
X9655991Y-2697459D01*
X9374009Y-2697459D01*
X9374009Y-2979441D01*
X9655991Y-2979441D01*
X11560991Y4640559D02*
X11560991Y4922541D01*
X11279009Y4922541D01*
X11279009Y4640559D01*
X11560991Y4640559D01*
X11560991Y2735559D02*
X11560991Y3017541D01*
X11279009Y3017541D01*
X11279009Y2735559D01*
X11560991Y2735559D01*
X11560991Y830559D02*
X11560991Y1112541D01*
X11279009Y1112541D01*
X11279009Y830559D01*
X11560991Y830559D01*
X11560991Y-1074441D02*
X11560991Y-792459D01*
X11279009Y-792459D01*
X11279009Y-1074441D01*
X11560991Y-1074441D01*
X11560991Y-2979441D02*
X11560991Y-2697459D01*
X11279009Y-2697459D01*
X11279009Y-2979441D01*
X11560991Y-2979441D01*
X13465991Y-1074441D02*
X13465991Y-792459D01*
X13184009Y-792459D01*
X13184009Y-1074441D01*
X13465991Y-1074441D01*
X13465991Y-2979441D02*
X13465991Y-2697459D01*
X13184009Y-2697459D01*
X13184009Y-2979441D01*
X13465991Y-2979441D01*
D11*
X1102619Y-4208926D02*
X1102619Y-4008926D01*
X1150238Y-4008926D01*
X1178810Y-4018450D01*
X1197857Y-4037498D01*
X1207381Y-4056545D01*
X1216905Y-4094640D01*
X1216905Y-4123212D01*
X1207381Y-4161307D01*
X1197857Y-4180355D01*
X1178810Y-4199402D01*
X1150238Y-4208926D01*
X1102619Y-4208926D01*
X1302619Y-4208926D02*
X1302619Y-4075593D01*
X1302619Y-4113688D02*
X1312143Y-4094640D01*
X1321667Y-4085117D01*
X1340714Y-4075593D01*
X1359762Y-4075593D01*
X1426428Y-4208926D02*
X1426428Y-4075593D01*
X1426428Y-4008926D02*
X1416905Y-4018450D01*
X1426428Y-4027974D01*
X1435952Y-4018450D01*
X1426428Y-4008926D01*
X1426428Y-4027974D01*
X1550238Y-4208926D02*
X1531190Y-4199402D01*
X1521667Y-4180355D01*
X1521667Y-4008926D01*
X1655000Y-4208926D02*
X1635952Y-4199402D01*
X1626428Y-4180355D01*
X1626428Y-4008926D01*
X1883571Y-4208926D02*
X1883571Y-4008926D01*
X1950238Y-4151783D01*
X2016905Y-4008926D01*
X2016905Y-4208926D01*
X2197857Y-4208926D02*
X2197857Y-4104164D01*
X2188333Y-4085117D01*
X2169286Y-4075593D01*
X2131190Y-4075593D01*
X2112143Y-4085117D01*
X2197857Y-4199402D02*
X2178810Y-4208926D01*
X2131190Y-4208926D01*
X2112143Y-4199402D01*
X2102619Y-4180355D01*
X2102619Y-4161307D01*
X2112143Y-4142259D01*
X2131190Y-4132736D01*
X2178810Y-4132736D01*
X2197857Y-4123212D01*
X2293095Y-4075593D02*
X2293095Y-4275593D01*
X2293095Y-4085117D02*
X2312143Y-4075593D01*
X2350238Y-4075593D01*
X2369286Y-4085117D01*
X2378810Y-4094640D01*
X2388333Y-4113688D01*
X2388333Y-4170831D01*
X2378810Y-4189878D01*
X2369286Y-4199402D01*
X2350238Y-4208926D01*
X2312143Y-4208926D01*
X2293095Y-4199402D01*
X2474048Y-4189878D02*
X2483571Y-4199402D01*
X2474048Y-4208926D01*
X2464524Y-4199402D01*
X2474048Y-4189878D01*
X2474048Y-4208926D01*
X2474048Y-4085117D02*
X2483571Y-4094640D01*
X2474048Y-4104164D01*
X2464524Y-4094640D01*
X2474048Y-4085117D01*
X2474048Y-4104164D01*
D12*
X725000Y-4478450D02*
X845000Y-4598450D01*
X845000Y-4478450D02*
X725000Y-4598450D01*
D11*
X1207381Y-4628926D02*
X1093095Y-4628926D01*
X1150238Y-4628926D02*
X1150238Y-4428926D01*
X1131190Y-4457498D01*
X1112143Y-4476545D01*
X1093095Y-4486069D01*
X1293095Y-4609879D02*
X1302619Y-4619402D01*
X1293095Y-4628926D01*
X1283571Y-4619402D01*
X1293095Y-4609879D01*
X1293095Y-4628926D01*
X1378810Y-4447974D02*
X1388333Y-4438450D01*
X1407381Y-4428926D01*
X1455000Y-4428926D01*
X1474048Y-4438450D01*
X1483571Y-4447974D01*
X1493095Y-4467021D01*
X1493095Y-4486069D01*
X1483571Y-4514640D01*
X1369286Y-4628926D01*
X1493095Y-4628926D01*
X1616905Y-4428926D02*
X1635952Y-4428926D01*
X1655000Y-4438450D01*
X1664524Y-4447974D01*
X1674048Y-4467021D01*
X1683571Y-4505117D01*
X1683571Y-4552736D01*
X1674048Y-4590831D01*
X1664524Y-4609879D01*
X1655000Y-4619402D01*
X1635952Y-4628926D01*
X1616905Y-4628926D01*
X1597857Y-4619402D01*
X1588333Y-4609879D01*
X1578809Y-4590831D01*
X1569286Y-4552736D01*
X1569286Y-4505117D01*
X1578809Y-4467021D01*
X1588333Y-4447974D01*
X1597857Y-4438450D01*
X1616905Y-4428926D01*
X1807381Y-4428926D02*
X1826428Y-4428926D01*
X1845476Y-4438450D01*
X1855000Y-4447974D01*
X1864524Y-4467021D01*
X1874048Y-4505117D01*
X1874048Y-4552736D01*
X1864524Y-4590831D01*
X1855000Y-4609879D01*
X1845476Y-4619402D01*
X1826428Y-4628926D01*
X1807381Y-4628926D01*
X1788333Y-4619402D01*
X1778809Y-4609879D01*
X1769286Y-4590831D01*
X1759762Y-4552736D01*
X1759762Y-4505117D01*
X1769286Y-4467021D01*
X1778809Y-4447974D01*
X1788333Y-4438450D01*
X1807381Y-4428926D01*
X1959762Y-4628926D02*
X1959762Y-4495593D01*
X1959762Y-4514640D02*
X1969286Y-4505117D01*
X1988333Y-4495593D01*
X2016905Y-4495593D01*
X2035952Y-4505117D01*
X2045476Y-4524164D01*
X2045476Y-4628926D01*
X2045476Y-4524164D02*
X2055000Y-4505117D01*
X2074048Y-4495593D01*
X2102619Y-4495593D01*
X2121667Y-4505117D01*
X2131190Y-4524164D01*
X2131190Y-4628926D01*
X2226429Y-4628926D02*
X2226429Y-4495593D01*
X2226429Y-4514640D02*
X2235952Y-4505117D01*
X2255000Y-4495593D01*
X2283571Y-4495593D01*
X2302619Y-4505117D01*
X2312143Y-4524164D01*
X2312143Y-4628926D01*
X2312143Y-4524164D02*
X2321667Y-4505117D01*
X2340714Y-4495593D01*
X2369286Y-4495593D01*
X2388333Y-4505117D01*
X2397857Y-4524164D01*
X2397857Y-4628926D01*
X2788333Y-4419402D02*
X2616905Y-4676545D01*
X3045476Y-4428926D02*
X3064524Y-4428926D01*
X3083571Y-4438450D01*
X3093095Y-4447974D01*
X3102619Y-4467021D01*
X3112143Y-4505117D01*
X3112143Y-4552736D01*
X3102619Y-4590831D01*
X3093095Y-4609879D01*
X3083571Y-4619402D01*
X3064524Y-4628926D01*
X3045476Y-4628926D01*
X3026428Y-4619402D01*
X3016905Y-4609879D01*
X3007381Y-4590831D01*
X2997857Y-4552736D01*
X2997857Y-4505117D01*
X3007381Y-4467021D01*
X3016905Y-4447974D01*
X3026428Y-4438450D01*
X3045476Y-4428926D01*
X3197857Y-4609879D02*
X3207381Y-4619402D01*
X3197857Y-4628926D01*
X3188333Y-4619402D01*
X3197857Y-4609879D01*
X3197857Y-4628926D01*
X3331190Y-4428926D02*
X3350238Y-4428926D01*
X3369286Y-4438450D01*
X3378809Y-4447974D01*
X3388333Y-4467021D01*
X3397857Y-4505117D01*
X3397857Y-4552736D01*
X3388333Y-4590831D01*
X3378809Y-4609879D01*
X3369286Y-4619402D01*
X3350238Y-4628926D01*
X3331190Y-4628926D01*
X3312143Y-4619402D01*
X3302619Y-4609879D01*
X3293095Y-4590831D01*
X3283571Y-4552736D01*
X3283571Y-4505117D01*
X3293095Y-4467021D01*
X3302619Y-4447974D01*
X3312143Y-4438450D01*
X3331190Y-4428926D01*
X3569286Y-4495593D02*
X3569286Y-4628926D01*
X3521667Y-4419402D02*
X3474048Y-4562260D01*
X3597857Y-4562260D01*
X3655000Y-4428926D02*
X3788333Y-4428926D01*
X3702619Y-4628926D01*
X3855000Y-4447974D02*
X3864524Y-4438450D01*
X3883571Y-4428926D01*
X3931190Y-4428926D01*
X3950238Y-4438450D01*
X3959762Y-4447974D01*
X3969286Y-4467021D01*
X3969286Y-4486069D01*
X3959762Y-4514640D01*
X3845476Y-4628926D01*
X3969286Y-4628926D01*
X4045476Y-4428926D02*
X4045476Y-4467021D01*
X4121667Y-4428926D02*
X4121667Y-4467021D01*
X4416905Y-4705117D02*
X4407381Y-4695593D01*
X4388333Y-4667021D01*
X4378810Y-4647974D01*
X4369286Y-4619402D01*
X4359762Y-4571783D01*
X4359762Y-4533688D01*
X4369286Y-4486069D01*
X4378810Y-4457498D01*
X4388333Y-4438450D01*
X4407381Y-4409879D01*
X4416905Y-4400355D01*
X4578810Y-4495593D02*
X4578810Y-4628926D01*
X4531190Y-4419402D02*
X4483571Y-4562260D01*
X4607381Y-4562260D01*
X4835952Y-4628926D02*
X4835952Y-4428926D01*
X4921667Y-4628926D02*
X4921667Y-4524164D01*
X4912143Y-4505117D01*
X4893095Y-4495593D01*
X4864524Y-4495593D01*
X4845476Y-4505117D01*
X4835952Y-4514640D01*
X5045476Y-4628926D02*
X5026429Y-4619402D01*
X5016905Y-4609879D01*
X5007381Y-4590831D01*
X5007381Y-4533688D01*
X5016905Y-4514640D01*
X5026429Y-4505117D01*
X5045476Y-4495593D01*
X5074048Y-4495593D01*
X5093095Y-4505117D01*
X5102619Y-4514640D01*
X5112143Y-4533688D01*
X5112143Y-4590831D01*
X5102619Y-4609879D01*
X5093095Y-4619402D01*
X5074048Y-4628926D01*
X5045476Y-4628926D01*
X5226429Y-4628926D02*
X5207381Y-4619402D01*
X5197857Y-4600355D01*
X5197857Y-4428926D01*
X5378810Y-4619402D02*
X5359762Y-4628926D01*
X5321667Y-4628926D01*
X5302619Y-4619402D01*
X5293095Y-4600355D01*
X5293095Y-4524164D01*
X5302619Y-4505117D01*
X5321667Y-4495593D01*
X5359762Y-4495593D01*
X5378810Y-4505117D01*
X5388333Y-4524164D01*
X5388333Y-4543212D01*
X5293095Y-4562260D01*
X5464524Y-4619402D02*
X5483571Y-4628926D01*
X5521667Y-4628926D01*
X5540714Y-4619402D01*
X5550238Y-4600355D01*
X5550238Y-4590831D01*
X5540714Y-4571783D01*
X5521667Y-4562260D01*
X5493095Y-4562260D01*
X5474048Y-4552736D01*
X5464524Y-4533688D01*
X5464524Y-4524164D01*
X5474048Y-4505117D01*
X5493095Y-4495593D01*
X5521667Y-4495593D01*
X5540714Y-4505117D01*
X5616905Y-4705117D02*
X5626428Y-4695593D01*
X5645476Y-4667021D01*
X5655000Y-4647974D01*
X5664524Y-4619402D01*
X5674048Y-4571783D01*
X5674048Y-4533688D01*
X5664524Y-4486069D01*
X5655000Y-4457498D01*
X5645476Y-4438450D01*
X5626428Y-4409879D01*
X5616905Y-4400355D01*
X5978809Y-4705117D02*
X5969286Y-4695593D01*
X5950238Y-4667021D01*
X5940714Y-4647974D01*
X5931190Y-4619402D01*
X5921667Y-4571783D01*
X5921667Y-4533688D01*
X5931190Y-4486069D01*
X5940714Y-4457498D01*
X5950238Y-4438450D01*
X5969286Y-4409879D01*
X5978809Y-4400355D01*
X6055000Y-4495593D02*
X6055000Y-4628926D01*
X6055000Y-4514640D02*
X6064524Y-4505117D01*
X6083571Y-4495593D01*
X6112143Y-4495593D01*
X6131190Y-4505117D01*
X6140714Y-4524164D01*
X6140714Y-4628926D01*
X6264524Y-4628926D02*
X6245476Y-4619402D01*
X6235952Y-4609879D01*
X6226428Y-4590831D01*
X6226428Y-4533688D01*
X6235952Y-4514640D01*
X6245476Y-4505117D01*
X6264524Y-4495593D01*
X6293095Y-4495593D01*
X6312143Y-4505117D01*
X6321667Y-4514640D01*
X6331190Y-4533688D01*
X6331190Y-4590831D01*
X6321667Y-4609879D01*
X6312143Y-4619402D01*
X6293095Y-4628926D01*
X6264524Y-4628926D01*
X6388333Y-4495593D02*
X6464524Y-4495593D01*
X6416905Y-4428926D02*
X6416905Y-4600355D01*
X6426428Y-4619402D01*
X6445476Y-4628926D01*
X6464524Y-4628926D01*
X6683571Y-4495593D02*
X6683571Y-4695593D01*
X6683571Y-4505117D02*
X6702619Y-4495593D01*
X6740714Y-4495593D01*
X6759762Y-4505117D01*
X6769286Y-4514640D01*
X6778809Y-4533688D01*
X6778809Y-4590831D01*
X6769286Y-4609879D01*
X6759762Y-4619402D01*
X6740714Y-4628926D01*
X6702619Y-4628926D01*
X6683571Y-4619402D01*
X6893095Y-4628926D02*
X6874048Y-4619402D01*
X6864524Y-4600355D01*
X6864524Y-4428926D01*
X7055000Y-4628926D02*
X7055000Y-4524164D01*
X7045476Y-4505117D01*
X7026428Y-4495593D01*
X6988333Y-4495593D01*
X6969286Y-4505117D01*
X7055000Y-4619402D02*
X7035952Y-4628926D01*
X6988333Y-4628926D01*
X6969286Y-4619402D01*
X6959762Y-4600355D01*
X6959762Y-4581307D01*
X6969286Y-4562260D01*
X6988333Y-4552736D01*
X7035952Y-4552736D01*
X7055000Y-4543212D01*
X7121667Y-4495593D02*
X7197857Y-4495593D01*
X7150238Y-4428926D02*
X7150238Y-4600355D01*
X7159762Y-4619402D01*
X7178809Y-4628926D01*
X7197857Y-4628926D01*
X7340714Y-4619402D02*
X7321667Y-4628926D01*
X7283571Y-4628926D01*
X7264524Y-4619402D01*
X7255000Y-4600355D01*
X7255000Y-4524164D01*
X7264524Y-4505117D01*
X7283571Y-4495593D01*
X7321667Y-4495593D01*
X7340714Y-4505117D01*
X7350238Y-4524164D01*
X7350238Y-4543212D01*
X7255000Y-4562260D01*
X7521667Y-4628926D02*
X7521667Y-4428926D01*
X7521667Y-4619402D02*
X7502619Y-4628926D01*
X7464524Y-4628926D01*
X7445476Y-4619402D01*
X7435952Y-4609879D01*
X7426428Y-4590831D01*
X7426428Y-4533688D01*
X7435952Y-4514640D01*
X7445476Y-4505117D01*
X7464524Y-4495593D01*
X7502619Y-4495593D01*
X7521667Y-4505117D01*
X7597857Y-4705117D02*
X7607381Y-4695593D01*
X7626428Y-4667021D01*
X7635952Y-4647974D01*
X7645476Y-4619402D01*
X7655000Y-4571783D01*
X7655000Y-4533688D01*
X7645476Y-4486069D01*
X7635952Y-4457498D01*
X7626428Y-4438450D01*
X7607381Y-4409879D01*
X7597857Y-4400355D01*
D13*
X845000Y-4802450D02*
G75*
G03*
X845000Y-4802450I-85090J0D01*
G01*
D11*
X1207381Y-4892926D02*
X1093095Y-4892926D01*
X1150238Y-4892926D02*
X1150238Y-4692926D01*
X1131190Y-4721498D01*
X1112143Y-4740545D01*
X1093095Y-4750069D01*
X1293095Y-4873879D02*
X1302619Y-4883402D01*
X1293095Y-4892926D01*
X1283571Y-4883402D01*
X1293095Y-4873879D01*
X1293095Y-4892926D01*
X1369286Y-4692926D02*
X1502619Y-4692926D01*
X1416905Y-4892926D01*
X1616905Y-4692926D02*
X1635952Y-4692926D01*
X1655000Y-4702450D01*
X1664524Y-4711974D01*
X1674048Y-4731021D01*
X1683571Y-4769117D01*
X1683571Y-4816736D01*
X1674048Y-4854831D01*
X1664524Y-4873879D01*
X1655000Y-4883402D01*
X1635952Y-4892926D01*
X1616905Y-4892926D01*
X1597857Y-4883402D01*
X1588333Y-4873879D01*
X1578809Y-4854831D01*
X1569286Y-4816736D01*
X1569286Y-4769117D01*
X1578809Y-4731021D01*
X1588333Y-4711974D01*
X1597857Y-4702450D01*
X1616905Y-4692926D01*
X1759762Y-4711974D02*
X1769286Y-4702450D01*
X1788333Y-4692926D01*
X1835952Y-4692926D01*
X1855000Y-4702450D01*
X1864524Y-4711974D01*
X1874048Y-4731021D01*
X1874048Y-4750069D01*
X1864524Y-4778640D01*
X1750238Y-4892926D01*
X1874048Y-4892926D01*
X1959762Y-4892926D02*
X1959762Y-4759593D01*
X1959762Y-4778640D02*
X1969286Y-4769117D01*
X1988333Y-4759593D01*
X2016905Y-4759593D01*
X2035952Y-4769117D01*
X2045476Y-4788164D01*
X2045476Y-4892926D01*
X2045476Y-4788164D02*
X2055000Y-4769117D01*
X2074048Y-4759593D01*
X2102619Y-4759593D01*
X2121667Y-4769117D01*
X2131190Y-4788164D01*
X2131190Y-4892926D01*
X2226429Y-4892926D02*
X2226429Y-4759593D01*
X2226429Y-4778640D02*
X2235952Y-4769117D01*
X2255000Y-4759593D01*
X2283571Y-4759593D01*
X2302619Y-4769117D01*
X2312143Y-4788164D01*
X2312143Y-4892926D01*
X2312143Y-4788164D02*
X2321667Y-4769117D01*
X2340714Y-4759593D01*
X2369286Y-4759593D01*
X2388333Y-4769117D01*
X2397857Y-4788164D01*
X2397857Y-4892926D01*
X2788333Y-4683402D02*
X2616905Y-4940545D01*
X3045476Y-4692926D02*
X3064524Y-4692926D01*
X3083571Y-4702450D01*
X3093095Y-4711974D01*
X3102619Y-4731021D01*
X3112143Y-4769117D01*
X3112143Y-4816736D01*
X3102619Y-4854831D01*
X3093095Y-4873879D01*
X3083571Y-4883402D01*
X3064524Y-4892926D01*
X3045476Y-4892926D01*
X3026428Y-4883402D01*
X3016905Y-4873879D01*
X3007381Y-4854831D01*
X2997857Y-4816736D01*
X2997857Y-4769117D01*
X3007381Y-4731021D01*
X3016905Y-4711974D01*
X3026428Y-4702450D01*
X3045476Y-4692926D01*
X3197857Y-4873879D02*
X3207381Y-4883402D01*
X3197857Y-4892926D01*
X3188333Y-4883402D01*
X3197857Y-4873879D01*
X3197857Y-4892926D01*
X3331190Y-4692926D02*
X3350238Y-4692926D01*
X3369286Y-4702450D01*
X3378809Y-4711974D01*
X3388333Y-4731021D01*
X3397857Y-4769117D01*
X3397857Y-4816736D01*
X3388333Y-4854831D01*
X3378809Y-4873879D01*
X3369286Y-4883402D01*
X3350238Y-4892926D01*
X3331190Y-4892926D01*
X3312143Y-4883402D01*
X3302619Y-4873879D01*
X3293095Y-4854831D01*
X3283571Y-4816736D01*
X3283571Y-4769117D01*
X3293095Y-4731021D01*
X3302619Y-4711974D01*
X3312143Y-4702450D01*
X3331190Y-4692926D01*
X3569286Y-4692926D02*
X3531190Y-4692926D01*
X3512143Y-4702450D01*
X3502619Y-4711974D01*
X3483571Y-4740545D01*
X3474048Y-4778640D01*
X3474048Y-4854831D01*
X3483571Y-4873879D01*
X3493095Y-4883402D01*
X3512143Y-4892926D01*
X3550238Y-4892926D01*
X3569286Y-4883402D01*
X3578809Y-4873879D01*
X3588333Y-4854831D01*
X3588333Y-4807212D01*
X3578809Y-4788164D01*
X3569286Y-4778640D01*
X3550238Y-4769117D01*
X3512143Y-4769117D01*
X3493095Y-4778640D01*
X3483571Y-4788164D01*
X3474048Y-4807212D01*
X3655000Y-4692926D02*
X3788333Y-4692926D01*
X3702619Y-4892926D01*
X3902619Y-4692926D02*
X3921667Y-4692926D01*
X3940714Y-4702450D01*
X3950238Y-4711974D01*
X3959762Y-4731021D01*
X3969286Y-4769117D01*
X3969286Y-4816736D01*
X3959762Y-4854831D01*
X3950238Y-4873879D01*
X3940714Y-4883402D01*
X3921667Y-4892926D01*
X3902619Y-4892926D01*
X3883571Y-4883402D01*
X3874048Y-4873879D01*
X3864524Y-4854831D01*
X3855000Y-4816736D01*
X3855000Y-4769117D01*
X3864524Y-4731021D01*
X3874048Y-4711974D01*
X3883571Y-4702450D01*
X3902619Y-4692926D01*
X4045476Y-4692926D02*
X4045476Y-4731021D01*
X4121667Y-4692926D02*
X4121667Y-4731021D01*
X4416905Y-4969117D02*
X4407381Y-4959593D01*
X4388333Y-4931021D01*
X4378810Y-4911974D01*
X4369286Y-4883402D01*
X4359762Y-4835783D01*
X4359762Y-4797688D01*
X4369286Y-4750069D01*
X4378810Y-4721498D01*
X4388333Y-4702450D01*
X4407381Y-4673879D01*
X4416905Y-4664355D01*
X4588333Y-4692926D02*
X4493095Y-4692926D01*
X4483571Y-4788164D01*
X4493095Y-4778640D01*
X4512143Y-4769117D01*
X4559762Y-4769117D01*
X4578810Y-4778640D01*
X4588333Y-4788164D01*
X4597857Y-4807212D01*
X4597857Y-4854831D01*
X4588333Y-4873879D01*
X4578810Y-4883402D01*
X4559762Y-4892926D01*
X4512143Y-4892926D01*
X4493095Y-4883402D01*
X4483571Y-4873879D01*
X4674048Y-4711974D02*
X4683571Y-4702450D01*
X4702619Y-4692926D01*
X4750238Y-4692926D01*
X4769286Y-4702450D01*
X4778810Y-4711974D01*
X4788333Y-4731021D01*
X4788333Y-4750069D01*
X4778810Y-4778640D01*
X4664524Y-4892926D01*
X4788333Y-4892926D01*
X5026429Y-4892926D02*
X5026429Y-4692926D01*
X5112143Y-4892926D02*
X5112143Y-4788164D01*
X5102619Y-4769117D01*
X5083571Y-4759593D01*
X5055000Y-4759593D01*
X5035952Y-4769117D01*
X5026429Y-4778640D01*
X5235952Y-4892926D02*
X5216905Y-4883402D01*
X5207381Y-4873879D01*
X5197857Y-4854831D01*
X5197857Y-4797688D01*
X5207381Y-4778640D01*
X5216905Y-4769117D01*
X5235952Y-4759593D01*
X5264524Y-4759593D01*
X5283571Y-4769117D01*
X5293095Y-4778640D01*
X5302619Y-4797688D01*
X5302619Y-4854831D01*
X5293095Y-4873879D01*
X5283571Y-4883402D01*
X5264524Y-4892926D01*
X5235952Y-4892926D01*
X5416905Y-4892926D02*
X5397857Y-4883402D01*
X5388333Y-4864355D01*
X5388333Y-4692926D01*
X5569286Y-4883402D02*
X5550238Y-4892926D01*
X5512143Y-4892926D01*
X5493095Y-4883402D01*
X5483571Y-4864355D01*
X5483571Y-4788164D01*
X5493095Y-4769117D01*
X5512143Y-4759593D01*
X5550238Y-4759593D01*
X5569286Y-4769117D01*
X5578810Y-4788164D01*
X5578810Y-4807212D01*
X5483571Y-4826260D01*
X5655000Y-4883402D02*
X5674048Y-4892926D01*
X5712143Y-4892926D01*
X5731190Y-4883402D01*
X5740714Y-4864355D01*
X5740714Y-4854831D01*
X5731190Y-4835783D01*
X5712143Y-4826260D01*
X5683571Y-4826260D01*
X5664524Y-4816736D01*
X5655000Y-4797688D01*
X5655000Y-4788164D01*
X5664524Y-4769117D01*
X5683571Y-4759593D01*
X5712143Y-4759593D01*
X5731190Y-4769117D01*
X5807381Y-4969117D02*
X5816905Y-4959593D01*
X5835952Y-4931021D01*
X5845476Y-4911974D01*
X5855000Y-4883402D01*
X5864524Y-4835783D01*
X5864524Y-4797688D01*
X5855000Y-4750069D01*
X5845476Y-4721498D01*
X5835952Y-4702450D01*
X5816905Y-4673879D01*
X5807381Y-4664355D01*
X6169286Y-4969117D02*
X6159762Y-4959593D01*
X6140714Y-4931021D01*
X6131190Y-4911974D01*
X6121667Y-4883402D01*
X6112143Y-4835783D01*
X6112143Y-4797688D01*
X6121667Y-4750069D01*
X6131190Y-4721498D01*
X6140714Y-4702450D01*
X6159762Y-4673879D01*
X6169286Y-4664355D01*
X6245476Y-4759593D02*
X6245476Y-4892926D01*
X6245476Y-4778640D02*
X6255000Y-4769117D01*
X6274048Y-4759593D01*
X6302619Y-4759593D01*
X6321667Y-4769117D01*
X6331190Y-4788164D01*
X6331190Y-4892926D01*
X6455000Y-4892926D02*
X6435952Y-4883402D01*
X6426428Y-4873879D01*
X6416905Y-4854831D01*
X6416905Y-4797688D01*
X6426428Y-4778640D01*
X6435952Y-4769117D01*
X6455000Y-4759593D01*
X6483571Y-4759593D01*
X6502619Y-4769117D01*
X6512143Y-4778640D01*
X6521667Y-4797688D01*
X6521667Y-4854831D01*
X6512143Y-4873879D01*
X6502619Y-4883402D01*
X6483571Y-4892926D01*
X6455000Y-4892926D01*
X6578809Y-4759593D02*
X6655000Y-4759593D01*
X6607381Y-4692926D02*
X6607381Y-4864355D01*
X6616905Y-4883402D01*
X6635952Y-4892926D01*
X6655000Y-4892926D01*
X6874048Y-4759593D02*
X6874048Y-4959593D01*
X6874048Y-4769117D02*
X6893095Y-4759593D01*
X6931190Y-4759593D01*
X6950238Y-4769117D01*
X6959762Y-4778640D01*
X6969286Y-4797688D01*
X6969286Y-4854831D01*
X6959762Y-4873879D01*
X6950238Y-4883402D01*
X6931190Y-4892926D01*
X6893095Y-4892926D01*
X6874048Y-4883402D01*
X7083571Y-4892926D02*
X7064524Y-4883402D01*
X7055000Y-4864355D01*
X7055000Y-4692926D01*
X7245476Y-4892926D02*
X7245476Y-4788164D01*
X7235952Y-4769117D01*
X7216905Y-4759593D01*
X7178809Y-4759593D01*
X7159762Y-4769117D01*
X7245476Y-4883402D02*
X7226428Y-4892926D01*
X7178809Y-4892926D01*
X7159762Y-4883402D01*
X7150238Y-4864355D01*
X7150238Y-4845307D01*
X7159762Y-4826260D01*
X7178809Y-4816736D01*
X7226428Y-4816736D01*
X7245476Y-4807212D01*
X7312143Y-4759593D02*
X7388333Y-4759593D01*
X7340714Y-4692926D02*
X7340714Y-4864355D01*
X7350238Y-4883402D01*
X7369286Y-4892926D01*
X7388333Y-4892926D01*
X7531190Y-4883402D02*
X7512143Y-4892926D01*
X7474048Y-4892926D01*
X7455000Y-4883402D01*
X7445476Y-4864355D01*
X7445476Y-4788164D01*
X7455000Y-4769117D01*
X7474048Y-4759593D01*
X7512143Y-4759593D01*
X7531190Y-4769117D01*
X7540714Y-4788164D01*
X7540714Y-4807212D01*
X7445476Y-4826260D01*
X7712143Y-4892926D02*
X7712143Y-4692926D01*
X7712143Y-4883402D02*
X7693095Y-4892926D01*
X7655000Y-4892926D01*
X7635952Y-4883402D01*
X7626428Y-4873879D01*
X7616905Y-4854831D01*
X7616905Y-4797688D01*
X7626428Y-4778640D01*
X7635952Y-4769117D01*
X7655000Y-4759593D01*
X7693095Y-4759593D01*
X7712143Y-4769117D01*
X7788333Y-4969117D02*
X7797857Y-4959593D01*
X7816905Y-4931021D01*
X7826428Y-4911974D01*
X7835952Y-4883402D01*
X7845476Y-4835783D01*
X7845476Y-4797688D01*
X7835952Y-4750069D01*
X7826428Y-4721498D01*
X7816905Y-4702450D01*
X7797857Y-4673879D01*
X7788333Y-4664355D01*
X745000Y-4992630D02*
X745000Y-5192630D01*
X645000Y-5092630D02*
X845000Y-5092630D01*
X1083571Y-4983106D02*
X1207381Y-4983106D01*
X1140714Y-5059297D01*
X1169286Y-5059297D01*
X1188333Y-5068820D01*
X1197857Y-5078344D01*
X1207381Y-5097392D01*
X1207381Y-5145011D01*
X1197857Y-5164059D01*
X1188333Y-5173582D01*
X1169286Y-5183106D01*
X1112143Y-5183106D01*
X1093095Y-5173582D01*
X1083571Y-5164059D01*
X1293095Y-5164059D02*
X1302619Y-5173582D01*
X1293095Y-5183106D01*
X1283571Y-5173582D01*
X1293095Y-5164059D01*
X1293095Y-5183106D01*
X1426428Y-4983106D02*
X1445476Y-4983106D01*
X1464524Y-4992630D01*
X1474048Y-5002154D01*
X1483571Y-5021201D01*
X1493095Y-5059297D01*
X1493095Y-5106916D01*
X1483571Y-5145011D01*
X1474048Y-5164059D01*
X1464524Y-5173582D01*
X1445476Y-5183106D01*
X1426428Y-5183106D01*
X1407381Y-5173582D01*
X1397857Y-5164059D01*
X1388333Y-5145011D01*
X1378810Y-5106916D01*
X1378810Y-5059297D01*
X1388333Y-5021201D01*
X1397857Y-5002154D01*
X1407381Y-4992630D01*
X1426428Y-4983106D01*
X1616905Y-4983106D02*
X1635952Y-4983106D01*
X1655000Y-4992630D01*
X1664524Y-5002154D01*
X1674048Y-5021201D01*
X1683571Y-5059297D01*
X1683571Y-5106916D01*
X1674048Y-5145011D01*
X1664524Y-5164059D01*
X1655000Y-5173582D01*
X1635952Y-5183106D01*
X1616905Y-5183106D01*
X1597857Y-5173582D01*
X1588333Y-5164059D01*
X1578809Y-5145011D01*
X1569286Y-5106916D01*
X1569286Y-5059297D01*
X1578809Y-5021201D01*
X1588333Y-5002154D01*
X1597857Y-4992630D01*
X1616905Y-4983106D01*
X1807381Y-4983106D02*
X1826428Y-4983106D01*
X1845476Y-4992630D01*
X1855000Y-5002154D01*
X1864524Y-5021201D01*
X1874048Y-5059297D01*
X1874048Y-5106916D01*
X1864524Y-5145011D01*
X1855000Y-5164059D01*
X1845476Y-5173582D01*
X1826428Y-5183106D01*
X1807381Y-5183106D01*
X1788333Y-5173582D01*
X1778809Y-5164059D01*
X1769286Y-5145011D01*
X1759762Y-5106916D01*
X1759762Y-5059297D01*
X1769286Y-5021201D01*
X1778809Y-5002154D01*
X1788333Y-4992630D01*
X1807381Y-4983106D01*
X1959762Y-5183106D02*
X1959762Y-5049773D01*
X1959762Y-5068820D02*
X1969286Y-5059297D01*
X1988333Y-5049773D01*
X2016905Y-5049773D01*
X2035952Y-5059297D01*
X2045476Y-5078344D01*
X2045476Y-5183106D01*
X2045476Y-5078344D02*
X2055000Y-5059297D01*
X2074048Y-5049773D01*
X2102619Y-5049773D01*
X2121667Y-5059297D01*
X2131190Y-5078344D01*
X2131190Y-5183106D01*
X2226429Y-5183106D02*
X2226429Y-5049773D01*
X2226429Y-5068820D02*
X2235952Y-5059297D01*
X2255000Y-5049773D01*
X2283571Y-5049773D01*
X2302619Y-5059297D01*
X2312143Y-5078344D01*
X2312143Y-5183106D01*
X2312143Y-5078344D02*
X2321667Y-5059297D01*
X2340714Y-5049773D01*
X2369286Y-5049773D01*
X2388333Y-5059297D01*
X2397857Y-5078344D01*
X2397857Y-5183106D01*
X2788333Y-4973582D02*
X2616905Y-5230725D01*
X3045476Y-4983106D02*
X3064524Y-4983106D01*
X3083571Y-4992630D01*
X3093095Y-5002154D01*
X3102619Y-5021201D01*
X3112143Y-5059297D01*
X3112143Y-5106916D01*
X3102619Y-5145011D01*
X3093095Y-5164059D01*
X3083571Y-5173582D01*
X3064524Y-5183106D01*
X3045476Y-5183106D01*
X3026428Y-5173582D01*
X3016905Y-5164059D01*
X3007381Y-5145011D01*
X2997857Y-5106916D01*
X2997857Y-5059297D01*
X3007381Y-5021201D01*
X3016905Y-5002154D01*
X3026428Y-4992630D01*
X3045476Y-4983106D01*
X3197857Y-5164059D02*
X3207381Y-5173582D01*
X3197857Y-5183106D01*
X3188333Y-5173582D01*
X3197857Y-5164059D01*
X3197857Y-5183106D01*
X3397857Y-5183106D02*
X3283571Y-5183106D01*
X3340714Y-5183106D02*
X3340714Y-4983106D01*
X3321667Y-5011678D01*
X3302619Y-5030725D01*
X3283571Y-5040249D01*
X3588333Y-5183106D02*
X3474048Y-5183106D01*
X3531190Y-5183106D02*
X3531190Y-4983106D01*
X3512143Y-5011678D01*
X3493095Y-5030725D01*
X3474048Y-5040249D01*
X3702619Y-5068820D02*
X3683571Y-5059297D01*
X3674048Y-5049773D01*
X3664524Y-5030725D01*
X3664524Y-5021201D01*
X3674048Y-5002154D01*
X3683571Y-4992630D01*
X3702619Y-4983106D01*
X3740714Y-4983106D01*
X3759762Y-4992630D01*
X3769286Y-5002154D01*
X3778809Y-5021201D01*
X3778809Y-5030725D01*
X3769286Y-5049773D01*
X3759762Y-5059297D01*
X3740714Y-5068820D01*
X3702619Y-5068820D01*
X3683571Y-5078344D01*
X3674048Y-5087868D01*
X3664524Y-5106916D01*
X3664524Y-5145011D01*
X3674048Y-5164059D01*
X3683571Y-5173582D01*
X3702619Y-5183106D01*
X3740714Y-5183106D01*
X3759762Y-5173582D01*
X3769286Y-5164059D01*
X3778809Y-5145011D01*
X3778809Y-5106916D01*
X3769286Y-5087868D01*
X3759762Y-5078344D01*
X3740714Y-5068820D01*
X3969286Y-5183106D02*
X3855000Y-5183106D01*
X3912143Y-5183106D02*
X3912143Y-4983106D01*
X3893095Y-5011678D01*
X3874048Y-5030725D01*
X3855000Y-5040249D01*
X4045476Y-4983106D02*
X4045476Y-5021201D01*
X4121667Y-4983106D02*
X4121667Y-5021201D01*
X4416905Y-5259297D02*
X4407381Y-5249773D01*
X4388333Y-5221201D01*
X4378810Y-5202154D01*
X4369286Y-5173582D01*
X4359762Y-5125963D01*
X4359762Y-5087868D01*
X4369286Y-5040249D01*
X4378810Y-5011678D01*
X4388333Y-4992630D01*
X4407381Y-4964059D01*
X4416905Y-4954535D01*
X4597857Y-5183106D02*
X4483571Y-5183106D01*
X4540714Y-5183106D02*
X4540714Y-4983106D01*
X4521667Y-5011678D01*
X4502619Y-5030725D01*
X4483571Y-5040249D01*
X4721667Y-4983106D02*
X4740714Y-4983106D01*
X4759762Y-4992630D01*
X4769286Y-5002154D01*
X4778810Y-5021201D01*
X4788333Y-5059297D01*
X4788333Y-5106916D01*
X4778810Y-5145011D01*
X4769286Y-5164059D01*
X4759762Y-5173582D01*
X4740714Y-5183106D01*
X4721667Y-5183106D01*
X4702619Y-5173582D01*
X4693095Y-5164059D01*
X4683571Y-5145011D01*
X4674048Y-5106916D01*
X4674048Y-5059297D01*
X4683571Y-5021201D01*
X4693095Y-5002154D01*
X4702619Y-4992630D01*
X4721667Y-4983106D01*
X4959762Y-5049773D02*
X4959762Y-5183106D01*
X4912143Y-4973582D02*
X4864524Y-5116440D01*
X4988333Y-5116440D01*
X5216905Y-5183106D02*
X5216905Y-4983106D01*
X5302619Y-5183106D02*
X5302619Y-5078344D01*
X5293095Y-5059297D01*
X5274048Y-5049773D01*
X5245476Y-5049773D01*
X5226429Y-5059297D01*
X5216905Y-5068820D01*
X5426429Y-5183106D02*
X5407381Y-5173582D01*
X5397857Y-5164059D01*
X5388333Y-5145011D01*
X5388333Y-5087868D01*
X5397857Y-5068820D01*
X5407381Y-5059297D01*
X5426429Y-5049773D01*
X5455000Y-5049773D01*
X5474048Y-5059297D01*
X5483571Y-5068820D01*
X5493095Y-5087868D01*
X5493095Y-5145011D01*
X5483571Y-5164059D01*
X5474048Y-5173582D01*
X5455000Y-5183106D01*
X5426429Y-5183106D01*
X5607381Y-5183106D02*
X5588333Y-5173582D01*
X5578810Y-5154535D01*
X5578810Y-4983106D01*
X5759762Y-5173582D02*
X5740714Y-5183106D01*
X5702619Y-5183106D01*
X5683571Y-5173582D01*
X5674048Y-5154535D01*
X5674048Y-5078344D01*
X5683571Y-5059297D01*
X5702619Y-5049773D01*
X5740714Y-5049773D01*
X5759762Y-5059297D01*
X5769286Y-5078344D01*
X5769286Y-5097392D01*
X5674048Y-5116440D01*
X5845476Y-5173582D02*
X5864524Y-5183106D01*
X5902619Y-5183106D01*
X5921667Y-5173582D01*
X5931190Y-5154535D01*
X5931190Y-5145011D01*
X5921667Y-5125963D01*
X5902619Y-5116440D01*
X5874048Y-5116440D01*
X5855000Y-5106916D01*
X5845476Y-5087868D01*
X5845476Y-5078344D01*
X5855000Y-5059297D01*
X5874048Y-5049773D01*
X5902619Y-5049773D01*
X5921667Y-5059297D01*
X5997857Y-5259297D02*
X6007381Y-5249773D01*
X6026428Y-5221201D01*
X6035952Y-5202154D01*
X6045476Y-5173582D01*
X6055000Y-5125963D01*
X6055000Y-5087868D01*
X6045476Y-5040249D01*
X6035952Y-5011678D01*
X6026428Y-4992630D01*
X6007381Y-4964059D01*
X5997857Y-4954535D01*
X6359762Y-5259297D02*
X6350238Y-5249773D01*
X6331190Y-5221201D01*
X6321667Y-5202154D01*
X6312143Y-5173582D01*
X6302619Y-5125963D01*
X6302619Y-5087868D01*
X6312143Y-5040249D01*
X6321667Y-5011678D01*
X6331190Y-4992630D01*
X6350238Y-4964059D01*
X6359762Y-4954535D01*
X6435952Y-5049773D02*
X6435952Y-5183106D01*
X6435952Y-5068820D02*
X6445476Y-5059297D01*
X6464524Y-5049773D01*
X6493095Y-5049773D01*
X6512143Y-5059297D01*
X6521667Y-5078344D01*
X6521667Y-5183106D01*
X6645476Y-5183106D02*
X6626428Y-5173582D01*
X6616905Y-5164059D01*
X6607381Y-5145011D01*
X6607381Y-5087868D01*
X6616905Y-5068820D01*
X6626428Y-5059297D01*
X6645476Y-5049773D01*
X6674048Y-5049773D01*
X6693095Y-5059297D01*
X6702619Y-5068820D01*
X6712143Y-5087868D01*
X6712143Y-5145011D01*
X6702619Y-5164059D01*
X6693095Y-5173582D01*
X6674048Y-5183106D01*
X6645476Y-5183106D01*
X6769286Y-5049773D02*
X6845476Y-5049773D01*
X6797857Y-4983106D02*
X6797857Y-5154535D01*
X6807381Y-5173582D01*
X6826428Y-5183106D01*
X6845476Y-5183106D01*
X7064524Y-5049773D02*
X7064524Y-5249773D01*
X7064524Y-5059297D02*
X7083571Y-5049773D01*
X7121667Y-5049773D01*
X7140714Y-5059297D01*
X7150238Y-5068820D01*
X7159762Y-5087868D01*
X7159762Y-5145011D01*
X7150238Y-5164059D01*
X7140714Y-5173582D01*
X7121667Y-5183106D01*
X7083571Y-5183106D01*
X7064524Y-5173582D01*
X7274048Y-5183106D02*
X7255000Y-5173582D01*
X7245476Y-5154535D01*
X7245476Y-4983106D01*
X7435952Y-5183106D02*
X7435952Y-5078344D01*
X7426428Y-5059297D01*
X7407381Y-5049773D01*
X7369286Y-5049773D01*
X7350238Y-5059297D01*
X7435952Y-5173582D02*
X7416905Y-5183106D01*
X7369286Y-5183106D01*
X7350238Y-5173582D01*
X7340714Y-5154535D01*
X7340714Y-5135487D01*
X7350238Y-5116440D01*
X7369286Y-5106916D01*
X7416905Y-5106916D01*
X7435952Y-5097392D01*
X7502619Y-5049773D02*
X7578809Y-5049773D01*
X7531190Y-4983106D02*
X7531190Y-5154535D01*
X7540714Y-5173582D01*
X7559762Y-5183106D01*
X7578809Y-5183106D01*
X7721667Y-5173582D02*
X7702619Y-5183106D01*
X7664524Y-5183106D01*
X7645476Y-5173582D01*
X7635952Y-5154535D01*
X7635952Y-5078344D01*
X7645476Y-5059297D01*
X7664524Y-5049773D01*
X7702619Y-5049773D01*
X7721667Y-5059297D01*
X7731190Y-5078344D01*
X7731190Y-5097392D01*
X7635952Y-5116440D01*
X7902619Y-5183106D02*
X7902619Y-4983106D01*
X7902619Y-5173582D02*
X7883571Y-5183106D01*
X7845476Y-5183106D01*
X7826428Y-5173582D01*
X7816905Y-5164059D01*
X7807381Y-5145011D01*
X7807381Y-5087868D01*
X7816905Y-5068820D01*
X7826428Y-5059297D01*
X7845476Y-5049773D01*
X7883571Y-5049773D01*
X7902619Y-5059297D01*
X7978809Y-5259297D02*
X7988333Y-5249773D01*
X8007381Y-5221201D01*
X8016905Y-5202154D01*
X8026428Y-5173582D01*
X8035952Y-5125963D01*
X8035952Y-5087868D01*
X8026428Y-5040249D01*
X8016905Y-5011678D01*
X8007381Y-4992630D01*
X7988333Y-4964059D01*
X7978809Y-4954535D01*
X815711Y-5483341D02*
X815711Y-5341919D01*
X674289Y-5341919D01*
X674289Y-5483341D01*
X815711Y-5483341D01*
X1083571Y-5303106D02*
X1207381Y-5303106D01*
X1140714Y-5379297D01*
X1169286Y-5379297D01*
X1188333Y-5388820D01*
X1197857Y-5398344D01*
X1207381Y-5417392D01*
X1207381Y-5465011D01*
X1197857Y-5484059D01*
X1188333Y-5493582D01*
X1169286Y-5503106D01*
X1112143Y-5503106D01*
X1093095Y-5493582D01*
X1083571Y-5484059D01*
X1293095Y-5484059D02*
X1302619Y-5493582D01*
X1293095Y-5503106D01*
X1283571Y-5493582D01*
X1293095Y-5484059D01*
X1293095Y-5503106D01*
X1397857Y-5503106D02*
X1435952Y-5503106D01*
X1455000Y-5493582D01*
X1464524Y-5484059D01*
X1483571Y-5455487D01*
X1493095Y-5417392D01*
X1493095Y-5341201D01*
X1483571Y-5322154D01*
X1474048Y-5312630D01*
X1455000Y-5303106D01*
X1416905Y-5303106D01*
X1397857Y-5312630D01*
X1388333Y-5322154D01*
X1378810Y-5341201D01*
X1378810Y-5388820D01*
X1388333Y-5407868D01*
X1397857Y-5417392D01*
X1416905Y-5426916D01*
X1455000Y-5426916D01*
X1474048Y-5417392D01*
X1483571Y-5407868D01*
X1493095Y-5388820D01*
X1607381Y-5388820D02*
X1588333Y-5379297D01*
X1578809Y-5369773D01*
X1569286Y-5350725D01*
X1569286Y-5341201D01*
X1578809Y-5322154D01*
X1588333Y-5312630D01*
X1607381Y-5303106D01*
X1645476Y-5303106D01*
X1664524Y-5312630D01*
X1674048Y-5322154D01*
X1683571Y-5341201D01*
X1683571Y-5350725D01*
X1674048Y-5369773D01*
X1664524Y-5379297D01*
X1645476Y-5388820D01*
X1607381Y-5388820D01*
X1588333Y-5398344D01*
X1578809Y-5407868D01*
X1569286Y-5426916D01*
X1569286Y-5465011D01*
X1578809Y-5484059D01*
X1588333Y-5493582D01*
X1607381Y-5503106D01*
X1645476Y-5503106D01*
X1664524Y-5493582D01*
X1674048Y-5484059D01*
X1683571Y-5465011D01*
X1683571Y-5426916D01*
X1674048Y-5407868D01*
X1664524Y-5398344D01*
X1645476Y-5388820D01*
X1797857Y-5388820D02*
X1778809Y-5379297D01*
X1769286Y-5369773D01*
X1759762Y-5350725D01*
X1759762Y-5341201D01*
X1769286Y-5322154D01*
X1778809Y-5312630D01*
X1797857Y-5303106D01*
X1835952Y-5303106D01*
X1855000Y-5312630D01*
X1864524Y-5322154D01*
X1874048Y-5341201D01*
X1874048Y-5350725D01*
X1864524Y-5369773D01*
X1855000Y-5379297D01*
X1835952Y-5388820D01*
X1797857Y-5388820D01*
X1778809Y-5398344D01*
X1769286Y-5407868D01*
X1759762Y-5426916D01*
X1759762Y-5465011D01*
X1769286Y-5484059D01*
X1778809Y-5493582D01*
X1797857Y-5503106D01*
X1835952Y-5503106D01*
X1855000Y-5493582D01*
X1864524Y-5484059D01*
X1874048Y-5465011D01*
X1874048Y-5426916D01*
X1864524Y-5407868D01*
X1855000Y-5398344D01*
X1835952Y-5388820D01*
X1959762Y-5503106D02*
X1959762Y-5369773D01*
X1959762Y-5388820D02*
X1969286Y-5379297D01*
X1988333Y-5369773D01*
X2016905Y-5369773D01*
X2035952Y-5379297D01*
X2045476Y-5398344D01*
X2045476Y-5503106D01*
X2045476Y-5398344D02*
X2055000Y-5379297D01*
X2074048Y-5369773D01*
X2102619Y-5369773D01*
X2121667Y-5379297D01*
X2131190Y-5398344D01*
X2131190Y-5503106D01*
X2226429Y-5503106D02*
X2226429Y-5369773D01*
X2226429Y-5388820D02*
X2235952Y-5379297D01*
X2255000Y-5369773D01*
X2283571Y-5369773D01*
X2302619Y-5379297D01*
X2312143Y-5398344D01*
X2312143Y-5503106D01*
X2312143Y-5398344D02*
X2321667Y-5379297D01*
X2340714Y-5369773D01*
X2369286Y-5369773D01*
X2388333Y-5379297D01*
X2397857Y-5398344D01*
X2397857Y-5503106D01*
X2788333Y-5293582D02*
X2616905Y-5550725D01*
X3045476Y-5303106D02*
X3064524Y-5303106D01*
X3083571Y-5312630D01*
X3093095Y-5322154D01*
X3102619Y-5341201D01*
X3112143Y-5379297D01*
X3112143Y-5426916D01*
X3102619Y-5465011D01*
X3093095Y-5484059D01*
X3083571Y-5493582D01*
X3064524Y-5503106D01*
X3045476Y-5503106D01*
X3026428Y-5493582D01*
X3016905Y-5484059D01*
X3007381Y-5465011D01*
X2997857Y-5426916D01*
X2997857Y-5379297D01*
X3007381Y-5341201D01*
X3016905Y-5322154D01*
X3026428Y-5312630D01*
X3045476Y-5303106D01*
X3197857Y-5484059D02*
X3207381Y-5493582D01*
X3197857Y-5503106D01*
X3188333Y-5493582D01*
X3197857Y-5484059D01*
X3197857Y-5503106D01*
X3397857Y-5503106D02*
X3283571Y-5503106D01*
X3340714Y-5503106D02*
X3340714Y-5303106D01*
X3321667Y-5331678D01*
X3302619Y-5350725D01*
X3283571Y-5360249D01*
X3578809Y-5303106D02*
X3483571Y-5303106D01*
X3474048Y-5398344D01*
X3483571Y-5388820D01*
X3502619Y-5379297D01*
X3550238Y-5379297D01*
X3569286Y-5388820D01*
X3578809Y-5398344D01*
X3588333Y-5417392D01*
X3588333Y-5465011D01*
X3578809Y-5484059D01*
X3569286Y-5493582D01*
X3550238Y-5503106D01*
X3502619Y-5503106D01*
X3483571Y-5493582D01*
X3474048Y-5484059D01*
X3655000Y-5303106D02*
X3788333Y-5303106D01*
X3702619Y-5503106D01*
X3902619Y-5303106D02*
X3921667Y-5303106D01*
X3940714Y-5312630D01*
X3950238Y-5322154D01*
X3959762Y-5341201D01*
X3969286Y-5379297D01*
X3969286Y-5426916D01*
X3959762Y-5465011D01*
X3950238Y-5484059D01*
X3940714Y-5493582D01*
X3921667Y-5503106D01*
X3902619Y-5503106D01*
X3883571Y-5493582D01*
X3874048Y-5484059D01*
X3864524Y-5465011D01*
X3855000Y-5426916D01*
X3855000Y-5379297D01*
X3864524Y-5341201D01*
X3874048Y-5322154D01*
X3883571Y-5312630D01*
X3902619Y-5303106D01*
X4045476Y-5303106D02*
X4045476Y-5341201D01*
X4121667Y-5303106D02*
X4121667Y-5341201D01*
X4416905Y-5579297D02*
X4407381Y-5569773D01*
X4388333Y-5541201D01*
X4378810Y-5522154D01*
X4369286Y-5493582D01*
X4359762Y-5445963D01*
X4359762Y-5407868D01*
X4369286Y-5360249D01*
X4378810Y-5331678D01*
X4388333Y-5312630D01*
X4407381Y-5284059D01*
X4416905Y-5274535D01*
X4483571Y-5322154D02*
X4493095Y-5312630D01*
X4512143Y-5303106D01*
X4559762Y-5303106D01*
X4578810Y-5312630D01*
X4588333Y-5322154D01*
X4597857Y-5341201D01*
X4597857Y-5360249D01*
X4588333Y-5388820D01*
X4474048Y-5503106D01*
X4597857Y-5503106D01*
X4769286Y-5303106D02*
X4731190Y-5303106D01*
X4712143Y-5312630D01*
X4702619Y-5322154D01*
X4683571Y-5350725D01*
X4674048Y-5388820D01*
X4674048Y-5465011D01*
X4683571Y-5484059D01*
X4693095Y-5493582D01*
X4712143Y-5503106D01*
X4750238Y-5503106D01*
X4769286Y-5493582D01*
X4778810Y-5484059D01*
X4788333Y-5465011D01*
X4788333Y-5417392D01*
X4778810Y-5398344D01*
X4769286Y-5388820D01*
X4750238Y-5379297D01*
X4712143Y-5379297D01*
X4693095Y-5388820D01*
X4683571Y-5398344D01*
X4674048Y-5417392D01*
X5026429Y-5503106D02*
X5026429Y-5303106D01*
X5112143Y-5503106D02*
X5112143Y-5398344D01*
X5102619Y-5379297D01*
X5083571Y-5369773D01*
X5055000Y-5369773D01*
X5035952Y-5379297D01*
X5026429Y-5388820D01*
X5235952Y-5503106D02*
X5216905Y-5493582D01*
X5207381Y-5484059D01*
X5197857Y-5465011D01*
X5197857Y-5407868D01*
X5207381Y-5388820D01*
X5216905Y-5379297D01*
X5235952Y-5369773D01*
X5264524Y-5369773D01*
X5283571Y-5379297D01*
X5293095Y-5388820D01*
X5302619Y-5407868D01*
X5302619Y-5465011D01*
X5293095Y-5484059D01*
X5283571Y-5493582D01*
X5264524Y-5503106D01*
X5235952Y-5503106D01*
X5416905Y-5503106D02*
X5397857Y-5493582D01*
X5388333Y-5474535D01*
X5388333Y-5303106D01*
X5569286Y-5493582D02*
X5550238Y-5503106D01*
X5512143Y-5503106D01*
X5493095Y-5493582D01*
X5483571Y-5474535D01*
X5483571Y-5398344D01*
X5493095Y-5379297D01*
X5512143Y-5369773D01*
X5550238Y-5369773D01*
X5569286Y-5379297D01*
X5578810Y-5398344D01*
X5578810Y-5417392D01*
X5483571Y-5436440D01*
X5655000Y-5493582D02*
X5674048Y-5503106D01*
X5712143Y-5503106D01*
X5731190Y-5493582D01*
X5740714Y-5474535D01*
X5740714Y-5465011D01*
X5731190Y-5445963D01*
X5712143Y-5436440D01*
X5683571Y-5436440D01*
X5664524Y-5426916D01*
X5655000Y-5407868D01*
X5655000Y-5398344D01*
X5664524Y-5379297D01*
X5683571Y-5369773D01*
X5712143Y-5369773D01*
X5731190Y-5379297D01*
X5807381Y-5579297D02*
X5816905Y-5569773D01*
X5835952Y-5541201D01*
X5845476Y-5522154D01*
X5855000Y-5493582D01*
X5864524Y-5445963D01*
X5864524Y-5407868D01*
X5855000Y-5360249D01*
X5845476Y-5331678D01*
X5835952Y-5312630D01*
X5816905Y-5284059D01*
X5807381Y-5274535D01*
X6169286Y-5579297D02*
X6159762Y-5569773D01*
X6140714Y-5541201D01*
X6131190Y-5522154D01*
X6121667Y-5493582D01*
X6112143Y-5445963D01*
X6112143Y-5407868D01*
X6121667Y-5360249D01*
X6131190Y-5331678D01*
X6140714Y-5312630D01*
X6159762Y-5284059D01*
X6169286Y-5274535D01*
X6245476Y-5369773D02*
X6245476Y-5503106D01*
X6245476Y-5388820D02*
X6255000Y-5379297D01*
X6274048Y-5369773D01*
X6302619Y-5369773D01*
X6321667Y-5379297D01*
X6331190Y-5398344D01*
X6331190Y-5503106D01*
X6455000Y-5503106D02*
X6435952Y-5493582D01*
X6426428Y-5484059D01*
X6416905Y-5465011D01*
X6416905Y-5407868D01*
X6426428Y-5388820D01*
X6435952Y-5379297D01*
X6455000Y-5369773D01*
X6483571Y-5369773D01*
X6502619Y-5379297D01*
X6512143Y-5388820D01*
X6521667Y-5407868D01*
X6521667Y-5465011D01*
X6512143Y-5484059D01*
X6502619Y-5493582D01*
X6483571Y-5503106D01*
X6455000Y-5503106D01*
X6578809Y-5369773D02*
X6655000Y-5369773D01*
X6607381Y-5303106D02*
X6607381Y-5474535D01*
X6616905Y-5493582D01*
X6635952Y-5503106D01*
X6655000Y-5503106D01*
X6874048Y-5369773D02*
X6874048Y-5569773D01*
X6874048Y-5379297D02*
X6893095Y-5369773D01*
X6931190Y-5369773D01*
X6950238Y-5379297D01*
X6959762Y-5388820D01*
X6969286Y-5407868D01*
X6969286Y-5465011D01*
X6959762Y-5484059D01*
X6950238Y-5493582D01*
X6931190Y-5503106D01*
X6893095Y-5503106D01*
X6874048Y-5493582D01*
X7083571Y-5503106D02*
X7064524Y-5493582D01*
X7055000Y-5474535D01*
X7055000Y-5303106D01*
X7245476Y-5503106D02*
X7245476Y-5398344D01*
X7235952Y-5379297D01*
X7216905Y-5369773D01*
X7178809Y-5369773D01*
X7159762Y-5379297D01*
X7245476Y-5493582D02*
X7226428Y-5503106D01*
X7178809Y-5503106D01*
X7159762Y-5493582D01*
X7150238Y-5474535D01*
X7150238Y-5455487D01*
X7159762Y-5436440D01*
X7178809Y-5426916D01*
X7226428Y-5426916D01*
X7245476Y-5417392D01*
X7312143Y-5369773D02*
X7388333Y-5369773D01*
X7340714Y-5303106D02*
X7340714Y-5474535D01*
X7350238Y-5493582D01*
X7369286Y-5503106D01*
X7388333Y-5503106D01*
X7531190Y-5493582D02*
X7512143Y-5503106D01*
X7474048Y-5503106D01*
X7455000Y-5493582D01*
X7445476Y-5474535D01*
X7445476Y-5398344D01*
X7455000Y-5379297D01*
X7474048Y-5369773D01*
X7512143Y-5369773D01*
X7531190Y-5379297D01*
X7540714Y-5398344D01*
X7540714Y-5417392D01*
X7445476Y-5436440D01*
X7712143Y-5503106D02*
X7712143Y-5303106D01*
X7712143Y-5493582D02*
X7693095Y-5503106D01*
X7655000Y-5503106D01*
X7635952Y-5493582D01*
X7626428Y-5484059D01*
X7616905Y-5465011D01*
X7616905Y-5407868D01*
X7626428Y-5388820D01*
X7635952Y-5379297D01*
X7655000Y-5369773D01*
X7693095Y-5369773D01*
X7712143Y-5379297D01*
X7788333Y-5579297D02*
X7797857Y-5569773D01*
X7816905Y-5541201D01*
X7826428Y-5522154D01*
X7835952Y-5493582D01*
X7845476Y-5445963D01*
X7845476Y-5407868D01*
X7835952Y-5360249D01*
X7826428Y-5331678D01*
X7816905Y-5312630D01*
X7797857Y-5284059D01*
X7788333Y-5274535D01*
M02*
