%TF.GenerationSoftware,KiCad,Pcbnew,(6.0.8)*%
%TF.CreationDate,2022-10-22T23:02:29+01:00*%
%TF.ProjectId,board,626f6172-642e-46b6-9963-61645f706362,v1.0.0*%
%TF.SameCoordinates,Original*%
%TF.FileFunction,Soldermask,Bot*%
%TF.FilePolarity,Negative*%
%FSLAX46Y46*%
G04 Gerber Fmt 4.6, Leading zero omitted, Abs format (unit mm)*
G04 Created by KiCad (PCBNEW (6.0.8)) date 2022-10-22 23:02:29*
%MOMM*%
%LPD*%
G01*
G04 APERTURE LIST*
G04 Aperture macros list*
%AMRoundRect*
0 Rectangle with rounded corners*
0 $1 Rounding radius*
0 $2 $3 $4 $5 $6 $7 $8 $9 X,Y pos of 4 corners*
0 Add a 4 corners polygon primitive as box body*
4,1,4,$2,$3,$4,$5,$6,$7,$8,$9,$2,$3,0*
0 Add four circle primitives for the rounded corners*
1,1,$1+$1,$2,$3*
1,1,$1+$1,$4,$5*
1,1,$1+$1,$6,$7*
1,1,$1+$1,$8,$9*
0 Add four rect primitives between the rounded corners*
20,1,$1+$1,$2,$3,$4,$5,0*
20,1,$1+$1,$4,$5,$6,$7,0*
20,1,$1+$1,$6,$7,$8,$9,0*
20,1,$1+$1,$8,$9,$2,$3,0*%
G04 Aperture macros list end*
%ADD10C,4.087800*%
%ADD11C,1.801800*%
%ADD12C,3.100000*%
%ADD13RoundRect,0.050000X1.275000X1.250000X-1.275000X1.250000X-1.275000X-1.250000X1.275000X-1.250000X0*%
%ADD14RoundRect,0.050000X-0.450000X-0.600000X0.450000X-0.600000X0.450000X0.600000X-0.450000X0.600000X0*%
%ADD15C,2.005000*%
%ADD16RoundRect,0.050000X-0.889000X-0.889000X0.889000X-0.889000X0.889000X0.889000X-0.889000X0.889000X0*%
%ADD17RoundRect,0.050000X-0.876300X0.876300X-0.876300X-0.876300X0.876300X-0.876300X0.876300X0.876300X0*%
%ADD18C,1.852600*%
%ADD19C,1.300000*%
%ADD20O,2.300000X1.700000*%
%ADD21C,2.100000*%
G04 APERTURE END LIST*
D10*
%TO.C,S1*%
X19050000Y0D03*
D11*
X24130000Y0D03*
X13970000Y0D03*
D12*
X21590000Y5080000D03*
X15240000Y2540000D03*
D13*
X11965000Y2540000D03*
X24892000Y5080000D03*
D12*
X16510000Y5080000D03*
X22860000Y2540000D03*
%TD*%
D14*
%TO.C,D1*%
X20700000Y-5000000D03*
X17400000Y-5000000D03*
D15*
X22860000Y-5000000D03*
D16*
X15240000Y-5000000D03*
%TD*%
D10*
%TO.C,S2*%
X19050000Y19050000D03*
D11*
X24130000Y19050000D03*
X13970000Y19050000D03*
D12*
X21590000Y24130000D03*
X15240000Y21590000D03*
D13*
X11965000Y21590000D03*
X24892000Y24130000D03*
D12*
X16510000Y24130000D03*
X22860000Y21590000D03*
%TD*%
D14*
%TO.C,D2*%
X20700000Y14050000D03*
X17400000Y14050000D03*
D15*
X22860000Y14050000D03*
D16*
X15240000Y14050000D03*
%TD*%
D10*
%TO.C,S3*%
X19050000Y38100000D03*
D11*
X24130000Y38100000D03*
X13970000Y38100000D03*
D12*
X21590000Y43180000D03*
X15240000Y40640000D03*
D13*
X11965000Y40640000D03*
X24892000Y43180000D03*
D12*
X16510000Y43180000D03*
X22860000Y40640000D03*
%TD*%
D14*
%TO.C,D3*%
X20700000Y33100000D03*
X17400000Y33100000D03*
D15*
X22860000Y33100000D03*
D16*
X15240000Y33100000D03*
%TD*%
D10*
%TO.C,S4*%
X38100000Y0D03*
D11*
X43180000Y0D03*
X33020000Y0D03*
D12*
X40640000Y5080000D03*
X34290000Y2540000D03*
D13*
X31015000Y2540000D03*
X43942000Y5080000D03*
D12*
X35560000Y5080000D03*
X41910000Y2540000D03*
%TD*%
D14*
%TO.C,D4*%
X39750000Y-5000000D03*
X36450000Y-5000000D03*
D15*
X41910000Y-5000000D03*
D16*
X34290000Y-5000000D03*
%TD*%
D10*
%TO.C,S5*%
X38100000Y19050000D03*
D11*
X43180000Y19050000D03*
X33020000Y19050000D03*
D12*
X40640000Y24130000D03*
X34290000Y21590000D03*
D13*
X31015000Y21590000D03*
X43942000Y24130000D03*
D12*
X35560000Y24130000D03*
X41910000Y21590000D03*
%TD*%
D14*
%TO.C,D5*%
X39750000Y14050000D03*
X36450000Y14050000D03*
D15*
X41910000Y14050000D03*
D16*
X34290000Y14050000D03*
%TD*%
D10*
%TO.C,S6*%
X38100000Y38100000D03*
D11*
X43180000Y38100000D03*
X33020000Y38100000D03*
D12*
X40640000Y43180000D03*
X34290000Y40640000D03*
D13*
X31015000Y40640000D03*
X43942000Y43180000D03*
D12*
X35560000Y43180000D03*
X41910000Y40640000D03*
%TD*%
D14*
%TO.C,D6*%
X39750000Y33100000D03*
X36450000Y33100000D03*
D15*
X41910000Y33100000D03*
D16*
X34290000Y33100000D03*
%TD*%
D10*
%TO.C,S7*%
X57150000Y12573000D03*
D11*
X62230000Y12573000D03*
X52070000Y12573000D03*
D12*
X59690000Y17653000D03*
X53340000Y15113000D03*
D13*
X50065000Y15113000D03*
X62992000Y17653000D03*
D12*
X54610000Y17653000D03*
X60960000Y15113000D03*
%TD*%
D14*
%TO.C,D7*%
X58800000Y7573000D03*
X55500000Y7573000D03*
D15*
X60960000Y7573000D03*
D16*
X53340000Y7573000D03*
%TD*%
D10*
%TO.C,S8*%
X57150000Y31623000D03*
D11*
X62230000Y31623000D03*
X52070000Y31623000D03*
D12*
X59690000Y36703000D03*
X53340000Y34163000D03*
D13*
X50065000Y34163000D03*
X62992000Y36703000D03*
D12*
X54610000Y36703000D03*
X60960000Y34163000D03*
%TD*%
D14*
%TO.C,D8*%
X58800000Y26623000D03*
X55500000Y26623000D03*
D15*
X60960000Y26623000D03*
D16*
X53340000Y26623000D03*
%TD*%
D10*
%TO.C,S9*%
X57150000Y50673000D03*
D11*
X62230000Y50673000D03*
X52070000Y50673000D03*
D12*
X59690000Y55753000D03*
X53340000Y53213000D03*
D13*
X50065000Y53213000D03*
X62992000Y55753000D03*
D12*
X54610000Y55753000D03*
X60960000Y53213000D03*
%TD*%
D14*
%TO.C,D9*%
X58800000Y45673000D03*
X55500000Y45673000D03*
D15*
X60960000Y45673000D03*
D16*
X53340000Y45673000D03*
%TD*%
D10*
%TO.C,S10*%
X76150000Y17335500D03*
D11*
X81230000Y17335500D03*
X71070000Y17335500D03*
D12*
X78690000Y22415500D03*
X72340000Y19875500D03*
D13*
X69065000Y19875500D03*
X81992000Y22415500D03*
D12*
X73610000Y22415500D03*
X79960000Y19875500D03*
%TD*%
D14*
%TO.C,D10*%
X77800000Y12335500D03*
X74500000Y12335500D03*
D15*
X79960000Y12335500D03*
D16*
X72340000Y12335500D03*
%TD*%
D10*
%TO.C,S11*%
X76150000Y36385500D03*
D11*
X81230000Y36385500D03*
X71070000Y36385500D03*
D12*
X78690000Y41465500D03*
X72340000Y38925500D03*
D13*
X69065000Y38925500D03*
X81992000Y41465500D03*
D12*
X73610000Y41465500D03*
X79960000Y38925500D03*
%TD*%
D14*
%TO.C,D11*%
X77800000Y31385500D03*
X74500000Y31385500D03*
D15*
X79960000Y31385500D03*
D16*
X72340000Y31385500D03*
%TD*%
D10*
%TO.C,S12*%
X76150000Y55435500D03*
D11*
X81230000Y55435500D03*
X71070000Y55435500D03*
D12*
X78690000Y60515500D03*
X72340000Y57975500D03*
D13*
X69065000Y57975500D03*
X81992000Y60515500D03*
D12*
X73610000Y60515500D03*
X79960000Y57975500D03*
%TD*%
D14*
%TO.C,D12*%
X77800000Y50435500D03*
X74500000Y50435500D03*
D15*
X79960000Y50435500D03*
D16*
X72340000Y50435500D03*
%TD*%
D10*
%TO.C,S13*%
X95150000Y12573000D03*
D11*
X100230000Y12573000D03*
X90070000Y12573000D03*
D12*
X97690000Y17653000D03*
X91340000Y15113000D03*
D13*
X88065000Y15113000D03*
X100992000Y17653000D03*
D12*
X92610000Y17653000D03*
X98960000Y15113000D03*
%TD*%
D14*
%TO.C,D13*%
X96800000Y7573000D03*
X93500000Y7573000D03*
D15*
X98960000Y7573000D03*
D16*
X91340000Y7573000D03*
%TD*%
D10*
%TO.C,S14*%
X95150000Y31623000D03*
D11*
X100230000Y31623000D03*
X90070000Y31623000D03*
D12*
X97690000Y36703000D03*
X91340000Y34163000D03*
D13*
X88065000Y34163000D03*
X100992000Y36703000D03*
D12*
X92610000Y36703000D03*
X98960000Y34163000D03*
%TD*%
D14*
%TO.C,D14*%
X96800000Y26623000D03*
X93500000Y26623000D03*
D15*
X98960000Y26623000D03*
D16*
X91340000Y26623000D03*
%TD*%
D10*
%TO.C,S15*%
X95150000Y50673000D03*
D11*
X100230000Y50673000D03*
X90070000Y50673000D03*
D12*
X97690000Y55753000D03*
X91340000Y53213000D03*
D13*
X88065000Y53213000D03*
X100992000Y55753000D03*
D12*
X92610000Y55753000D03*
X98960000Y53213000D03*
%TD*%
D14*
%TO.C,D15*%
X96800000Y45673000D03*
X93500000Y45673000D03*
D15*
X98960000Y45673000D03*
D16*
X91340000Y45673000D03*
%TD*%
D10*
%TO.C,S16*%
X114200000Y9715500D03*
D11*
X119280000Y9715500D03*
X109120000Y9715500D03*
D12*
X116740000Y14795500D03*
X110390000Y12255500D03*
D13*
X107115000Y12255500D03*
X120042000Y14795500D03*
D12*
X111660000Y14795500D03*
X118010000Y12255500D03*
%TD*%
D14*
%TO.C,D16*%
X115850000Y4715500D03*
X112550000Y4715500D03*
D15*
X118010000Y4715500D03*
D16*
X110390000Y4715500D03*
%TD*%
D10*
%TO.C,S17*%
X114200000Y28765500D03*
D11*
X119280000Y28765500D03*
X109120000Y28765500D03*
D12*
X116740000Y33845500D03*
X110390000Y31305500D03*
D13*
X107115000Y31305500D03*
X120042000Y33845500D03*
D12*
X111660000Y33845500D03*
X118010000Y31305500D03*
%TD*%
D14*
%TO.C,D17*%
X115850000Y23765500D03*
X112550000Y23765500D03*
D15*
X118010000Y23765500D03*
D16*
X110390000Y23765500D03*
%TD*%
D10*
%TO.C,S18*%
X114200000Y47815500D03*
D11*
X119280000Y47815500D03*
X109120000Y47815500D03*
D12*
X116740000Y52895500D03*
X110390000Y50355500D03*
D13*
X107115000Y50355500D03*
X120042000Y52895500D03*
D12*
X111660000Y52895500D03*
X118010000Y50355500D03*
%TD*%
D14*
%TO.C,D18*%
X115850000Y42815500D03*
X112550000Y42815500D03*
D15*
X118010000Y42815500D03*
D16*
X110390000Y42815500D03*
%TD*%
D10*
%TO.C,S19*%
X76100000Y-9334500D03*
D11*
X81180000Y-9334500D03*
X71020000Y-9334500D03*
D12*
X78640000Y-4254500D03*
X72290000Y-6794500D03*
D13*
X69015000Y-6794500D03*
X81942000Y-4254500D03*
D12*
X73560000Y-4254500D03*
X79910000Y-6794500D03*
%TD*%
D14*
%TO.C,D19*%
X77750000Y-14334500D03*
X74450000Y-14334500D03*
D15*
X79910000Y-14334500D03*
D16*
X72290000Y-14334500D03*
%TD*%
D10*
%TO.C,S20*%
X76100000Y-28384500D03*
D11*
X81180000Y-28384500D03*
X71020000Y-28384500D03*
D12*
X78640000Y-23304500D03*
X72290000Y-25844500D03*
D13*
X69015000Y-25844500D03*
X81942000Y-23304500D03*
D12*
X73560000Y-23304500D03*
X79910000Y-25844500D03*
%TD*%
D14*
%TO.C,D20*%
X77750000Y-33384500D03*
X74450000Y-33384500D03*
D15*
X79910000Y-33384500D03*
D16*
X72290000Y-33384500D03*
%TD*%
D10*
%TO.C,S21*%
X95150000Y-9334500D03*
D11*
X100230000Y-9334500D03*
X90070000Y-9334500D03*
D12*
X97690000Y-4254500D03*
X91340000Y-6794500D03*
D13*
X88065000Y-6794500D03*
X100992000Y-4254500D03*
D12*
X92610000Y-4254500D03*
X98960000Y-6794500D03*
%TD*%
D14*
%TO.C,D21*%
X96800000Y-14334500D03*
X93500000Y-14334500D03*
D15*
X98960000Y-14334500D03*
D16*
X91340000Y-14334500D03*
%TD*%
D10*
%TO.C,S22*%
X95150000Y-28384500D03*
D11*
X100230000Y-28384500D03*
X90070000Y-28384500D03*
D12*
X97690000Y-23304500D03*
X91340000Y-25844500D03*
D13*
X88065000Y-25844500D03*
X100992000Y-23304500D03*
D12*
X92610000Y-23304500D03*
X98960000Y-25844500D03*
%TD*%
D14*
%TO.C,D22*%
X96800000Y-33384500D03*
X93500000Y-33384500D03*
D15*
X98960000Y-33384500D03*
D16*
X91340000Y-33384500D03*
%TD*%
D10*
%TO.C,S23*%
X114200000Y-9334500D03*
D11*
X119280000Y-9334500D03*
X109120000Y-9334500D03*
D12*
X116740000Y-4254500D03*
X110390000Y-6794500D03*
D13*
X107115000Y-6794500D03*
X120042000Y-4254500D03*
D12*
X111660000Y-4254500D03*
X118010000Y-6794500D03*
%TD*%
D14*
%TO.C,D23*%
X115850000Y-14334500D03*
X112550000Y-14334500D03*
D15*
X118010000Y-14334500D03*
D16*
X110390000Y-14334500D03*
%TD*%
D10*
%TO.C,S24*%
X114200000Y-28384500D03*
D11*
X119280000Y-28384500D03*
X109120000Y-28384500D03*
D12*
X116740000Y-23304500D03*
X110390000Y-25844500D03*
D13*
X107115000Y-25844500D03*
X120042000Y-23304500D03*
D12*
X111660000Y-23304500D03*
X118010000Y-25844500D03*
%TD*%
D14*
%TO.C,D24*%
X115850000Y-33384500D03*
X112550000Y-33384500D03*
D15*
X118010000Y-33384500D03*
D16*
X110390000Y-33384500D03*
%TD*%
D10*
%TO.C,S25*%
X133250000Y-9334500D03*
D11*
X138330000Y-9334500D03*
X128170000Y-9334500D03*
D12*
X135790000Y-4254500D03*
X129440000Y-6794500D03*
D13*
X126165000Y-6794500D03*
X139092000Y-4254500D03*
D12*
X130710000Y-4254500D03*
X137060000Y-6794500D03*
%TD*%
D14*
%TO.C,D25*%
X134900000Y-14334500D03*
X131600000Y-14334500D03*
D15*
X137060000Y-14334500D03*
D16*
X129440000Y-14334500D03*
%TD*%
D10*
%TO.C,S26*%
X133250000Y-28384500D03*
D11*
X138330000Y-28384500D03*
X128170000Y-28384500D03*
D12*
X135790000Y-23304500D03*
X129440000Y-25844500D03*
D13*
X126165000Y-25844500D03*
X139092000Y-23304500D03*
D12*
X130710000Y-23304500D03*
X137060000Y-25844500D03*
%TD*%
D14*
%TO.C,D26*%
X134900000Y-33384500D03*
X131600000Y-33384500D03*
D15*
X137060000Y-33384500D03*
D16*
X129440000Y-33384500D03*
%TD*%
D17*
%TO.C,MCU1*%
X141820000Y50785500D03*
D18*
X141820000Y48245500D03*
X141820000Y45705500D03*
X141820000Y43165500D03*
X141820000Y40625500D03*
X141820000Y38085500D03*
X141820000Y35545500D03*
X141820000Y33005500D03*
X141820000Y30465500D03*
X141820000Y27925500D03*
X141820000Y25385500D03*
X141820000Y22845500D03*
X126580000Y50785500D03*
X126580000Y48245500D03*
X126580000Y45705500D03*
X126580000Y43165500D03*
X126580000Y40625500D03*
X126580000Y38085500D03*
X126580000Y35545500D03*
X126580000Y33005500D03*
X126580000Y30465500D03*
X126580000Y27925500D03*
X126580000Y25385500D03*
X126580000Y22845500D03*
%TD*%
D17*
%TO.C,MCU2*%
X129080000Y49535500D03*
D18*
X129080000Y46995500D03*
X129080000Y44455500D03*
X129080000Y41915500D03*
X129080000Y39375500D03*
X129080000Y36835500D03*
X129080000Y34295500D03*
X129080000Y31755500D03*
X129080000Y29215500D03*
X129080000Y26675500D03*
X129080000Y24135500D03*
X129080000Y21595500D03*
X144320000Y49535500D03*
X144320000Y46995500D03*
X144320000Y44455500D03*
X144320000Y41915500D03*
X144320000Y39375500D03*
X144320000Y36835500D03*
X144320000Y34295500D03*
X144320000Y31755500D03*
X144320000Y29215500D03*
X144320000Y26675500D03*
X144320000Y24135500D03*
X144320000Y21595500D03*
%TD*%
D19*
%TO.C,TRRS1*%
X137600000Y10015500D03*
X144600000Y10015500D03*
D20*
X134900000Y12315500D03*
X136000000Y7715500D03*
X140000000Y7715500D03*
X143000000Y7715500D03*
%TD*%
D19*
%TO.C,TRRS2*%
X137600000Y12015500D03*
X144600000Y12015500D03*
D20*
X134900000Y9715500D03*
X136000000Y14315500D03*
X140000000Y14315500D03*
X143000000Y14315500D03*
%TD*%
D21*
%TO.C,B1*%
X127200000Y14315500D03*
X127200000Y7815500D03*
%TD*%
G36*
X135790000Y-24852494D02*
G01*
X135879294Y-24845466D01*
X135881099Y-24846327D01*
X135881256Y-24848321D01*
X135880972Y-24848759D01*
X135807645Y-24934615D01*
X135721722Y-25074828D01*
X135719965Y-25075782D01*
X135718259Y-25074737D01*
X135718307Y-25072745D01*
X135741690Y-25034211D01*
X135759559Y-24966989D01*
X135738341Y-24901061D01*
X135684761Y-24857000D01*
X135641332Y-24847246D01*
X135614490Y-24846191D01*
X135614196Y-24846158D01*
X135582710Y-24840180D01*
X135581195Y-24838874D01*
X135581568Y-24836909D01*
X135583240Y-24836221D01*
X135790000Y-24852494D01*
G37*
G36*
X116740000Y-24852494D02*
G01*
X116829294Y-24845466D01*
X116831099Y-24846327D01*
X116831256Y-24848321D01*
X116830972Y-24848759D01*
X116757645Y-24934615D01*
X116671722Y-25074828D01*
X116669965Y-25075782D01*
X116668259Y-25074737D01*
X116668307Y-25072745D01*
X116691690Y-25034211D01*
X116709559Y-24966989D01*
X116688341Y-24901061D01*
X116634761Y-24857000D01*
X116591332Y-24847246D01*
X116564490Y-24846191D01*
X116564196Y-24846158D01*
X116532710Y-24840180D01*
X116531195Y-24838874D01*
X116531568Y-24836909D01*
X116533240Y-24836221D01*
X116740000Y-24852494D01*
G37*
G36*
X97690000Y-24852494D02*
G01*
X97779294Y-24845466D01*
X97781099Y-24846327D01*
X97781256Y-24848321D01*
X97780972Y-24848759D01*
X97707645Y-24934615D01*
X97621722Y-25074828D01*
X97619965Y-25075782D01*
X97618259Y-25074737D01*
X97618307Y-25072745D01*
X97641690Y-25034211D01*
X97659559Y-24966989D01*
X97638341Y-24901061D01*
X97584761Y-24857000D01*
X97541332Y-24847246D01*
X97514490Y-24846191D01*
X97514196Y-24846158D01*
X97482710Y-24840180D01*
X97481195Y-24838874D01*
X97481568Y-24836909D01*
X97483240Y-24836221D01*
X97690000Y-24852494D01*
G37*
G36*
X78640000Y-24852494D02*
G01*
X78729294Y-24845466D01*
X78731099Y-24846327D01*
X78731256Y-24848321D01*
X78730972Y-24848759D01*
X78657645Y-24934615D01*
X78571722Y-25074828D01*
X78569965Y-25075782D01*
X78568259Y-25074737D01*
X78568307Y-25072745D01*
X78591690Y-25034211D01*
X78609559Y-24966989D01*
X78588341Y-24901061D01*
X78534761Y-24857000D01*
X78491332Y-24847246D01*
X78464490Y-24846191D01*
X78464196Y-24846158D01*
X78432710Y-24840180D01*
X78431195Y-24838874D01*
X78431568Y-24836909D01*
X78433240Y-24836221D01*
X78640000Y-24852494D01*
G37*
G36*
X130862043Y-24841531D02*
G01*
X130862200Y-24843525D01*
X130860613Y-24844652D01*
X130849975Y-24845817D01*
X130785766Y-24872563D01*
X130746380Y-24929531D01*
X130744039Y-24998913D01*
X130756361Y-25029268D01*
X130774544Y-25061083D01*
X130774536Y-25063083D01*
X130772799Y-25064075D01*
X130771103Y-25063120D01*
X130692355Y-24934615D01*
X130619028Y-24848759D01*
X130618664Y-24846792D01*
X130620185Y-24845493D01*
X130620706Y-24845466D01*
X130710000Y-24852494D01*
X130860238Y-24840670D01*
X130862043Y-24841531D01*
G37*
G36*
X92762043Y-24841531D02*
G01*
X92762200Y-24843525D01*
X92760613Y-24844652D01*
X92749975Y-24845817D01*
X92685766Y-24872563D01*
X92646380Y-24929531D01*
X92644039Y-24998913D01*
X92656361Y-25029268D01*
X92674544Y-25061083D01*
X92674536Y-25063083D01*
X92672799Y-25064075D01*
X92671103Y-25063120D01*
X92592355Y-24934615D01*
X92519028Y-24848759D01*
X92518664Y-24846792D01*
X92520185Y-24845493D01*
X92520706Y-24845466D01*
X92610000Y-24852494D01*
X92760238Y-24840670D01*
X92762043Y-24841531D01*
G37*
G36*
X111812043Y-24841531D02*
G01*
X111812200Y-24843525D01*
X111810613Y-24844652D01*
X111799975Y-24845817D01*
X111735766Y-24872563D01*
X111696380Y-24929531D01*
X111694039Y-24998913D01*
X111706361Y-25029268D01*
X111724544Y-25061083D01*
X111724536Y-25063083D01*
X111722799Y-25064075D01*
X111721103Y-25063120D01*
X111642355Y-24934615D01*
X111569028Y-24848759D01*
X111568664Y-24846792D01*
X111570185Y-24845493D01*
X111570706Y-24845466D01*
X111660000Y-24852494D01*
X111810238Y-24840670D01*
X111812043Y-24841531D01*
G37*
G36*
X73712043Y-24841531D02*
G01*
X73712200Y-24843525D01*
X73710613Y-24844652D01*
X73699975Y-24845817D01*
X73635766Y-24872563D01*
X73596380Y-24929531D01*
X73594039Y-24998913D01*
X73606361Y-25029268D01*
X73624544Y-25061083D01*
X73624536Y-25063083D01*
X73622799Y-25064075D01*
X73621103Y-25063120D01*
X73542355Y-24934615D01*
X73469028Y-24848759D01*
X73468664Y-24846792D01*
X73470185Y-24845493D01*
X73470706Y-24845466D01*
X73560000Y-24852494D01*
X73710238Y-24840670D01*
X73712043Y-24841531D01*
G37*
G36*
X138309767Y-24603500D02*
G01*
X138309767Y-24605500D01*
X138308598Y-24606419D01*
X138241583Y-24626096D01*
X138196228Y-24678439D01*
X138186368Y-24747017D01*
X138211604Y-24805853D01*
X138259127Y-24866136D01*
X138259414Y-24868115D01*
X138257843Y-24869353D01*
X138256035Y-24868673D01*
X138154597Y-24749903D01*
X137986132Y-24606021D01*
X137985464Y-24604136D01*
X137986763Y-24602615D01*
X137987431Y-24602500D01*
X138308035Y-24602500D01*
X138309767Y-24603500D01*
G37*
G36*
X100209767Y-24603500D02*
G01*
X100209767Y-24605500D01*
X100208598Y-24606419D01*
X100141583Y-24626096D01*
X100096228Y-24678439D01*
X100086368Y-24747017D01*
X100111604Y-24805853D01*
X100159127Y-24866136D01*
X100159414Y-24868115D01*
X100157843Y-24869353D01*
X100156035Y-24868673D01*
X100054597Y-24749903D01*
X99886132Y-24606021D01*
X99885464Y-24604136D01*
X99886763Y-24602615D01*
X99887431Y-24602500D01*
X100208035Y-24602500D01*
X100209767Y-24603500D01*
G37*
G36*
X119259767Y-24603500D02*
G01*
X119259767Y-24605500D01*
X119258598Y-24606419D01*
X119191583Y-24626096D01*
X119146228Y-24678439D01*
X119136368Y-24747017D01*
X119161604Y-24805853D01*
X119209127Y-24866136D01*
X119209414Y-24868115D01*
X119207843Y-24869353D01*
X119206035Y-24868673D01*
X119104597Y-24749903D01*
X118936132Y-24606021D01*
X118935464Y-24604136D01*
X118936763Y-24602615D01*
X118937431Y-24602500D01*
X119258035Y-24602500D01*
X119259767Y-24603500D01*
G37*
G36*
X81159767Y-24603500D02*
G01*
X81159767Y-24605500D01*
X81158598Y-24606419D01*
X81091583Y-24626096D01*
X81046228Y-24678439D01*
X81036368Y-24747017D01*
X81061604Y-24805853D01*
X81109127Y-24866136D01*
X81109414Y-24868115D01*
X81107843Y-24869353D01*
X81106035Y-24868673D01*
X81004597Y-24749903D01*
X80836132Y-24606021D01*
X80835464Y-24604136D01*
X80836763Y-24602615D01*
X80837431Y-24602500D01*
X81158035Y-24602500D01*
X81159767Y-24603500D01*
G37*
G36*
X118718141Y-24275284D02*
G01*
X118719000Y-24276927D01*
X118719000Y-24465471D01*
X118718000Y-24467203D01*
X118715955Y-24467176D01*
X118712776Y-24465228D01*
X118539432Y-24393427D01*
X118538214Y-24391840D01*
X118538979Y-24389992D01*
X118540807Y-24389674D01*
X118554232Y-24393971D01*
X118623767Y-24395655D01*
X118682919Y-24359632D01*
X118713300Y-24297153D01*
X118715007Y-24276760D01*
X118716148Y-24275118D01*
X118718141Y-24275284D01*
G37*
G36*
X80618141Y-24275284D02*
G01*
X80619000Y-24276927D01*
X80619000Y-24465471D01*
X80618000Y-24467203D01*
X80615955Y-24467176D01*
X80612776Y-24465228D01*
X80439432Y-24393427D01*
X80438214Y-24391840D01*
X80438979Y-24389992D01*
X80440807Y-24389674D01*
X80454232Y-24393971D01*
X80523767Y-24395655D01*
X80582919Y-24359632D01*
X80613300Y-24297153D01*
X80615007Y-24276760D01*
X80616148Y-24275118D01*
X80618141Y-24275284D01*
G37*
G36*
X99668141Y-24275284D02*
G01*
X99669000Y-24276927D01*
X99669000Y-24465471D01*
X99668000Y-24467203D01*
X99665955Y-24467176D01*
X99662776Y-24465228D01*
X99489432Y-24393427D01*
X99488214Y-24391840D01*
X99488979Y-24389992D01*
X99490807Y-24389674D01*
X99504232Y-24393971D01*
X99573767Y-24395655D01*
X99632919Y-24359632D01*
X99663300Y-24297153D01*
X99665007Y-24276760D01*
X99666148Y-24275118D01*
X99668141Y-24275284D01*
G37*
G36*
X137768141Y-24275284D02*
G01*
X137769000Y-24276927D01*
X137769000Y-24465471D01*
X137768000Y-24467203D01*
X137765955Y-24467176D01*
X137762776Y-24465228D01*
X137589432Y-24393427D01*
X137588214Y-24391840D01*
X137588979Y-24389992D01*
X137590807Y-24389674D01*
X137604232Y-24393971D01*
X137673767Y-24395655D01*
X137732919Y-24359632D01*
X137763300Y-24297153D01*
X137765007Y-24276760D01*
X137766148Y-24275118D01*
X137768141Y-24275284D01*
G37*
G36*
X118111142Y-24026285D02*
G01*
X118111208Y-24028060D01*
X118103689Y-24044751D01*
X118103547Y-24045012D01*
X118061415Y-24110513D01*
X118041791Y-24177247D01*
X118061277Y-24243707D01*
X118113722Y-24289187D01*
X118145072Y-24298717D01*
X118197518Y-24307259D01*
X118199067Y-24308524D01*
X118198746Y-24310498D01*
X118197040Y-24311227D01*
X118010000Y-24296506D01*
X117920706Y-24303534D01*
X117918901Y-24302673D01*
X117918744Y-24300679D01*
X117919028Y-24300241D01*
X117992355Y-24214385D01*
X118107679Y-24026194D01*
X118109436Y-24025240D01*
X118111142Y-24026285D01*
G37*
G36*
X99061142Y-24026285D02*
G01*
X99061208Y-24028060D01*
X99053689Y-24044751D01*
X99053547Y-24045012D01*
X99011415Y-24110513D01*
X98991791Y-24177247D01*
X99011277Y-24243707D01*
X99063722Y-24289187D01*
X99095072Y-24298717D01*
X99147518Y-24307259D01*
X99149067Y-24308524D01*
X99148746Y-24310498D01*
X99147040Y-24311227D01*
X98960000Y-24296506D01*
X98870706Y-24303534D01*
X98868901Y-24302673D01*
X98868744Y-24300679D01*
X98869028Y-24300241D01*
X98942355Y-24214385D01*
X99057679Y-24026194D01*
X99059436Y-24025240D01*
X99061142Y-24026285D01*
G37*
G36*
X137161142Y-24026285D02*
G01*
X137161208Y-24028060D01*
X137153689Y-24044751D01*
X137153547Y-24045012D01*
X137111415Y-24110513D01*
X137091791Y-24177247D01*
X137111277Y-24243707D01*
X137163722Y-24289187D01*
X137195072Y-24298717D01*
X137247518Y-24307259D01*
X137249067Y-24308524D01*
X137248746Y-24310498D01*
X137247040Y-24311227D01*
X137060000Y-24296506D01*
X136970706Y-24303534D01*
X136968901Y-24302673D01*
X136968744Y-24300679D01*
X136969028Y-24300241D01*
X137042355Y-24214385D01*
X137157679Y-24026194D01*
X137159436Y-24025240D01*
X137161142Y-24026285D01*
G37*
G36*
X80011142Y-24026285D02*
G01*
X80011208Y-24028060D01*
X80003689Y-24044751D01*
X80003547Y-24045012D01*
X79961415Y-24110513D01*
X79941791Y-24177247D01*
X79961277Y-24243707D01*
X80013722Y-24289187D01*
X80045072Y-24298717D01*
X80097518Y-24307259D01*
X80099067Y-24308524D01*
X80098746Y-24310498D01*
X80097040Y-24311227D01*
X79910000Y-24296506D01*
X79820706Y-24303534D01*
X79818901Y-24302673D01*
X79818744Y-24300679D01*
X79819028Y-24300241D01*
X79892355Y-24214385D01*
X80007679Y-24026194D01*
X80009436Y-24025240D01*
X80011142Y-24026285D01*
G37*
G36*
X72219694Y-24070861D02*
G01*
X72307645Y-24214385D01*
X72380972Y-24300241D01*
X72381336Y-24302208D01*
X72379815Y-24303507D01*
X72379294Y-24303534D01*
X72290000Y-24296506D01*
X72122184Y-24309714D01*
X72120379Y-24308853D01*
X72120222Y-24306859D01*
X72121757Y-24305738D01*
X72150431Y-24301835D01*
X72213917Y-24273419D01*
X72251798Y-24215439D01*
X72252322Y-24145992D01*
X72242427Y-24121614D01*
X72216227Y-24072853D01*
X72216288Y-24070854D01*
X72218050Y-24069907D01*
X72219694Y-24070861D01*
G37*
G36*
X91269694Y-24070861D02*
G01*
X91357645Y-24214385D01*
X91430972Y-24300241D01*
X91431336Y-24302208D01*
X91429815Y-24303507D01*
X91429294Y-24303534D01*
X91340000Y-24296506D01*
X91172184Y-24309714D01*
X91170379Y-24308853D01*
X91170222Y-24306859D01*
X91171757Y-24305738D01*
X91200431Y-24301835D01*
X91263917Y-24273419D01*
X91301798Y-24215439D01*
X91302322Y-24145992D01*
X91292427Y-24121614D01*
X91266227Y-24072853D01*
X91266288Y-24070854D01*
X91268050Y-24069907D01*
X91269694Y-24070861D01*
G37*
G36*
X129369694Y-24070861D02*
G01*
X129457645Y-24214385D01*
X129530972Y-24300241D01*
X129531336Y-24302208D01*
X129529815Y-24303507D01*
X129529294Y-24303534D01*
X129440000Y-24296506D01*
X129272184Y-24309714D01*
X129270379Y-24308853D01*
X129270222Y-24306859D01*
X129271757Y-24305738D01*
X129300431Y-24301835D01*
X129363917Y-24273419D01*
X129401798Y-24215439D01*
X129402322Y-24145992D01*
X129392427Y-24121614D01*
X129366227Y-24072853D01*
X129366288Y-24070854D01*
X129368050Y-24069907D01*
X129369694Y-24070861D01*
G37*
G36*
X110319694Y-24070861D02*
G01*
X110407645Y-24214385D01*
X110480972Y-24300241D01*
X110481336Y-24302208D01*
X110479815Y-24303507D01*
X110479294Y-24303534D01*
X110390000Y-24296506D01*
X110222184Y-24309714D01*
X110220379Y-24308853D01*
X110220222Y-24306859D01*
X110221757Y-24305738D01*
X110250431Y-24301835D01*
X110313917Y-24273419D01*
X110351798Y-24215439D01*
X110352322Y-24145992D01*
X110342427Y-24121614D01*
X110316227Y-24072853D01*
X110316288Y-24070854D01*
X110318050Y-24069907D01*
X110319694Y-24070861D01*
G37*
G36*
X116740000Y-5802494D02*
G01*
X116829294Y-5795466D01*
X116831099Y-5796327D01*
X116831256Y-5798321D01*
X116830972Y-5798759D01*
X116757645Y-5884615D01*
X116671722Y-6024828D01*
X116669965Y-6025782D01*
X116668259Y-6024737D01*
X116668307Y-6022745D01*
X116691690Y-5984211D01*
X116709559Y-5916989D01*
X116688341Y-5851061D01*
X116634761Y-5807000D01*
X116591332Y-5797246D01*
X116564490Y-5796191D01*
X116564196Y-5796158D01*
X116532710Y-5790180D01*
X116531195Y-5788874D01*
X116531568Y-5786909D01*
X116533240Y-5786221D01*
X116740000Y-5802494D01*
G37*
G36*
X135790000Y-5802494D02*
G01*
X135879294Y-5795466D01*
X135881099Y-5796327D01*
X135881256Y-5798321D01*
X135880972Y-5798759D01*
X135807645Y-5884615D01*
X135721722Y-6024828D01*
X135719965Y-6025782D01*
X135718259Y-6024737D01*
X135718307Y-6022745D01*
X135741690Y-5984211D01*
X135759559Y-5916989D01*
X135738341Y-5851061D01*
X135684761Y-5807000D01*
X135641332Y-5797246D01*
X135614490Y-5796191D01*
X135614196Y-5796158D01*
X135582710Y-5790180D01*
X135581195Y-5788874D01*
X135581568Y-5786909D01*
X135583240Y-5786221D01*
X135790000Y-5802494D01*
G37*
G36*
X97690000Y-5802494D02*
G01*
X97779294Y-5795466D01*
X97781099Y-5796327D01*
X97781256Y-5798321D01*
X97780972Y-5798759D01*
X97707645Y-5884615D01*
X97621722Y-6024828D01*
X97619965Y-6025782D01*
X97618259Y-6024737D01*
X97618307Y-6022745D01*
X97641690Y-5984211D01*
X97659559Y-5916989D01*
X97638341Y-5851061D01*
X97584761Y-5807000D01*
X97541332Y-5797246D01*
X97514490Y-5796191D01*
X97514196Y-5796158D01*
X97482710Y-5790180D01*
X97481195Y-5788874D01*
X97481568Y-5786909D01*
X97483240Y-5786221D01*
X97690000Y-5802494D01*
G37*
G36*
X78640000Y-5802494D02*
G01*
X78729294Y-5795466D01*
X78731099Y-5796327D01*
X78731256Y-5798321D01*
X78730972Y-5798759D01*
X78657645Y-5884615D01*
X78571722Y-6024828D01*
X78569965Y-6025782D01*
X78568259Y-6024737D01*
X78568307Y-6022745D01*
X78591690Y-5984211D01*
X78609559Y-5916989D01*
X78588341Y-5851061D01*
X78534761Y-5807000D01*
X78491332Y-5797246D01*
X78464490Y-5796191D01*
X78464196Y-5796158D01*
X78432710Y-5790180D01*
X78431195Y-5788874D01*
X78431568Y-5786909D01*
X78433240Y-5786221D01*
X78640000Y-5802494D01*
G37*
G36*
X92762043Y-5791531D02*
G01*
X92762200Y-5793525D01*
X92760613Y-5794652D01*
X92749975Y-5795817D01*
X92685766Y-5822563D01*
X92646380Y-5879531D01*
X92644039Y-5948913D01*
X92656361Y-5979268D01*
X92674544Y-6011083D01*
X92674536Y-6013083D01*
X92672799Y-6014075D01*
X92671103Y-6013120D01*
X92592355Y-5884615D01*
X92519028Y-5798759D01*
X92518664Y-5796792D01*
X92520185Y-5795493D01*
X92520706Y-5795466D01*
X92610000Y-5802494D01*
X92760238Y-5790670D01*
X92762043Y-5791531D01*
G37*
G36*
X111812043Y-5791531D02*
G01*
X111812200Y-5793525D01*
X111810613Y-5794652D01*
X111799975Y-5795817D01*
X111735766Y-5822563D01*
X111696380Y-5879531D01*
X111694039Y-5948913D01*
X111706361Y-5979268D01*
X111724544Y-6011083D01*
X111724536Y-6013083D01*
X111722799Y-6014075D01*
X111721103Y-6013120D01*
X111642355Y-5884615D01*
X111569028Y-5798759D01*
X111568664Y-5796792D01*
X111570185Y-5795493D01*
X111570706Y-5795466D01*
X111660000Y-5802494D01*
X111810238Y-5790670D01*
X111812043Y-5791531D01*
G37*
G36*
X130862043Y-5791531D02*
G01*
X130862200Y-5793525D01*
X130860613Y-5794652D01*
X130849975Y-5795817D01*
X130785766Y-5822563D01*
X130746380Y-5879531D01*
X130744039Y-5948913D01*
X130756361Y-5979268D01*
X130774544Y-6011083D01*
X130774536Y-6013083D01*
X130772799Y-6014075D01*
X130771103Y-6013120D01*
X130692355Y-5884615D01*
X130619028Y-5798759D01*
X130618664Y-5796792D01*
X130620185Y-5795493D01*
X130620706Y-5795466D01*
X130710000Y-5802494D01*
X130860238Y-5790670D01*
X130862043Y-5791531D01*
G37*
G36*
X73712043Y-5791531D02*
G01*
X73712200Y-5793525D01*
X73710613Y-5794652D01*
X73699975Y-5795817D01*
X73635766Y-5822563D01*
X73596380Y-5879531D01*
X73594039Y-5948913D01*
X73606361Y-5979268D01*
X73624544Y-6011083D01*
X73624536Y-6013083D01*
X73622799Y-6014075D01*
X73621103Y-6013120D01*
X73542355Y-5884615D01*
X73469028Y-5798759D01*
X73468664Y-5796792D01*
X73470185Y-5795493D01*
X73470706Y-5795466D01*
X73560000Y-5802494D01*
X73710238Y-5790670D01*
X73712043Y-5791531D01*
G37*
G36*
X119259767Y-5553500D02*
G01*
X119259767Y-5555500D01*
X119258598Y-5556419D01*
X119191583Y-5576096D01*
X119146228Y-5628439D01*
X119136368Y-5697017D01*
X119161604Y-5755853D01*
X119209127Y-5816136D01*
X119209414Y-5818115D01*
X119207843Y-5819353D01*
X119206035Y-5818673D01*
X119104597Y-5699903D01*
X118936132Y-5556021D01*
X118935464Y-5554136D01*
X118936763Y-5552615D01*
X118937431Y-5552500D01*
X119258035Y-5552500D01*
X119259767Y-5553500D01*
G37*
G36*
X81159767Y-5553500D02*
G01*
X81159767Y-5555500D01*
X81158598Y-5556419D01*
X81091583Y-5576096D01*
X81046228Y-5628439D01*
X81036368Y-5697017D01*
X81061604Y-5755853D01*
X81109127Y-5816136D01*
X81109414Y-5818115D01*
X81107843Y-5819353D01*
X81106035Y-5818673D01*
X81004597Y-5699903D01*
X80836132Y-5556021D01*
X80835464Y-5554136D01*
X80836763Y-5552615D01*
X80837431Y-5552500D01*
X81158035Y-5552500D01*
X81159767Y-5553500D01*
G37*
G36*
X100209767Y-5553500D02*
G01*
X100209767Y-5555500D01*
X100208598Y-5556419D01*
X100141583Y-5576096D01*
X100096228Y-5628439D01*
X100086368Y-5697017D01*
X100111604Y-5755853D01*
X100159127Y-5816136D01*
X100159414Y-5818115D01*
X100157843Y-5819353D01*
X100156035Y-5818673D01*
X100054597Y-5699903D01*
X99886132Y-5556021D01*
X99885464Y-5554136D01*
X99886763Y-5552615D01*
X99887431Y-5552500D01*
X100208035Y-5552500D01*
X100209767Y-5553500D01*
G37*
G36*
X138309767Y-5553500D02*
G01*
X138309767Y-5555500D01*
X138308598Y-5556419D01*
X138241583Y-5576096D01*
X138196228Y-5628439D01*
X138186368Y-5697017D01*
X138211604Y-5755853D01*
X138259127Y-5816136D01*
X138259414Y-5818115D01*
X138257843Y-5819353D01*
X138256035Y-5818673D01*
X138154597Y-5699903D01*
X137986132Y-5556021D01*
X137985464Y-5554136D01*
X137986763Y-5552615D01*
X137987431Y-5552500D01*
X138308035Y-5552500D01*
X138309767Y-5553500D01*
G37*
G36*
X99668141Y-5225284D02*
G01*
X99669000Y-5226927D01*
X99669000Y-5415471D01*
X99668000Y-5417203D01*
X99665955Y-5417176D01*
X99662776Y-5415228D01*
X99489432Y-5343427D01*
X99488214Y-5341840D01*
X99488979Y-5339992D01*
X99490807Y-5339674D01*
X99504232Y-5343971D01*
X99573767Y-5345655D01*
X99632919Y-5309632D01*
X99663300Y-5247153D01*
X99665007Y-5226760D01*
X99666148Y-5225118D01*
X99668141Y-5225284D01*
G37*
G36*
X137768141Y-5225284D02*
G01*
X137769000Y-5226927D01*
X137769000Y-5415471D01*
X137768000Y-5417203D01*
X137765955Y-5417176D01*
X137762776Y-5415228D01*
X137589432Y-5343427D01*
X137588214Y-5341840D01*
X137588979Y-5339992D01*
X137590807Y-5339674D01*
X137604232Y-5343971D01*
X137673767Y-5345655D01*
X137732919Y-5309632D01*
X137763300Y-5247153D01*
X137765007Y-5226760D01*
X137766148Y-5225118D01*
X137768141Y-5225284D01*
G37*
G36*
X118718141Y-5225284D02*
G01*
X118719000Y-5226927D01*
X118719000Y-5415471D01*
X118718000Y-5417203D01*
X118715955Y-5417176D01*
X118712776Y-5415228D01*
X118539432Y-5343427D01*
X118538214Y-5341840D01*
X118538979Y-5339992D01*
X118540807Y-5339674D01*
X118554232Y-5343971D01*
X118623767Y-5345655D01*
X118682919Y-5309632D01*
X118713300Y-5247153D01*
X118715007Y-5226760D01*
X118716148Y-5225118D01*
X118718141Y-5225284D01*
G37*
G36*
X80618141Y-5225284D02*
G01*
X80619000Y-5226927D01*
X80619000Y-5415471D01*
X80618000Y-5417203D01*
X80615955Y-5417176D01*
X80612776Y-5415228D01*
X80439432Y-5343427D01*
X80438214Y-5341840D01*
X80438979Y-5339992D01*
X80440807Y-5339674D01*
X80454232Y-5343971D01*
X80523767Y-5345655D01*
X80582919Y-5309632D01*
X80613300Y-5247153D01*
X80615007Y-5226760D01*
X80616148Y-5225118D01*
X80618141Y-5225284D01*
G37*
G36*
X118111142Y-4976285D02*
G01*
X118111208Y-4978060D01*
X118103689Y-4994751D01*
X118103547Y-4995012D01*
X118061415Y-5060513D01*
X118041791Y-5127247D01*
X118061277Y-5193707D01*
X118113722Y-5239187D01*
X118145072Y-5248717D01*
X118197518Y-5257259D01*
X118199067Y-5258524D01*
X118198746Y-5260498D01*
X118197040Y-5261227D01*
X118010000Y-5246506D01*
X117920706Y-5253534D01*
X117918901Y-5252673D01*
X117918744Y-5250679D01*
X117919028Y-5250241D01*
X117992355Y-5164385D01*
X118107679Y-4976194D01*
X118109436Y-4975240D01*
X118111142Y-4976285D01*
G37*
G36*
X99061142Y-4976285D02*
G01*
X99061208Y-4978060D01*
X99053689Y-4994751D01*
X99053547Y-4995012D01*
X99011415Y-5060513D01*
X98991791Y-5127247D01*
X99011277Y-5193707D01*
X99063722Y-5239187D01*
X99095072Y-5248717D01*
X99147518Y-5257259D01*
X99149067Y-5258524D01*
X99148746Y-5260498D01*
X99147040Y-5261227D01*
X98960000Y-5246506D01*
X98870706Y-5253534D01*
X98868901Y-5252673D01*
X98868744Y-5250679D01*
X98869028Y-5250241D01*
X98942355Y-5164385D01*
X99057679Y-4976194D01*
X99059436Y-4975240D01*
X99061142Y-4976285D01*
G37*
G36*
X137161142Y-4976285D02*
G01*
X137161208Y-4978060D01*
X137153689Y-4994751D01*
X137153547Y-4995012D01*
X137111415Y-5060513D01*
X137091791Y-5127247D01*
X137111277Y-5193707D01*
X137163722Y-5239187D01*
X137195072Y-5248717D01*
X137247518Y-5257259D01*
X137249067Y-5258524D01*
X137248746Y-5260498D01*
X137247040Y-5261227D01*
X137060000Y-5246506D01*
X136970706Y-5253534D01*
X136968901Y-5252673D01*
X136968744Y-5250679D01*
X136969028Y-5250241D01*
X137042355Y-5164385D01*
X137157679Y-4976194D01*
X137159436Y-4975240D01*
X137161142Y-4976285D01*
G37*
G36*
X80011142Y-4976285D02*
G01*
X80011208Y-4978060D01*
X80003689Y-4994751D01*
X80003547Y-4995012D01*
X79961415Y-5060513D01*
X79941791Y-5127247D01*
X79961277Y-5193707D01*
X80013722Y-5239187D01*
X80045072Y-5248717D01*
X80097518Y-5257259D01*
X80099067Y-5258524D01*
X80098746Y-5260498D01*
X80097040Y-5261227D01*
X79910000Y-5246506D01*
X79820706Y-5253534D01*
X79818901Y-5252673D01*
X79818744Y-5250679D01*
X79819028Y-5250241D01*
X79892355Y-5164385D01*
X80007679Y-4976194D01*
X80009436Y-4975240D01*
X80011142Y-4976285D01*
G37*
G36*
X91269694Y-5020861D02*
G01*
X91357645Y-5164385D01*
X91430972Y-5250241D01*
X91431336Y-5252208D01*
X91429815Y-5253507D01*
X91429294Y-5253534D01*
X91340000Y-5246506D01*
X91172184Y-5259714D01*
X91170379Y-5258853D01*
X91170222Y-5256859D01*
X91171757Y-5255738D01*
X91200431Y-5251835D01*
X91263917Y-5223419D01*
X91301798Y-5165439D01*
X91302322Y-5095992D01*
X91292427Y-5071614D01*
X91266227Y-5022853D01*
X91266288Y-5020854D01*
X91268050Y-5019907D01*
X91269694Y-5020861D01*
G37*
G36*
X129369694Y-5020861D02*
G01*
X129457645Y-5164385D01*
X129530972Y-5250241D01*
X129531336Y-5252208D01*
X129529815Y-5253507D01*
X129529294Y-5253534D01*
X129440000Y-5246506D01*
X129272184Y-5259714D01*
X129270379Y-5258853D01*
X129270222Y-5256859D01*
X129271757Y-5255738D01*
X129300431Y-5251835D01*
X129363917Y-5223419D01*
X129401798Y-5165439D01*
X129402322Y-5095992D01*
X129392427Y-5071614D01*
X129366227Y-5022853D01*
X129366288Y-5020854D01*
X129368050Y-5019907D01*
X129369694Y-5020861D01*
G37*
G36*
X72219694Y-5020861D02*
G01*
X72307645Y-5164385D01*
X72380972Y-5250241D01*
X72381336Y-5252208D01*
X72379815Y-5253507D01*
X72379294Y-5253534D01*
X72290000Y-5246506D01*
X72122184Y-5259714D01*
X72120379Y-5258853D01*
X72120222Y-5256859D01*
X72121757Y-5255738D01*
X72150431Y-5251835D01*
X72213917Y-5223419D01*
X72251798Y-5165439D01*
X72252322Y-5095992D01*
X72242427Y-5071614D01*
X72216227Y-5022853D01*
X72216288Y-5020854D01*
X72218050Y-5019907D01*
X72219694Y-5020861D01*
G37*
G36*
X110319694Y-5020861D02*
G01*
X110407645Y-5164385D01*
X110480972Y-5250241D01*
X110481336Y-5252208D01*
X110479815Y-5253507D01*
X110479294Y-5253534D01*
X110390000Y-5246506D01*
X110222184Y-5259714D01*
X110220379Y-5258853D01*
X110220222Y-5256859D01*
X110221757Y-5255738D01*
X110250431Y-5251835D01*
X110313917Y-5223419D01*
X110351798Y-5165439D01*
X110352322Y-5095992D01*
X110342427Y-5071614D01*
X110316227Y-5022853D01*
X110316288Y-5020854D01*
X110318050Y-5019907D01*
X110319694Y-5020861D01*
G37*
G36*
X21590000Y3532006D02*
G01*
X21679294Y3539034D01*
X21681099Y3538173D01*
X21681256Y3536179D01*
X21680972Y3535741D01*
X21607645Y3449885D01*
X21521722Y3309672D01*
X21519965Y3308718D01*
X21518259Y3309763D01*
X21518307Y3311755D01*
X21541690Y3350289D01*
X21559559Y3417511D01*
X21538341Y3483439D01*
X21484761Y3527500D01*
X21441332Y3537254D01*
X21414490Y3538309D01*
X21414196Y3538342D01*
X21382710Y3544320D01*
X21381195Y3545626D01*
X21381568Y3547591D01*
X21383240Y3548279D01*
X21590000Y3532006D01*
G37*
G36*
X40640000Y3532006D02*
G01*
X40729294Y3539034D01*
X40731099Y3538173D01*
X40731256Y3536179D01*
X40730972Y3535741D01*
X40657645Y3449885D01*
X40571722Y3309672D01*
X40569965Y3308718D01*
X40568259Y3309763D01*
X40568307Y3311755D01*
X40591690Y3350289D01*
X40609559Y3417511D01*
X40588341Y3483439D01*
X40534761Y3527500D01*
X40491332Y3537254D01*
X40464490Y3538309D01*
X40464196Y3538342D01*
X40432710Y3544320D01*
X40431195Y3545626D01*
X40431568Y3547591D01*
X40433240Y3548279D01*
X40640000Y3532006D01*
G37*
G36*
X16662043Y3542969D02*
G01*
X16662200Y3540975D01*
X16660613Y3539848D01*
X16649975Y3538683D01*
X16585766Y3511937D01*
X16546380Y3454969D01*
X16544039Y3385587D01*
X16556361Y3355232D01*
X16574544Y3323417D01*
X16574536Y3321417D01*
X16572799Y3320425D01*
X16571103Y3321380D01*
X16492355Y3449885D01*
X16419028Y3535741D01*
X16418664Y3537708D01*
X16420185Y3539007D01*
X16420706Y3539034D01*
X16510000Y3532006D01*
X16660238Y3543830D01*
X16662043Y3542969D01*
G37*
G36*
X35712043Y3542969D02*
G01*
X35712200Y3540975D01*
X35710613Y3539848D01*
X35699975Y3538683D01*
X35635766Y3511937D01*
X35596380Y3454969D01*
X35594039Y3385587D01*
X35606361Y3355232D01*
X35624544Y3323417D01*
X35624536Y3321417D01*
X35622799Y3320425D01*
X35621103Y3321380D01*
X35542355Y3449885D01*
X35469028Y3535741D01*
X35468664Y3537708D01*
X35470185Y3539007D01*
X35470706Y3539034D01*
X35560000Y3532006D01*
X35710238Y3543830D01*
X35712043Y3542969D01*
G37*
G36*
X43159767Y3781000D02*
G01*
X43159767Y3779000D01*
X43158598Y3778081D01*
X43091583Y3758404D01*
X43046228Y3706061D01*
X43036368Y3637483D01*
X43061604Y3578647D01*
X43109127Y3518364D01*
X43109414Y3516385D01*
X43107843Y3515147D01*
X43106035Y3515827D01*
X43004597Y3634597D01*
X42836132Y3778479D01*
X42835464Y3780364D01*
X42836763Y3781885D01*
X42837431Y3782000D01*
X43158035Y3782000D01*
X43159767Y3781000D01*
G37*
G36*
X24109767Y3781000D02*
G01*
X24109767Y3779000D01*
X24108598Y3778081D01*
X24041583Y3758404D01*
X23996228Y3706061D01*
X23986368Y3637483D01*
X24011604Y3578647D01*
X24059127Y3518364D01*
X24059414Y3516385D01*
X24057843Y3515147D01*
X24056035Y3515827D01*
X23954597Y3634597D01*
X23786132Y3778479D01*
X23785464Y3780364D01*
X23786763Y3781885D01*
X23787431Y3782000D01*
X24108035Y3782000D01*
X24109767Y3781000D01*
G37*
G36*
X23568141Y4109216D02*
G01*
X23569000Y4107573D01*
X23569000Y3919029D01*
X23568000Y3917297D01*
X23565955Y3917324D01*
X23562776Y3919272D01*
X23389432Y3991073D01*
X23388214Y3992660D01*
X23388979Y3994508D01*
X23390807Y3994826D01*
X23404232Y3990529D01*
X23473767Y3988845D01*
X23532919Y4024868D01*
X23563300Y4087347D01*
X23565007Y4107740D01*
X23566148Y4109382D01*
X23568141Y4109216D01*
G37*
G36*
X42618141Y4109216D02*
G01*
X42619000Y4107573D01*
X42619000Y3919029D01*
X42618000Y3917297D01*
X42615955Y3917324D01*
X42612776Y3919272D01*
X42439432Y3991073D01*
X42438214Y3992660D01*
X42438979Y3994508D01*
X42440807Y3994826D01*
X42454232Y3990529D01*
X42523767Y3988845D01*
X42582919Y4024868D01*
X42613300Y4087347D01*
X42615007Y4107740D01*
X42616148Y4109382D01*
X42618141Y4109216D01*
G37*
G36*
X42011142Y4358215D02*
G01*
X42011208Y4356440D01*
X42003689Y4339749D01*
X42003547Y4339488D01*
X41961415Y4273987D01*
X41941791Y4207253D01*
X41961277Y4140793D01*
X42013722Y4095313D01*
X42045072Y4085783D01*
X42097518Y4077241D01*
X42099067Y4075976D01*
X42098746Y4074002D01*
X42097040Y4073273D01*
X41910000Y4087994D01*
X41820706Y4080966D01*
X41818901Y4081827D01*
X41818744Y4083821D01*
X41819028Y4084259D01*
X41892355Y4170115D01*
X42007679Y4358306D01*
X42009436Y4359260D01*
X42011142Y4358215D01*
G37*
G36*
X22961142Y4358215D02*
G01*
X22961208Y4356440D01*
X22953689Y4339749D01*
X22953547Y4339488D01*
X22911415Y4273987D01*
X22891791Y4207253D01*
X22911277Y4140793D01*
X22963722Y4095313D01*
X22995072Y4085783D01*
X23047518Y4077241D01*
X23049067Y4075976D01*
X23048746Y4074002D01*
X23047040Y4073273D01*
X22860000Y4087994D01*
X22770706Y4080966D01*
X22768901Y4081827D01*
X22768744Y4083821D01*
X22769028Y4084259D01*
X22842355Y4170115D01*
X22957679Y4358306D01*
X22959436Y4359260D01*
X22961142Y4358215D01*
G37*
G36*
X15169694Y4313639D02*
G01*
X15257645Y4170115D01*
X15330972Y4084259D01*
X15331336Y4082292D01*
X15329815Y4080993D01*
X15329294Y4080966D01*
X15240000Y4087994D01*
X15072184Y4074786D01*
X15070379Y4075647D01*
X15070222Y4077641D01*
X15071757Y4078762D01*
X15100431Y4082665D01*
X15163917Y4111081D01*
X15201798Y4169061D01*
X15202322Y4238508D01*
X15192427Y4262886D01*
X15166227Y4311647D01*
X15166288Y4313646D01*
X15168050Y4314593D01*
X15169694Y4313639D01*
G37*
G36*
X34219694Y4313639D02*
G01*
X34307645Y4170115D01*
X34380972Y4084259D01*
X34381336Y4082292D01*
X34379815Y4080993D01*
X34379294Y4080966D01*
X34290000Y4087994D01*
X34122184Y4074786D01*
X34120379Y4075647D01*
X34120222Y4077641D01*
X34121757Y4078762D01*
X34150431Y4082665D01*
X34213917Y4111081D01*
X34251798Y4169061D01*
X34252322Y4238508D01*
X34242427Y4262886D01*
X34216227Y4311647D01*
X34216288Y4313646D01*
X34218050Y4314593D01*
X34219694Y4313639D01*
G37*
G36*
X116740000Y13247506D02*
G01*
X116829294Y13254534D01*
X116831099Y13253673D01*
X116831256Y13251679D01*
X116830972Y13251241D01*
X116757645Y13165385D01*
X116671722Y13025172D01*
X116669965Y13024218D01*
X116668259Y13025263D01*
X116668307Y13027255D01*
X116691690Y13065789D01*
X116709559Y13133011D01*
X116688341Y13198939D01*
X116634761Y13243000D01*
X116591332Y13252754D01*
X116564490Y13253809D01*
X116564196Y13253842D01*
X116532710Y13259820D01*
X116531195Y13261126D01*
X116531568Y13263091D01*
X116533240Y13263779D01*
X116740000Y13247506D01*
G37*
G36*
X111812043Y13258469D02*
G01*
X111812200Y13256475D01*
X111810613Y13255348D01*
X111799975Y13254183D01*
X111735766Y13227437D01*
X111696380Y13170469D01*
X111694039Y13101087D01*
X111706361Y13070732D01*
X111724544Y13038917D01*
X111724536Y13036917D01*
X111722799Y13035925D01*
X111721103Y13036880D01*
X111642355Y13165385D01*
X111569028Y13251241D01*
X111568664Y13253208D01*
X111570185Y13254507D01*
X111570706Y13254534D01*
X111660000Y13247506D01*
X111810238Y13259330D01*
X111812043Y13258469D01*
G37*
G36*
X119259767Y13496500D02*
G01*
X119259767Y13494500D01*
X119258598Y13493581D01*
X119191583Y13473904D01*
X119146228Y13421561D01*
X119136368Y13352983D01*
X119161604Y13294147D01*
X119209127Y13233864D01*
X119209414Y13231885D01*
X119207843Y13230647D01*
X119206035Y13231327D01*
X119104597Y13350097D01*
X118936132Y13493979D01*
X118935464Y13495864D01*
X118936763Y13497385D01*
X118937431Y13497500D01*
X119258035Y13497500D01*
X119259767Y13496500D01*
G37*
G36*
X118718141Y13824716D02*
G01*
X118719000Y13823073D01*
X118719000Y13634529D01*
X118718000Y13632797D01*
X118715955Y13632824D01*
X118712776Y13634772D01*
X118539432Y13706573D01*
X118538214Y13708160D01*
X118538979Y13710008D01*
X118540807Y13710326D01*
X118554232Y13706029D01*
X118623767Y13704345D01*
X118682919Y13740368D01*
X118713300Y13802847D01*
X118715007Y13823240D01*
X118716148Y13824882D01*
X118718141Y13824716D01*
G37*
G36*
X118111142Y14073715D02*
G01*
X118111208Y14071940D01*
X118103689Y14055249D01*
X118103547Y14054988D01*
X118061415Y13989487D01*
X118041791Y13922753D01*
X118061277Y13856293D01*
X118113722Y13810813D01*
X118145072Y13801283D01*
X118197518Y13792741D01*
X118199067Y13791476D01*
X118198746Y13789502D01*
X118197040Y13788773D01*
X118010000Y13803494D01*
X117920706Y13796466D01*
X117918901Y13797327D01*
X117918744Y13799321D01*
X117919028Y13799759D01*
X117992355Y13885615D01*
X118107679Y14073806D01*
X118109436Y14074760D01*
X118111142Y14073715D01*
G37*
G36*
X110319694Y14029139D02*
G01*
X110407645Y13885615D01*
X110480972Y13799759D01*
X110481336Y13797792D01*
X110479815Y13796493D01*
X110479294Y13796466D01*
X110390000Y13803494D01*
X110222184Y13790286D01*
X110220379Y13791147D01*
X110220222Y13793141D01*
X110221757Y13794262D01*
X110250431Y13798165D01*
X110313917Y13826581D01*
X110351798Y13884561D01*
X110352322Y13954008D01*
X110342427Y13978386D01*
X110316227Y14027147D01*
X110316288Y14029146D01*
X110318050Y14030093D01*
X110319694Y14029139D01*
G37*
G36*
X59690000Y16105006D02*
G01*
X59779294Y16112034D01*
X59781099Y16111173D01*
X59781256Y16109179D01*
X59780972Y16108741D01*
X59707645Y16022885D01*
X59621722Y15882672D01*
X59619965Y15881718D01*
X59618259Y15882763D01*
X59618307Y15884755D01*
X59641690Y15923289D01*
X59659559Y15990511D01*
X59638341Y16056439D01*
X59584761Y16100500D01*
X59541332Y16110254D01*
X59514490Y16111309D01*
X59514196Y16111342D01*
X59482710Y16117320D01*
X59481195Y16118626D01*
X59481568Y16120591D01*
X59483240Y16121279D01*
X59690000Y16105006D01*
G37*
G36*
X97690000Y16105006D02*
G01*
X97779294Y16112034D01*
X97781099Y16111173D01*
X97781256Y16109179D01*
X97780972Y16108741D01*
X97707645Y16022885D01*
X97621722Y15882672D01*
X97619965Y15881718D01*
X97618259Y15882763D01*
X97618307Y15884755D01*
X97641690Y15923289D01*
X97659559Y15990511D01*
X97638341Y16056439D01*
X97584761Y16100500D01*
X97541332Y16110254D01*
X97514490Y16111309D01*
X97514196Y16111342D01*
X97482710Y16117320D01*
X97481195Y16118626D01*
X97481568Y16120591D01*
X97483240Y16121279D01*
X97690000Y16105006D01*
G37*
G36*
X92762043Y16115969D02*
G01*
X92762200Y16113975D01*
X92760613Y16112848D01*
X92749975Y16111683D01*
X92685766Y16084937D01*
X92646380Y16027969D01*
X92644039Y15958587D01*
X92656361Y15928232D01*
X92674544Y15896417D01*
X92674536Y15894417D01*
X92672799Y15893425D01*
X92671103Y15894380D01*
X92592355Y16022885D01*
X92519028Y16108741D01*
X92518664Y16110708D01*
X92520185Y16112007D01*
X92520706Y16112034D01*
X92610000Y16105006D01*
X92760238Y16116830D01*
X92762043Y16115969D01*
G37*
G36*
X54762043Y16115969D02*
G01*
X54762200Y16113975D01*
X54760613Y16112848D01*
X54749975Y16111683D01*
X54685766Y16084937D01*
X54646380Y16027969D01*
X54644039Y15958587D01*
X54656361Y15928232D01*
X54674544Y15896417D01*
X54674536Y15894417D01*
X54672799Y15893425D01*
X54671103Y15894380D01*
X54592355Y16022885D01*
X54519028Y16108741D01*
X54518664Y16110708D01*
X54520185Y16112007D01*
X54520706Y16112034D01*
X54610000Y16105006D01*
X54760238Y16116830D01*
X54762043Y16115969D01*
G37*
G36*
X62209767Y16354000D02*
G01*
X62209767Y16352000D01*
X62208598Y16351081D01*
X62141583Y16331404D01*
X62096228Y16279061D01*
X62086368Y16210483D01*
X62111604Y16151647D01*
X62159127Y16091364D01*
X62159414Y16089385D01*
X62157843Y16088147D01*
X62156035Y16088827D01*
X62054597Y16207597D01*
X61886132Y16351479D01*
X61885464Y16353364D01*
X61886763Y16354885D01*
X61887431Y16355000D01*
X62208035Y16355000D01*
X62209767Y16354000D01*
G37*
G36*
X100209767Y16354000D02*
G01*
X100209767Y16352000D01*
X100208598Y16351081D01*
X100141583Y16331404D01*
X100096228Y16279061D01*
X100086368Y16210483D01*
X100111604Y16151647D01*
X100159127Y16091364D01*
X100159414Y16089385D01*
X100157843Y16088147D01*
X100156035Y16088827D01*
X100054597Y16207597D01*
X99886132Y16351479D01*
X99885464Y16353364D01*
X99886763Y16354885D01*
X99887431Y16355000D01*
X100208035Y16355000D01*
X100209767Y16354000D01*
G37*
G36*
X61668141Y16682216D02*
G01*
X61669000Y16680573D01*
X61669000Y16492029D01*
X61668000Y16490297D01*
X61665955Y16490324D01*
X61662776Y16492272D01*
X61489432Y16564073D01*
X61488214Y16565660D01*
X61488979Y16567508D01*
X61490807Y16567826D01*
X61504232Y16563529D01*
X61573767Y16561845D01*
X61632919Y16597868D01*
X61663300Y16660347D01*
X61665007Y16680740D01*
X61666148Y16682382D01*
X61668141Y16682216D01*
G37*
G36*
X99668141Y16682216D02*
G01*
X99669000Y16680573D01*
X99669000Y16492029D01*
X99668000Y16490297D01*
X99665955Y16490324D01*
X99662776Y16492272D01*
X99489432Y16564073D01*
X99488214Y16565660D01*
X99488979Y16567508D01*
X99490807Y16567826D01*
X99504232Y16563529D01*
X99573767Y16561845D01*
X99632919Y16597868D01*
X99663300Y16660347D01*
X99665007Y16680740D01*
X99666148Y16682382D01*
X99668141Y16682216D01*
G37*
G36*
X61061142Y16931215D02*
G01*
X61061208Y16929440D01*
X61053689Y16912749D01*
X61053547Y16912488D01*
X61011415Y16846987D01*
X60991791Y16780253D01*
X61011277Y16713793D01*
X61063722Y16668313D01*
X61095072Y16658783D01*
X61147518Y16650241D01*
X61149067Y16648976D01*
X61148746Y16647002D01*
X61147040Y16646273D01*
X60960000Y16660994D01*
X60870706Y16653966D01*
X60868901Y16654827D01*
X60868744Y16656821D01*
X60869028Y16657259D01*
X60942355Y16743115D01*
X61057679Y16931306D01*
X61059436Y16932260D01*
X61061142Y16931215D01*
G37*
G36*
X99061142Y16931215D02*
G01*
X99061208Y16929440D01*
X99053689Y16912749D01*
X99053547Y16912488D01*
X99011415Y16846987D01*
X98991791Y16780253D01*
X99011277Y16713793D01*
X99063722Y16668313D01*
X99095072Y16658783D01*
X99147518Y16650241D01*
X99149067Y16648976D01*
X99148746Y16647002D01*
X99147040Y16646273D01*
X98960000Y16660994D01*
X98870706Y16653966D01*
X98868901Y16654827D01*
X98868744Y16656821D01*
X98869028Y16657259D01*
X98942355Y16743115D01*
X99057679Y16931306D01*
X99059436Y16932260D01*
X99061142Y16931215D01*
G37*
G36*
X91269694Y16886639D02*
G01*
X91357645Y16743115D01*
X91430972Y16657259D01*
X91431336Y16655292D01*
X91429815Y16653993D01*
X91429294Y16653966D01*
X91340000Y16660994D01*
X91172184Y16647786D01*
X91170379Y16648647D01*
X91170222Y16650641D01*
X91171757Y16651762D01*
X91200431Y16655665D01*
X91263917Y16684081D01*
X91301798Y16742061D01*
X91302322Y16811508D01*
X91292427Y16835886D01*
X91266227Y16884647D01*
X91266288Y16886646D01*
X91268050Y16887593D01*
X91269694Y16886639D01*
G37*
G36*
X53269694Y16886639D02*
G01*
X53357645Y16743115D01*
X53430972Y16657259D01*
X53431336Y16655292D01*
X53429815Y16653993D01*
X53429294Y16653966D01*
X53340000Y16660994D01*
X53172184Y16647786D01*
X53170379Y16648647D01*
X53170222Y16650641D01*
X53171757Y16651762D01*
X53200431Y16655665D01*
X53263917Y16684081D01*
X53301798Y16742061D01*
X53302322Y16811508D01*
X53292427Y16835886D01*
X53266227Y16884647D01*
X53266288Y16886646D01*
X53268050Y16887593D01*
X53269694Y16886639D01*
G37*
G36*
X78690000Y20867506D02*
G01*
X78779294Y20874534D01*
X78781099Y20873673D01*
X78781256Y20871679D01*
X78780972Y20871241D01*
X78707645Y20785385D01*
X78621722Y20645172D01*
X78619965Y20644218D01*
X78618259Y20645263D01*
X78618307Y20647255D01*
X78641690Y20685789D01*
X78659559Y20753011D01*
X78638341Y20818939D01*
X78584761Y20863000D01*
X78541332Y20872754D01*
X78514490Y20873809D01*
X78514196Y20873842D01*
X78482710Y20879820D01*
X78481195Y20881126D01*
X78481568Y20883091D01*
X78483240Y20883779D01*
X78690000Y20867506D01*
G37*
G36*
X73762043Y20878469D02*
G01*
X73762200Y20876475D01*
X73760613Y20875348D01*
X73749975Y20874183D01*
X73685766Y20847437D01*
X73646380Y20790469D01*
X73644039Y20721087D01*
X73656361Y20690732D01*
X73674544Y20658917D01*
X73674536Y20656917D01*
X73672799Y20655925D01*
X73671103Y20656880D01*
X73592355Y20785385D01*
X73519028Y20871241D01*
X73518664Y20873208D01*
X73520185Y20874507D01*
X73520706Y20874534D01*
X73610000Y20867506D01*
X73760238Y20879330D01*
X73762043Y20878469D01*
G37*
G36*
X81209767Y21116500D02*
G01*
X81209767Y21114500D01*
X81208598Y21113581D01*
X81141583Y21093904D01*
X81096228Y21041561D01*
X81086368Y20972983D01*
X81111604Y20914147D01*
X81159127Y20853864D01*
X81159414Y20851885D01*
X81157843Y20850647D01*
X81156035Y20851327D01*
X81054597Y20970097D01*
X80886132Y21113979D01*
X80885464Y21115864D01*
X80886763Y21117385D01*
X80887431Y21117500D01*
X81208035Y21117500D01*
X81209767Y21116500D01*
G37*
G36*
X80668141Y21444716D02*
G01*
X80669000Y21443073D01*
X80669000Y21254529D01*
X80668000Y21252797D01*
X80665955Y21252824D01*
X80662776Y21254772D01*
X80489432Y21326573D01*
X80488214Y21328160D01*
X80488979Y21330008D01*
X80490807Y21330326D01*
X80504232Y21326029D01*
X80573767Y21324345D01*
X80632919Y21360368D01*
X80663300Y21422847D01*
X80665007Y21443240D01*
X80666148Y21444882D01*
X80668141Y21444716D01*
G37*
G36*
X80061142Y21693715D02*
G01*
X80061208Y21691940D01*
X80053689Y21675249D01*
X80053547Y21674988D01*
X80011415Y21609487D01*
X79991791Y21542753D01*
X80011277Y21476293D01*
X80063722Y21430813D01*
X80095072Y21421283D01*
X80147518Y21412741D01*
X80149067Y21411476D01*
X80148746Y21409502D01*
X80147040Y21408773D01*
X79960000Y21423494D01*
X79870706Y21416466D01*
X79868901Y21417327D01*
X79868744Y21419321D01*
X79869028Y21419759D01*
X79942355Y21505615D01*
X80057679Y21693806D01*
X80059436Y21694760D01*
X80061142Y21693715D01*
G37*
G36*
X72269694Y21649139D02*
G01*
X72357645Y21505615D01*
X72430972Y21419759D01*
X72431336Y21417792D01*
X72429815Y21416493D01*
X72429294Y21416466D01*
X72340000Y21423494D01*
X72172184Y21410286D01*
X72170379Y21411147D01*
X72170222Y21413141D01*
X72171757Y21414262D01*
X72200431Y21418165D01*
X72263917Y21446581D01*
X72301798Y21504561D01*
X72302322Y21574008D01*
X72292427Y21598386D01*
X72266227Y21647147D01*
X72266288Y21649146D01*
X72268050Y21650093D01*
X72269694Y21649139D01*
G37*
G36*
X40640000Y22582006D02*
G01*
X40729294Y22589034D01*
X40731099Y22588173D01*
X40731256Y22586179D01*
X40730972Y22585741D01*
X40657645Y22499885D01*
X40571722Y22359672D01*
X40569965Y22358718D01*
X40568259Y22359763D01*
X40568307Y22361755D01*
X40591690Y22400289D01*
X40609559Y22467511D01*
X40588341Y22533439D01*
X40534761Y22577500D01*
X40491332Y22587254D01*
X40464490Y22588309D01*
X40464196Y22588342D01*
X40432710Y22594320D01*
X40431195Y22595626D01*
X40431568Y22597591D01*
X40433240Y22598279D01*
X40640000Y22582006D01*
G37*
G36*
X21590000Y22582006D02*
G01*
X21679294Y22589034D01*
X21681099Y22588173D01*
X21681256Y22586179D01*
X21680972Y22585741D01*
X21607645Y22499885D01*
X21521722Y22359672D01*
X21519965Y22358718D01*
X21518259Y22359763D01*
X21518307Y22361755D01*
X21541690Y22400289D01*
X21559559Y22467511D01*
X21538341Y22533439D01*
X21484761Y22577500D01*
X21441332Y22587254D01*
X21414490Y22588309D01*
X21414196Y22588342D01*
X21382710Y22594320D01*
X21381195Y22595626D01*
X21381568Y22597591D01*
X21383240Y22598279D01*
X21590000Y22582006D01*
G37*
G36*
X16662043Y22592969D02*
G01*
X16662200Y22590975D01*
X16660613Y22589848D01*
X16649975Y22588683D01*
X16585766Y22561937D01*
X16546380Y22504969D01*
X16544039Y22435587D01*
X16556361Y22405232D01*
X16574544Y22373417D01*
X16574536Y22371417D01*
X16572799Y22370425D01*
X16571103Y22371380D01*
X16492355Y22499885D01*
X16419028Y22585741D01*
X16418664Y22587708D01*
X16420185Y22589007D01*
X16420706Y22589034D01*
X16510000Y22582006D01*
X16660238Y22593830D01*
X16662043Y22592969D01*
G37*
G36*
X35712043Y22592969D02*
G01*
X35712200Y22590975D01*
X35710613Y22589848D01*
X35699975Y22588683D01*
X35635766Y22561937D01*
X35596380Y22504969D01*
X35594039Y22435587D01*
X35606361Y22405232D01*
X35624544Y22373417D01*
X35624536Y22371417D01*
X35622799Y22370425D01*
X35621103Y22371380D01*
X35542355Y22499885D01*
X35469028Y22585741D01*
X35468664Y22587708D01*
X35470185Y22589007D01*
X35470706Y22589034D01*
X35560000Y22582006D01*
X35710238Y22593830D01*
X35712043Y22592969D01*
G37*
G36*
X24109767Y22831000D02*
G01*
X24109767Y22829000D01*
X24108598Y22828081D01*
X24041583Y22808404D01*
X23996228Y22756061D01*
X23986368Y22687483D01*
X24011604Y22628647D01*
X24059127Y22568364D01*
X24059414Y22566385D01*
X24057843Y22565147D01*
X24056035Y22565827D01*
X23954597Y22684597D01*
X23786132Y22828479D01*
X23785464Y22830364D01*
X23786763Y22831885D01*
X23787431Y22832000D01*
X24108035Y22832000D01*
X24109767Y22831000D01*
G37*
G36*
X43159767Y22831000D02*
G01*
X43159767Y22829000D01*
X43158598Y22828081D01*
X43091583Y22808404D01*
X43046228Y22756061D01*
X43036368Y22687483D01*
X43061604Y22628647D01*
X43109127Y22568364D01*
X43109414Y22566385D01*
X43107843Y22565147D01*
X43106035Y22565827D01*
X43004597Y22684597D01*
X42836132Y22828479D01*
X42835464Y22830364D01*
X42836763Y22831885D01*
X42837431Y22832000D01*
X43158035Y22832000D01*
X43159767Y22831000D01*
G37*
G36*
X23568141Y23159216D02*
G01*
X23569000Y23157573D01*
X23569000Y22969029D01*
X23568000Y22967297D01*
X23565955Y22967324D01*
X23562776Y22969272D01*
X23389432Y23041073D01*
X23388214Y23042660D01*
X23388979Y23044508D01*
X23390807Y23044826D01*
X23404232Y23040529D01*
X23473767Y23038845D01*
X23532919Y23074868D01*
X23563300Y23137347D01*
X23565007Y23157740D01*
X23566148Y23159382D01*
X23568141Y23159216D01*
G37*
G36*
X42618141Y23159216D02*
G01*
X42619000Y23157573D01*
X42619000Y22969029D01*
X42618000Y22967297D01*
X42615955Y22967324D01*
X42612776Y22969272D01*
X42439432Y23041073D01*
X42438214Y23042660D01*
X42438979Y23044508D01*
X42440807Y23044826D01*
X42454232Y23040529D01*
X42523767Y23038845D01*
X42582919Y23074868D01*
X42613300Y23137347D01*
X42615007Y23157740D01*
X42616148Y23159382D01*
X42618141Y23159216D01*
G37*
G36*
X22961142Y23408215D02*
G01*
X22961208Y23406440D01*
X22953689Y23389749D01*
X22953547Y23389488D01*
X22911415Y23323987D01*
X22891791Y23257253D01*
X22911277Y23190793D01*
X22963722Y23145313D01*
X22995072Y23135783D01*
X23047518Y23127241D01*
X23049067Y23125976D01*
X23048746Y23124002D01*
X23047040Y23123273D01*
X22860000Y23137994D01*
X22770706Y23130966D01*
X22768901Y23131827D01*
X22768744Y23133821D01*
X22769028Y23134259D01*
X22842355Y23220115D01*
X22957679Y23408306D01*
X22959436Y23409260D01*
X22961142Y23408215D01*
G37*
G36*
X42011142Y23408215D02*
G01*
X42011208Y23406440D01*
X42003689Y23389749D01*
X42003547Y23389488D01*
X41961415Y23323987D01*
X41941791Y23257253D01*
X41961277Y23190793D01*
X42013722Y23145313D01*
X42045072Y23135783D01*
X42097518Y23127241D01*
X42099067Y23125976D01*
X42098746Y23124002D01*
X42097040Y23123273D01*
X41910000Y23137994D01*
X41820706Y23130966D01*
X41818901Y23131827D01*
X41818744Y23133821D01*
X41819028Y23134259D01*
X41892355Y23220115D01*
X42007679Y23408306D01*
X42009436Y23409260D01*
X42011142Y23408215D01*
G37*
G36*
X15169694Y23363639D02*
G01*
X15257645Y23220115D01*
X15330972Y23134259D01*
X15331336Y23132292D01*
X15329815Y23130993D01*
X15329294Y23130966D01*
X15240000Y23137994D01*
X15072184Y23124786D01*
X15070379Y23125647D01*
X15070222Y23127641D01*
X15071757Y23128762D01*
X15100431Y23132665D01*
X15163917Y23161081D01*
X15201798Y23219061D01*
X15202322Y23288508D01*
X15192427Y23312886D01*
X15166227Y23361647D01*
X15166288Y23363646D01*
X15168050Y23364593D01*
X15169694Y23363639D01*
G37*
G36*
X34219694Y23363639D02*
G01*
X34307645Y23220115D01*
X34380972Y23134259D01*
X34381336Y23132292D01*
X34379815Y23130993D01*
X34379294Y23130966D01*
X34290000Y23137994D01*
X34122184Y23124786D01*
X34120379Y23125647D01*
X34120222Y23127641D01*
X34121757Y23128762D01*
X34150431Y23132665D01*
X34213917Y23161081D01*
X34251798Y23219061D01*
X34252322Y23288508D01*
X34242427Y23312886D01*
X34216227Y23361647D01*
X34216288Y23363646D01*
X34218050Y23364593D01*
X34219694Y23363639D01*
G37*
G36*
X116740000Y32297506D02*
G01*
X116829294Y32304534D01*
X116831099Y32303673D01*
X116831256Y32301679D01*
X116830972Y32301241D01*
X116757645Y32215385D01*
X116671722Y32075172D01*
X116669965Y32074218D01*
X116668259Y32075263D01*
X116668307Y32077255D01*
X116691690Y32115789D01*
X116709559Y32183011D01*
X116688341Y32248939D01*
X116634761Y32293000D01*
X116591332Y32302754D01*
X116564490Y32303809D01*
X116564196Y32303842D01*
X116532710Y32309820D01*
X116531195Y32311126D01*
X116531568Y32313091D01*
X116533240Y32313779D01*
X116740000Y32297506D01*
G37*
G36*
X111812043Y32308469D02*
G01*
X111812200Y32306475D01*
X111810613Y32305348D01*
X111799975Y32304183D01*
X111735766Y32277437D01*
X111696380Y32220469D01*
X111694039Y32151087D01*
X111706361Y32120732D01*
X111724544Y32088917D01*
X111724536Y32086917D01*
X111722799Y32085925D01*
X111721103Y32086880D01*
X111642355Y32215385D01*
X111569028Y32301241D01*
X111568664Y32303208D01*
X111570185Y32304507D01*
X111570706Y32304534D01*
X111660000Y32297506D01*
X111810238Y32309330D01*
X111812043Y32308469D01*
G37*
G36*
X119259767Y32546500D02*
G01*
X119259767Y32544500D01*
X119258598Y32543581D01*
X119191583Y32523904D01*
X119146228Y32471561D01*
X119136368Y32402983D01*
X119161604Y32344147D01*
X119209127Y32283864D01*
X119209414Y32281885D01*
X119207843Y32280647D01*
X119206035Y32281327D01*
X119104597Y32400097D01*
X118936132Y32543979D01*
X118935464Y32545864D01*
X118936763Y32547385D01*
X118937431Y32547500D01*
X119258035Y32547500D01*
X119259767Y32546500D01*
G37*
G36*
X118718141Y32874716D02*
G01*
X118719000Y32873073D01*
X118719000Y32684529D01*
X118718000Y32682797D01*
X118715955Y32682824D01*
X118712776Y32684772D01*
X118539432Y32756573D01*
X118538214Y32758160D01*
X118538979Y32760008D01*
X118540807Y32760326D01*
X118554232Y32756029D01*
X118623767Y32754345D01*
X118682919Y32790368D01*
X118713300Y32852847D01*
X118715007Y32873240D01*
X118716148Y32874882D01*
X118718141Y32874716D01*
G37*
G36*
X118111142Y33123715D02*
G01*
X118111208Y33121940D01*
X118103689Y33105249D01*
X118103547Y33104988D01*
X118061415Y33039487D01*
X118041791Y32972753D01*
X118061277Y32906293D01*
X118113722Y32860813D01*
X118145072Y32851283D01*
X118197518Y32842741D01*
X118199067Y32841476D01*
X118198746Y32839502D01*
X118197040Y32838773D01*
X118010000Y32853494D01*
X117920706Y32846466D01*
X117918901Y32847327D01*
X117918744Y32849321D01*
X117919028Y32849759D01*
X117992355Y32935615D01*
X118107679Y33123806D01*
X118109436Y33124760D01*
X118111142Y33123715D01*
G37*
G36*
X110319694Y33079139D02*
G01*
X110407645Y32935615D01*
X110480972Y32849759D01*
X110481336Y32847792D01*
X110479815Y32846493D01*
X110479294Y32846466D01*
X110390000Y32853494D01*
X110222184Y32840286D01*
X110220379Y32841147D01*
X110220222Y32843141D01*
X110221757Y32844262D01*
X110250431Y32848165D01*
X110313917Y32876581D01*
X110351798Y32934561D01*
X110352322Y33004008D01*
X110342427Y33028386D01*
X110316227Y33077147D01*
X110316288Y33079146D01*
X110318050Y33080093D01*
X110319694Y33079139D01*
G37*
G36*
X97690000Y35155006D02*
G01*
X97779294Y35162034D01*
X97781099Y35161173D01*
X97781256Y35159179D01*
X97780972Y35158741D01*
X97707645Y35072885D01*
X97621722Y34932672D01*
X97619965Y34931718D01*
X97618259Y34932763D01*
X97618307Y34934755D01*
X97641690Y34973289D01*
X97659559Y35040511D01*
X97638341Y35106439D01*
X97584761Y35150500D01*
X97541332Y35160254D01*
X97514490Y35161309D01*
X97514196Y35161342D01*
X97482710Y35167320D01*
X97481195Y35168626D01*
X97481568Y35170591D01*
X97483240Y35171279D01*
X97690000Y35155006D01*
G37*
G36*
X59690000Y35155006D02*
G01*
X59779294Y35162034D01*
X59781099Y35161173D01*
X59781256Y35159179D01*
X59780972Y35158741D01*
X59707645Y35072885D01*
X59621722Y34932672D01*
X59619965Y34931718D01*
X59618259Y34932763D01*
X59618307Y34934755D01*
X59641690Y34973289D01*
X59659559Y35040511D01*
X59638341Y35106439D01*
X59584761Y35150500D01*
X59541332Y35160254D01*
X59514490Y35161309D01*
X59514196Y35161342D01*
X59482710Y35167320D01*
X59481195Y35168626D01*
X59481568Y35170591D01*
X59483240Y35171279D01*
X59690000Y35155006D01*
G37*
G36*
X54762043Y35165969D02*
G01*
X54762200Y35163975D01*
X54760613Y35162848D01*
X54749975Y35161683D01*
X54685766Y35134937D01*
X54646380Y35077969D01*
X54644039Y35008587D01*
X54656361Y34978232D01*
X54674544Y34946417D01*
X54674536Y34944417D01*
X54672799Y34943425D01*
X54671103Y34944380D01*
X54592355Y35072885D01*
X54519028Y35158741D01*
X54518664Y35160708D01*
X54520185Y35162007D01*
X54520706Y35162034D01*
X54610000Y35155006D01*
X54760238Y35166830D01*
X54762043Y35165969D01*
G37*
G36*
X92762043Y35165969D02*
G01*
X92762200Y35163975D01*
X92760613Y35162848D01*
X92749975Y35161683D01*
X92685766Y35134937D01*
X92646380Y35077969D01*
X92644039Y35008587D01*
X92656361Y34978232D01*
X92674544Y34946417D01*
X92674536Y34944417D01*
X92672799Y34943425D01*
X92671103Y34944380D01*
X92592355Y35072885D01*
X92519028Y35158741D01*
X92518664Y35160708D01*
X92520185Y35162007D01*
X92520706Y35162034D01*
X92610000Y35155006D01*
X92760238Y35166830D01*
X92762043Y35165969D01*
G37*
G36*
X62209767Y35404000D02*
G01*
X62209767Y35402000D01*
X62208598Y35401081D01*
X62141583Y35381404D01*
X62096228Y35329061D01*
X62086368Y35260483D01*
X62111604Y35201647D01*
X62159127Y35141364D01*
X62159414Y35139385D01*
X62157843Y35138147D01*
X62156035Y35138827D01*
X62054597Y35257597D01*
X61886132Y35401479D01*
X61885464Y35403364D01*
X61886763Y35404885D01*
X61887431Y35405000D01*
X62208035Y35405000D01*
X62209767Y35404000D01*
G37*
G36*
X100209767Y35404000D02*
G01*
X100209767Y35402000D01*
X100208598Y35401081D01*
X100141583Y35381404D01*
X100096228Y35329061D01*
X100086368Y35260483D01*
X100111604Y35201647D01*
X100159127Y35141364D01*
X100159414Y35139385D01*
X100157843Y35138147D01*
X100156035Y35138827D01*
X100054597Y35257597D01*
X99886132Y35401479D01*
X99885464Y35403364D01*
X99886763Y35404885D01*
X99887431Y35405000D01*
X100208035Y35405000D01*
X100209767Y35404000D01*
G37*
G36*
X99668141Y35732216D02*
G01*
X99669000Y35730573D01*
X99669000Y35542029D01*
X99668000Y35540297D01*
X99665955Y35540324D01*
X99662776Y35542272D01*
X99489432Y35614073D01*
X99488214Y35615660D01*
X99488979Y35617508D01*
X99490807Y35617826D01*
X99504232Y35613529D01*
X99573767Y35611845D01*
X99632919Y35647868D01*
X99663300Y35710347D01*
X99665007Y35730740D01*
X99666148Y35732382D01*
X99668141Y35732216D01*
G37*
G36*
X61668141Y35732216D02*
G01*
X61669000Y35730573D01*
X61669000Y35542029D01*
X61668000Y35540297D01*
X61665955Y35540324D01*
X61662776Y35542272D01*
X61489432Y35614073D01*
X61488214Y35615660D01*
X61488979Y35617508D01*
X61490807Y35617826D01*
X61504232Y35613529D01*
X61573767Y35611845D01*
X61632919Y35647868D01*
X61663300Y35710347D01*
X61665007Y35730740D01*
X61666148Y35732382D01*
X61668141Y35732216D01*
G37*
G36*
X61061142Y35981215D02*
G01*
X61061208Y35979440D01*
X61053689Y35962749D01*
X61053547Y35962488D01*
X61011415Y35896987D01*
X60991791Y35830253D01*
X61011277Y35763793D01*
X61063722Y35718313D01*
X61095072Y35708783D01*
X61147518Y35700241D01*
X61149067Y35698976D01*
X61148746Y35697002D01*
X61147040Y35696273D01*
X60960000Y35710994D01*
X60870706Y35703966D01*
X60868901Y35704827D01*
X60868744Y35706821D01*
X60869028Y35707259D01*
X60942355Y35793115D01*
X61057679Y35981306D01*
X61059436Y35982260D01*
X61061142Y35981215D01*
G37*
G36*
X99061142Y35981215D02*
G01*
X99061208Y35979440D01*
X99053689Y35962749D01*
X99053547Y35962488D01*
X99011415Y35896987D01*
X98991791Y35830253D01*
X99011277Y35763793D01*
X99063722Y35718313D01*
X99095072Y35708783D01*
X99147518Y35700241D01*
X99149067Y35698976D01*
X99148746Y35697002D01*
X99147040Y35696273D01*
X98960000Y35710994D01*
X98870706Y35703966D01*
X98868901Y35704827D01*
X98868744Y35706821D01*
X98869028Y35707259D01*
X98942355Y35793115D01*
X99057679Y35981306D01*
X99059436Y35982260D01*
X99061142Y35981215D01*
G37*
G36*
X91269694Y35936639D02*
G01*
X91357645Y35793115D01*
X91430972Y35707259D01*
X91431336Y35705292D01*
X91429815Y35703993D01*
X91429294Y35703966D01*
X91340000Y35710994D01*
X91172184Y35697786D01*
X91170379Y35698647D01*
X91170222Y35700641D01*
X91171757Y35701762D01*
X91200431Y35705665D01*
X91263917Y35734081D01*
X91301798Y35792061D01*
X91302322Y35861508D01*
X91292427Y35885886D01*
X91266227Y35934647D01*
X91266288Y35936646D01*
X91268050Y35937593D01*
X91269694Y35936639D01*
G37*
G36*
X53269694Y35936639D02*
G01*
X53357645Y35793115D01*
X53430972Y35707259D01*
X53431336Y35705292D01*
X53429815Y35703993D01*
X53429294Y35703966D01*
X53340000Y35710994D01*
X53172184Y35697786D01*
X53170379Y35698647D01*
X53170222Y35700641D01*
X53171757Y35701762D01*
X53200431Y35705665D01*
X53263917Y35734081D01*
X53301798Y35792061D01*
X53302322Y35861508D01*
X53292427Y35885886D01*
X53266227Y35934647D01*
X53266288Y35936646D01*
X53268050Y35937593D01*
X53269694Y35936639D01*
G37*
G36*
X78690000Y39917506D02*
G01*
X78779294Y39924534D01*
X78781099Y39923673D01*
X78781256Y39921679D01*
X78780972Y39921241D01*
X78707645Y39835385D01*
X78621722Y39695172D01*
X78619965Y39694218D01*
X78618259Y39695263D01*
X78618307Y39697255D01*
X78641690Y39735789D01*
X78659559Y39803011D01*
X78638341Y39868939D01*
X78584761Y39913000D01*
X78541332Y39922754D01*
X78514490Y39923809D01*
X78514196Y39923842D01*
X78482710Y39929820D01*
X78481195Y39931126D01*
X78481568Y39933091D01*
X78483240Y39933779D01*
X78690000Y39917506D01*
G37*
G36*
X73762043Y39928469D02*
G01*
X73762200Y39926475D01*
X73760613Y39925348D01*
X73749975Y39924183D01*
X73685766Y39897437D01*
X73646380Y39840469D01*
X73644039Y39771087D01*
X73656361Y39740732D01*
X73674544Y39708917D01*
X73674536Y39706917D01*
X73672799Y39705925D01*
X73671103Y39706880D01*
X73592355Y39835385D01*
X73519028Y39921241D01*
X73518664Y39923208D01*
X73520185Y39924507D01*
X73520706Y39924534D01*
X73610000Y39917506D01*
X73760238Y39929330D01*
X73762043Y39928469D01*
G37*
G36*
X81209767Y40166500D02*
G01*
X81209767Y40164500D01*
X81208598Y40163581D01*
X81141583Y40143904D01*
X81096228Y40091561D01*
X81086368Y40022983D01*
X81111604Y39964147D01*
X81159127Y39903864D01*
X81159414Y39901885D01*
X81157843Y39900647D01*
X81156035Y39901327D01*
X81054597Y40020097D01*
X80886132Y40163979D01*
X80885464Y40165864D01*
X80886763Y40167385D01*
X80887431Y40167500D01*
X81208035Y40167500D01*
X81209767Y40166500D01*
G37*
G36*
X80668141Y40494716D02*
G01*
X80669000Y40493073D01*
X80669000Y40304529D01*
X80668000Y40302797D01*
X80665955Y40302824D01*
X80662776Y40304772D01*
X80489432Y40376573D01*
X80488214Y40378160D01*
X80488979Y40380008D01*
X80490807Y40380326D01*
X80504232Y40376029D01*
X80573767Y40374345D01*
X80632919Y40410368D01*
X80663300Y40472847D01*
X80665007Y40493240D01*
X80666148Y40494882D01*
X80668141Y40494716D01*
G37*
G36*
X80061142Y40743715D02*
G01*
X80061208Y40741940D01*
X80053689Y40725249D01*
X80053547Y40724988D01*
X80011415Y40659487D01*
X79991791Y40592753D01*
X80011277Y40526293D01*
X80063722Y40480813D01*
X80095072Y40471283D01*
X80147518Y40462741D01*
X80149067Y40461476D01*
X80148746Y40459502D01*
X80147040Y40458773D01*
X79960000Y40473494D01*
X79870706Y40466466D01*
X79868901Y40467327D01*
X79868744Y40469321D01*
X79869028Y40469759D01*
X79942355Y40555615D01*
X80057679Y40743806D01*
X80059436Y40744760D01*
X80061142Y40743715D01*
G37*
G36*
X72269694Y40699139D02*
G01*
X72357645Y40555615D01*
X72430972Y40469759D01*
X72431336Y40467792D01*
X72429815Y40466493D01*
X72429294Y40466466D01*
X72340000Y40473494D01*
X72172184Y40460286D01*
X72170379Y40461147D01*
X72170222Y40463141D01*
X72171757Y40464262D01*
X72200431Y40468165D01*
X72263917Y40496581D01*
X72301798Y40554561D01*
X72302322Y40624008D01*
X72292427Y40648386D01*
X72266227Y40697147D01*
X72266288Y40699146D01*
X72268050Y40700093D01*
X72269694Y40699139D01*
G37*
G36*
X40640000Y41632006D02*
G01*
X40729294Y41639034D01*
X40731099Y41638173D01*
X40731256Y41636179D01*
X40730972Y41635741D01*
X40657645Y41549885D01*
X40571722Y41409672D01*
X40569965Y41408718D01*
X40568259Y41409763D01*
X40568307Y41411755D01*
X40591690Y41450289D01*
X40609559Y41517511D01*
X40588341Y41583439D01*
X40534761Y41627500D01*
X40491332Y41637254D01*
X40464490Y41638309D01*
X40464196Y41638342D01*
X40432710Y41644320D01*
X40431195Y41645626D01*
X40431568Y41647591D01*
X40433240Y41648279D01*
X40640000Y41632006D01*
G37*
G36*
X21590000Y41632006D02*
G01*
X21679294Y41639034D01*
X21681099Y41638173D01*
X21681256Y41636179D01*
X21680972Y41635741D01*
X21607645Y41549885D01*
X21521722Y41409672D01*
X21519965Y41408718D01*
X21518259Y41409763D01*
X21518307Y41411755D01*
X21541690Y41450289D01*
X21559559Y41517511D01*
X21538341Y41583439D01*
X21484761Y41627500D01*
X21441332Y41637254D01*
X21414490Y41638309D01*
X21414196Y41638342D01*
X21382710Y41644320D01*
X21381195Y41645626D01*
X21381568Y41647591D01*
X21383240Y41648279D01*
X21590000Y41632006D01*
G37*
G36*
X16662043Y41642969D02*
G01*
X16662200Y41640975D01*
X16660613Y41639848D01*
X16649975Y41638683D01*
X16585766Y41611937D01*
X16546380Y41554969D01*
X16544039Y41485587D01*
X16556361Y41455232D01*
X16574544Y41423417D01*
X16574536Y41421417D01*
X16572799Y41420425D01*
X16571103Y41421380D01*
X16492355Y41549885D01*
X16419028Y41635741D01*
X16418664Y41637708D01*
X16420185Y41639007D01*
X16420706Y41639034D01*
X16510000Y41632006D01*
X16660238Y41643830D01*
X16662043Y41642969D01*
G37*
G36*
X35712043Y41642969D02*
G01*
X35712200Y41640975D01*
X35710613Y41639848D01*
X35699975Y41638683D01*
X35635766Y41611937D01*
X35596380Y41554969D01*
X35594039Y41485587D01*
X35606361Y41455232D01*
X35624544Y41423417D01*
X35624536Y41421417D01*
X35622799Y41420425D01*
X35621103Y41421380D01*
X35542355Y41549885D01*
X35469028Y41635741D01*
X35468664Y41637708D01*
X35470185Y41639007D01*
X35470706Y41639034D01*
X35560000Y41632006D01*
X35710238Y41643830D01*
X35712043Y41642969D01*
G37*
G36*
X43159767Y41881000D02*
G01*
X43159767Y41879000D01*
X43158598Y41878081D01*
X43091583Y41858404D01*
X43046228Y41806061D01*
X43036368Y41737483D01*
X43061604Y41678647D01*
X43109127Y41618364D01*
X43109414Y41616385D01*
X43107843Y41615147D01*
X43106035Y41615827D01*
X43004597Y41734597D01*
X42836132Y41878479D01*
X42835464Y41880364D01*
X42836763Y41881885D01*
X42837431Y41882000D01*
X43158035Y41882000D01*
X43159767Y41881000D01*
G37*
G36*
X24109767Y41881000D02*
G01*
X24109767Y41879000D01*
X24108598Y41878081D01*
X24041583Y41858404D01*
X23996228Y41806061D01*
X23986368Y41737483D01*
X24011604Y41678647D01*
X24059127Y41618364D01*
X24059414Y41616385D01*
X24057843Y41615147D01*
X24056035Y41615827D01*
X23954597Y41734597D01*
X23786132Y41878479D01*
X23785464Y41880364D01*
X23786763Y41881885D01*
X23787431Y41882000D01*
X24108035Y41882000D01*
X24109767Y41881000D01*
G37*
G36*
X42618141Y42209216D02*
G01*
X42619000Y42207573D01*
X42619000Y42019029D01*
X42618000Y42017297D01*
X42615955Y42017324D01*
X42612776Y42019272D01*
X42439432Y42091073D01*
X42438214Y42092660D01*
X42438979Y42094508D01*
X42440807Y42094826D01*
X42454232Y42090529D01*
X42523767Y42088845D01*
X42582919Y42124868D01*
X42613300Y42187347D01*
X42615007Y42207740D01*
X42616148Y42209382D01*
X42618141Y42209216D01*
G37*
G36*
X23568141Y42209216D02*
G01*
X23569000Y42207573D01*
X23569000Y42019029D01*
X23568000Y42017297D01*
X23565955Y42017324D01*
X23562776Y42019272D01*
X23389432Y42091073D01*
X23388214Y42092660D01*
X23388979Y42094508D01*
X23390807Y42094826D01*
X23404232Y42090529D01*
X23473767Y42088845D01*
X23532919Y42124868D01*
X23563300Y42187347D01*
X23565007Y42207740D01*
X23566148Y42209382D01*
X23568141Y42209216D01*
G37*
G36*
X42011142Y42458215D02*
G01*
X42011208Y42456440D01*
X42003689Y42439749D01*
X42003547Y42439488D01*
X41961415Y42373987D01*
X41941791Y42307253D01*
X41961277Y42240793D01*
X42013722Y42195313D01*
X42045072Y42185783D01*
X42097518Y42177241D01*
X42099067Y42175976D01*
X42098746Y42174002D01*
X42097040Y42173273D01*
X41910000Y42187994D01*
X41820706Y42180966D01*
X41818901Y42181827D01*
X41818744Y42183821D01*
X41819028Y42184259D01*
X41892355Y42270115D01*
X42007679Y42458306D01*
X42009436Y42459260D01*
X42011142Y42458215D01*
G37*
G36*
X22961142Y42458215D02*
G01*
X22961208Y42456440D01*
X22953689Y42439749D01*
X22953547Y42439488D01*
X22911415Y42373987D01*
X22891791Y42307253D01*
X22911277Y42240793D01*
X22963722Y42195313D01*
X22995072Y42185783D01*
X23047518Y42177241D01*
X23049067Y42175976D01*
X23048746Y42174002D01*
X23047040Y42173273D01*
X22860000Y42187994D01*
X22770706Y42180966D01*
X22768901Y42181827D01*
X22768744Y42183821D01*
X22769028Y42184259D01*
X22842355Y42270115D01*
X22957679Y42458306D01*
X22959436Y42459260D01*
X22961142Y42458215D01*
G37*
G36*
X34219694Y42413639D02*
G01*
X34307645Y42270115D01*
X34380972Y42184259D01*
X34381336Y42182292D01*
X34379815Y42180993D01*
X34379294Y42180966D01*
X34290000Y42187994D01*
X34122184Y42174786D01*
X34120379Y42175647D01*
X34120222Y42177641D01*
X34121757Y42178762D01*
X34150431Y42182665D01*
X34213917Y42211081D01*
X34251798Y42269061D01*
X34252322Y42338508D01*
X34242427Y42362886D01*
X34216227Y42411647D01*
X34216288Y42413646D01*
X34218050Y42414593D01*
X34219694Y42413639D01*
G37*
G36*
X15169694Y42413639D02*
G01*
X15257645Y42270115D01*
X15330972Y42184259D01*
X15331336Y42182292D01*
X15329815Y42180993D01*
X15329294Y42180966D01*
X15240000Y42187994D01*
X15072184Y42174786D01*
X15070379Y42175647D01*
X15070222Y42177641D01*
X15071757Y42178762D01*
X15100431Y42182665D01*
X15163917Y42211081D01*
X15201798Y42269061D01*
X15202322Y42338508D01*
X15192427Y42362886D01*
X15166227Y42411647D01*
X15166288Y42413646D01*
X15168050Y42414593D01*
X15169694Y42413639D01*
G37*
G36*
X116740000Y51347506D02*
G01*
X116829294Y51354534D01*
X116831099Y51353673D01*
X116831256Y51351679D01*
X116830972Y51351241D01*
X116757645Y51265385D01*
X116671722Y51125172D01*
X116669965Y51124218D01*
X116668259Y51125263D01*
X116668307Y51127255D01*
X116691690Y51165789D01*
X116709559Y51233011D01*
X116688341Y51298939D01*
X116634761Y51343000D01*
X116591332Y51352754D01*
X116564490Y51353809D01*
X116564196Y51353842D01*
X116532710Y51359820D01*
X116531195Y51361126D01*
X116531568Y51363091D01*
X116533240Y51363779D01*
X116740000Y51347506D01*
G37*
G36*
X111812043Y51358469D02*
G01*
X111812200Y51356475D01*
X111810613Y51355348D01*
X111799975Y51354183D01*
X111735766Y51327437D01*
X111696380Y51270469D01*
X111694039Y51201087D01*
X111706361Y51170732D01*
X111724544Y51138917D01*
X111724536Y51136917D01*
X111722799Y51135925D01*
X111721103Y51136880D01*
X111642355Y51265385D01*
X111569028Y51351241D01*
X111568664Y51353208D01*
X111570185Y51354507D01*
X111570706Y51354534D01*
X111660000Y51347506D01*
X111810238Y51359330D01*
X111812043Y51358469D01*
G37*
G36*
X119259767Y51596500D02*
G01*
X119259767Y51594500D01*
X119258598Y51593581D01*
X119191583Y51573904D01*
X119146228Y51521561D01*
X119136368Y51452983D01*
X119161604Y51394147D01*
X119209127Y51333864D01*
X119209414Y51331885D01*
X119207843Y51330647D01*
X119206035Y51331327D01*
X119104597Y51450097D01*
X118936132Y51593979D01*
X118935464Y51595864D01*
X118936763Y51597385D01*
X118937431Y51597500D01*
X119258035Y51597500D01*
X119259767Y51596500D01*
G37*
G36*
X118718141Y51924716D02*
G01*
X118719000Y51923073D01*
X118719000Y51734529D01*
X118718000Y51732797D01*
X118715955Y51732824D01*
X118712776Y51734772D01*
X118539432Y51806573D01*
X118538214Y51808160D01*
X118538979Y51810008D01*
X118540807Y51810326D01*
X118554232Y51806029D01*
X118623767Y51804345D01*
X118682919Y51840368D01*
X118713300Y51902847D01*
X118715007Y51923240D01*
X118716148Y51924882D01*
X118718141Y51924716D01*
G37*
G36*
X118111142Y52173715D02*
G01*
X118111208Y52171940D01*
X118103689Y52155249D01*
X118103547Y52154988D01*
X118061415Y52089487D01*
X118041791Y52022753D01*
X118061277Y51956293D01*
X118113722Y51910813D01*
X118145072Y51901283D01*
X118197518Y51892741D01*
X118199067Y51891476D01*
X118198746Y51889502D01*
X118197040Y51888773D01*
X118010000Y51903494D01*
X117920706Y51896466D01*
X117918901Y51897327D01*
X117918744Y51899321D01*
X117919028Y51899759D01*
X117992355Y51985615D01*
X118107679Y52173806D01*
X118109436Y52174760D01*
X118111142Y52173715D01*
G37*
G36*
X110319694Y52129139D02*
G01*
X110407645Y51985615D01*
X110480972Y51899759D01*
X110481336Y51897792D01*
X110479815Y51896493D01*
X110479294Y51896466D01*
X110390000Y51903494D01*
X110222184Y51890286D01*
X110220379Y51891147D01*
X110220222Y51893141D01*
X110221757Y51894262D01*
X110250431Y51898165D01*
X110313917Y51926581D01*
X110351798Y51984561D01*
X110352322Y52054008D01*
X110342427Y52078386D01*
X110316227Y52127147D01*
X110316288Y52129146D01*
X110318050Y52130093D01*
X110319694Y52129139D01*
G37*
G36*
X97690000Y54205006D02*
G01*
X97779294Y54212034D01*
X97781099Y54211173D01*
X97781256Y54209179D01*
X97780972Y54208741D01*
X97707645Y54122885D01*
X97621722Y53982672D01*
X97619965Y53981718D01*
X97618259Y53982763D01*
X97618307Y53984755D01*
X97641690Y54023289D01*
X97659559Y54090511D01*
X97638341Y54156439D01*
X97584761Y54200500D01*
X97541332Y54210254D01*
X97514490Y54211309D01*
X97514196Y54211342D01*
X97482710Y54217320D01*
X97481195Y54218626D01*
X97481568Y54220591D01*
X97483240Y54221279D01*
X97690000Y54205006D01*
G37*
G36*
X59690000Y54205006D02*
G01*
X59779294Y54212034D01*
X59781099Y54211173D01*
X59781256Y54209179D01*
X59780972Y54208741D01*
X59707645Y54122885D01*
X59621722Y53982672D01*
X59619965Y53981718D01*
X59618259Y53982763D01*
X59618307Y53984755D01*
X59641690Y54023289D01*
X59659559Y54090511D01*
X59638341Y54156439D01*
X59584761Y54200500D01*
X59541332Y54210254D01*
X59514490Y54211309D01*
X59514196Y54211342D01*
X59482710Y54217320D01*
X59481195Y54218626D01*
X59481568Y54220591D01*
X59483240Y54221279D01*
X59690000Y54205006D01*
G37*
G36*
X92762043Y54215969D02*
G01*
X92762200Y54213975D01*
X92760613Y54212848D01*
X92749975Y54211683D01*
X92685766Y54184937D01*
X92646380Y54127969D01*
X92644039Y54058587D01*
X92656361Y54028232D01*
X92674544Y53996417D01*
X92674536Y53994417D01*
X92672799Y53993425D01*
X92671103Y53994380D01*
X92592355Y54122885D01*
X92519028Y54208741D01*
X92518664Y54210708D01*
X92520185Y54212007D01*
X92520706Y54212034D01*
X92610000Y54205006D01*
X92760238Y54216830D01*
X92762043Y54215969D01*
G37*
G36*
X54762043Y54215969D02*
G01*
X54762200Y54213975D01*
X54760613Y54212848D01*
X54749975Y54211683D01*
X54685766Y54184937D01*
X54646380Y54127969D01*
X54644039Y54058587D01*
X54656361Y54028232D01*
X54674544Y53996417D01*
X54674536Y53994417D01*
X54672799Y53993425D01*
X54671103Y53994380D01*
X54592355Y54122885D01*
X54519028Y54208741D01*
X54518664Y54210708D01*
X54520185Y54212007D01*
X54520706Y54212034D01*
X54610000Y54205006D01*
X54760238Y54216830D01*
X54762043Y54215969D01*
G37*
G36*
X100209767Y54454000D02*
G01*
X100209767Y54452000D01*
X100208598Y54451081D01*
X100141583Y54431404D01*
X100096228Y54379061D01*
X100086368Y54310483D01*
X100111604Y54251647D01*
X100159127Y54191364D01*
X100159414Y54189385D01*
X100157843Y54188147D01*
X100156035Y54188827D01*
X100054597Y54307597D01*
X99886132Y54451479D01*
X99885464Y54453364D01*
X99886763Y54454885D01*
X99887431Y54455000D01*
X100208035Y54455000D01*
X100209767Y54454000D01*
G37*
G36*
X62209767Y54454000D02*
G01*
X62209767Y54452000D01*
X62208598Y54451081D01*
X62141583Y54431404D01*
X62096228Y54379061D01*
X62086368Y54310483D01*
X62111604Y54251647D01*
X62159127Y54191364D01*
X62159414Y54189385D01*
X62157843Y54188147D01*
X62156035Y54188827D01*
X62054597Y54307597D01*
X61886132Y54451479D01*
X61885464Y54453364D01*
X61886763Y54454885D01*
X61887431Y54455000D01*
X62208035Y54455000D01*
X62209767Y54454000D01*
G37*
G36*
X61668141Y54782216D02*
G01*
X61669000Y54780573D01*
X61669000Y54592029D01*
X61668000Y54590297D01*
X61665955Y54590324D01*
X61662776Y54592272D01*
X61489432Y54664073D01*
X61488214Y54665660D01*
X61488979Y54667508D01*
X61490807Y54667826D01*
X61504232Y54663529D01*
X61573767Y54661845D01*
X61632919Y54697868D01*
X61663300Y54760347D01*
X61665007Y54780740D01*
X61666148Y54782382D01*
X61668141Y54782216D01*
G37*
G36*
X99668141Y54782216D02*
G01*
X99669000Y54780573D01*
X99669000Y54592029D01*
X99668000Y54590297D01*
X99665955Y54590324D01*
X99662776Y54592272D01*
X99489432Y54664073D01*
X99488214Y54665660D01*
X99488979Y54667508D01*
X99490807Y54667826D01*
X99504232Y54663529D01*
X99573767Y54661845D01*
X99632919Y54697868D01*
X99663300Y54760347D01*
X99665007Y54780740D01*
X99666148Y54782382D01*
X99668141Y54782216D01*
G37*
G36*
X61061142Y55031215D02*
G01*
X61061208Y55029440D01*
X61053689Y55012749D01*
X61053547Y55012488D01*
X61011415Y54946987D01*
X60991791Y54880253D01*
X61011277Y54813793D01*
X61063722Y54768313D01*
X61095072Y54758783D01*
X61147518Y54750241D01*
X61149067Y54748976D01*
X61148746Y54747002D01*
X61147040Y54746273D01*
X60960000Y54760994D01*
X60870706Y54753966D01*
X60868901Y54754827D01*
X60868744Y54756821D01*
X60869028Y54757259D01*
X60942355Y54843115D01*
X61057679Y55031306D01*
X61059436Y55032260D01*
X61061142Y55031215D01*
G37*
G36*
X99061142Y55031215D02*
G01*
X99061208Y55029440D01*
X99053689Y55012749D01*
X99053547Y55012488D01*
X99011415Y54946987D01*
X98991791Y54880253D01*
X99011277Y54813793D01*
X99063722Y54768313D01*
X99095072Y54758783D01*
X99147518Y54750241D01*
X99149067Y54748976D01*
X99148746Y54747002D01*
X99147040Y54746273D01*
X98960000Y54760994D01*
X98870706Y54753966D01*
X98868901Y54754827D01*
X98868744Y54756821D01*
X98869028Y54757259D01*
X98942355Y54843115D01*
X99057679Y55031306D01*
X99059436Y55032260D01*
X99061142Y55031215D01*
G37*
G36*
X91269694Y54986639D02*
G01*
X91357645Y54843115D01*
X91430972Y54757259D01*
X91431336Y54755292D01*
X91429815Y54753993D01*
X91429294Y54753966D01*
X91340000Y54760994D01*
X91172184Y54747786D01*
X91170379Y54748647D01*
X91170222Y54750641D01*
X91171757Y54751762D01*
X91200431Y54755665D01*
X91263917Y54784081D01*
X91301798Y54842061D01*
X91302322Y54911508D01*
X91292427Y54935886D01*
X91266227Y54984647D01*
X91266288Y54986646D01*
X91268050Y54987593D01*
X91269694Y54986639D01*
G37*
G36*
X53269694Y54986639D02*
G01*
X53357645Y54843115D01*
X53430972Y54757259D01*
X53431336Y54755292D01*
X53429815Y54753993D01*
X53429294Y54753966D01*
X53340000Y54760994D01*
X53172184Y54747786D01*
X53170379Y54748647D01*
X53170222Y54750641D01*
X53171757Y54751762D01*
X53200431Y54755665D01*
X53263917Y54784081D01*
X53301798Y54842061D01*
X53302322Y54911508D01*
X53292427Y54935886D01*
X53266227Y54984647D01*
X53266288Y54986646D01*
X53268050Y54987593D01*
X53269694Y54986639D01*
G37*
G36*
X78690000Y58967506D02*
G01*
X78779294Y58974534D01*
X78781099Y58973673D01*
X78781256Y58971679D01*
X78780972Y58971241D01*
X78707645Y58885385D01*
X78621722Y58745172D01*
X78619965Y58744218D01*
X78618259Y58745263D01*
X78618307Y58747255D01*
X78641690Y58785789D01*
X78659559Y58853011D01*
X78638341Y58918939D01*
X78584761Y58963000D01*
X78541332Y58972754D01*
X78514490Y58973809D01*
X78514196Y58973842D01*
X78482710Y58979820D01*
X78481195Y58981126D01*
X78481568Y58983091D01*
X78483240Y58983779D01*
X78690000Y58967506D01*
G37*
G36*
X73762043Y58978469D02*
G01*
X73762200Y58976475D01*
X73760613Y58975348D01*
X73749975Y58974183D01*
X73685766Y58947437D01*
X73646380Y58890469D01*
X73644039Y58821087D01*
X73656361Y58790732D01*
X73674544Y58758917D01*
X73674536Y58756917D01*
X73672799Y58755925D01*
X73671103Y58756880D01*
X73592355Y58885385D01*
X73519028Y58971241D01*
X73518664Y58973208D01*
X73520185Y58974507D01*
X73520706Y58974534D01*
X73610000Y58967506D01*
X73760238Y58979330D01*
X73762043Y58978469D01*
G37*
G36*
X81209767Y59216500D02*
G01*
X81209767Y59214500D01*
X81208598Y59213581D01*
X81141583Y59193904D01*
X81096228Y59141561D01*
X81086368Y59072983D01*
X81111604Y59014147D01*
X81159127Y58953864D01*
X81159414Y58951885D01*
X81157843Y58950647D01*
X81156035Y58951327D01*
X81054597Y59070097D01*
X80886132Y59213979D01*
X80885464Y59215864D01*
X80886763Y59217385D01*
X80887431Y59217500D01*
X81208035Y59217500D01*
X81209767Y59216500D01*
G37*
G36*
X80668141Y59544716D02*
G01*
X80669000Y59543073D01*
X80669000Y59354529D01*
X80668000Y59352797D01*
X80665955Y59352824D01*
X80662776Y59354772D01*
X80489432Y59426573D01*
X80488214Y59428160D01*
X80488979Y59430008D01*
X80490807Y59430326D01*
X80504232Y59426029D01*
X80573767Y59424345D01*
X80632919Y59460368D01*
X80663300Y59522847D01*
X80665007Y59543240D01*
X80666148Y59544882D01*
X80668141Y59544716D01*
G37*
G36*
X80061142Y59793715D02*
G01*
X80061208Y59791940D01*
X80053689Y59775249D01*
X80053547Y59774988D01*
X80011415Y59709487D01*
X79991791Y59642753D01*
X80011277Y59576293D01*
X80063722Y59530813D01*
X80095072Y59521283D01*
X80147518Y59512741D01*
X80149067Y59511476D01*
X80148746Y59509502D01*
X80147040Y59508773D01*
X79960000Y59523494D01*
X79870706Y59516466D01*
X79868901Y59517327D01*
X79868744Y59519321D01*
X79869028Y59519759D01*
X79942355Y59605615D01*
X80057679Y59793806D01*
X80059436Y59794760D01*
X80061142Y59793715D01*
G37*
G36*
X72269694Y59749139D02*
G01*
X72357645Y59605615D01*
X72430972Y59519759D01*
X72431336Y59517792D01*
X72429815Y59516493D01*
X72429294Y59516466D01*
X72340000Y59523494D01*
X72172184Y59510286D01*
X72170379Y59511147D01*
X72170222Y59513141D01*
X72171757Y59514262D01*
X72200431Y59518165D01*
X72263917Y59546581D01*
X72301798Y59604561D01*
X72302322Y59674008D01*
X72292427Y59698386D01*
X72266227Y59747147D01*
X72266288Y59749146D01*
X72268050Y59750093D01*
X72269694Y59749139D01*
G37*
M02*
