M48
; DRILL file {KiCad (6.0.8)} date Sat 22 Oct 2022 23:06:42 BST
; FORMAT={-:-/ absolute / inch / decimal}
; #@! TF.CreationDate,2022-10-22T23:06:42+01:00
; #@! TF.GenerationSoftware,Kicad,Pcbnew,(6.0.8)
; #@! TF.FileFunction,Plated,1,2,PTH
FMAT,2
INCH
; #@! TA.AperFunction,Plated,PTH,ViaDrill
T1C0.0157
; #@! TA.AperFunction,Plated,PTH,ComponentDrill
T2C0.0354
; #@! TA.AperFunction,Plated,PTH,ComponentDrill
T3C0.0390
; #@! TA.AperFunction,Plated,PTH,ComponentDrill
T4C0.0430
; #@! TA.AperFunction,Plated,PTH,ComponentDrill
T5C0.0512
%
G90
G05
T1
X0.9883Y0.2732
X1.7485Y1.2076
X1.7485Y0.3793
X1.7612Y0.6779
X2.48Y2.2693
X3.1755Y-0.0937
X3.228Y2.522
X3.228Y0.9564
X3.2428Y-0.5488
X3.3022Y1.6316
X3.9761Y2.2693
X3.9761Y-0.819
X4.0385Y0.7752
X4.4501Y0.8461
X4.7011Y1.415
X4.7261Y2.2178
X4.7261Y-0.8124
X4.7587Y1.0691
X4.7819Y0.8842
X4.801Y-0.1876
X4.8943Y1.3039
X5.1876Y1.0994
X5.2436Y0.1285
X5.4761Y-0.819
X5.5205Y-0.061
T3
X0.6Y1.3031
X0.6Y0.5531
X0.6Y-0.1969
X0.9Y1.3031
X0.9Y0.5531
X0.9Y-0.1969
X1.35Y1.3031
X1.35Y0.5531
X1.35Y-0.1969
X1.65Y1.3031
X1.65Y0.5531
X1.65Y-0.1969
X2.1Y1.7981
X2.1Y1.0481
X2.1Y0.2981
X2.4Y1.7981
X2.4Y1.0481
X2.4Y0.2981
X2.8461Y-0.5644
X2.8461Y-1.3144
X2.848Y1.9856
X2.848Y1.2356
X2.848Y0.4856
X3.1461Y-0.5644
X3.1461Y-1.3144
X3.148Y1.9856
X3.148Y1.2356
X3.148Y0.4856
X3.5961Y1.7981
X3.5961Y1.0481
X3.5961Y0.2981
X3.5961Y-0.5644
X3.5961Y-1.3144
X3.8961Y1.7981
X3.8961Y1.0481
X3.8961Y0.2981
X3.8961Y-0.5644
X3.8961Y-1.3144
X4.3461Y1.6856
X4.3461Y0.9356
X4.3461Y0.1856
X4.3461Y-0.5644
X4.3461Y-1.3144
X4.6461Y1.6856
X4.6461Y0.9356
X4.6461Y0.1856
X4.6461Y-0.5644
X4.6461Y-1.3144
X5.0961Y-0.5644
X5.0961Y-1.3144
X5.3961Y-0.5644
X5.3961Y-1.3144
T4
X4.9835Y1.9994
X4.9835Y1.8994
X4.9835Y1.7994
X4.9835Y1.6994
X4.9835Y1.5994
X4.9835Y1.4994
X4.9835Y1.3994
X4.9835Y1.2994
X4.9835Y1.1994
X4.9835Y1.0994
X4.9835Y0.9994
X4.9835Y0.8994
X5.0819Y1.9502
X5.0819Y1.8502
X5.0819Y1.7502
X5.0819Y1.6502
X5.0819Y1.5502
X5.0819Y1.4502
X5.0819Y1.3502
X5.0819Y1.2502
X5.0819Y1.1502
X5.0819Y1.0502
X5.0819Y0.9502
X5.0819Y0.8502
X5.5835Y1.9994
X5.5835Y1.8994
X5.5835Y1.7994
X5.5835Y1.6994
X5.5835Y1.5994
X5.5835Y1.4994
X5.5835Y1.3994
X5.5835Y1.2994
X5.5835Y1.1994
X5.5835Y1.0994
X5.5835Y0.9994
X5.5835Y0.8994
X5.6819Y1.9502
X5.6819Y1.8502
X5.6819Y1.7502
X5.6819Y1.6502
X5.6819Y1.5502
X5.6819Y1.4502
X5.6819Y1.3502
X5.6819Y1.2502
X5.6819Y1.1502
X5.6819Y1.0502
X5.6819Y0.9502
X5.6819Y0.8502
T5
X5.0079Y0.5636
X5.0079Y0.3077
T2
G00X5.3228Y0.4849
M15
G01X5.2992Y0.4849
M16
G05
G00X5.3228Y0.3825
M15
G01X5.2992Y0.3825
M16
G05
G00X5.3661Y0.5636
M15
G01X5.3425Y0.5636
M16
G05
G00X5.3661Y0.3038
M15
G01X5.3425Y0.3038
M16
G05
G00X5.5236Y0.5636
M15
G01X5.5Y0.5636
M16
G05
G00X5.5236Y0.3038
M15
G01X5.5Y0.3038
M16
G05
G00X5.6417Y0.5636
M15
G01X5.6181Y0.5636
M16
G05
G00X5.6417Y0.3038
M15
G01X5.6181Y0.3038
M16
G05
T0
M30
