G04 #@! TF.GenerationSoftware,KiCad,Pcbnew,5.1.5+dfsg1-2build2*
G04 #@! TF.CreationDate,2022-10-22T21:51:20+00:00*
G04 #@! TF.ProjectId,board,626f6172-642e-46b6-9963-61645f706362,v1.0.0*
G04 #@! TF.SameCoordinates,Original*
G04 #@! TF.FileFunction,Legend,Bot*
G04 #@! TF.FilePolarity,Positive*
%FSLAX46Y46*%
G04 Gerber Fmt 4.6, Leading zero omitted, Abs format (unit mm)*
G04 Created by KiCad (PCBNEW 5.1.5+dfsg1-2build2) date 2022-10-22 21:51:20*
%MOMM*%
%LPD*%
G04 APERTURE LIST*
%ADD10C,0.150000*%
G04 #@! TA.AperFunction,Profile*
%ADD11C,0.150000*%
G04 #@! TD*
%ADD12C,0.100000*%
G04 APERTURE END LIST*
D10*
X62507142Y-2216071D02*
X62364285Y-2263690D01*
X62316666Y-2311309D01*
X62269047Y-2406547D01*
X62269047Y-2549404D01*
X62316666Y-2644642D01*
X62364285Y-2692261D01*
X62459523Y-2739880D01*
X62840476Y-2739880D01*
X62840476Y-1739880D01*
X62507142Y-1739880D01*
X62411904Y-1787500D01*
X62364285Y-1835119D01*
X62316666Y-1930357D01*
X62316666Y-2025595D01*
X62364285Y-2120833D01*
X62411904Y-2168452D01*
X62507142Y-2216071D01*
X62840476Y-2216071D01*
X61459523Y-2692261D02*
X61554761Y-2739880D01*
X61745238Y-2739880D01*
X61840476Y-2692261D01*
X61888095Y-2597023D01*
X61888095Y-2216071D01*
X61840476Y-2120833D01*
X61745238Y-2073214D01*
X61554761Y-2073214D01*
X61459523Y-2120833D01*
X61411904Y-2216071D01*
X61411904Y-2311309D01*
X61888095Y-2406547D01*
X60554761Y-2692261D02*
X60650000Y-2739880D01*
X60840476Y-2739880D01*
X60935714Y-2692261D01*
X60983333Y-2644642D01*
X61030952Y-2549404D01*
X61030952Y-2263690D01*
X60983333Y-2168452D01*
X60935714Y-2120833D01*
X60840476Y-2073214D01*
X60650000Y-2073214D01*
X60554761Y-2120833D01*
X59697619Y-2739880D02*
X59697619Y-2216071D01*
X59745238Y-2120833D01*
X59840476Y-2073214D01*
X60030952Y-2073214D01*
X60126190Y-2120833D01*
X59697619Y-2692261D02*
X59792857Y-2739880D01*
X60030952Y-2739880D01*
X60126190Y-2692261D01*
X60173809Y-2597023D01*
X60173809Y-2501785D01*
X60126190Y-2406547D01*
X60030952Y-2358928D01*
X59792857Y-2358928D01*
X59697619Y-2311309D01*
X58792857Y-2073214D02*
X58792857Y-2739880D01*
X59221428Y-2073214D02*
X59221428Y-2597023D01*
X59173809Y-2692261D01*
X59078571Y-2739880D01*
X58935714Y-2739880D01*
X58840476Y-2692261D01*
X58792857Y-2644642D01*
X58364285Y-2692261D02*
X58269047Y-2739880D01*
X58078571Y-2739880D01*
X57983333Y-2692261D01*
X57935714Y-2597023D01*
X57935714Y-2549404D01*
X57983333Y-2454166D01*
X58078571Y-2406547D01*
X58221428Y-2406547D01*
X58316666Y-2358928D01*
X58364285Y-2263690D01*
X58364285Y-2216071D01*
X58316666Y-2120833D01*
X58221428Y-2073214D01*
X58078571Y-2073214D01*
X57983333Y-2120833D01*
X57126190Y-2692261D02*
X57221428Y-2739880D01*
X57411904Y-2739880D01*
X57507142Y-2692261D01*
X57554761Y-2597023D01*
X57554761Y-2216071D01*
X57507142Y-2120833D01*
X57411904Y-2073214D01*
X57221428Y-2073214D01*
X57126190Y-2120833D01*
X57078571Y-2216071D01*
X57078571Y-2311309D01*
X57554761Y-2406547D01*
X55888095Y-2739880D02*
X55888095Y-2073214D01*
X55888095Y-1739880D02*
X55935714Y-1787500D01*
X55888095Y-1835119D01*
X55840476Y-1787500D01*
X55888095Y-1739880D01*
X55888095Y-1835119D01*
X55554761Y-2073214D02*
X55173809Y-2073214D01*
X55411904Y-2739880D02*
X55411904Y-1882738D01*
X55364285Y-1787500D01*
X55269047Y-1739880D01*
X55173809Y-1739880D01*
X54221428Y-2073214D02*
X53840476Y-2073214D01*
X54078571Y-1739880D02*
X54078571Y-2597023D01*
X54030952Y-2692261D01*
X53935714Y-2739880D01*
X53840476Y-2739880D01*
X53507142Y-2739880D02*
X53507142Y-1739880D01*
X53078571Y-2739880D02*
X53078571Y-2216071D01*
X53126190Y-2120833D01*
X53221428Y-2073214D01*
X53364285Y-2073214D01*
X53459523Y-2120833D01*
X53507142Y-2168452D01*
X52221428Y-2692261D02*
X52316666Y-2739880D01*
X52507142Y-2739880D01*
X52602380Y-2692261D01*
X52650000Y-2597023D01*
X52650000Y-2216071D01*
X52602380Y-2120833D01*
X52507142Y-2073214D01*
X52316666Y-2073214D01*
X52221428Y-2120833D01*
X52173809Y-2216071D01*
X52173809Y-2311309D01*
X52650000Y-2406547D01*
X51840476Y-2073214D02*
X51602380Y-2739880D01*
X51364285Y-2073214D02*
X51602380Y-2739880D01*
X51697619Y-2977976D01*
X51745238Y-3025595D01*
X51840476Y-3073214D01*
X63054761Y-4389880D02*
X63150000Y-4342261D01*
X63197619Y-4247023D01*
X63197619Y-3389880D01*
X62673809Y-4389880D02*
X62673809Y-3723214D01*
X62673809Y-3389880D02*
X62721428Y-3437500D01*
X62673809Y-3485119D01*
X62626190Y-3437500D01*
X62673809Y-3389880D01*
X62673809Y-3485119D01*
X62292857Y-3723214D02*
X62054761Y-4389880D01*
X61816666Y-3723214D01*
X61054761Y-4342261D02*
X61150000Y-4389880D01*
X61340476Y-4389880D01*
X61435714Y-4342261D01*
X61483333Y-4247023D01*
X61483333Y-3866071D01*
X61435714Y-3770833D01*
X61340476Y-3723214D01*
X61150000Y-3723214D01*
X61054761Y-3770833D01*
X61007142Y-3866071D01*
X61007142Y-3961309D01*
X61483333Y-4056547D01*
X60150000Y-4389880D02*
X60150000Y-3389880D01*
X60150000Y-4342261D02*
X60245238Y-4389880D01*
X60435714Y-4389880D01*
X60530952Y-4342261D01*
X60578571Y-4294642D01*
X60626190Y-4199404D01*
X60626190Y-3913690D01*
X60578571Y-3818452D01*
X60530952Y-3770833D01*
X60435714Y-3723214D01*
X60245238Y-3723214D01*
X60150000Y-3770833D01*
X58911904Y-4389880D02*
X58911904Y-3723214D01*
X58911904Y-3389880D02*
X58959523Y-3437500D01*
X58911904Y-3485119D01*
X58864285Y-3437500D01*
X58911904Y-3389880D01*
X58911904Y-3485119D01*
X58435714Y-3723214D02*
X58435714Y-4389880D01*
X58435714Y-3818452D02*
X58388095Y-3770833D01*
X58292857Y-3723214D01*
X58150000Y-3723214D01*
X58054761Y-3770833D01*
X58007142Y-3866071D01*
X58007142Y-4389880D01*
X56911904Y-3723214D02*
X56530952Y-3723214D01*
X56769047Y-3389880D02*
X56769047Y-4247023D01*
X56721428Y-4342261D01*
X56626190Y-4389880D01*
X56530952Y-4389880D01*
X56197619Y-4389880D02*
X56197619Y-3389880D01*
X55769047Y-4389880D02*
X55769047Y-3866071D01*
X55816666Y-3770833D01*
X55911904Y-3723214D01*
X56054761Y-3723214D01*
X56150000Y-3770833D01*
X56197619Y-3818452D01*
X54911904Y-4342261D02*
X55007142Y-4389880D01*
X55197619Y-4389880D01*
X55292857Y-4342261D01*
X55340476Y-4247023D01*
X55340476Y-3866071D01*
X55292857Y-3770833D01*
X55197619Y-3723214D01*
X55007142Y-3723214D01*
X54911904Y-3770833D01*
X54864285Y-3866071D01*
X54864285Y-3961309D01*
X55340476Y-4056547D01*
X53673809Y-4389880D02*
X53673809Y-3389880D01*
X53673809Y-3770833D02*
X53578571Y-3723214D01*
X53388095Y-3723214D01*
X53292857Y-3770833D01*
X53245238Y-3818452D01*
X53197619Y-3913690D01*
X53197619Y-4199404D01*
X53245238Y-4294642D01*
X53292857Y-4342261D01*
X53388095Y-4389880D01*
X53578571Y-4389880D01*
X53673809Y-4342261D01*
X52340476Y-4389880D02*
X52340476Y-3866071D01*
X52388095Y-3770833D01*
X52483333Y-3723214D01*
X52673809Y-3723214D01*
X52769047Y-3770833D01*
X52340476Y-4342261D02*
X52435714Y-4389880D01*
X52673809Y-4389880D01*
X52769047Y-4342261D01*
X52816666Y-4247023D01*
X52816666Y-4151785D01*
X52769047Y-4056547D01*
X52673809Y-4008928D01*
X52435714Y-4008928D01*
X52340476Y-3961309D01*
X51959523Y-3723214D02*
X51721428Y-4389880D01*
X51483333Y-3723214D02*
X51721428Y-4389880D01*
X51816666Y-4627976D01*
X51864285Y-4675595D01*
X51959523Y-4723214D01*
X51054761Y-4342261D02*
X51054761Y-4389880D01*
X51102380Y-4485119D01*
X51150000Y-4532738D01*
X63221428Y-5373214D02*
X62840476Y-5373214D01*
X63078571Y-5039880D02*
X63078571Y-5897023D01*
X63030952Y-5992261D01*
X62935714Y-6039880D01*
X62840476Y-6039880D01*
X62507142Y-6039880D02*
X62507142Y-5039880D01*
X62078571Y-6039880D02*
X62078571Y-5516071D01*
X62126190Y-5420833D01*
X62221428Y-5373214D01*
X62364285Y-5373214D01*
X62459523Y-5420833D01*
X62507142Y-5468452D01*
X61221428Y-5992261D02*
X61316666Y-6039880D01*
X61507142Y-6039880D01*
X61602380Y-5992261D01*
X61650000Y-5897023D01*
X61650000Y-5516071D01*
X61602380Y-5420833D01*
X61507142Y-5373214D01*
X61316666Y-5373214D01*
X61221428Y-5420833D01*
X61173809Y-5516071D01*
X61173809Y-5611309D01*
X61650000Y-5706547D01*
X60840476Y-5373214D02*
X60602380Y-6039880D01*
X60364285Y-5373214D02*
X60602380Y-6039880D01*
X60697619Y-6277976D01*
X60745238Y-6325595D01*
X60840476Y-6373214D01*
X59935714Y-5039880D02*
X60030952Y-5230357D01*
X59078571Y-6039880D02*
X59078571Y-5039880D01*
X59078571Y-5992261D02*
X59173809Y-6039880D01*
X59364285Y-6039880D01*
X59459523Y-5992261D01*
X59507142Y-5944642D01*
X59554761Y-5849404D01*
X59554761Y-5563690D01*
X59507142Y-5468452D01*
X59459523Y-5420833D01*
X59364285Y-5373214D01*
X59173809Y-5373214D01*
X59078571Y-5420833D01*
X57840476Y-6039880D02*
X57840476Y-5039880D01*
X57840476Y-5420833D02*
X57745238Y-5373214D01*
X57554761Y-5373214D01*
X57459523Y-5420833D01*
X57411904Y-5468452D01*
X57364285Y-5563690D01*
X57364285Y-5849404D01*
X57411904Y-5944642D01*
X57459523Y-5992261D01*
X57554761Y-6039880D01*
X57745238Y-6039880D01*
X57840476Y-5992261D01*
X56554761Y-5992261D02*
X56650000Y-6039880D01*
X56840476Y-6039880D01*
X56935714Y-5992261D01*
X56983333Y-5897023D01*
X56983333Y-5516071D01*
X56935714Y-5420833D01*
X56840476Y-5373214D01*
X56650000Y-5373214D01*
X56554761Y-5420833D01*
X56507142Y-5516071D01*
X56507142Y-5611309D01*
X56983333Y-5706547D01*
X54888095Y-5992261D02*
X54983333Y-6039880D01*
X55173809Y-6039880D01*
X55269047Y-5992261D01*
X55316666Y-5944642D01*
X55364285Y-5849404D01*
X55364285Y-5563690D01*
X55316666Y-5468452D01*
X55269047Y-5420833D01*
X55173809Y-5373214D01*
X54983333Y-5373214D01*
X54888095Y-5420833D01*
X54030952Y-6039880D02*
X54030952Y-5516071D01*
X54078571Y-5420833D01*
X54173809Y-5373214D01*
X54364285Y-5373214D01*
X54459523Y-5420833D01*
X54030952Y-5992261D02*
X54126190Y-6039880D01*
X54364285Y-6039880D01*
X54459523Y-5992261D01*
X54507142Y-5897023D01*
X54507142Y-5801785D01*
X54459523Y-5706547D01*
X54364285Y-5658928D01*
X54126190Y-5658928D01*
X54030952Y-5611309D01*
X53411904Y-6039880D02*
X53507142Y-5992261D01*
X53554761Y-5897023D01*
X53554761Y-5039880D01*
X52888095Y-6039880D02*
X52983333Y-5992261D01*
X53030952Y-5897023D01*
X53030952Y-5039880D01*
X52126190Y-5992261D02*
X52221428Y-6039880D01*
X52411904Y-6039880D01*
X52507142Y-5992261D01*
X52554761Y-5897023D01*
X52554761Y-5516071D01*
X52507142Y-5420833D01*
X52411904Y-5373214D01*
X52221428Y-5373214D01*
X52126190Y-5420833D01*
X52078571Y-5516071D01*
X52078571Y-5611309D01*
X52554761Y-5706547D01*
X51221428Y-6039880D02*
X51221428Y-5039880D01*
X51221428Y-5992261D02*
X51316666Y-6039880D01*
X51507142Y-6039880D01*
X51602380Y-5992261D01*
X51650000Y-5944642D01*
X51697619Y-5849404D01*
X51697619Y-5563690D01*
X51650000Y-5468452D01*
X51602380Y-5420833D01*
X51507142Y-5373214D01*
X51316666Y-5373214D01*
X51221428Y-5420833D01*
X60030952Y-7689880D02*
X60030952Y-6689880D01*
X60030952Y-7070833D02*
X59935714Y-7023214D01*
X59745238Y-7023214D01*
X59650000Y-7070833D01*
X59602380Y-7118452D01*
X59554761Y-7213690D01*
X59554761Y-7499404D01*
X59602380Y-7594642D01*
X59650000Y-7642261D01*
X59745238Y-7689880D01*
X59935714Y-7689880D01*
X60030952Y-7642261D01*
X58697619Y-7689880D02*
X58697619Y-7166071D01*
X58745238Y-7070833D01*
X58840476Y-7023214D01*
X59030952Y-7023214D01*
X59126190Y-7070833D01*
X58697619Y-7642261D02*
X58792857Y-7689880D01*
X59030952Y-7689880D01*
X59126190Y-7642261D01*
X59173809Y-7547023D01*
X59173809Y-7451785D01*
X59126190Y-7356547D01*
X59030952Y-7308928D01*
X58792857Y-7308928D01*
X58697619Y-7261309D01*
X58316666Y-7023214D02*
X58078571Y-7689880D01*
X57840476Y-7023214D02*
X58078571Y-7689880D01*
X58173809Y-7927976D01*
X58221428Y-7975595D01*
X58316666Y-8023214D01*
X57030952Y-7023214D02*
X57030952Y-7832738D01*
X57078571Y-7927976D01*
X57126190Y-7975595D01*
X57221428Y-8023214D01*
X57364285Y-8023214D01*
X57459523Y-7975595D01*
X57030952Y-7642261D02*
X57126190Y-7689880D01*
X57316666Y-7689880D01*
X57411904Y-7642261D01*
X57459523Y-7594642D01*
X57507142Y-7499404D01*
X57507142Y-7213690D01*
X57459523Y-7118452D01*
X57411904Y-7070833D01*
X57316666Y-7023214D01*
X57126190Y-7023214D01*
X57030952Y-7070833D01*
X56126190Y-7023214D02*
X56126190Y-7689880D01*
X56554761Y-7023214D02*
X56554761Y-7547023D01*
X56507142Y-7642261D01*
X56411904Y-7689880D01*
X56269047Y-7689880D01*
X56173809Y-7642261D01*
X56126190Y-7594642D01*
X55507142Y-7689880D02*
X55602380Y-7642261D01*
X55650000Y-7547023D01*
X55650000Y-6689880D01*
X54983333Y-7689880D02*
X55078571Y-7642261D01*
X55126190Y-7547023D01*
X55126190Y-6689880D01*
X54650000Y-7642261D02*
X54554761Y-7689880D01*
X54364285Y-7689880D01*
X54269047Y-7642261D01*
X54221428Y-7547023D01*
X54221428Y-7499404D01*
X54269047Y-7404166D01*
X54364285Y-7356547D01*
X54507142Y-7356547D01*
X54602380Y-7308928D01*
X54650000Y-7213690D01*
X54650000Y-7166071D01*
X54602380Y-7070833D01*
X54507142Y-7023214D01*
X54364285Y-7023214D01*
X54269047Y-7070833D01*
X144132380Y-27575452D02*
X144846666Y-27575452D01*
X144989523Y-27527833D01*
X145084761Y-27432595D01*
X145132380Y-27289738D01*
X145132380Y-27194500D01*
X145132380Y-28527833D02*
X145132380Y-28051642D01*
X144132380Y-28051642D01*
X145037142Y-29432595D02*
X145084761Y-29384976D01*
X145132380Y-29242119D01*
X145132380Y-29146880D01*
X145084761Y-29004023D01*
X144989523Y-28908785D01*
X144894285Y-28861166D01*
X144703809Y-28813547D01*
X144560952Y-28813547D01*
X144370476Y-28861166D01*
X144275238Y-28908785D01*
X144180000Y-29004023D01*
X144132380Y-29146880D01*
X144132380Y-29242119D01*
X144180000Y-29384976D01*
X144227619Y-29432595D01*
X144132380Y-30146880D02*
X144846666Y-30146880D01*
X144989523Y-30099261D01*
X145084761Y-30004023D01*
X145132380Y-29861166D01*
X145132380Y-29765928D01*
X145132380Y-31099261D02*
X145132380Y-30623071D01*
X144132380Y-30623071D01*
X145037142Y-32004023D02*
X145084761Y-31956404D01*
X145132380Y-31813547D01*
X145132380Y-31718309D01*
X145084761Y-31575452D01*
X144989523Y-31480214D01*
X144894285Y-31432595D01*
X144703809Y-31384976D01*
X144560952Y-31384976D01*
X144370476Y-31432595D01*
X144275238Y-31480214D01*
X144180000Y-31575452D01*
X144132380Y-31718309D01*
X144132380Y-31813547D01*
X144180000Y-31956404D01*
X144227619Y-32004023D01*
X144132380Y-32718309D02*
X144846666Y-32718309D01*
X144989523Y-32670690D01*
X145084761Y-32575452D01*
X145132380Y-32432595D01*
X145132380Y-32337357D01*
X145132380Y-33670690D02*
X145132380Y-33194500D01*
X144132380Y-33194500D01*
X145037142Y-34575452D02*
X145084761Y-34527833D01*
X145132380Y-34384976D01*
X145132380Y-34289738D01*
X145084761Y-34146880D01*
X144989523Y-34051642D01*
X144894285Y-34004023D01*
X144703809Y-33956404D01*
X144560952Y-33956404D01*
X144370476Y-34004023D01*
X144275238Y-34051642D01*
X144180000Y-34146880D01*
X144132380Y-34289738D01*
X144132380Y-34384976D01*
X144180000Y-34527833D01*
X144227619Y-34575452D01*
X144132380Y-35289738D02*
X144846666Y-35289738D01*
X144989523Y-35242119D01*
X145084761Y-35146880D01*
X145132380Y-35004023D01*
X145132380Y-34908785D01*
X145132380Y-36242119D02*
X145132380Y-35765928D01*
X144132380Y-35765928D01*
X145037142Y-37146880D02*
X145084761Y-37099261D01*
X145132380Y-36956404D01*
X145132380Y-36861166D01*
X145084761Y-36718309D01*
X144989523Y-36623071D01*
X144894285Y-36575452D01*
X144703809Y-36527833D01*
X144560952Y-36527833D01*
X144370476Y-36575452D01*
X144275238Y-36623071D01*
X144180000Y-36718309D01*
X144132380Y-36861166D01*
X144132380Y-36956404D01*
X144180000Y-37099261D01*
X144227619Y-37146880D01*
X144608571Y-1025452D02*
X144656190Y-1168309D01*
X144703809Y-1215928D01*
X144799047Y-1263547D01*
X144941904Y-1263547D01*
X145037142Y-1215928D01*
X145084761Y-1168309D01*
X145132380Y-1073071D01*
X145132380Y-692119D01*
X144132380Y-692119D01*
X144132380Y-1025452D01*
X144180000Y-1120690D01*
X144227619Y-1168309D01*
X144322857Y-1215928D01*
X144418095Y-1215928D01*
X144513333Y-1168309D01*
X144560952Y-1120690D01*
X144608571Y-1025452D01*
X144608571Y-692119D01*
X145132380Y-2120690D02*
X144608571Y-2120690D01*
X144513333Y-2073071D01*
X144465714Y-1977833D01*
X144465714Y-1787357D01*
X144513333Y-1692119D01*
X145084761Y-2120690D02*
X145132380Y-2025452D01*
X145132380Y-1787357D01*
X145084761Y-1692119D01*
X144989523Y-1644500D01*
X144894285Y-1644500D01*
X144799047Y-1692119D01*
X144751428Y-1787357D01*
X144751428Y-2025452D01*
X144703809Y-2120690D01*
X144465714Y-2501642D02*
X145132380Y-2739738D01*
X144465714Y-2977833D02*
X145132380Y-2739738D01*
X145370476Y-2644500D01*
X145418095Y-2596880D01*
X145465714Y-2501642D01*
X144465714Y-3787357D02*
X145275238Y-3787357D01*
X145370476Y-3739738D01*
X145418095Y-3692119D01*
X145465714Y-3596880D01*
X145465714Y-3454023D01*
X145418095Y-3358785D01*
X145084761Y-3787357D02*
X145132380Y-3692119D01*
X145132380Y-3501642D01*
X145084761Y-3406404D01*
X145037142Y-3358785D01*
X144941904Y-3311166D01*
X144656190Y-3311166D01*
X144560952Y-3358785D01*
X144513333Y-3406404D01*
X144465714Y-3501642D01*
X144465714Y-3692119D01*
X144513333Y-3787357D01*
X144465714Y-4692119D02*
X145132380Y-4692119D01*
X144465714Y-4263547D02*
X144989523Y-4263547D01*
X145084761Y-4311166D01*
X145132380Y-4406404D01*
X145132380Y-4549261D01*
X145084761Y-4644500D01*
X145037142Y-4692119D01*
X145132380Y-5311166D02*
X145084761Y-5215928D01*
X144989523Y-5168309D01*
X144132380Y-5168309D01*
X145132380Y-5834976D02*
X145084761Y-5739738D01*
X144989523Y-5692119D01*
X144132380Y-5692119D01*
X144608571Y-7311166D02*
X144656190Y-7454023D01*
X144703809Y-7501642D01*
X144799047Y-7549261D01*
X144941904Y-7549261D01*
X145037142Y-7501642D01*
X145084761Y-7454023D01*
X145132380Y-7358785D01*
X145132380Y-6977833D01*
X144132380Y-6977833D01*
X144132380Y-7311166D01*
X144180000Y-7406404D01*
X144227619Y-7454023D01*
X144322857Y-7501642D01*
X144418095Y-7501642D01*
X144513333Y-7454023D01*
X144560952Y-7406404D01*
X144608571Y-7311166D01*
X144608571Y-6977833D01*
X145132380Y-8120690D02*
X145084761Y-8025452D01*
X145037142Y-7977833D01*
X144941904Y-7930214D01*
X144656190Y-7930214D01*
X144560952Y-7977833D01*
X144513333Y-8025452D01*
X144465714Y-8120690D01*
X144465714Y-8263547D01*
X144513333Y-8358785D01*
X144560952Y-8406404D01*
X144656190Y-8454023D01*
X144941904Y-8454023D01*
X145037142Y-8406404D01*
X145084761Y-8358785D01*
X145132380Y-8263547D01*
X145132380Y-8120690D01*
X145132380Y-9311166D02*
X144608571Y-9311166D01*
X144513333Y-9263547D01*
X144465714Y-9168309D01*
X144465714Y-8977833D01*
X144513333Y-8882595D01*
X145084761Y-9311166D02*
X145132380Y-9215928D01*
X145132380Y-8977833D01*
X145084761Y-8882595D01*
X144989523Y-8834976D01*
X144894285Y-8834976D01*
X144799047Y-8882595D01*
X144751428Y-8977833D01*
X144751428Y-9215928D01*
X144703809Y-9311166D01*
X145132380Y-9787357D02*
X144465714Y-9787357D01*
X144656190Y-9787357D02*
X144560952Y-9834976D01*
X144513333Y-9882595D01*
X144465714Y-9977833D01*
X144465714Y-10073071D01*
X145132380Y-10834976D02*
X144132380Y-10834976D01*
X145084761Y-10834976D02*
X145132380Y-10739738D01*
X145132380Y-10549261D01*
X145084761Y-10454023D01*
X145037142Y-10406404D01*
X144941904Y-10358785D01*
X144656190Y-10358785D01*
X144560952Y-10406404D01*
X144513333Y-10454023D01*
X144465714Y-10549261D01*
X144465714Y-10739738D01*
X144513333Y-10834976D01*
X144465714Y-11977833D02*
X145132380Y-12215928D01*
X144465714Y-12454023D01*
X144132380Y-13025452D02*
X144132380Y-13120690D01*
X144180000Y-13215928D01*
X144227619Y-13263547D01*
X144322857Y-13311166D01*
X144513333Y-13358785D01*
X144751428Y-13358785D01*
X144941904Y-13311166D01*
X145037142Y-13263547D01*
X145084761Y-13215928D01*
X145132380Y-13120690D01*
X145132380Y-13025452D01*
X145084761Y-12930214D01*
X145037142Y-12882595D01*
X144941904Y-12834976D01*
X144751428Y-12787357D01*
X144513333Y-12787357D01*
X144322857Y-12834976D01*
X144227619Y-12882595D01*
X144180000Y-12930214D01*
X144132380Y-13025452D01*
X145037142Y-13787357D02*
X145084761Y-13834976D01*
X145132380Y-13787357D01*
X145084761Y-13739738D01*
X145037142Y-13787357D01*
X145132380Y-13787357D01*
X145132380Y-14787357D02*
X145132380Y-14215928D01*
X145132380Y-14501642D02*
X144132380Y-14501642D01*
X144275238Y-14406404D01*
X144370476Y-14311166D01*
X144418095Y-14215928D01*
X144227619Y-15930214D02*
X144180000Y-15977833D01*
X144132380Y-16073071D01*
X144132380Y-16311166D01*
X144180000Y-16406404D01*
X144227619Y-16454023D01*
X144322857Y-16501642D01*
X144418095Y-16501642D01*
X144560952Y-16454023D01*
X145132380Y-15882595D01*
X145132380Y-16501642D01*
X144132380Y-17120690D02*
X144132380Y-17215928D01*
X144180000Y-17311166D01*
X144227619Y-17358785D01*
X144322857Y-17406404D01*
X144513333Y-17454023D01*
X144751428Y-17454023D01*
X144941904Y-17406404D01*
X145037142Y-17358785D01*
X145084761Y-17311166D01*
X145132380Y-17215928D01*
X145132380Y-17120690D01*
X145084761Y-17025452D01*
X145037142Y-16977833D01*
X144941904Y-16930214D01*
X144751428Y-16882595D01*
X144513333Y-16882595D01*
X144322857Y-16930214D01*
X144227619Y-16977833D01*
X144180000Y-17025452D01*
X144132380Y-17120690D01*
X144227619Y-17834976D02*
X144180000Y-17882595D01*
X144132380Y-17977833D01*
X144132380Y-18215928D01*
X144180000Y-18311166D01*
X144227619Y-18358785D01*
X144322857Y-18406404D01*
X144418095Y-18406404D01*
X144560952Y-18358785D01*
X145132380Y-17787357D01*
X145132380Y-18406404D01*
X144227619Y-18787357D02*
X144180000Y-18834976D01*
X144132380Y-18930214D01*
X144132380Y-19168309D01*
X144180000Y-19263547D01*
X144227619Y-19311166D01*
X144322857Y-19358785D01*
X144418095Y-19358785D01*
X144560952Y-19311166D01*
X145132380Y-18739738D01*
X145132380Y-19358785D01*
X144751428Y-19787357D02*
X144751428Y-20549261D01*
X145132380Y-21549261D02*
X145132380Y-20977833D01*
X145132380Y-21263547D02*
X144132380Y-21263547D01*
X144275238Y-21168309D01*
X144370476Y-21073071D01*
X144418095Y-20977833D01*
X144132380Y-22168309D02*
X144132380Y-22263547D01*
X144180000Y-22358785D01*
X144227619Y-22406404D01*
X144322857Y-22454023D01*
X144513333Y-22501642D01*
X144751428Y-22501642D01*
X144941904Y-22454023D01*
X145037142Y-22406404D01*
X145084761Y-22358785D01*
X145132380Y-22263547D01*
X145132380Y-22168309D01*
X145084761Y-22073071D01*
X145037142Y-22025452D01*
X144941904Y-21977833D01*
X144751428Y-21930214D01*
X144513333Y-21930214D01*
X144322857Y-21977833D01*
X144227619Y-22025452D01*
X144180000Y-22073071D01*
X144132380Y-22168309D01*
X144751428Y-22930214D02*
X144751428Y-23692119D01*
X145132380Y-24692119D02*
X145132380Y-24120690D01*
X145132380Y-24406404D02*
X144132380Y-24406404D01*
X144275238Y-24311166D01*
X144370476Y-24215928D01*
X144418095Y-24120690D01*
X144132380Y-25549261D02*
X144132380Y-25358785D01*
X144180000Y-25263547D01*
X144227619Y-25215928D01*
X144370476Y-25120690D01*
X144560952Y-25073071D01*
X144941904Y-25073071D01*
X145037142Y-25120690D01*
X145084761Y-25168309D01*
X145132380Y-25263547D01*
X145132380Y-25454023D01*
X145084761Y-25549261D01*
X145037142Y-25596880D01*
X144941904Y-25644499D01*
X144703809Y-25644499D01*
X144608571Y-25596880D01*
X144560952Y-25549261D01*
X144513333Y-25454023D01*
X144513333Y-25263547D01*
X144560952Y-25168309D01*
X144608571Y-25120690D01*
X144703809Y-25073071D01*
D11*
X9525000Y-10525000D02*
X46625000Y-10525000D01*
X8525000Y-9525000D02*
X8525000Y47625000D01*
X9525000Y-10525000D02*
G75*
G02X8525000Y-9525000I0J1000000D01*
G01*
X9525000Y48625000D02*
X46625000Y48625000D01*
X8525000Y47625000D02*
G75*
G02X9525000Y48625000I1000000J0D01*
G01*
X65625000Y61198000D02*
X47625000Y61198000D01*
X46625000Y60198000D02*
G75*
G02X47625000Y61198000I1000000J0D01*
G01*
X46625000Y60198000D02*
X46625000Y48625000D01*
X86675000Y61198000D02*
X86675000Y64960500D01*
X85675000Y65960500D02*
G75*
G02X86675000Y64960500I0J-1000000D01*
G01*
X85675000Y65960500D02*
X66625000Y65960500D01*
X65625000Y64960500D02*
G75*
G02X66625000Y65960500I1000000J0D01*
G01*
X65625000Y64960500D02*
X65625000Y61198000D01*
X105675000Y58340500D02*
X105675000Y60198000D01*
X104675000Y61198000D02*
G75*
G02X105675000Y60198000I0J-1000000D01*
G01*
X104675000Y61198000D02*
X86675000Y61198000D01*
X124725000Y56190500D02*
X124725000Y57340500D01*
X123725000Y58340500D02*
G75*
G02X124725000Y57340500I0J-1000000D01*
G01*
X123725000Y58340500D02*
X105675000Y58340500D01*
X65575000Y-37909500D02*
X65575000Y-18968378D01*
X66575000Y-38909500D02*
X144200000Y-38909500D01*
X66575000Y-38909500D02*
G75*
G02X65575000Y-37909500I0J1000000D01*
G01*
X65575000Y-18968378D02*
X46625000Y-10525000D01*
X146200000Y-36909500D02*
G75*
G02X144200000Y-38909500I-2000000J0D01*
G01*
X146200000Y-36909500D02*
X146200000Y54190500D01*
X144200000Y56190500D02*
G75*
G02X146200000Y54190500I0J-2000000D01*
G01*
X144200000Y56190500D02*
X124725000Y56190500D01*
X30625000Y28575000D02*
G75*
G03X30625000Y28575000I-2050000J0D01*
G01*
X30625000Y9525000D02*
G75*
G03X30625000Y9525000I-2050000J0D01*
G01*
X106725000Y41148000D02*
G75*
G03X106725000Y41148000I-2050000J0D01*
G01*
X106725000Y22098000D02*
G75*
G03X106725000Y22098000I-2050000J0D01*
G01*
X125775000Y-18859500D02*
G75*
G03X125775000Y-18859500I-2050000J0D01*
G01*
X87675000Y-18859500D02*
G75*
G03X87675000Y-18859500I-2050000J0D01*
G01*
D12*
G04 #@! TO.C,D1*
X19300000Y-5000000D02*
X19800000Y-5000000D01*
X19300000Y-5400000D02*
X18700000Y-5000000D01*
X19300000Y-4600000D02*
X19300000Y-5400000D01*
X18700000Y-5000000D02*
X19300000Y-4600000D01*
X18700000Y-5000000D02*
X18700000Y-5550000D01*
X18700000Y-5000000D02*
X18700000Y-4450000D01*
X18300000Y-5000000D02*
X18700000Y-5000000D01*
G04 #@! TO.C,D2*
X19300000Y14050000D02*
X19800000Y14050000D01*
X19300000Y13650000D02*
X18700000Y14050000D01*
X19300000Y14450000D02*
X19300000Y13650000D01*
X18700000Y14050000D02*
X19300000Y14450000D01*
X18700000Y14050000D02*
X18700000Y13500000D01*
X18700000Y14050000D02*
X18700000Y14600000D01*
X18300000Y14050000D02*
X18700000Y14050000D01*
G04 #@! TO.C,D3*
X19300000Y33100000D02*
X19800000Y33100000D01*
X19300000Y32700000D02*
X18700000Y33100000D01*
X19300000Y33500000D02*
X19300000Y32700000D01*
X18700000Y33100000D02*
X19300000Y33500000D01*
X18700000Y33100000D02*
X18700000Y32550000D01*
X18700000Y33100000D02*
X18700000Y33650000D01*
X18300000Y33100000D02*
X18700000Y33100000D01*
G04 #@! TO.C,D4*
X38350000Y-5000000D02*
X38850000Y-5000000D01*
X38350000Y-5400000D02*
X37750000Y-5000000D01*
X38350000Y-4600000D02*
X38350000Y-5400000D01*
X37750000Y-5000000D02*
X38350000Y-4600000D01*
X37750000Y-5000000D02*
X37750000Y-5550000D01*
X37750000Y-5000000D02*
X37750000Y-4450000D01*
X37350000Y-5000000D02*
X37750000Y-5000000D01*
G04 #@! TO.C,D5*
X38350000Y14050000D02*
X38850000Y14050000D01*
X38350000Y13650000D02*
X37750000Y14050000D01*
X38350000Y14450000D02*
X38350000Y13650000D01*
X37750000Y14050000D02*
X38350000Y14450000D01*
X37750000Y14050000D02*
X37750000Y13500000D01*
X37750000Y14050000D02*
X37750000Y14600000D01*
X37350000Y14050000D02*
X37750000Y14050000D01*
G04 #@! TO.C,D6*
X38350000Y33100000D02*
X38850000Y33100000D01*
X38350000Y32700000D02*
X37750000Y33100000D01*
X38350000Y33500000D02*
X38350000Y32700000D01*
X37750000Y33100000D02*
X38350000Y33500000D01*
X37750000Y33100000D02*
X37750000Y32550000D01*
X37750000Y33100000D02*
X37750000Y33650000D01*
X37350000Y33100000D02*
X37750000Y33100000D01*
G04 #@! TO.C,D7*
X57400000Y7573000D02*
X57900000Y7573000D01*
X57400000Y7173000D02*
X56800000Y7573000D01*
X57400000Y7973000D02*
X57400000Y7173000D01*
X56800000Y7573000D02*
X57400000Y7973000D01*
X56800000Y7573000D02*
X56800000Y7023000D01*
X56800000Y7573000D02*
X56800000Y8123000D01*
X56400000Y7573000D02*
X56800000Y7573000D01*
G04 #@! TO.C,D8*
X57400000Y26623000D02*
X57900000Y26623000D01*
X57400000Y26223000D02*
X56800000Y26623000D01*
X57400000Y27023000D02*
X57400000Y26223000D01*
X56800000Y26623000D02*
X57400000Y27023000D01*
X56800000Y26623000D02*
X56800000Y26073000D01*
X56800000Y26623000D02*
X56800000Y27173000D01*
X56400000Y26623000D02*
X56800000Y26623000D01*
G04 #@! TO.C,D9*
X57400000Y45673000D02*
X57900000Y45673000D01*
X57400000Y45273000D02*
X56800000Y45673000D01*
X57400000Y46073000D02*
X57400000Y45273000D01*
X56800000Y45673000D02*
X57400000Y46073000D01*
X56800000Y45673000D02*
X56800000Y45123000D01*
X56800000Y45673000D02*
X56800000Y46223000D01*
X56400000Y45673000D02*
X56800000Y45673000D01*
G04 #@! TO.C,D10*
X76400000Y12335500D02*
X76900000Y12335500D01*
X76400000Y11935500D02*
X75800000Y12335500D01*
X76400000Y12735500D02*
X76400000Y11935500D01*
X75800000Y12335500D02*
X76400000Y12735500D01*
X75800000Y12335500D02*
X75800000Y11785500D01*
X75800000Y12335500D02*
X75800000Y12885500D01*
X75400000Y12335500D02*
X75800000Y12335500D01*
G04 #@! TO.C,D11*
X76400000Y31385500D02*
X76900000Y31385500D01*
X76400000Y30985500D02*
X75800000Y31385500D01*
X76400000Y31785500D02*
X76400000Y30985500D01*
X75800000Y31385500D02*
X76400000Y31785500D01*
X75800000Y31385500D02*
X75800000Y30835500D01*
X75800000Y31385500D02*
X75800000Y31935500D01*
X75400000Y31385500D02*
X75800000Y31385500D01*
G04 #@! TO.C,D12*
X76400000Y50435500D02*
X76900000Y50435500D01*
X76400000Y50035500D02*
X75800000Y50435500D01*
X76400000Y50835500D02*
X76400000Y50035500D01*
X75800000Y50435500D02*
X76400000Y50835500D01*
X75800000Y50435500D02*
X75800000Y49885500D01*
X75800000Y50435500D02*
X75800000Y50985500D01*
X75400000Y50435500D02*
X75800000Y50435500D01*
G04 #@! TO.C,D13*
X95400000Y7573000D02*
X95900000Y7573000D01*
X95400000Y7173000D02*
X94800000Y7573000D01*
X95400000Y7973000D02*
X95400000Y7173000D01*
X94800000Y7573000D02*
X95400000Y7973000D01*
X94800000Y7573000D02*
X94800000Y7023000D01*
X94800000Y7573000D02*
X94800000Y8123000D01*
X94400000Y7573000D02*
X94800000Y7573000D01*
G04 #@! TO.C,D14*
X95400000Y26623000D02*
X95900000Y26623000D01*
X95400000Y26223000D02*
X94800000Y26623000D01*
X95400000Y27023000D02*
X95400000Y26223000D01*
X94800000Y26623000D02*
X95400000Y27023000D01*
X94800000Y26623000D02*
X94800000Y26073000D01*
X94800000Y26623000D02*
X94800000Y27173000D01*
X94400000Y26623000D02*
X94800000Y26623000D01*
G04 #@! TO.C,D15*
X95400000Y45673000D02*
X95900000Y45673000D01*
X95400000Y45273000D02*
X94800000Y45673000D01*
X95400000Y46073000D02*
X95400000Y45273000D01*
X94800000Y45673000D02*
X95400000Y46073000D01*
X94800000Y45673000D02*
X94800000Y45123000D01*
X94800000Y45673000D02*
X94800000Y46223000D01*
X94400000Y45673000D02*
X94800000Y45673000D01*
G04 #@! TO.C,D16*
X114450000Y4715500D02*
X114950000Y4715500D01*
X114450000Y4315500D02*
X113850000Y4715500D01*
X114450000Y5115500D02*
X114450000Y4315500D01*
X113850000Y4715500D02*
X114450000Y5115500D01*
X113850000Y4715500D02*
X113850000Y4165500D01*
X113850000Y4715500D02*
X113850000Y5265500D01*
X113450000Y4715500D02*
X113850000Y4715500D01*
G04 #@! TO.C,D17*
X114450000Y23765500D02*
X114950000Y23765500D01*
X114450000Y23365500D02*
X113850000Y23765500D01*
X114450000Y24165500D02*
X114450000Y23365500D01*
X113850000Y23765500D02*
X114450000Y24165500D01*
X113850000Y23765500D02*
X113850000Y23215500D01*
X113850000Y23765500D02*
X113850000Y24315500D01*
X113450000Y23765500D02*
X113850000Y23765500D01*
G04 #@! TO.C,D18*
X114450000Y42815500D02*
X114950000Y42815500D01*
X114450000Y42415500D02*
X113850000Y42815500D01*
X114450000Y43215500D02*
X114450000Y42415500D01*
X113850000Y42815500D02*
X114450000Y43215500D01*
X113850000Y42815500D02*
X113850000Y42265500D01*
X113850000Y42815500D02*
X113850000Y43365500D01*
X113450000Y42815500D02*
X113850000Y42815500D01*
G04 #@! TO.C,D19*
X76350000Y-14334500D02*
X76850000Y-14334500D01*
X76350000Y-14734500D02*
X75750000Y-14334500D01*
X76350000Y-13934500D02*
X76350000Y-14734500D01*
X75750000Y-14334500D02*
X76350000Y-13934500D01*
X75750000Y-14334500D02*
X75750000Y-14884500D01*
X75750000Y-14334500D02*
X75750000Y-13784500D01*
X75350000Y-14334500D02*
X75750000Y-14334500D01*
G04 #@! TO.C,D20*
X76350000Y-33384500D02*
X76850000Y-33384500D01*
X76350000Y-33784500D02*
X75750000Y-33384500D01*
X76350000Y-32984500D02*
X76350000Y-33784500D01*
X75750000Y-33384500D02*
X76350000Y-32984500D01*
X75750000Y-33384500D02*
X75750000Y-33934500D01*
X75750000Y-33384500D02*
X75750000Y-32834500D01*
X75350000Y-33384500D02*
X75750000Y-33384500D01*
G04 #@! TO.C,D21*
X95400000Y-14334500D02*
X95900000Y-14334500D01*
X95400000Y-14734500D02*
X94800000Y-14334500D01*
X95400000Y-13934500D02*
X95400000Y-14734500D01*
X94800000Y-14334500D02*
X95400000Y-13934500D01*
X94800000Y-14334500D02*
X94800000Y-14884500D01*
X94800000Y-14334500D02*
X94800000Y-13784500D01*
X94400000Y-14334500D02*
X94800000Y-14334500D01*
G04 #@! TO.C,D22*
X95400000Y-33384500D02*
X95900000Y-33384500D01*
X95400000Y-33784500D02*
X94800000Y-33384500D01*
X95400000Y-32984500D02*
X95400000Y-33784500D01*
X94800000Y-33384500D02*
X95400000Y-32984500D01*
X94800000Y-33384500D02*
X94800000Y-33934500D01*
X94800000Y-33384500D02*
X94800000Y-32834500D01*
X94400000Y-33384500D02*
X94800000Y-33384500D01*
G04 #@! TO.C,D23*
X114450000Y-14334500D02*
X114950000Y-14334500D01*
X114450000Y-14734500D02*
X113850000Y-14334500D01*
X114450000Y-13934500D02*
X114450000Y-14734500D01*
X113850000Y-14334500D02*
X114450000Y-13934500D01*
X113850000Y-14334500D02*
X113850000Y-14884500D01*
X113850000Y-14334500D02*
X113850000Y-13784500D01*
X113450000Y-14334500D02*
X113850000Y-14334500D01*
G04 #@! TO.C,D24*
X114450000Y-33384500D02*
X114950000Y-33384500D01*
X114450000Y-33784500D02*
X113850000Y-33384500D01*
X114450000Y-32984500D02*
X114450000Y-33784500D01*
X113850000Y-33384500D02*
X114450000Y-32984500D01*
X113850000Y-33384500D02*
X113850000Y-33934500D01*
X113850000Y-33384500D02*
X113850000Y-32834500D01*
X113450000Y-33384500D02*
X113850000Y-33384500D01*
G04 #@! TO.C,D25*
X133500000Y-14334500D02*
X134000000Y-14334500D01*
X133500000Y-14734500D02*
X132900000Y-14334500D01*
X133500000Y-13934500D02*
X133500000Y-14734500D01*
X132900000Y-14334500D02*
X133500000Y-13934500D01*
X132900000Y-14334500D02*
X132900000Y-14884500D01*
X132900000Y-14334500D02*
X132900000Y-13784500D01*
X132500000Y-14334500D02*
X132900000Y-14334500D01*
G04 #@! TO.C,D26*
X133500000Y-33384500D02*
X134000000Y-33384500D01*
X133500000Y-33784500D02*
X132900000Y-33384500D01*
X133500000Y-32984500D02*
X133500000Y-33784500D01*
X132900000Y-33384500D02*
X133500000Y-32984500D01*
X132900000Y-33384500D02*
X132900000Y-33934500D01*
X132900000Y-33384500D02*
X132900000Y-32834500D01*
X132500000Y-33384500D02*
X132900000Y-33384500D01*
D10*
G04 #@! TO.C,MCU1*
X125310000Y54595500D02*
X125310000Y21575500D01*
X125310000Y21575500D02*
X143090000Y21575500D01*
X143090000Y21575500D02*
X143090000Y54595500D01*
X143090000Y54595500D02*
X125310000Y54595500D01*
X140550000Y52055500D02*
X140550000Y49515500D01*
X140550000Y52055500D02*
X143090000Y52055500D01*
X140550000Y49515500D02*
X143090000Y49515500D01*
G04 #@! TO.C,B1*
X125700000Y8065500D02*
X125450000Y8065500D01*
X125450000Y8065500D02*
X125450000Y14065500D01*
X125450000Y14065500D02*
X125700000Y14065500D01*
X128700000Y14065500D02*
X128950000Y14065500D01*
X128950000Y14065500D02*
X128950000Y8065500D01*
X128950000Y8065500D02*
X128700000Y8065500D01*
G04 #@! TD*
G04 #@! TO.C,MCU1*
X139552380Y50423595D02*
X139819047Y50804547D01*
X140009523Y50423595D02*
X140009523Y51223595D01*
X139704761Y51223595D01*
X139628571Y51185500D01*
X139590476Y51147404D01*
X139552380Y51071214D01*
X139552380Y50956928D01*
X139590476Y50880738D01*
X139628571Y50842642D01*
X139704761Y50804547D01*
X140009523Y50804547D01*
X139247619Y50652166D02*
X138866666Y50652166D01*
X139323809Y50423595D02*
X139057142Y51223595D01*
X138790476Y50423595D01*
X138600000Y51223595D02*
X138409523Y50423595D01*
X138257142Y50995023D01*
X138104761Y50423595D01*
X137914285Y51223595D01*
X139609523Y48645500D02*
X139685714Y48683595D01*
X139800000Y48683595D01*
X139914285Y48645500D01*
X139990476Y48569309D01*
X140028571Y48493119D01*
X140066666Y48340738D01*
X140066666Y48226452D01*
X140028571Y48074071D01*
X139990476Y47997880D01*
X139914285Y47921690D01*
X139800000Y47883595D01*
X139723809Y47883595D01*
X139609523Y47921690D01*
X139571428Y47959785D01*
X139571428Y48226452D01*
X139723809Y48226452D01*
X139228571Y47883595D02*
X139228571Y48683595D01*
X138771428Y47883595D01*
X138771428Y48683595D01*
X138390476Y47883595D02*
X138390476Y48683595D01*
X138200000Y48683595D01*
X138085714Y48645500D01*
X138009523Y48569309D01*
X137971428Y48493119D01*
X137933333Y48340738D01*
X137933333Y48226452D01*
X137971428Y48074071D01*
X138009523Y47997880D01*
X138085714Y47921690D01*
X138200000Y47883595D01*
X138390476Y47883595D01*
X139438095Y45343595D02*
X139704761Y45724547D01*
X139895238Y45343595D02*
X139895238Y46143595D01*
X139590476Y46143595D01*
X139514285Y46105500D01*
X139476190Y46067404D01*
X139438095Y45991214D01*
X139438095Y45876928D01*
X139476190Y45800738D01*
X139514285Y45762642D01*
X139590476Y45724547D01*
X139895238Y45724547D01*
X139133333Y45381690D02*
X139019047Y45343595D01*
X138828571Y45343595D01*
X138752380Y45381690D01*
X138714285Y45419785D01*
X138676190Y45495976D01*
X138676190Y45572166D01*
X138714285Y45648357D01*
X138752380Y45686452D01*
X138828571Y45724547D01*
X138980952Y45762642D01*
X139057142Y45800738D01*
X139095238Y45838833D01*
X139133333Y45915023D01*
X139133333Y45991214D01*
X139095238Y46067404D01*
X139057142Y46105500D01*
X138980952Y46143595D01*
X138790476Y46143595D01*
X138676190Y46105500D01*
X138447619Y46143595D02*
X137990476Y46143595D01*
X138219047Y45343595D02*
X138219047Y46143595D01*
X140066666Y43603595D02*
X139800000Y42803595D01*
X139533333Y43603595D01*
X138809523Y42879785D02*
X138847619Y42841690D01*
X138961904Y42803595D01*
X139038095Y42803595D01*
X139152380Y42841690D01*
X139228571Y42917880D01*
X139266666Y42994071D01*
X139304761Y43146452D01*
X139304761Y43260738D01*
X139266666Y43413119D01*
X139228571Y43489309D01*
X139152380Y43565500D01*
X139038095Y43603595D01*
X138961904Y43603595D01*
X138847619Y43565500D01*
X138809523Y43527404D01*
X138009523Y42879785D02*
X138047619Y42841690D01*
X138161904Y42803595D01*
X138238095Y42803595D01*
X138352380Y42841690D01*
X138428571Y42917880D01*
X138466666Y42994071D01*
X138504761Y43146452D01*
X138504761Y43260738D01*
X138466666Y43413119D01*
X138428571Y43489309D01*
X138352380Y43565500D01*
X138238095Y43603595D01*
X138161904Y43603595D01*
X138047619Y43565500D01*
X138009523Y43527404D01*
X139971428Y40263595D02*
X139971428Y41063595D01*
X139666666Y41063595D01*
X139590476Y41025500D01*
X139552380Y40987404D01*
X139514285Y40911214D01*
X139514285Y40796928D01*
X139552380Y40720738D01*
X139590476Y40682642D01*
X139666666Y40644547D01*
X139971428Y40644547D01*
X139209523Y40987404D02*
X139171428Y41025500D01*
X139095238Y41063595D01*
X138904761Y41063595D01*
X138828571Y41025500D01*
X138790476Y40987404D01*
X138752380Y40911214D01*
X138752380Y40835023D01*
X138790476Y40720738D01*
X139247619Y40263595D01*
X138752380Y40263595D01*
X137990476Y40263595D02*
X138447619Y40263595D01*
X138219047Y40263595D02*
X138219047Y41063595D01*
X138295238Y40949309D01*
X138371428Y40873119D01*
X138447619Y40835023D01*
X139971428Y37723595D02*
X139971428Y38523595D01*
X139666666Y38523595D01*
X139590476Y38485500D01*
X139552380Y38447404D01*
X139514285Y38371214D01*
X139514285Y38256928D01*
X139552380Y38180738D01*
X139590476Y38142642D01*
X139666666Y38104547D01*
X139971428Y38104547D01*
X139209523Y38447404D02*
X139171428Y38485500D01*
X139095238Y38523595D01*
X138904761Y38523595D01*
X138828571Y38485500D01*
X138790476Y38447404D01*
X138752380Y38371214D01*
X138752380Y38295023D01*
X138790476Y38180738D01*
X139247619Y37723595D01*
X138752380Y37723595D01*
X138257142Y38523595D02*
X138180952Y38523595D01*
X138104761Y38485500D01*
X138066666Y38447404D01*
X138028571Y38371214D01*
X137990476Y38218833D01*
X137990476Y38028357D01*
X138028571Y37875976D01*
X138066666Y37799785D01*
X138104761Y37761690D01*
X138180952Y37723595D01*
X138257142Y37723595D01*
X138333333Y37761690D01*
X138371428Y37799785D01*
X138409523Y37875976D01*
X138447619Y38028357D01*
X138447619Y38218833D01*
X138409523Y38371214D01*
X138371428Y38447404D01*
X138333333Y38485500D01*
X138257142Y38523595D01*
X139971428Y35183595D02*
X139971428Y35983595D01*
X139666666Y35983595D01*
X139590476Y35945500D01*
X139552380Y35907404D01*
X139514285Y35831214D01*
X139514285Y35716928D01*
X139552380Y35640738D01*
X139590476Y35602642D01*
X139666666Y35564547D01*
X139971428Y35564547D01*
X138752380Y35183595D02*
X139209523Y35183595D01*
X138980952Y35183595D02*
X138980952Y35983595D01*
X139057142Y35869309D01*
X139133333Y35793119D01*
X139209523Y35755023D01*
X138371428Y35183595D02*
X138219047Y35183595D01*
X138142857Y35221690D01*
X138104761Y35259785D01*
X138028571Y35374071D01*
X137990476Y35526452D01*
X137990476Y35831214D01*
X138028571Y35907404D01*
X138066666Y35945500D01*
X138142857Y35983595D01*
X138295238Y35983595D01*
X138371428Y35945500D01*
X138409523Y35907404D01*
X138447619Y35831214D01*
X138447619Y35640738D01*
X138409523Y35564547D01*
X138371428Y35526452D01*
X138295238Y35488357D01*
X138142857Y35488357D01*
X138066666Y35526452D01*
X138028571Y35564547D01*
X137990476Y35640738D01*
X139971428Y32643595D02*
X139971428Y33443595D01*
X139666666Y33443595D01*
X139590476Y33405500D01*
X139552380Y33367404D01*
X139514285Y33291214D01*
X139514285Y33176928D01*
X139552380Y33100738D01*
X139590476Y33062642D01*
X139666666Y33024547D01*
X139971428Y33024547D01*
X138752380Y32643595D02*
X139209523Y32643595D01*
X138980952Y32643595D02*
X138980952Y33443595D01*
X139057142Y33329309D01*
X139133333Y33253119D01*
X139209523Y33215023D01*
X138295238Y33100738D02*
X138371428Y33138833D01*
X138409523Y33176928D01*
X138447619Y33253119D01*
X138447619Y33291214D01*
X138409523Y33367404D01*
X138371428Y33405500D01*
X138295238Y33443595D01*
X138142857Y33443595D01*
X138066666Y33405500D01*
X138028571Y33367404D01*
X137990476Y33291214D01*
X137990476Y33253119D01*
X138028571Y33176928D01*
X138066666Y33138833D01*
X138142857Y33100738D01*
X138295238Y33100738D01*
X138371428Y33062642D01*
X138409523Y33024547D01*
X138447619Y32948357D01*
X138447619Y32795976D01*
X138409523Y32719785D01*
X138371428Y32681690D01*
X138295238Y32643595D01*
X138142857Y32643595D01*
X138066666Y32681690D01*
X138028571Y32719785D01*
X137990476Y32795976D01*
X137990476Y32948357D01*
X138028571Y33024547D01*
X138066666Y33062642D01*
X138142857Y33100738D01*
X139971428Y30103595D02*
X139971428Y30903595D01*
X139666666Y30903595D01*
X139590476Y30865500D01*
X139552380Y30827404D01*
X139514285Y30751214D01*
X139514285Y30636928D01*
X139552380Y30560738D01*
X139590476Y30522642D01*
X139666666Y30484547D01*
X139971428Y30484547D01*
X138752380Y30103595D02*
X139209523Y30103595D01*
X138980952Y30103595D02*
X138980952Y30903595D01*
X139057142Y30789309D01*
X139133333Y30713119D01*
X139209523Y30675023D01*
X138028571Y30903595D02*
X138409523Y30903595D01*
X138447619Y30522642D01*
X138409523Y30560738D01*
X138333333Y30598833D01*
X138142857Y30598833D01*
X138066666Y30560738D01*
X138028571Y30522642D01*
X137990476Y30446452D01*
X137990476Y30255976D01*
X138028571Y30179785D01*
X138066666Y30141690D01*
X138142857Y30103595D01*
X138333333Y30103595D01*
X138409523Y30141690D01*
X138447619Y30179785D01*
X139971428Y27563595D02*
X139971428Y28363595D01*
X139666666Y28363595D01*
X139590476Y28325500D01*
X139552380Y28287404D01*
X139514285Y28211214D01*
X139514285Y28096928D01*
X139552380Y28020738D01*
X139590476Y27982642D01*
X139666666Y27944547D01*
X139971428Y27944547D01*
X138752380Y27563595D02*
X139209523Y27563595D01*
X138980952Y27563595D02*
X138980952Y28363595D01*
X139057142Y28249309D01*
X139133333Y28173119D01*
X139209523Y28135023D01*
X138066666Y28096928D02*
X138066666Y27563595D01*
X138257142Y28401690D02*
X138447619Y27830261D01*
X137952380Y27830261D01*
X139971428Y25023595D02*
X139971428Y25823595D01*
X139666666Y25823595D01*
X139590476Y25785500D01*
X139552380Y25747404D01*
X139514285Y25671214D01*
X139514285Y25556928D01*
X139552380Y25480738D01*
X139590476Y25442642D01*
X139666666Y25404547D01*
X139971428Y25404547D01*
X138752380Y25023595D02*
X139209523Y25023595D01*
X138980952Y25023595D02*
X138980952Y25823595D01*
X139057142Y25709309D01*
X139133333Y25633119D01*
X139209523Y25595023D01*
X138066666Y25823595D02*
X138219047Y25823595D01*
X138295238Y25785500D01*
X138333333Y25747404D01*
X138409523Y25633119D01*
X138447619Y25480738D01*
X138447619Y25175976D01*
X138409523Y25099785D01*
X138371428Y25061690D01*
X138295238Y25023595D01*
X138142857Y25023595D01*
X138066666Y25061690D01*
X138028571Y25099785D01*
X137990476Y25175976D01*
X137990476Y25366452D01*
X138028571Y25442642D01*
X138066666Y25480738D01*
X138142857Y25518833D01*
X138295238Y25518833D01*
X138371428Y25480738D01*
X138409523Y25442642D01*
X138447619Y25366452D01*
X139971428Y22483595D02*
X139971428Y23283595D01*
X139666666Y23283595D01*
X139590476Y23245500D01*
X139552380Y23207404D01*
X139514285Y23131214D01*
X139514285Y23016928D01*
X139552380Y22940738D01*
X139590476Y22902642D01*
X139666666Y22864547D01*
X139971428Y22864547D01*
X138752380Y22483595D02*
X139209523Y22483595D01*
X138980952Y22483595D02*
X138980952Y23283595D01*
X139057142Y23169309D01*
X139133333Y23093119D01*
X139209523Y23055023D01*
X138257142Y23283595D02*
X138180952Y23283595D01*
X138104761Y23245500D01*
X138066666Y23207404D01*
X138028571Y23131214D01*
X137990476Y22978833D01*
X137990476Y22788357D01*
X138028571Y22635976D01*
X138066666Y22559785D01*
X138104761Y22521690D01*
X138180952Y22483595D01*
X138257142Y22483595D01*
X138333333Y22521690D01*
X138371428Y22559785D01*
X138409523Y22635976D01*
X138447619Y22788357D01*
X138447619Y22978833D01*
X138409523Y23131214D01*
X138371428Y23207404D01*
X138333333Y23245500D01*
X138257142Y23283595D01*
X130371428Y50423595D02*
X130371428Y51223595D01*
X130066666Y51223595D01*
X129990476Y51185500D01*
X129952380Y51147404D01*
X129914285Y51071214D01*
X129914285Y50956928D01*
X129952380Y50880738D01*
X129990476Y50842642D01*
X130066666Y50804547D01*
X130371428Y50804547D01*
X129419047Y51223595D02*
X129342857Y51223595D01*
X129266666Y51185500D01*
X129228571Y51147404D01*
X129190476Y51071214D01*
X129152380Y50918833D01*
X129152380Y50728357D01*
X129190476Y50575976D01*
X129228571Y50499785D01*
X129266666Y50461690D01*
X129342857Y50423595D01*
X129419047Y50423595D01*
X129495238Y50461690D01*
X129533333Y50499785D01*
X129571428Y50575976D01*
X129609523Y50728357D01*
X129609523Y50918833D01*
X129571428Y51071214D01*
X129533333Y51147404D01*
X129495238Y51185500D01*
X129419047Y51223595D01*
X128390476Y50423595D02*
X128847619Y50423595D01*
X128619047Y50423595D02*
X128619047Y51223595D01*
X128695238Y51109309D01*
X128771428Y51033119D01*
X128847619Y50995023D01*
X130371428Y47883595D02*
X130371428Y48683595D01*
X130066666Y48683595D01*
X129990476Y48645500D01*
X129952380Y48607404D01*
X129914285Y48531214D01*
X129914285Y48416928D01*
X129952380Y48340738D01*
X129990476Y48302642D01*
X130066666Y48264547D01*
X130371428Y48264547D01*
X129419047Y48683595D02*
X129342857Y48683595D01*
X129266666Y48645500D01*
X129228571Y48607404D01*
X129190476Y48531214D01*
X129152380Y48378833D01*
X129152380Y48188357D01*
X129190476Y48035976D01*
X129228571Y47959785D01*
X129266666Y47921690D01*
X129342857Y47883595D01*
X129419047Y47883595D01*
X129495238Y47921690D01*
X129533333Y47959785D01*
X129571428Y48035976D01*
X129609523Y48188357D01*
X129609523Y48378833D01*
X129571428Y48531214D01*
X129533333Y48607404D01*
X129495238Y48645500D01*
X129419047Y48683595D01*
X128657142Y48683595D02*
X128580952Y48683595D01*
X128504761Y48645500D01*
X128466666Y48607404D01*
X128428571Y48531214D01*
X128390476Y48378833D01*
X128390476Y48188357D01*
X128428571Y48035976D01*
X128466666Y47959785D01*
X128504761Y47921690D01*
X128580952Y47883595D01*
X128657142Y47883595D01*
X128733333Y47921690D01*
X128771428Y47959785D01*
X128809523Y48035976D01*
X128847619Y48188357D01*
X128847619Y48378833D01*
X128809523Y48531214D01*
X128771428Y48607404D01*
X128733333Y48645500D01*
X128657142Y48683595D01*
X130009523Y46105500D02*
X130085714Y46143595D01*
X130200000Y46143595D01*
X130314285Y46105500D01*
X130390476Y46029309D01*
X130428571Y45953119D01*
X130466666Y45800738D01*
X130466666Y45686452D01*
X130428571Y45534071D01*
X130390476Y45457880D01*
X130314285Y45381690D01*
X130200000Y45343595D01*
X130123809Y45343595D01*
X130009523Y45381690D01*
X129971428Y45419785D01*
X129971428Y45686452D01*
X130123809Y45686452D01*
X129628571Y45343595D02*
X129628571Y46143595D01*
X129171428Y45343595D01*
X129171428Y46143595D01*
X128790476Y45343595D02*
X128790476Y46143595D01*
X128600000Y46143595D01*
X128485714Y46105500D01*
X128409523Y46029309D01*
X128371428Y45953119D01*
X128333333Y45800738D01*
X128333333Y45686452D01*
X128371428Y45534071D01*
X128409523Y45457880D01*
X128485714Y45381690D01*
X128600000Y45343595D01*
X128790476Y45343595D01*
X130009523Y43565500D02*
X130085714Y43603595D01*
X130200000Y43603595D01*
X130314285Y43565500D01*
X130390476Y43489309D01*
X130428571Y43413119D01*
X130466666Y43260738D01*
X130466666Y43146452D01*
X130428571Y42994071D01*
X130390476Y42917880D01*
X130314285Y42841690D01*
X130200000Y42803595D01*
X130123809Y42803595D01*
X130009523Y42841690D01*
X129971428Y42879785D01*
X129971428Y43146452D01*
X130123809Y43146452D01*
X129628571Y42803595D02*
X129628571Y43603595D01*
X129171428Y42803595D01*
X129171428Y43603595D01*
X128790476Y42803595D02*
X128790476Y43603595D01*
X128600000Y43603595D01*
X128485714Y43565500D01*
X128409523Y43489309D01*
X128371428Y43413119D01*
X128333333Y43260738D01*
X128333333Y43146452D01*
X128371428Y42994071D01*
X128409523Y42917880D01*
X128485714Y42841690D01*
X128600000Y42803595D01*
X128790476Y42803595D01*
X130371428Y40263595D02*
X130371428Y41063595D01*
X130066666Y41063595D01*
X129990476Y41025500D01*
X129952380Y40987404D01*
X129914285Y40911214D01*
X129914285Y40796928D01*
X129952380Y40720738D01*
X129990476Y40682642D01*
X130066666Y40644547D01*
X130371428Y40644547D01*
X129419047Y41063595D02*
X129342857Y41063595D01*
X129266666Y41025500D01*
X129228571Y40987404D01*
X129190476Y40911214D01*
X129152380Y40758833D01*
X129152380Y40568357D01*
X129190476Y40415976D01*
X129228571Y40339785D01*
X129266666Y40301690D01*
X129342857Y40263595D01*
X129419047Y40263595D01*
X129495238Y40301690D01*
X129533333Y40339785D01*
X129571428Y40415976D01*
X129609523Y40568357D01*
X129609523Y40758833D01*
X129571428Y40911214D01*
X129533333Y40987404D01*
X129495238Y41025500D01*
X129419047Y41063595D01*
X128847619Y40987404D02*
X128809523Y41025500D01*
X128733333Y41063595D01*
X128542857Y41063595D01*
X128466666Y41025500D01*
X128428571Y40987404D01*
X128390476Y40911214D01*
X128390476Y40835023D01*
X128428571Y40720738D01*
X128885714Y40263595D01*
X128390476Y40263595D01*
X130371428Y37723595D02*
X130371428Y38523595D01*
X130066666Y38523595D01*
X129990476Y38485500D01*
X129952380Y38447404D01*
X129914285Y38371214D01*
X129914285Y38256928D01*
X129952380Y38180738D01*
X129990476Y38142642D01*
X130066666Y38104547D01*
X130371428Y38104547D01*
X129419047Y38523595D02*
X129342857Y38523595D01*
X129266666Y38485500D01*
X129228571Y38447404D01*
X129190476Y38371214D01*
X129152380Y38218833D01*
X129152380Y38028357D01*
X129190476Y37875976D01*
X129228571Y37799785D01*
X129266666Y37761690D01*
X129342857Y37723595D01*
X129419047Y37723595D01*
X129495238Y37761690D01*
X129533333Y37799785D01*
X129571428Y37875976D01*
X129609523Y38028357D01*
X129609523Y38218833D01*
X129571428Y38371214D01*
X129533333Y38447404D01*
X129495238Y38485500D01*
X129419047Y38523595D01*
X128885714Y38523595D02*
X128390476Y38523595D01*
X128657142Y38218833D01*
X128542857Y38218833D01*
X128466666Y38180738D01*
X128428571Y38142642D01*
X128390476Y38066452D01*
X128390476Y37875976D01*
X128428571Y37799785D01*
X128466666Y37761690D01*
X128542857Y37723595D01*
X128771428Y37723595D01*
X128847619Y37761690D01*
X128885714Y37799785D01*
X130371428Y35183595D02*
X130371428Y35983595D01*
X130066666Y35983595D01*
X129990476Y35945500D01*
X129952380Y35907404D01*
X129914285Y35831214D01*
X129914285Y35716928D01*
X129952380Y35640738D01*
X129990476Y35602642D01*
X130066666Y35564547D01*
X130371428Y35564547D01*
X129419047Y35983595D02*
X129342857Y35983595D01*
X129266666Y35945500D01*
X129228571Y35907404D01*
X129190476Y35831214D01*
X129152380Y35678833D01*
X129152380Y35488357D01*
X129190476Y35335976D01*
X129228571Y35259785D01*
X129266666Y35221690D01*
X129342857Y35183595D01*
X129419047Y35183595D01*
X129495238Y35221690D01*
X129533333Y35259785D01*
X129571428Y35335976D01*
X129609523Y35488357D01*
X129609523Y35678833D01*
X129571428Y35831214D01*
X129533333Y35907404D01*
X129495238Y35945500D01*
X129419047Y35983595D01*
X128466666Y35716928D02*
X128466666Y35183595D01*
X128657142Y36021690D02*
X128847619Y35450261D01*
X128352380Y35450261D01*
X130371428Y32643595D02*
X130371428Y33443595D01*
X130066666Y33443595D01*
X129990476Y33405500D01*
X129952380Y33367404D01*
X129914285Y33291214D01*
X129914285Y33176928D01*
X129952380Y33100738D01*
X129990476Y33062642D01*
X130066666Y33024547D01*
X130371428Y33024547D01*
X129419047Y33443595D02*
X129342857Y33443595D01*
X129266666Y33405500D01*
X129228571Y33367404D01*
X129190476Y33291214D01*
X129152380Y33138833D01*
X129152380Y32948357D01*
X129190476Y32795976D01*
X129228571Y32719785D01*
X129266666Y32681690D01*
X129342857Y32643595D01*
X129419047Y32643595D01*
X129495238Y32681690D01*
X129533333Y32719785D01*
X129571428Y32795976D01*
X129609523Y32948357D01*
X129609523Y33138833D01*
X129571428Y33291214D01*
X129533333Y33367404D01*
X129495238Y33405500D01*
X129419047Y33443595D01*
X128428571Y33443595D02*
X128809523Y33443595D01*
X128847619Y33062642D01*
X128809523Y33100738D01*
X128733333Y33138833D01*
X128542857Y33138833D01*
X128466666Y33100738D01*
X128428571Y33062642D01*
X128390476Y32986452D01*
X128390476Y32795976D01*
X128428571Y32719785D01*
X128466666Y32681690D01*
X128542857Y32643595D01*
X128733333Y32643595D01*
X128809523Y32681690D01*
X128847619Y32719785D01*
X130371428Y30103595D02*
X130371428Y30903595D01*
X130066666Y30903595D01*
X129990476Y30865500D01*
X129952380Y30827404D01*
X129914285Y30751214D01*
X129914285Y30636928D01*
X129952380Y30560738D01*
X129990476Y30522642D01*
X130066666Y30484547D01*
X130371428Y30484547D01*
X129419047Y30903595D02*
X129342857Y30903595D01*
X129266666Y30865500D01*
X129228571Y30827404D01*
X129190476Y30751214D01*
X129152380Y30598833D01*
X129152380Y30408357D01*
X129190476Y30255976D01*
X129228571Y30179785D01*
X129266666Y30141690D01*
X129342857Y30103595D01*
X129419047Y30103595D01*
X129495238Y30141690D01*
X129533333Y30179785D01*
X129571428Y30255976D01*
X129609523Y30408357D01*
X129609523Y30598833D01*
X129571428Y30751214D01*
X129533333Y30827404D01*
X129495238Y30865500D01*
X129419047Y30903595D01*
X128466666Y30903595D02*
X128619047Y30903595D01*
X128695238Y30865500D01*
X128733333Y30827404D01*
X128809523Y30713119D01*
X128847619Y30560738D01*
X128847619Y30255976D01*
X128809523Y30179785D01*
X128771428Y30141690D01*
X128695238Y30103595D01*
X128542857Y30103595D01*
X128466666Y30141690D01*
X128428571Y30179785D01*
X128390476Y30255976D01*
X128390476Y30446452D01*
X128428571Y30522642D01*
X128466666Y30560738D01*
X128542857Y30598833D01*
X128695238Y30598833D01*
X128771428Y30560738D01*
X128809523Y30522642D01*
X128847619Y30446452D01*
X130371428Y27563595D02*
X130371428Y28363595D01*
X130066666Y28363595D01*
X129990476Y28325500D01*
X129952380Y28287404D01*
X129914285Y28211214D01*
X129914285Y28096928D01*
X129952380Y28020738D01*
X129990476Y27982642D01*
X130066666Y27944547D01*
X130371428Y27944547D01*
X129419047Y28363595D02*
X129342857Y28363595D01*
X129266666Y28325500D01*
X129228571Y28287404D01*
X129190476Y28211214D01*
X129152380Y28058833D01*
X129152380Y27868357D01*
X129190476Y27715976D01*
X129228571Y27639785D01*
X129266666Y27601690D01*
X129342857Y27563595D01*
X129419047Y27563595D01*
X129495238Y27601690D01*
X129533333Y27639785D01*
X129571428Y27715976D01*
X129609523Y27868357D01*
X129609523Y28058833D01*
X129571428Y28211214D01*
X129533333Y28287404D01*
X129495238Y28325500D01*
X129419047Y28363595D01*
X128885714Y28363595D02*
X128352380Y28363595D01*
X128695238Y27563595D01*
X130371428Y25023595D02*
X130371428Y25823595D01*
X130066666Y25823595D01*
X129990476Y25785500D01*
X129952380Y25747404D01*
X129914285Y25671214D01*
X129914285Y25556928D01*
X129952380Y25480738D01*
X129990476Y25442642D01*
X130066666Y25404547D01*
X130371428Y25404547D01*
X129419047Y25823595D02*
X129342857Y25823595D01*
X129266666Y25785500D01*
X129228571Y25747404D01*
X129190476Y25671214D01*
X129152380Y25518833D01*
X129152380Y25328357D01*
X129190476Y25175976D01*
X129228571Y25099785D01*
X129266666Y25061690D01*
X129342857Y25023595D01*
X129419047Y25023595D01*
X129495238Y25061690D01*
X129533333Y25099785D01*
X129571428Y25175976D01*
X129609523Y25328357D01*
X129609523Y25518833D01*
X129571428Y25671214D01*
X129533333Y25747404D01*
X129495238Y25785500D01*
X129419047Y25823595D01*
X128695238Y25480738D02*
X128771428Y25518833D01*
X128809523Y25556928D01*
X128847619Y25633119D01*
X128847619Y25671214D01*
X128809523Y25747404D01*
X128771428Y25785500D01*
X128695238Y25823595D01*
X128542857Y25823595D01*
X128466666Y25785500D01*
X128428571Y25747404D01*
X128390476Y25671214D01*
X128390476Y25633119D01*
X128428571Y25556928D01*
X128466666Y25518833D01*
X128542857Y25480738D01*
X128695238Y25480738D01*
X128771428Y25442642D01*
X128809523Y25404547D01*
X128847619Y25328357D01*
X128847619Y25175976D01*
X128809523Y25099785D01*
X128771428Y25061690D01*
X128695238Y25023595D01*
X128542857Y25023595D01*
X128466666Y25061690D01*
X128428571Y25099785D01*
X128390476Y25175976D01*
X128390476Y25328357D01*
X128428571Y25404547D01*
X128466666Y25442642D01*
X128542857Y25480738D01*
X130371428Y22483595D02*
X130371428Y23283595D01*
X130066666Y23283595D01*
X129990476Y23245500D01*
X129952380Y23207404D01*
X129914285Y23131214D01*
X129914285Y23016928D01*
X129952380Y22940738D01*
X129990476Y22902642D01*
X130066666Y22864547D01*
X130371428Y22864547D01*
X129419047Y23283595D02*
X129342857Y23283595D01*
X129266666Y23245500D01*
X129228571Y23207404D01*
X129190476Y23131214D01*
X129152380Y22978833D01*
X129152380Y22788357D01*
X129190476Y22635976D01*
X129228571Y22559785D01*
X129266666Y22521690D01*
X129342857Y22483595D01*
X129419047Y22483595D01*
X129495238Y22521690D01*
X129533333Y22559785D01*
X129571428Y22635976D01*
X129609523Y22788357D01*
X129609523Y22978833D01*
X129571428Y23131214D01*
X129533333Y23207404D01*
X129495238Y23245500D01*
X129419047Y23283595D01*
X128771428Y22483595D02*
X128619047Y22483595D01*
X128542857Y22521690D01*
X128504761Y22559785D01*
X128428571Y22674071D01*
X128390476Y22826452D01*
X128390476Y23131214D01*
X128428571Y23207404D01*
X128466666Y23245500D01*
X128542857Y23283595D01*
X128695238Y23283595D01*
X128771428Y23245500D01*
X128809523Y23207404D01*
X128847619Y23131214D01*
X128847619Y22940738D01*
X128809523Y22864547D01*
X128771428Y22826452D01*
X128695238Y22788357D01*
X128542857Y22788357D01*
X128466666Y22826452D01*
X128428571Y22864547D01*
X128390476Y22940738D01*
G04 #@! TO.C,B1*
X127652380Y12390880D02*
X127176190Y12724214D01*
X127652380Y12962309D02*
X126652380Y12962309D01*
X126652380Y12581357D01*
X126700000Y12486119D01*
X126747619Y12438500D01*
X126842857Y12390880D01*
X126985714Y12390880D01*
X127080952Y12438500D01*
X127128571Y12486119D01*
X127176190Y12581357D01*
X127176190Y12962309D01*
X127128571Y11962309D02*
X127128571Y11628976D01*
X127652380Y11486119D02*
X127652380Y11962309D01*
X126652380Y11962309D01*
X126652380Y11486119D01*
X127604761Y11105166D02*
X127652380Y10962309D01*
X127652380Y10724214D01*
X127604761Y10628976D01*
X127557142Y10581357D01*
X127461904Y10533738D01*
X127366666Y10533738D01*
X127271428Y10581357D01*
X127223809Y10628976D01*
X127176190Y10724214D01*
X127128571Y10914690D01*
X127080952Y11009928D01*
X127033333Y11057547D01*
X126938095Y11105166D01*
X126842857Y11105166D01*
X126747619Y11057547D01*
X126700000Y11009928D01*
X126652380Y10914690D01*
X126652380Y10676595D01*
X126700000Y10533738D01*
X127128571Y10105166D02*
X127128571Y9771833D01*
X127652380Y9628976D02*
X127652380Y10105166D01*
X126652380Y10105166D01*
X126652380Y9628976D01*
X126652380Y9343261D02*
X126652380Y8771833D01*
X127652380Y9057547D02*
X126652380Y9057547D01*
G04 #@! TD*
M02*
