M48
; DRILL file {KiCad (6.0.8)} date Sat 22 Oct 2022 23:06:42 BST
; FORMAT={-:-/ absolute / inch / decimal}
; #@! TF.CreationDate,2022-10-22T23:06:42+01:00
; #@! TF.GenerationSoftware,Kicad,Pcbnew,(6.0.8)
; #@! TF.FileFunction,NonPlated,1,2,NPTH
FMAT,2
INCH
; #@! TA.AperFunction,NonPlated,NPTH,ComponentDrill
T1C0.0472
; #@! TA.AperFunction,NonPlated,NPTH,ComponentDrill
T2C0.0670
; #@! TA.AperFunction,NonPlated,NPTH,ComponentDrill
T3C0.1181
; #@! TA.AperFunction,NonPlated,NPTH,ComponentDrill
T4C0.1570
%
G90
G05
T1
X5.4173Y0.4731
X5.4173Y0.3943
X5.6929Y0.4731
X5.6929Y0.3943
T2
X0.55Y1.5
X0.55Y0.75
X0.55Y0.0
X0.95Y1.5
X0.95Y0.75
X0.95Y0.0
X1.3Y1.5
X1.3Y0.75
X1.3Y0.0
X1.7Y1.5
X1.7Y0.75
X1.7Y0.0
X2.05Y1.995
X2.05Y1.245
X2.05Y0.495
X2.45Y1.995
X2.45Y1.245
X2.45Y0.495
X2.7961Y-0.3675
X2.7961Y-1.1175
X2.798Y2.1825
X2.798Y1.4325
X2.798Y0.6825
X3.1961Y-0.3675
X3.1961Y-1.1175
X3.198Y2.1825
X3.198Y1.4325
X3.198Y0.6825
X3.5461Y1.995
X3.5461Y1.245
X3.5461Y0.495
X3.5461Y-0.3675
X3.5461Y-1.1175
X3.9461Y1.995
X3.9461Y1.245
X3.9461Y0.495
X3.9461Y-0.3675
X3.9461Y-1.1175
X4.2961Y1.8825
X4.2961Y1.1325
X4.2961Y0.3825
X4.2961Y-0.3675
X4.2961Y-1.1175
X4.6961Y1.8825
X4.6961Y1.1325
X4.6961Y0.3825
X4.6961Y-0.3675
X4.6961Y-1.1175
X5.0461Y-0.3675
X5.0461Y-1.1175
X5.4461Y-0.3675
X5.4461Y-1.1175
T3
X0.6Y1.6
X0.6Y0.85
X0.6Y0.1
X0.65Y1.7
X0.65Y0.95
X0.65Y0.2
X0.85Y1.7
X0.85Y0.95
X0.85Y0.2
X0.9Y1.6
X0.9Y0.85
X0.9Y0.1
X1.35Y1.6
X1.35Y0.85
X1.35Y0.1
X1.4Y1.7
X1.4Y0.95
X1.4Y0.2
X1.6Y1.7
X1.6Y0.95
X1.6Y0.2
X1.65Y1.6
X1.65Y0.85
X1.65Y0.1
X2.1Y2.095
X2.1Y1.345
X2.1Y0.595
X2.15Y2.195
X2.15Y1.445
X2.15Y0.695
X2.35Y2.195
X2.35Y1.445
X2.35Y0.695
X2.4Y2.095
X2.4Y1.345
X2.4Y0.595
X2.8461Y-0.2675
X2.8461Y-1.0175
X2.848Y2.2825
X2.848Y1.5325
X2.848Y0.7825
X2.8961Y-0.1675
X2.8961Y-0.9175
X2.898Y2.3825
X2.898Y1.6325
X2.898Y0.8825
X3.0961Y-0.1675
X3.0961Y-0.9175
X3.098Y2.3825
X3.098Y1.6325
X3.098Y0.8825
X3.1461Y-0.2675
X3.1461Y-1.0175
X3.148Y2.2825
X3.148Y1.5325
X3.148Y0.7825
X3.5961Y2.095
X3.5961Y1.345
X3.5961Y0.595
X3.5961Y-0.2675
X3.5961Y-1.0175
X3.6461Y2.195
X3.6461Y1.445
X3.6461Y0.695
X3.6461Y-0.1675
X3.6461Y-0.9175
X3.8461Y2.195
X3.8461Y1.445
X3.8461Y0.695
X3.8461Y-0.1675
X3.8461Y-0.9175
X3.8961Y2.095
X3.8961Y1.345
X3.8961Y0.595
X3.8961Y-0.2675
X3.8961Y-1.0175
X4.3461Y1.9825
X4.3461Y1.2325
X4.3461Y0.4825
X4.3461Y-0.2675
X4.3461Y-1.0175
X4.3961Y2.0825
X4.3961Y1.3325
X4.3961Y0.5825
X4.3961Y-0.1675
X4.3961Y-0.9175
X4.5961Y2.0825
X4.5961Y1.3325
X4.5961Y0.5825
X4.5961Y-0.1675
X4.5961Y-0.9175
X4.6461Y1.9825
X4.6461Y1.2325
X4.6461Y0.4825
X4.6461Y-0.2675
X4.6461Y-1.0175
X5.0961Y-0.2675
X5.0961Y-1.0175
X5.1461Y-0.1675
X5.1461Y-0.9175
X5.3461Y-0.1675
X5.3461Y-0.9175
X5.3961Y-0.2675
X5.3961Y-1.0175
T4
X0.75Y1.5
X0.75Y0.75
X0.75Y0.0
X1.5Y1.5
X1.5Y0.75
X1.5Y0.0
X2.25Y1.995
X2.25Y1.245
X2.25Y0.495
X2.9961Y-0.3675
X2.9961Y-1.1175
X2.998Y2.1825
X2.998Y1.4325
X2.998Y0.6825
X3.7461Y1.995
X3.7461Y1.245
X3.7461Y0.495
X3.7461Y-0.3675
X3.7461Y-1.1175
X4.4961Y1.8825
X4.4961Y1.1325
X4.4961Y0.3825
X4.4961Y-0.3675
X4.4961Y-1.1175
X5.2461Y-0.3675
X5.2461Y-1.1175
T0
M30
