G04 #@! TF.GenerationSoftware,KiCad,Pcbnew,5.1.5+dfsg1-2build2*
G04 #@! TF.CreationDate,2022-10-22T21:51:20+00:00*
G04 #@! TF.ProjectId,board,626f6172-642e-46b6-9963-61645f706362,v1.0.0*
G04 #@! TF.SameCoordinates,Original*
G04 #@! TF.FileFunction,Profile,NP*
%FSLAX46Y46*%
G04 Gerber Fmt 4.6, Leading zero omitted, Abs format (unit mm)*
G04 Created by KiCad (PCBNEW 5.1.5+dfsg1-2build2) date 2022-10-22 21:51:20*
%MOMM*%
%LPD*%
G04 APERTURE LIST*
G04 #@! TA.AperFunction,Profile*
%ADD10C,0.150000*%
G04 #@! TD*
G04 APERTURE END LIST*
D10*
X9525000Y-10525000D02*
X46625000Y-10525000D01*
X8525000Y-9525000D02*
X8525000Y47625000D01*
X9525000Y-10525000D02*
G75*
G02X8525000Y-9525000I0J1000000D01*
G01*
X9525000Y48625000D02*
X46625000Y48625000D01*
X8525000Y47625000D02*
G75*
G02X9525000Y48625000I1000000J0D01*
G01*
X65625000Y61198000D02*
X47625000Y61198000D01*
X46625000Y60198000D02*
G75*
G02X47625000Y61198000I1000000J0D01*
G01*
X46625000Y60198000D02*
X46625000Y48625000D01*
X86675000Y61198000D02*
X86675000Y64960500D01*
X85675000Y65960500D02*
G75*
G02X86675000Y64960500I0J-1000000D01*
G01*
X85675000Y65960500D02*
X66625000Y65960500D01*
X65625000Y64960500D02*
G75*
G02X66625000Y65960500I1000000J0D01*
G01*
X65625000Y64960500D02*
X65625000Y61198000D01*
X105675000Y58340500D02*
X105675000Y60198000D01*
X104675000Y61198000D02*
G75*
G02X105675000Y60198000I0J-1000000D01*
G01*
X104675000Y61198000D02*
X86675000Y61198000D01*
X124725000Y56190500D02*
X124725000Y57340500D01*
X123725000Y58340500D02*
G75*
G02X124725000Y57340500I0J-1000000D01*
G01*
X123725000Y58340500D02*
X105675000Y58340500D01*
X65575000Y-37909500D02*
X65575000Y-18968378D01*
X66575000Y-38909500D02*
X144200000Y-38909500D01*
X66575000Y-38909500D02*
G75*
G02X65575000Y-37909500I0J1000000D01*
G01*
X65575000Y-18968378D02*
X46625000Y-10525000D01*
X146200000Y-36909500D02*
G75*
G02X144200000Y-38909500I-2000000J0D01*
G01*
X146200000Y-36909500D02*
X146200000Y54190500D01*
X144200000Y56190500D02*
G75*
G02X146200000Y54190500I0J-2000000D01*
G01*
X144200000Y56190500D02*
X124725000Y56190500D01*
X30625000Y28575000D02*
G75*
G03X30625000Y28575000I-2050000J0D01*
G01*
X30625000Y9525000D02*
G75*
G03X30625000Y9525000I-2050000J0D01*
G01*
X106725000Y41148000D02*
G75*
G03X106725000Y41148000I-2050000J0D01*
G01*
X106725000Y22098000D02*
G75*
G03X106725000Y22098000I-2050000J0D01*
G01*
X125775000Y-18859500D02*
G75*
G03X125775000Y-18859500I-2050000J0D01*
G01*
X87675000Y-18859500D02*
G75*
G03X87675000Y-18859500I-2050000J0D01*
G01*
M02*
