G04 #@! TF.GenerationSoftware,KiCad,Pcbnew,5.1.5+dfsg1-2build2*
G04 #@! TF.CreationDate,2022-10-22T21:51:20+00:00*
G04 #@! TF.ProjectId,board,626f6172-642e-46b6-9963-61645f706362,v1.0.0*
G04 #@! TF.SameCoordinates,Original*
G04 #@! TF.FileFunction,Copper,L2,Bot*
G04 #@! TF.FilePolarity,Positive*
%FSLAX46Y46*%
G04 Gerber Fmt 4.6, Leading zero omitted, Abs format (unit mm)*
G04 Created by KiCad (PCBNEW 5.1.5+dfsg1-2build2) date 2022-10-22 21:51:20*
%MOMM*%
%LPD*%
G04 APERTURE LIST*
G04 #@! TA.AperFunction,Profile*
%ADD10C,0.150000*%
G04 #@! TD*
G04 #@! TA.AperFunction,SMDPad,CuDef*
%ADD11R,2.550000X2.500000*%
G04 #@! TD*
G04 #@! TA.AperFunction,SMDPad,CuDef*
%ADD12R,0.900000X1.200000*%
G04 #@! TD*
G04 #@! TA.AperFunction,ComponentPad*
%ADD13C,1.905000*%
G04 #@! TD*
G04 #@! TA.AperFunction,ComponentPad*
%ADD14R,1.778000X1.778000*%
G04 #@! TD*
G04 #@! TA.AperFunction,ComponentPad*
%ADD15R,1.752600X1.752600*%
G04 #@! TD*
G04 #@! TA.AperFunction,ComponentPad*
%ADD16C,1.752600*%
G04 #@! TD*
G04 #@! TA.AperFunction,ComponentPad*
%ADD17O,2.200000X1.600000*%
G04 #@! TD*
G04 #@! TA.AperFunction,ComponentPad*
%ADD18C,2.000000*%
G04 #@! TD*
G04 #@! TA.AperFunction,ViaPad*
%ADD19C,0.800000*%
G04 #@! TD*
G04 #@! TA.AperFunction,Conductor*
%ADD20C,0.250000*%
G04 #@! TD*
G04 #@! TA.AperFunction,Conductor*
%ADD21C,0.500000*%
G04 #@! TD*
G04 APERTURE END LIST*
D10*
X9525000Y-10525000D02*
X46625000Y-10525000D01*
X8525000Y-9525000D02*
X8525000Y47625000D01*
X9525000Y-10525000D02*
G75*
G02X8525000Y-9525000I0J1000000D01*
G01*
X9525000Y48625000D02*
X46625000Y48625000D01*
X8525000Y47625000D02*
G75*
G02X9525000Y48625000I1000000J0D01*
G01*
X65625000Y61198000D02*
X47625000Y61198000D01*
X46625000Y60198000D02*
G75*
G02X47625000Y61198000I1000000J0D01*
G01*
X46625000Y60198000D02*
X46625000Y48625000D01*
X86675000Y61198000D02*
X86675000Y64960500D01*
X85675000Y65960500D02*
G75*
G02X86675000Y64960500I0J-1000000D01*
G01*
X85675000Y65960500D02*
X66625000Y65960500D01*
X65625000Y64960500D02*
G75*
G02X66625000Y65960500I1000000J0D01*
G01*
X65625000Y64960500D02*
X65625000Y61198000D01*
X105675000Y58340500D02*
X105675000Y60198000D01*
X104675000Y61198000D02*
G75*
G02X105675000Y60198000I0J-1000000D01*
G01*
X104675000Y61198000D02*
X86675000Y61198000D01*
X124725000Y56190500D02*
X124725000Y57340500D01*
X123725000Y58340500D02*
G75*
G02X124725000Y57340500I0J-1000000D01*
G01*
X123725000Y58340500D02*
X105675000Y58340500D01*
X65575000Y-37909500D02*
X65575000Y-18968378D01*
X66575000Y-38909500D02*
X144200000Y-38909500D01*
X66575000Y-38909500D02*
G75*
G02X65575000Y-37909500I0J1000000D01*
G01*
X65575000Y-18968378D02*
X46625000Y-10525000D01*
X146200000Y-36909500D02*
G75*
G02X144200000Y-38909500I-2000000J0D01*
G01*
X146200000Y-36909500D02*
X146200000Y54190500D01*
X144200000Y56190500D02*
G75*
G02X146200000Y54190500I0J-2000000D01*
G01*
X144200000Y56190500D02*
X124725000Y56190500D01*
X30625000Y28575000D02*
G75*
G03X30625000Y28575000I-2050000J0D01*
G01*
X30625000Y9525000D02*
G75*
G03X30625000Y9525000I-2050000J0D01*
G01*
X106725000Y41148000D02*
G75*
G03X106725000Y41148000I-2050000J0D01*
G01*
X106725000Y22098000D02*
G75*
G03X106725000Y22098000I-2050000J0D01*
G01*
X125775000Y-18859500D02*
G75*
G03X125775000Y-18859500I-2050000J0D01*
G01*
X87675000Y-18859500D02*
G75*
G03X87675000Y-18859500I-2050000J0D01*
G01*
D11*
G04 #@! TO.P,S1,1*
G04 #@! TO.N,left_bottom*
X11965000Y2540000D03*
G04 #@! TO.P,S1,2*
G04 #@! TO.N,P21*
X24892000Y5080000D03*
G04 #@! TD*
D12*
G04 #@! TO.P,D1,2*
G04 #@! TO.N,left_bottom*
X20700000Y-5000000D03*
G04 #@! TO.P,D1,1*
G04 #@! TO.N,P6*
X17400000Y-5000000D03*
D13*
G04 #@! TO.N,left_bottom*
X22860000Y-5000000D03*
D14*
G04 #@! TO.P,D1,2*
G04 #@! TO.N,P6*
X15240000Y-5000000D03*
G04 #@! TD*
D11*
G04 #@! TO.P,S2,1*
G04 #@! TO.N,left_home*
X11965000Y21590000D03*
G04 #@! TO.P,S2,2*
G04 #@! TO.N,P21*
X24892000Y24130000D03*
G04 #@! TD*
D12*
G04 #@! TO.P,D2,2*
G04 #@! TO.N,left_home*
X20700000Y14050000D03*
G04 #@! TO.P,D2,1*
G04 #@! TO.N,P5*
X17400000Y14050000D03*
D13*
G04 #@! TO.N,left_home*
X22860000Y14050000D03*
D14*
G04 #@! TO.P,D2,2*
G04 #@! TO.N,P5*
X15240000Y14050000D03*
G04 #@! TD*
D11*
G04 #@! TO.P,S3,1*
G04 #@! TO.N,left_top*
X11965000Y40640000D03*
G04 #@! TO.P,S3,2*
G04 #@! TO.N,P21*
X24892000Y43180000D03*
G04 #@! TD*
D12*
G04 #@! TO.P,D3,2*
G04 #@! TO.N,left_top*
X20700000Y33100000D03*
G04 #@! TO.P,D3,1*
G04 #@! TO.N,P4*
X17400000Y33100000D03*
D13*
G04 #@! TO.N,left_top*
X22860000Y33100000D03*
D14*
G04 #@! TO.P,D3,2*
G04 #@! TO.N,P4*
X15240000Y33100000D03*
G04 #@! TD*
D11*
G04 #@! TO.P,S4,1*
G04 #@! TO.N,pinky_bottom*
X31015000Y2540000D03*
G04 #@! TO.P,S4,2*
G04 #@! TO.N,P20*
X43942000Y5080000D03*
G04 #@! TD*
D12*
G04 #@! TO.P,D4,2*
G04 #@! TO.N,pinky_bottom*
X39750000Y-5000000D03*
G04 #@! TO.P,D4,1*
G04 #@! TO.N,P6*
X36450000Y-5000000D03*
D13*
G04 #@! TO.N,pinky_bottom*
X41910000Y-5000000D03*
D14*
G04 #@! TO.P,D4,2*
G04 #@! TO.N,P6*
X34290000Y-5000000D03*
G04 #@! TD*
D11*
G04 #@! TO.P,S5,1*
G04 #@! TO.N,pinky_home*
X31015000Y21590000D03*
G04 #@! TO.P,S5,2*
G04 #@! TO.N,P20*
X43942000Y24130000D03*
G04 #@! TD*
D12*
G04 #@! TO.P,D5,2*
G04 #@! TO.N,pinky_home*
X39750000Y14050000D03*
G04 #@! TO.P,D5,1*
G04 #@! TO.N,P5*
X36450000Y14050000D03*
D13*
G04 #@! TO.N,pinky_home*
X41910000Y14050000D03*
D14*
G04 #@! TO.P,D5,2*
G04 #@! TO.N,P5*
X34290000Y14050000D03*
G04 #@! TD*
D11*
G04 #@! TO.P,S6,1*
G04 #@! TO.N,pinky_top*
X31015000Y40640000D03*
G04 #@! TO.P,S6,2*
G04 #@! TO.N,P20*
X43942000Y43180000D03*
G04 #@! TD*
D12*
G04 #@! TO.P,D6,2*
G04 #@! TO.N,pinky_top*
X39750000Y33100000D03*
G04 #@! TO.P,D6,1*
G04 #@! TO.N,P4*
X36450000Y33100000D03*
D13*
G04 #@! TO.N,pinky_top*
X41910000Y33100000D03*
D14*
G04 #@! TO.P,D6,2*
G04 #@! TO.N,P4*
X34290000Y33100000D03*
G04 #@! TD*
D11*
G04 #@! TO.P,S7,1*
G04 #@! TO.N,ring_bottom*
X50065000Y15113000D03*
G04 #@! TO.P,S7,2*
G04 #@! TO.N,P19*
X62992000Y17653000D03*
G04 #@! TD*
D12*
G04 #@! TO.P,D7,2*
G04 #@! TO.N,ring_bottom*
X58800000Y7573000D03*
G04 #@! TO.P,D7,1*
G04 #@! TO.N,P6*
X55500000Y7573000D03*
D13*
G04 #@! TO.N,ring_bottom*
X60960000Y7573000D03*
D14*
G04 #@! TO.P,D7,2*
G04 #@! TO.N,P6*
X53340000Y7573000D03*
G04 #@! TD*
D11*
G04 #@! TO.P,S8,1*
G04 #@! TO.N,ring_home*
X50065000Y34163000D03*
G04 #@! TO.P,S8,2*
G04 #@! TO.N,P19*
X62992000Y36703000D03*
G04 #@! TD*
D12*
G04 #@! TO.P,D8,2*
G04 #@! TO.N,ring_home*
X58800000Y26623000D03*
G04 #@! TO.P,D8,1*
G04 #@! TO.N,P5*
X55500000Y26623000D03*
D13*
G04 #@! TO.N,ring_home*
X60960000Y26623000D03*
D14*
G04 #@! TO.P,D8,2*
G04 #@! TO.N,P5*
X53340000Y26623000D03*
G04 #@! TD*
D11*
G04 #@! TO.P,S9,1*
G04 #@! TO.N,ring_top*
X50065000Y53213000D03*
G04 #@! TO.P,S9,2*
G04 #@! TO.N,P19*
X62992000Y55753000D03*
G04 #@! TD*
D12*
G04 #@! TO.P,D9,2*
G04 #@! TO.N,ring_top*
X58800000Y45673000D03*
G04 #@! TO.P,D9,1*
G04 #@! TO.N,P4*
X55500000Y45673000D03*
D13*
G04 #@! TO.N,ring_top*
X60960000Y45673000D03*
D14*
G04 #@! TO.P,D9,2*
G04 #@! TO.N,P4*
X53340000Y45673000D03*
G04 #@! TD*
D11*
G04 #@! TO.P,S10,1*
G04 #@! TO.N,middle_bottom*
X69065000Y19875500D03*
G04 #@! TO.P,S10,2*
G04 #@! TO.N,P18*
X81992000Y22415500D03*
G04 #@! TD*
D12*
G04 #@! TO.P,D10,2*
G04 #@! TO.N,middle_bottom*
X77800000Y12335500D03*
G04 #@! TO.P,D10,1*
G04 #@! TO.N,P6*
X74500000Y12335500D03*
D13*
G04 #@! TO.N,middle_bottom*
X79960000Y12335500D03*
D14*
G04 #@! TO.P,D10,2*
G04 #@! TO.N,P6*
X72340000Y12335500D03*
G04 #@! TD*
D11*
G04 #@! TO.P,S11,1*
G04 #@! TO.N,middle_home*
X69065000Y38925500D03*
G04 #@! TO.P,S11,2*
G04 #@! TO.N,P18*
X81992000Y41465500D03*
G04 #@! TD*
D12*
G04 #@! TO.P,D11,2*
G04 #@! TO.N,middle_home*
X77800000Y31385500D03*
G04 #@! TO.P,D11,1*
G04 #@! TO.N,P5*
X74500000Y31385500D03*
D13*
G04 #@! TO.N,middle_home*
X79960000Y31385500D03*
D14*
G04 #@! TO.P,D11,2*
G04 #@! TO.N,P5*
X72340000Y31385500D03*
G04 #@! TD*
D11*
G04 #@! TO.P,S12,1*
G04 #@! TO.N,middle_top*
X69065000Y57975500D03*
G04 #@! TO.P,S12,2*
G04 #@! TO.N,P18*
X81992000Y60515500D03*
G04 #@! TD*
D12*
G04 #@! TO.P,D12,2*
G04 #@! TO.N,middle_top*
X77800000Y50435500D03*
G04 #@! TO.P,D12,1*
G04 #@! TO.N,P4*
X74500000Y50435500D03*
D13*
G04 #@! TO.N,middle_top*
X79960000Y50435500D03*
D14*
G04 #@! TO.P,D12,2*
G04 #@! TO.N,P4*
X72340000Y50435500D03*
G04 #@! TD*
D11*
G04 #@! TO.P,S13,1*
G04 #@! TO.N,index_bottom*
X88065000Y15113000D03*
G04 #@! TO.P,S13,2*
G04 #@! TO.N,P15*
X100992000Y17653000D03*
G04 #@! TD*
D12*
G04 #@! TO.P,D13,2*
G04 #@! TO.N,index_bottom*
X96800000Y7573000D03*
G04 #@! TO.P,D13,1*
G04 #@! TO.N,P6*
X93500000Y7573000D03*
D13*
G04 #@! TO.N,index_bottom*
X98960000Y7573000D03*
D14*
G04 #@! TO.P,D13,2*
G04 #@! TO.N,P6*
X91340000Y7573000D03*
G04 #@! TD*
D11*
G04 #@! TO.P,S14,1*
G04 #@! TO.N,index_home*
X88065000Y34163000D03*
G04 #@! TO.P,S14,2*
G04 #@! TO.N,P15*
X100992000Y36703000D03*
G04 #@! TD*
D12*
G04 #@! TO.P,D14,2*
G04 #@! TO.N,index_home*
X96800000Y26623000D03*
G04 #@! TO.P,D14,1*
G04 #@! TO.N,P5*
X93500000Y26623000D03*
D13*
G04 #@! TO.N,index_home*
X98960000Y26623000D03*
D14*
G04 #@! TO.P,D14,2*
G04 #@! TO.N,P5*
X91340000Y26623000D03*
G04 #@! TD*
D11*
G04 #@! TO.P,S15,1*
G04 #@! TO.N,index_top*
X88065000Y53213000D03*
G04 #@! TO.P,S15,2*
G04 #@! TO.N,P15*
X100992000Y55753000D03*
G04 #@! TD*
D12*
G04 #@! TO.P,D15,2*
G04 #@! TO.N,index_top*
X96800000Y45673000D03*
G04 #@! TO.P,D15,1*
G04 #@! TO.N,P4*
X93500000Y45673000D03*
D13*
G04 #@! TO.N,index_top*
X98960000Y45673000D03*
D14*
G04 #@! TO.P,D15,2*
G04 #@! TO.N,P4*
X91340000Y45673000D03*
G04 #@! TD*
D11*
G04 #@! TO.P,S16,1*
G04 #@! TO.N,inner_bottom*
X107115000Y12255500D03*
G04 #@! TO.P,S16,2*
G04 #@! TO.N,P14*
X120042000Y14795500D03*
G04 #@! TD*
D12*
G04 #@! TO.P,D16,2*
G04 #@! TO.N,inner_bottom*
X115850000Y4715500D03*
G04 #@! TO.P,D16,1*
G04 #@! TO.N,P6*
X112550000Y4715500D03*
D13*
G04 #@! TO.N,inner_bottom*
X118010000Y4715500D03*
D14*
G04 #@! TO.P,D16,2*
G04 #@! TO.N,P6*
X110390000Y4715500D03*
G04 #@! TD*
D11*
G04 #@! TO.P,S17,1*
G04 #@! TO.N,inner_home*
X107115000Y31305500D03*
G04 #@! TO.P,S17,2*
G04 #@! TO.N,P14*
X120042000Y33845500D03*
G04 #@! TD*
D12*
G04 #@! TO.P,D17,2*
G04 #@! TO.N,inner_home*
X115850000Y23765500D03*
G04 #@! TO.P,D17,1*
G04 #@! TO.N,P5*
X112550000Y23765500D03*
D13*
G04 #@! TO.N,inner_home*
X118010000Y23765500D03*
D14*
G04 #@! TO.P,D17,2*
G04 #@! TO.N,P5*
X110390000Y23765500D03*
G04 #@! TD*
D11*
G04 #@! TO.P,S18,1*
G04 #@! TO.N,inner_top*
X107115000Y50355500D03*
G04 #@! TO.P,S18,2*
G04 #@! TO.N,P14*
X120042000Y52895500D03*
G04 #@! TD*
D12*
G04 #@! TO.P,D18,2*
G04 #@! TO.N,inner_top*
X115850000Y42815500D03*
G04 #@! TO.P,D18,1*
G04 #@! TO.N,P4*
X112550000Y42815500D03*
D13*
G04 #@! TO.N,inner_top*
X118010000Y42815500D03*
D14*
G04 #@! TO.P,D18,2*
G04 #@! TO.N,P4*
X110390000Y42815500D03*
G04 #@! TD*
D11*
G04 #@! TO.P,S19,1*
G04 #@! TO.N,one_a_thumb*
X69015000Y-6794500D03*
G04 #@! TO.P,S19,2*
G04 #@! TO.N,P18*
X81942000Y-4254500D03*
G04 #@! TD*
D12*
G04 #@! TO.P,D19,2*
G04 #@! TO.N,one_a_thumb*
X77750000Y-14334500D03*
G04 #@! TO.P,D19,1*
G04 #@! TO.N,P7*
X74450000Y-14334500D03*
D13*
G04 #@! TO.N,one_a_thumb*
X79910000Y-14334500D03*
D14*
G04 #@! TO.P,D19,2*
G04 #@! TO.N,P7*
X72290000Y-14334500D03*
G04 #@! TD*
D11*
G04 #@! TO.P,S20,1*
G04 #@! TO.N,one_b_thumb*
X69015000Y-25844500D03*
G04 #@! TO.P,S20,2*
G04 #@! TO.N,P18*
X81942000Y-23304500D03*
G04 #@! TD*
D12*
G04 #@! TO.P,D20,2*
G04 #@! TO.N,one_b_thumb*
X77750000Y-33384500D03*
G04 #@! TO.P,D20,1*
G04 #@! TO.N,P7*
X74450000Y-33384500D03*
D13*
G04 #@! TO.N,one_b_thumb*
X79910000Y-33384500D03*
D14*
G04 #@! TO.P,D20,2*
G04 #@! TO.N,P7*
X72290000Y-33384500D03*
G04 #@! TD*
D11*
G04 #@! TO.P,S21,1*
G04 #@! TO.N,two_a_thumb*
X88065000Y-6794500D03*
G04 #@! TO.P,S21,2*
G04 #@! TO.N,P19*
X100992000Y-4254500D03*
G04 #@! TD*
D12*
G04 #@! TO.P,D21,2*
G04 #@! TO.N,two_a_thumb*
X96800000Y-14334500D03*
G04 #@! TO.P,D21,1*
G04 #@! TO.N,P7*
X93500000Y-14334500D03*
D13*
G04 #@! TO.N,two_a_thumb*
X98960000Y-14334500D03*
D14*
G04 #@! TO.P,D21,2*
G04 #@! TO.N,P7*
X91340000Y-14334500D03*
G04 #@! TD*
D11*
G04 #@! TO.P,S22,1*
G04 #@! TO.N,two_b_thumb*
X88065000Y-25844500D03*
G04 #@! TO.P,S22,2*
G04 #@! TO.N,P19*
X100992000Y-23304500D03*
G04 #@! TD*
D12*
G04 #@! TO.P,D22,2*
G04 #@! TO.N,two_b_thumb*
X96800000Y-33384500D03*
G04 #@! TO.P,D22,1*
G04 #@! TO.N,P7*
X93500000Y-33384500D03*
D13*
G04 #@! TO.N,two_b_thumb*
X98960000Y-33384500D03*
D14*
G04 #@! TO.P,D22,2*
G04 #@! TO.N,P7*
X91340000Y-33384500D03*
G04 #@! TD*
D11*
G04 #@! TO.P,S23,1*
G04 #@! TO.N,three_a_thumb*
X107115000Y-6794500D03*
G04 #@! TO.P,S23,2*
G04 #@! TO.N,P15*
X120042000Y-4254500D03*
G04 #@! TD*
D12*
G04 #@! TO.P,D23,2*
G04 #@! TO.N,three_a_thumb*
X115850000Y-14334500D03*
G04 #@! TO.P,D23,1*
G04 #@! TO.N,P7*
X112550000Y-14334500D03*
D13*
G04 #@! TO.N,three_a_thumb*
X118010000Y-14334500D03*
D14*
G04 #@! TO.P,D23,2*
G04 #@! TO.N,P7*
X110390000Y-14334500D03*
G04 #@! TD*
D11*
G04 #@! TO.P,S24,1*
G04 #@! TO.N,three_b_thumb*
X107115000Y-25844500D03*
G04 #@! TO.P,S24,2*
G04 #@! TO.N,P14*
X120042000Y-23304500D03*
G04 #@! TD*
D12*
G04 #@! TO.P,D24,2*
G04 #@! TO.N,three_b_thumb*
X115850000Y-33384500D03*
G04 #@! TO.P,D24,1*
G04 #@! TO.N,P7*
X112550000Y-33384500D03*
D13*
G04 #@! TO.N,three_b_thumb*
X118010000Y-33384500D03*
D14*
G04 #@! TO.P,D24,2*
G04 #@! TO.N,P7*
X110390000Y-33384500D03*
G04 #@! TD*
D11*
G04 #@! TO.P,S25,1*
G04 #@! TO.N,four_a_thumb*
X126165000Y-6794500D03*
G04 #@! TO.P,S25,2*
G04 #@! TO.N,P20*
X139092000Y-4254500D03*
G04 #@! TD*
D12*
G04 #@! TO.P,D25,2*
G04 #@! TO.N,four_a_thumb*
X134900000Y-14334500D03*
G04 #@! TO.P,D25,1*
G04 #@! TO.N,P7*
X131600000Y-14334500D03*
D13*
G04 #@! TO.N,four_a_thumb*
X137060000Y-14334500D03*
D14*
G04 #@! TO.P,D25,2*
G04 #@! TO.N,P7*
X129440000Y-14334500D03*
G04 #@! TD*
D11*
G04 #@! TO.P,S26,1*
G04 #@! TO.N,four_b_thumb*
X126165000Y-25844500D03*
G04 #@! TO.P,S26,2*
G04 #@! TO.N,P21*
X139092000Y-23304500D03*
G04 #@! TD*
D12*
G04 #@! TO.P,D26,2*
G04 #@! TO.N,four_b_thumb*
X134900000Y-33384500D03*
G04 #@! TO.P,D26,1*
G04 #@! TO.N,P7*
X131600000Y-33384500D03*
D13*
G04 #@! TO.N,four_b_thumb*
X137060000Y-33384500D03*
D14*
G04 #@! TO.P,D26,2*
G04 #@! TO.N,P7*
X129440000Y-33384500D03*
G04 #@! TD*
D15*
G04 #@! TO.P,MCU1,1*
G04 #@! TO.N,RAW*
X141820000Y50785500D03*
D16*
G04 #@! TO.P,MCU1,2*
G04 #@! TO.N,GND*
X141820000Y48245500D03*
G04 #@! TO.P,MCU1,3*
G04 #@! TO.N,RST*
X141820000Y45705500D03*
G04 #@! TO.P,MCU1,4*
G04 #@! TO.N,VCC*
X141820000Y43165500D03*
G04 #@! TO.P,MCU1,5*
G04 #@! TO.N,P21*
X141820000Y40625500D03*
G04 #@! TO.P,MCU1,6*
G04 #@! TO.N,P20*
X141820000Y38085500D03*
G04 #@! TO.P,MCU1,7*
G04 #@! TO.N,P19*
X141820000Y35545500D03*
G04 #@! TO.P,MCU1,8*
G04 #@! TO.N,P18*
X141820000Y33005500D03*
G04 #@! TO.P,MCU1,9*
G04 #@! TO.N,P15*
X141820000Y30465500D03*
G04 #@! TO.P,MCU1,10*
G04 #@! TO.N,P14*
X141820000Y27925500D03*
G04 #@! TO.P,MCU1,11*
G04 #@! TO.N,P16*
X141820000Y25385500D03*
G04 #@! TO.P,MCU1,12*
G04 #@! TO.N,P10*
X141820000Y22845500D03*
G04 #@! TO.P,MCU1,13*
G04 #@! TO.N,P1*
X126580000Y50785500D03*
G04 #@! TO.P,MCU1,14*
G04 #@! TO.N,P0*
X126580000Y48245500D03*
G04 #@! TO.P,MCU1,15*
G04 #@! TO.N,GND*
X126580000Y45705500D03*
G04 #@! TO.P,MCU1,16*
X126580000Y43165500D03*
G04 #@! TO.P,MCU1,17*
G04 #@! TO.N,P2*
X126580000Y40625500D03*
G04 #@! TO.P,MCU1,18*
G04 #@! TO.N,P3*
X126580000Y38085500D03*
G04 #@! TO.P,MCU1,19*
G04 #@! TO.N,P4*
X126580000Y35545500D03*
G04 #@! TO.P,MCU1,20*
G04 #@! TO.N,P5*
X126580000Y33005500D03*
G04 #@! TO.P,MCU1,21*
G04 #@! TO.N,P6*
X126580000Y30465500D03*
G04 #@! TO.P,MCU1,22*
G04 #@! TO.N,P7*
X126580000Y27925500D03*
G04 #@! TO.P,MCU1,23*
G04 #@! TO.N,P8*
X126580000Y25385500D03*
G04 #@! TO.P,MCU1,24*
G04 #@! TO.N,P9*
X126580000Y22845500D03*
G04 #@! TD*
D15*
G04 #@! TO.P,MCU2,1*
G04 #@! TO.N,RAW*
X129080000Y49535500D03*
D16*
G04 #@! TO.P,MCU2,2*
G04 #@! TO.N,GND*
X129080000Y46995500D03*
G04 #@! TO.P,MCU2,3*
G04 #@! TO.N,RST*
X129080000Y44455500D03*
G04 #@! TO.P,MCU2,4*
G04 #@! TO.N,VCC*
X129080000Y41915500D03*
G04 #@! TO.P,MCU2,5*
G04 #@! TO.N,P21*
X129080000Y39375500D03*
G04 #@! TO.P,MCU2,6*
G04 #@! TO.N,P20*
X129080000Y36835500D03*
G04 #@! TO.P,MCU2,7*
G04 #@! TO.N,P19*
X129080000Y34295500D03*
G04 #@! TO.P,MCU2,8*
G04 #@! TO.N,P18*
X129080000Y31755500D03*
G04 #@! TO.P,MCU2,9*
G04 #@! TO.N,P15*
X129080000Y29215500D03*
G04 #@! TO.P,MCU2,10*
G04 #@! TO.N,P14*
X129080000Y26675500D03*
G04 #@! TO.P,MCU2,11*
G04 #@! TO.N,P16*
X129080000Y24135500D03*
G04 #@! TO.P,MCU2,12*
G04 #@! TO.N,P10*
X129080000Y21595500D03*
G04 #@! TO.P,MCU2,13*
G04 #@! TO.N,P1*
X144320000Y49535500D03*
G04 #@! TO.P,MCU2,14*
G04 #@! TO.N,P0*
X144320000Y46995500D03*
G04 #@! TO.P,MCU2,15*
G04 #@! TO.N,GND*
X144320000Y44455500D03*
G04 #@! TO.P,MCU2,16*
X144320000Y41915500D03*
G04 #@! TO.P,MCU2,17*
G04 #@! TO.N,P2*
X144320000Y39375500D03*
G04 #@! TO.P,MCU2,18*
G04 #@! TO.N,P3*
X144320000Y36835500D03*
G04 #@! TO.P,MCU2,19*
G04 #@! TO.N,P4*
X144320000Y34295500D03*
G04 #@! TO.P,MCU2,20*
G04 #@! TO.N,P5*
X144320000Y31755500D03*
G04 #@! TO.P,MCU2,21*
G04 #@! TO.N,P6*
X144320000Y29215500D03*
G04 #@! TO.P,MCU2,22*
G04 #@! TO.N,P7*
X144320000Y26675500D03*
G04 #@! TO.P,MCU2,23*
G04 #@! TO.N,P8*
X144320000Y24135500D03*
G04 #@! TO.P,MCU2,24*
G04 #@! TO.N,P9*
X144320000Y21595500D03*
G04 #@! TD*
D17*
G04 #@! TO.P,TRRS1,1*
G04 #@! TO.N,N/C*
X134900000Y12315500D03*
G04 #@! TO.P,TRRS1,2*
G04 #@! TO.N,VCC*
X136000000Y7715500D03*
G04 #@! TO.P,TRRS1,3*
G04 #@! TO.N,GND*
X140000000Y7715500D03*
G04 #@! TO.P,TRRS1,4*
G04 #@! TO.N,P0*
X143000000Y7715500D03*
G04 #@! TD*
G04 #@! TO.P,TRRS2,1*
G04 #@! TO.N,N/C*
X134900000Y9715500D03*
G04 #@! TO.P,TRRS2,2*
G04 #@! TO.N,VCC*
X136000000Y14315500D03*
G04 #@! TO.P,TRRS2,3*
G04 #@! TO.N,GND*
X140000000Y14315500D03*
G04 #@! TO.P,TRRS2,4*
G04 #@! TO.N,P0*
X143000000Y14315500D03*
G04 #@! TD*
D18*
G04 #@! TO.P,B1,2*
G04 #@! TO.N,GND*
X127200000Y14315500D03*
G04 #@! TO.P,B1,1*
G04 #@! TO.N,RST*
X127200000Y7815500D03*
G04 #@! TD*
D19*
G04 #@! TO.N,P21*
X133186700Y3263200D03*
X25104000Y6938700D03*
X139092000Y-20803200D03*
G04 #@! TO.N,P6*
X113032600Y21490600D03*
G04 #@! TO.N,P5*
X44733400Y17217500D03*
X120871100Y27155800D03*
X124314600Y33118200D03*
G04 #@! TO.N,P20*
X44412500Y30672700D03*
X44412500Y9634300D03*
X140221700Y-1549500D03*
G04 #@! TO.N,P19*
X80657100Y-2379700D03*
X62992000Y57640500D03*
X100992000Y-20803200D03*
G04 #@! TO.N,P18*
X83875000Y41443800D03*
X81992000Y24293500D03*
X81992000Y64060000D03*
X82366100Y-13938500D03*
G04 #@! TO.N,P15*
X102577700Y19690700D03*
X100992000Y57640500D03*
X121946000Y-4765200D03*
G04 #@! TO.N,P14*
X121460400Y22458200D03*
X119407200Y35939800D03*
X120042000Y56332300D03*
X120042000Y-20636200D03*
G04 #@! TO.N,P7*
X131765900Y27925500D03*
G04 #@! TD*
D20*
G04 #@! TO.N,left_bottom*
X20700000Y-5000000D02*
X19924700Y-5000000D01*
X19924700Y-5000000D02*
X17334300Y-2409600D01*
X17334300Y-2409600D02*
X14663400Y-2409600D01*
X14663400Y-2409600D02*
X11965000Y288800D01*
X11965000Y288800D02*
X11965000Y2540000D01*
X22860000Y-5000000D02*
X20700000Y-5000000D01*
G04 #@! TO.N,P21*
X139092000Y-20803200D02*
X139092000Y-11877500D01*
X139092000Y-11877500D02*
X133186700Y-5972200D01*
X133186700Y-5972200D02*
X133186700Y3263200D01*
X133186700Y3263200D02*
X133186700Y35268800D01*
X133186700Y35268800D02*
X129080000Y39375500D01*
X24892000Y5080000D02*
X24892000Y6655300D01*
X24892000Y24917700D02*
X25321000Y24488700D01*
X25321000Y24488700D02*
X25321000Y7155700D01*
X25321000Y7155700D02*
X25104000Y6938700D01*
X25104000Y6938700D02*
X25104000Y6867300D01*
X25104000Y6867300D02*
X24892000Y6655300D01*
X24892000Y24917700D02*
X24892000Y25705300D01*
X24892000Y24130000D02*
X24892000Y24917700D01*
X24892000Y43180000D02*
X24892000Y41604700D01*
X24892000Y41604700D02*
X25321000Y41175700D01*
X25321000Y41175700D02*
X25321000Y26134300D01*
X25321000Y26134300D02*
X24892000Y25705300D01*
X139092000Y-23304500D02*
X139092000Y-20803200D01*
G04 #@! TO.N,P6*
X110390000Y4715500D02*
X110390000Y5929800D01*
X113032600Y21490600D02*
X105467500Y13925500D01*
X105467500Y13925500D02*
X105467500Y10852300D01*
X105467500Y10852300D02*
X110390000Y5929800D01*
X110390000Y4715500D02*
X112550000Y4715500D01*
X17400000Y-5000000D02*
X15240000Y-5000000D01*
X36450000Y-5000000D02*
X34290000Y-5000000D01*
X36837700Y-5000000D02*
X36450000Y-5000000D01*
X36837700Y-5000000D02*
X37225300Y-5000000D01*
X53340000Y7573000D02*
X52125700Y7573000D01*
X52125700Y7573000D02*
X52125700Y7269400D01*
X52125700Y7269400D02*
X41559700Y-3296600D01*
X41559700Y-3296600D02*
X38928700Y-3296600D01*
X38928700Y-3296600D02*
X37225300Y-5000000D01*
X55500000Y7573000D02*
X53340000Y7573000D01*
X74500000Y12335500D02*
X72340000Y12335500D01*
X93500000Y7573000D02*
X91340000Y7573000D01*
G04 #@! TO.N,left_home*
X20700000Y14050000D02*
X19924700Y14050000D01*
X19924700Y14050000D02*
X17334300Y16640400D01*
X17334300Y16640400D02*
X14663400Y16640400D01*
X14663400Y16640400D02*
X11965000Y19338800D01*
X11965000Y19338800D02*
X11965000Y21590000D01*
X22860000Y14050000D02*
X20700000Y14050000D01*
G04 #@! TO.N,P5*
X53340000Y26623000D02*
X53340000Y25408700D01*
X53340000Y25408700D02*
X52924600Y25408700D01*
X52924600Y25408700D02*
X44733400Y17217500D01*
X55500000Y26623000D02*
X53340000Y26623000D01*
X74500000Y31385500D02*
X75275300Y31385500D01*
X91340000Y26623000D02*
X80037800Y26623000D01*
X80037800Y26623000D02*
X75275300Y31385500D01*
X93500000Y26623000D02*
X91340000Y26623000D01*
X120871100Y27155800D02*
X124314600Y30599300D01*
X124314600Y30599300D02*
X124314600Y33118200D01*
X17400000Y14050000D02*
X15240000Y14050000D01*
X36450000Y14050000D02*
X34290000Y14050000D01*
X74500000Y31385500D02*
X72340000Y31385500D01*
X112550000Y23765500D02*
X110390000Y23765500D01*
G04 #@! TO.N,left_top*
X20700000Y33100000D02*
X19924700Y33100000D01*
X19924700Y33100000D02*
X17334300Y35690400D01*
X17334300Y35690400D02*
X14663400Y35690400D01*
X14663400Y35690400D02*
X11965000Y38388800D01*
X11965000Y38388800D02*
X11965000Y40640000D01*
X22860000Y33100000D02*
X20700000Y33100000D01*
G04 #@! TO.N,P4*
X36450000Y33100000D02*
X36450000Y34025300D01*
X53340000Y45673000D02*
X40470500Y45673000D01*
X40470500Y45673000D02*
X37543100Y42745600D01*
X37543100Y42745600D02*
X37543100Y40869100D01*
X37543100Y40869100D02*
X35724400Y39050400D01*
X35724400Y39050400D02*
X35724400Y34750900D01*
X35724400Y34750900D02*
X36450000Y34025300D01*
X55500000Y45673000D02*
X53340000Y45673000D01*
X17400000Y33100000D02*
X15240000Y33100000D01*
X36450000Y33100000D02*
X34290000Y33100000D01*
X74500000Y50435500D02*
X72340000Y50435500D01*
X93500000Y45673000D02*
X91340000Y45673000D01*
X112550000Y42815500D02*
X110390000Y42815500D01*
G04 #@! TO.N,pinky_bottom*
X39750000Y-5000000D02*
X38974700Y-5000000D01*
X38974700Y-5000000D02*
X37760300Y-6214400D01*
X37760300Y-6214400D02*
X33265700Y-6214400D01*
X33265700Y-6214400D02*
X31015000Y-3963700D01*
X31015000Y-3963700D02*
X31015000Y2540000D01*
X41910000Y-5000000D02*
X39750000Y-5000000D01*
G04 #@! TO.N,P20*
X43942000Y41604700D02*
X44412500Y41134200D01*
X44412500Y41134200D02*
X44412500Y30672700D01*
X43942000Y25705300D02*
X44412500Y26175800D01*
X44412500Y26175800D02*
X44412500Y30672700D01*
X43942000Y24917700D02*
X44361900Y24497800D01*
X44361900Y24497800D02*
X44361900Y17871700D01*
X44361900Y17871700D02*
X44008100Y17517900D01*
X44008100Y17517900D02*
X44008100Y10038700D01*
X44008100Y10038700D02*
X44412500Y9634300D01*
X44412500Y9634300D02*
X44412500Y7125800D01*
X44412500Y7125800D02*
X43942000Y6655300D01*
X43942000Y5080000D02*
X43942000Y6655300D01*
X43942000Y24917700D02*
X43942000Y25705300D01*
X43942000Y24130000D02*
X43942000Y24917700D01*
X43942000Y43180000D02*
X43942000Y41604700D01*
X139092000Y-2849100D02*
X140221700Y-1719400D01*
X140221700Y-1719400D02*
X140221700Y-1549500D01*
X141820000Y38085500D02*
X140576000Y36841500D01*
X140576000Y36841500D02*
X140576000Y17993900D01*
X140576000Y17993900D02*
X141442200Y17127700D01*
X141442200Y17127700D02*
X141442200Y-329000D01*
X141442200Y-329000D02*
X140221700Y-1549500D01*
X139092000Y-4254500D02*
X139092000Y-2849100D01*
G04 #@! TO.N,pinky_home*
X39750000Y14050000D02*
X38974700Y14050000D01*
X38974700Y14050000D02*
X37729100Y12804400D01*
X37729100Y12804400D02*
X33232100Y12804400D01*
X33232100Y12804400D02*
X31015000Y15021500D01*
X31015000Y15021500D02*
X31015000Y21590000D01*
X41910000Y14050000D02*
X39750000Y14050000D01*
G04 #@! TO.N,pinky_top*
X39750000Y33100000D02*
X38974700Y33100000D01*
X38974700Y33100000D02*
X37729100Y31854400D01*
X37729100Y31854400D02*
X33232100Y31854400D01*
X33232100Y31854400D02*
X31015000Y34071500D01*
X31015000Y34071500D02*
X31015000Y40640000D01*
X41910000Y33100000D02*
X39750000Y33100000D01*
G04 #@! TO.N,ring_bottom*
X58800000Y7573000D02*
X58024700Y7573000D01*
X58024700Y7573000D02*
X56491700Y9106000D01*
X56491700Y9106000D02*
X53820800Y9106000D01*
X53820800Y9106000D02*
X50065000Y12861800D01*
X50065000Y12861800D02*
X50065000Y15113000D01*
X60960000Y7573000D02*
X58800000Y7573000D01*
G04 #@! TO.N,P19*
X62992000Y18440700D02*
X80657100Y775600D01*
X80657100Y775600D02*
X80657100Y-2379700D01*
X62992000Y18440700D02*
X62992000Y19228300D01*
X62992000Y17653000D02*
X62992000Y18440700D01*
X62992000Y55753000D02*
X62992000Y57640500D01*
X62992000Y37490700D02*
X63407400Y37075300D01*
X63407400Y37075300D02*
X63407400Y19643700D01*
X63407400Y19643700D02*
X62992000Y19228300D01*
X62992000Y37490700D02*
X62992000Y38278300D01*
X62992000Y36703000D02*
X62992000Y37490700D01*
X62992000Y55753000D02*
X62992000Y54177700D01*
X62992000Y54177700D02*
X63407400Y53762300D01*
X63407400Y53762300D02*
X63407400Y38693700D01*
X63407400Y38693700D02*
X62992000Y38278300D01*
X100992000Y-20803200D02*
X101416000Y-20379200D01*
X101416000Y-20379200D02*
X101416000Y-6253800D01*
X101416000Y-6253800D02*
X100992000Y-5829800D01*
X100992000Y-23304500D02*
X100992000Y-20803200D01*
X100992000Y-4254500D02*
X100992000Y-5829800D01*
G04 #@! TO.N,ring_home*
X58800000Y26623000D02*
X58024700Y26623000D01*
X58024700Y26623000D02*
X56350300Y28297400D01*
X56350300Y28297400D02*
X53679400Y28297400D01*
X53679400Y28297400D02*
X50065000Y31911800D01*
X50065000Y31911800D02*
X50065000Y34163000D01*
X60960000Y26623000D02*
X58800000Y26623000D01*
G04 #@! TO.N,ring_top*
X58800000Y45673000D02*
X58024700Y45673000D01*
X58024700Y45673000D02*
X56350300Y47347400D01*
X56350300Y47347400D02*
X53679400Y47347400D01*
X53679400Y47347400D02*
X50065000Y50961800D01*
X50065000Y50961800D02*
X50065000Y53213000D01*
X60960000Y45673000D02*
X58800000Y45673000D01*
G04 #@! TO.N,middle_bottom*
X77800000Y12335500D02*
X77024700Y12335500D01*
X77024700Y12335500D02*
X74837400Y14522800D01*
X74837400Y14522800D02*
X72166500Y14522800D01*
X72166500Y14522800D02*
X69065000Y17624300D01*
X69065000Y17624300D02*
X69065000Y19875500D01*
X79960000Y12335500D02*
X77800000Y12335500D01*
G04 #@! TO.N,P18*
X81992000Y41465500D02*
X83592300Y41465500D01*
X83875000Y41443800D02*
X83614000Y41443800D01*
X83614000Y41443800D02*
X83592300Y41465500D01*
X81992000Y22415500D02*
X81992000Y24293500D01*
X81992000Y41465500D02*
X81992000Y43040800D01*
X81992000Y60515500D02*
X81992000Y58940200D01*
X81992000Y58940200D02*
X82460200Y58472000D01*
X82460200Y58472000D02*
X82460200Y43509000D01*
X82460200Y43509000D02*
X81992000Y43040800D01*
X81992000Y64060000D02*
X81992000Y60515500D01*
X81992000Y22415500D02*
X81992000Y20840200D01*
X81942000Y-4254500D02*
X81942000Y-2679200D01*
X81942000Y-2679200D02*
X82446400Y-2174800D01*
X82446400Y-2174800D02*
X82446400Y20385800D01*
X82446400Y20385800D02*
X81992000Y20840200D01*
X81942000Y-4724400D02*
X81942000Y-4254500D01*
X81942000Y-4724400D02*
X81942000Y-5829800D01*
X82366100Y-13938500D02*
X82366100Y-6253900D01*
X82366100Y-6253900D02*
X81942000Y-5829800D01*
X81942000Y-21729200D02*
X82366100Y-21305100D01*
X82366100Y-21305100D02*
X82366100Y-13938500D01*
X81942000Y-23304500D02*
X81942000Y-21729200D01*
G04 #@! TO.N,middle_home*
X77800000Y31385500D02*
X77024700Y31385500D01*
X77024700Y31385500D02*
X74689000Y33721200D01*
X74689000Y33721200D02*
X72018100Y33721200D01*
X72018100Y33721200D02*
X69065000Y36674300D01*
X69065000Y36674300D02*
X69065000Y38925500D01*
X79960000Y31385500D02*
X77800000Y31385500D01*
G04 #@! TO.N,middle_top*
X77800000Y50435500D02*
X77024700Y50435500D01*
X77024700Y50435500D02*
X74689000Y52771200D01*
X74689000Y52771200D02*
X72018100Y52771200D01*
X72018100Y52771200D02*
X69065000Y55724300D01*
X69065000Y55724300D02*
X69065000Y57975500D01*
X79960000Y50435500D02*
X77800000Y50435500D01*
G04 #@! TO.N,index_bottom*
X96800000Y7573000D02*
X96024700Y7573000D01*
X96024700Y7573000D02*
X94371100Y9226600D01*
X94371100Y9226600D02*
X91700200Y9226600D01*
X91700200Y9226600D02*
X88065000Y12861800D01*
X88065000Y12861800D02*
X88065000Y15113000D01*
X98960000Y7573000D02*
X96800000Y7573000D01*
G04 #@! TO.N,P15*
X101421000Y19690700D02*
X101421000Y19657300D01*
X101421000Y19657300D02*
X100992000Y19228300D01*
X100992000Y37490700D02*
X101421000Y37061700D01*
X101421000Y37061700D02*
X101421000Y19690700D01*
X101421000Y19690700D02*
X102577700Y19690700D01*
X100992000Y17653000D02*
X100992000Y19228300D01*
X100992000Y37490700D02*
X100992000Y38278300D01*
X100992000Y36703000D02*
X100992000Y37490700D01*
X100992000Y55753000D02*
X100992000Y54177700D01*
X100992000Y54177700D02*
X101421000Y53748700D01*
X101421000Y53748700D02*
X101421000Y38707300D01*
X101421000Y38707300D02*
X100992000Y38278300D01*
X100992000Y55753000D02*
X100992000Y57640500D01*
X120042000Y-2679200D02*
X130291000Y7569800D01*
X130291000Y7569800D02*
X130291000Y28004500D01*
X130291000Y28004500D02*
X129080000Y29215500D01*
X120042000Y-4254500D02*
X121642300Y-4254500D01*
X121946000Y-4765200D02*
X121642300Y-4461500D01*
X121642300Y-4461500D02*
X121642300Y-4254500D01*
X120042000Y-4254500D02*
X120042000Y-2679200D01*
G04 #@! TO.N,index_home*
X96800000Y26623000D02*
X96024700Y26623000D01*
X96024700Y26623000D02*
X94371100Y28276600D01*
X94371100Y28276600D02*
X91700200Y28276600D01*
X91700200Y28276600D02*
X88065000Y31911800D01*
X88065000Y31911800D02*
X88065000Y34163000D01*
X98960000Y26623000D02*
X96800000Y26623000D01*
G04 #@! TO.N,index_top*
X96800000Y45673000D02*
X96024700Y45673000D01*
X96024700Y45673000D02*
X94371100Y47326600D01*
X94371100Y47326600D02*
X91700200Y47326600D01*
X91700200Y47326600D02*
X88065000Y50961800D01*
X88065000Y50961800D02*
X88065000Y53213000D01*
X98960000Y45673000D02*
X96800000Y45673000D01*
G04 #@! TO.N,inner_bottom*
X115850000Y4715500D02*
X115074700Y4715500D01*
X115074700Y4715500D02*
X113400300Y6389900D01*
X113400300Y6389900D02*
X110729400Y6389900D01*
X110729400Y6389900D02*
X107115000Y10004300D01*
X107115000Y10004300D02*
X107115000Y12255500D01*
X118010000Y4715500D02*
X115850000Y4715500D01*
G04 #@! TO.N,P14*
X120145800Y22458200D02*
X121460400Y22458200D01*
X120042000Y16370800D02*
X120042000Y22354400D01*
X120042000Y22354400D02*
X120145800Y22458200D01*
X120042000Y34633200D02*
X120457200Y34218000D01*
X120457200Y34218000D02*
X120457200Y27767600D01*
X120457200Y27767600D02*
X120145800Y27456200D01*
X120145800Y27456200D02*
X120145800Y22458200D01*
X120042000Y-20636200D02*
X120042000Y-11877500D01*
X120042000Y-11877500D02*
X114887500Y-6723000D01*
X114887500Y-6723000D02*
X114887500Y-1960300D01*
X114887500Y-1960300D02*
X120457100Y3609300D01*
X120457100Y3609300D02*
X120457100Y12805100D01*
X120457100Y12805100D02*
X120042000Y13220200D01*
X120042000Y14795500D02*
X120042000Y16370800D01*
X120042000Y34633200D02*
X120042000Y35420800D01*
X120042000Y33845500D02*
X120042000Y34633200D01*
X119407200Y35939800D02*
X119523000Y35939800D01*
X119523000Y35939800D02*
X120042000Y35420800D01*
X120042000Y52895500D02*
X120042000Y51320200D01*
X120042000Y51320200D02*
X120457000Y50905200D01*
X120457000Y50905200D02*
X120457000Y35835800D01*
X120457000Y35835800D02*
X120042000Y35420800D01*
X120042000Y52895500D02*
X120042000Y56332300D01*
X120042000Y14795500D02*
X120042000Y13220200D01*
X120042000Y-23304500D02*
X120042000Y-20636200D01*
G04 #@! TO.N,inner_home*
X115850000Y23765500D02*
X115074700Y23765500D01*
X115074700Y23765500D02*
X113028000Y25812200D01*
X113028000Y25812200D02*
X110357100Y25812200D01*
X110357100Y25812200D02*
X107115000Y29054300D01*
X107115000Y29054300D02*
X107115000Y31305500D01*
X118010000Y23765500D02*
X115850000Y23765500D01*
G04 #@! TO.N,inner_top*
X115850000Y42815500D02*
X115074700Y42815500D01*
X115074700Y42815500D02*
X113028000Y44862200D01*
X113028000Y44862200D02*
X110357100Y44862200D01*
X110357100Y44862200D02*
X107115000Y48104300D01*
X107115000Y48104300D02*
X107115000Y50355500D01*
X118010000Y42815500D02*
X115850000Y42815500D01*
G04 #@! TO.N,one_a_thumb*
X77750000Y-14334500D02*
X76974700Y-14334500D01*
X76974700Y-14334500D02*
X74419900Y-11779700D01*
X74419900Y-11779700D02*
X71749000Y-11779700D01*
X71749000Y-11779700D02*
X69015000Y-9045700D01*
X69015000Y-9045700D02*
X69015000Y-6794500D01*
X79910000Y-14334500D02*
X77750000Y-14334500D01*
G04 #@! TO.N,P7*
X72290000Y-33384500D02*
X72290000Y-32170200D01*
X72290000Y-32170200D02*
X67414600Y-27294800D01*
X67414600Y-27294800D02*
X67414600Y-20424200D01*
X67414600Y-20424200D02*
X72290000Y-15548800D01*
X74450000Y-33384500D02*
X72290000Y-33384500D01*
X72290000Y-14334500D02*
X72290000Y-15548800D01*
X129440000Y-14334500D02*
X129440000Y-13120200D01*
X129440000Y-13120200D02*
X124542600Y-8222800D01*
X124542600Y-8222800D02*
X124542600Y-4442000D01*
X124542600Y-4442000D02*
X131765800Y2781200D01*
X131765800Y2781200D02*
X131765800Y27925500D01*
X131765800Y27925500D02*
X131765900Y27925500D01*
X129440000Y-14334500D02*
X131600000Y-14334500D01*
X74450000Y-14334500D02*
X72290000Y-14334500D01*
X93500000Y-33384500D02*
X94275300Y-33384500D01*
X94275300Y-33384500D02*
X97469300Y-30190500D01*
X97469300Y-30190500D02*
X97469300Y-27404800D01*
X97469300Y-27404800D02*
X95150100Y-25085600D01*
X95150100Y-25085600D02*
X95150100Y-15209300D01*
X95150100Y-15209300D02*
X94275300Y-14334500D01*
X91340000Y-33384500D02*
X93500000Y-33384500D01*
X93500000Y-14334500D02*
X94275300Y-14334500D01*
X93500000Y-14334500D02*
X91340000Y-14334500D01*
X112550000Y-14334500D02*
X110390000Y-14334500D01*
X112550000Y-33384500D02*
X110390000Y-33384500D01*
X131600000Y-33384500D02*
X129440000Y-33384500D01*
G04 #@! TO.N,one_b_thumb*
X77750000Y-33384500D02*
X76974700Y-33384500D01*
X76974700Y-33384500D02*
X74384300Y-30794100D01*
X74384300Y-30794100D02*
X71713400Y-30794100D01*
X71713400Y-30794100D02*
X69015000Y-28095700D01*
X69015000Y-28095700D02*
X69015000Y-25844500D01*
X79910000Y-33384500D02*
X77750000Y-33384500D01*
G04 #@! TO.N,two_a_thumb*
X96800000Y-14334500D02*
X96024700Y-14334500D01*
X96024700Y-14334500D02*
X94350300Y-12660100D01*
X94350300Y-12660100D02*
X91679400Y-12660100D01*
X91679400Y-12660100D02*
X88065000Y-9045700D01*
X88065000Y-9045700D02*
X88065000Y-6794500D01*
X98960000Y-14334500D02*
X96800000Y-14334500D01*
G04 #@! TO.N,two_b_thumb*
X97880000Y-33384500D02*
X97104100Y-33384500D01*
X97104100Y-33384500D02*
X96404000Y-34084600D01*
X96404000Y-34084600D02*
X95689600Y-34084600D01*
X95689600Y-34084600D02*
X95175300Y-34598900D01*
X95175300Y-34598900D02*
X90315700Y-34598900D01*
X90315700Y-34598900D02*
X88065000Y-32348200D01*
X88065000Y-32348200D02*
X88065000Y-25844500D01*
X97880000Y-33384500D02*
X96800000Y-33384500D01*
X98960000Y-33384500D02*
X97880000Y-33384500D01*
G04 #@! TO.N,three_a_thumb*
X115850000Y-14334500D02*
X115074700Y-14334500D01*
X115074700Y-14334500D02*
X113400300Y-12660100D01*
X113400300Y-12660100D02*
X110729400Y-12660100D01*
X110729400Y-12660100D02*
X107115000Y-9045700D01*
X107115000Y-9045700D02*
X107115000Y-6794500D01*
X118010000Y-14334500D02*
X115850000Y-14334500D01*
G04 #@! TO.N,three_b_thumb*
X115850000Y-33384500D02*
X115074700Y-33384500D01*
X115074700Y-33384500D02*
X112608000Y-30917800D01*
X112608000Y-30917800D02*
X109937100Y-30917800D01*
X109937100Y-30917800D02*
X107115000Y-28095700D01*
X107115000Y-28095700D02*
X107115000Y-25844500D01*
X118010000Y-33384500D02*
X115850000Y-33384500D01*
G04 #@! TO.N,four_a_thumb*
X134900000Y-14334500D02*
X134124700Y-14334500D01*
X134124700Y-14334500D02*
X130614600Y-10824400D01*
X130614600Y-10824400D02*
X127943700Y-10824400D01*
X127943700Y-10824400D02*
X126165000Y-9045700D01*
X126165000Y-9045700D02*
X126165000Y-6794500D01*
X137060000Y-14334500D02*
X134900000Y-14334500D01*
G04 #@! TO.N,four_b_thumb*
X134900000Y-33384500D02*
X134124700Y-33384500D01*
X134124700Y-33384500D02*
X131658000Y-30917800D01*
X131658000Y-30917800D02*
X128987100Y-30917800D01*
X128987100Y-30917800D02*
X126165000Y-28095700D01*
X126165000Y-28095700D02*
X126165000Y-25844500D01*
X137060000Y-33384500D02*
X134900000Y-33384500D01*
D21*
G04 #@! TO.N,GND*
X126580000Y43165500D02*
X126580000Y45705500D01*
X127200000Y14315500D02*
X125183600Y16331900D01*
X125183600Y16331900D02*
X125183600Y41769100D01*
X125183600Y41769100D02*
X126580000Y43165500D01*
X144320000Y41915500D02*
X144320000Y44455500D01*
X140000000Y14315500D02*
X140000000Y7715500D01*
D20*
G04 #@! TO.N,RST*
X127200000Y7815500D02*
X128548100Y9163600D01*
X128548100Y9163600D02*
X128548100Y17577500D01*
X128548100Y17577500D02*
X127877500Y18248100D01*
X127877500Y18248100D02*
X127877500Y43253000D01*
X127877500Y43253000D02*
X129080000Y44455500D01*
D21*
G04 #@! TO.N,VCC*
X136000000Y14315500D02*
X136000000Y37345500D01*
X136000000Y37345500D02*
X141820000Y43165500D01*
X136000000Y7715500D02*
X136500000Y8215500D01*
X136500000Y8215500D02*
X136500000Y13815500D01*
X136500000Y13815500D02*
X136000000Y14315500D01*
D20*
G04 #@! TO.N,P0*
X143000000Y14315500D02*
X143000000Y15440800D01*
X143000000Y15440800D02*
X143021700Y15462500D01*
X143021700Y15462500D02*
X143021700Y45697200D01*
X143021700Y45697200D02*
X144320000Y46995500D01*
X143000000Y7715500D02*
X143000000Y14315500D01*
G04 #@! TD*
M02*
