%TF.GenerationSoftware,KiCad,Pcbnew,(6.0.8)*%
%TF.CreationDate,2022-10-22T23:02:27+01:00*%
%TF.ProjectId,board,626f6172-642e-46b6-9963-61645f706362,v1.0.0*%
%TF.SameCoordinates,Original*%
%TF.FileFunction,Paste,Top*%
%TF.FilePolarity,Positive*%
%FSLAX46Y46*%
G04 Gerber Fmt 4.6, Leading zero omitted, Abs format (unit mm)*
G04 Created by KiCad (PCBNEW (6.0.8)) date 2022-10-22 23:02:27*
%MOMM*%
%LPD*%
G01*
G04 APERTURE LIST*
%ADD10R,2.550000X2.500000*%
%ADD11R,0.900000X1.200000*%
G04 APERTURE END LIST*
D10*
%TO.C,S1*%
X26135000Y2540000D03*
X13208000Y5080000D03*
%TD*%
D11*
%TO.C,D1*%
X17400000Y-5000000D03*
X20700000Y-5000000D03*
%TD*%
D10*
%TO.C,S2*%
X26135000Y21590000D03*
X13208000Y24130000D03*
%TD*%
D11*
%TO.C,D2*%
X17400000Y14050000D03*
X20700000Y14050000D03*
%TD*%
D10*
%TO.C,S3*%
X26135000Y40640000D03*
X13208000Y43180000D03*
%TD*%
D11*
%TO.C,D3*%
X17400000Y33100000D03*
X20700000Y33100000D03*
%TD*%
D10*
%TO.C,S4*%
X45185000Y2540000D03*
X32258000Y5080000D03*
%TD*%
D11*
%TO.C,D4*%
X36450000Y-5000000D03*
X39750000Y-5000000D03*
%TD*%
D10*
%TO.C,S5*%
X45185000Y21590000D03*
X32258000Y24130000D03*
%TD*%
D11*
%TO.C,D5*%
X36450000Y14050000D03*
X39750000Y14050000D03*
%TD*%
D10*
%TO.C,S6*%
X45185000Y40640000D03*
X32258000Y43180000D03*
%TD*%
D11*
%TO.C,D6*%
X36450000Y33100000D03*
X39750000Y33100000D03*
%TD*%
D10*
%TO.C,S7*%
X64235000Y15113000D03*
X51308000Y17653000D03*
%TD*%
D11*
%TO.C,D7*%
X55500000Y7573000D03*
X58800000Y7573000D03*
%TD*%
D10*
%TO.C,S8*%
X64235000Y34163000D03*
X51308000Y36703000D03*
%TD*%
D11*
%TO.C,D8*%
X55500000Y26623000D03*
X58800000Y26623000D03*
%TD*%
D10*
%TO.C,S9*%
X64235000Y53213000D03*
X51308000Y55753000D03*
%TD*%
D11*
%TO.C,D9*%
X55500000Y45673000D03*
X58800000Y45673000D03*
%TD*%
D10*
%TO.C,S10*%
X83235000Y19875500D03*
X70308000Y22415500D03*
%TD*%
D11*
%TO.C,D10*%
X74500000Y12335500D03*
X77800000Y12335500D03*
%TD*%
D10*
%TO.C,S11*%
X83235000Y38925500D03*
X70308000Y41465500D03*
%TD*%
D11*
%TO.C,D11*%
X74500000Y31385500D03*
X77800000Y31385500D03*
%TD*%
D10*
%TO.C,S12*%
X83235000Y57975500D03*
X70308000Y60515500D03*
%TD*%
D11*
%TO.C,D12*%
X74500000Y50435500D03*
X77800000Y50435500D03*
%TD*%
D10*
%TO.C,S13*%
X102235000Y15113000D03*
X89308000Y17653000D03*
%TD*%
D11*
%TO.C,D13*%
X93500000Y7573000D03*
X96800000Y7573000D03*
%TD*%
D10*
%TO.C,S14*%
X102235000Y34163000D03*
X89308000Y36703000D03*
%TD*%
D11*
%TO.C,D14*%
X93500000Y26623000D03*
X96800000Y26623000D03*
%TD*%
D10*
%TO.C,S15*%
X102235000Y53213000D03*
X89308000Y55753000D03*
%TD*%
D11*
%TO.C,D15*%
X93500000Y45673000D03*
X96800000Y45673000D03*
%TD*%
D10*
%TO.C,S16*%
X121285000Y12255500D03*
X108358000Y14795500D03*
%TD*%
D11*
%TO.C,D16*%
X112550000Y4715500D03*
X115850000Y4715500D03*
%TD*%
D10*
%TO.C,S17*%
X121285000Y31305500D03*
X108358000Y33845500D03*
%TD*%
D11*
%TO.C,D17*%
X112550000Y23765500D03*
X115850000Y23765500D03*
%TD*%
D10*
%TO.C,S18*%
X121285000Y50355500D03*
X108358000Y52895500D03*
%TD*%
D11*
%TO.C,D18*%
X112550000Y42815500D03*
X115850000Y42815500D03*
%TD*%
D10*
%TO.C,S19*%
X83185000Y-6794500D03*
X70258000Y-4254500D03*
%TD*%
D11*
%TO.C,D19*%
X74450000Y-14334500D03*
X77750000Y-14334500D03*
%TD*%
D10*
%TO.C,S20*%
X83185000Y-25844500D03*
X70258000Y-23304500D03*
%TD*%
D11*
%TO.C,D20*%
X74450000Y-33384500D03*
X77750000Y-33384500D03*
%TD*%
D10*
%TO.C,S21*%
X102235000Y-6794500D03*
X89308000Y-4254500D03*
%TD*%
D11*
%TO.C,D21*%
X93500000Y-14334500D03*
X96800000Y-14334500D03*
%TD*%
D10*
%TO.C,S22*%
X102235000Y-25844500D03*
X89308000Y-23304500D03*
%TD*%
D11*
%TO.C,D22*%
X93500000Y-33384500D03*
X96800000Y-33384500D03*
%TD*%
D10*
%TO.C,S23*%
X121285000Y-6794500D03*
X108358000Y-4254500D03*
%TD*%
D11*
%TO.C,D23*%
X112550000Y-14334500D03*
X115850000Y-14334500D03*
%TD*%
D10*
%TO.C,S24*%
X121285000Y-25844500D03*
X108358000Y-23304500D03*
%TD*%
D11*
%TO.C,D24*%
X112550000Y-33384500D03*
X115850000Y-33384500D03*
%TD*%
D10*
%TO.C,S25*%
X140335000Y-6794500D03*
X127408000Y-4254500D03*
%TD*%
D11*
%TO.C,D25*%
X131600000Y-14334500D03*
X134900000Y-14334500D03*
%TD*%
D10*
%TO.C,S26*%
X140335000Y-25844500D03*
X127408000Y-23304500D03*
%TD*%
D11*
%TO.C,D26*%
X131600000Y-33384500D03*
X134900000Y-33384500D03*
%TD*%
M02*
