M48
; DRILL file {KiCad 5.1.5+dfsg1-2build2} date Sat Oct 22 21:51:20 2022
; FORMAT={-:-/ absolute / metric / decimal}
; #@! TF.CreationDate,2022-10-22T21:51:20+00:00
; #@! TF.GenerationSoftware,Kicad,Pcbnew,5.1.5+dfsg1-2build2
FMAT,2
METRIC
T1C0.400
T2C0.900
T3C0.991
T4C1.092
T5C1.300
T6C1.200
T7C1.702
T8C3.000
T9C3.988
%
G90
G05
T1
X25.104Y6.939
X44.413Y30.673
X44.413Y9.634
X44.733Y17.217
X62.992Y57.64
X80.657Y-2.38
X81.992Y64.06
X81.992Y24.293
X82.366Y-13.938
X83.875Y41.444
X100.992Y57.64
X100.992Y-20.803
X102.578Y19.691
X113.033Y21.491
X119.407Y35.94
X120.042Y56.332
X120.042Y-20.636
X120.871Y27.156
X121.46Y22.458
X121.946Y-4.765
X124.315Y33.118
X131.766Y27.925
X133.187Y3.263
X139.092Y-20.803
X140.222Y-1.549
T3
X72.34Y31.385
X79.96Y31.385
X15.24Y33.1
X22.86Y33.1
X91.34Y45.673
X98.96Y45.673
X110.39Y23.765
X118.01Y23.765
X110.39Y42.816
X118.01Y42.816
X110.39Y-33.384
X118.01Y-33.384
X72.34Y12.335
X79.96Y12.335
X53.34Y7.573
X60.96Y7.573
X110.39Y-14.334
X118.01Y-14.334
X91.34Y26.623
X98.96Y26.623
X110.39Y4.715
X118.01Y4.715
X15.24Y14.05
X22.86Y14.05
X91.34Y7.573
X98.96Y7.573
X53.34Y45.673
X60.96Y45.673
X34.29Y33.1
X41.91Y33.1
X91.34Y-33.384
X98.96Y-33.384
X53.34Y26.623
X60.96Y26.623
X91.34Y-14.334
X98.96Y-14.334
X129.44Y-33.384
X137.06Y-33.384
X72.34Y50.435
X79.96Y50.435
X15.24Y-5.0
X22.86Y-5.0
X34.29Y14.05
X41.91Y14.05
X72.29Y-33.384
X79.91Y-33.384
X72.29Y-14.334
X79.91Y-14.334
X129.44Y-14.334
X137.06Y-14.334
X34.29Y-5.0
X41.91Y-5.0
T4
X126.58Y50.785
X126.58Y48.245
X126.58Y45.706
X126.58Y43.166
X126.58Y40.625
X126.58Y38.085
X126.58Y35.545
X126.58Y33.005
X126.58Y30.465
X126.58Y27.925
X126.58Y25.386
X126.58Y22.845
X141.82Y50.785
X141.82Y48.245
X141.82Y45.706
X141.82Y43.166
X141.82Y40.625
X141.82Y38.085
X141.82Y35.545
X141.82Y33.005
X141.82Y30.465
X141.82Y27.925
X141.82Y25.386
X141.82Y22.845
X129.08Y49.535
X129.08Y46.995
X129.08Y44.456
X129.08Y41.916
X129.08Y39.375
X129.08Y36.835
X129.08Y34.295
X129.08Y31.755
X129.08Y29.215
X129.08Y26.675
X129.08Y24.136
X129.08Y21.595
X144.32Y49.535
X144.32Y46.995
X144.32Y44.456
X144.32Y41.916
X144.32Y39.375
X144.32Y36.835
X144.32Y34.295
X144.32Y31.755
X144.32Y29.215
X144.32Y26.675
X144.32Y24.136
X144.32Y21.595
T5
X127.2Y14.316
X127.2Y7.815
T6
X137.6Y12.015
X144.6Y12.015
X137.6Y10.015
X144.6Y10.015
T7
X90.07Y12.573
X100.23Y12.573
X33.02Y38.1
X43.18Y38.1
X90.07Y-9.335
X100.23Y-9.335
X33.02Y19.05
X43.18Y19.05
X128.17Y-28.384
X138.33Y-28.384
X71.07Y55.435
X81.23Y55.435
X71.02Y-28.384
X81.18Y-28.384
X109.12Y9.715
X119.28Y9.715
X71.02Y-9.335
X81.18Y-9.335
X128.17Y-9.335
X138.33Y-9.335
X71.07Y36.386
X81.23Y36.386
X33.02Y0.0
X43.18Y0.0
X90.07Y50.673
X100.23Y50.673
X52.07Y31.623
X62.23Y31.623
X109.12Y-28.384
X119.28Y-28.384
X109.12Y28.765
X119.28Y28.765
X13.97Y38.1
X24.13Y38.1
X109.12Y47.816
X119.28Y47.816
X71.07Y17.335
X81.23Y17.335
X52.07Y12.573
X62.23Y12.573
X109.12Y-9.335
X119.28Y-9.335
X90.07Y31.623
X100.23Y31.623
X52.07Y50.673
X62.23Y50.673
X13.97Y19.05
X24.13Y19.05
X90.07Y-28.384
X100.23Y-28.384
X13.97Y0.0
X24.13Y0.0
T8
X91.34Y53.213
X92.61Y55.753
X97.69Y55.753
X98.96Y53.213
X53.34Y34.163
X54.61Y36.703
X59.69Y36.703
X60.96Y34.163
X110.39Y-25.845
X111.66Y-23.304
X116.74Y-23.304
X118.01Y-25.845
X110.39Y31.305
X111.66Y33.846
X116.74Y33.846
X118.01Y31.305
X15.24Y40.64
X16.51Y43.18
X21.59Y43.18
X22.86Y40.64
X110.39Y50.355
X111.66Y52.895
X116.74Y52.895
X118.01Y50.355
X72.34Y19.875
X73.61Y22.415
X78.69Y22.415
X79.96Y19.875
X53.34Y15.113
X54.61Y17.653
X59.69Y17.653
X60.96Y15.113
X110.39Y-6.794
X111.66Y-4.255
X116.74Y-4.255
X118.01Y-6.794
X91.34Y34.163
X92.61Y36.703
X97.69Y36.703
X98.96Y34.163
X53.34Y53.213
X54.61Y55.753
X59.69Y55.753
X60.96Y53.213
X15.24Y21.59
X16.51Y24.13
X21.59Y24.13
X22.86Y21.59
X91.34Y-25.845
X92.61Y-23.304
X97.69Y-23.304
X98.96Y-25.845
X15.24Y2.54
X16.51Y5.08
X21.59Y5.08
X22.86Y2.54
X91.34Y15.113
X92.61Y17.653
X97.69Y17.653
X98.96Y15.113
X34.29Y40.64
X35.56Y43.18
X40.64Y43.18
X41.91Y40.64
X91.34Y-6.794
X92.61Y-4.255
X97.69Y-4.255
X98.96Y-6.794
X34.29Y21.59
X35.56Y24.13
X40.64Y24.13
X41.91Y21.59
X129.44Y-25.845
X130.71Y-23.304
X135.79Y-23.304
X137.06Y-25.845
X72.34Y57.975
X73.61Y60.515
X78.69Y60.515
X79.96Y57.975
X72.29Y-25.845
X73.56Y-23.304
X78.64Y-23.304
X79.91Y-25.845
X110.39Y12.255
X111.66Y14.795
X116.74Y14.795
X118.01Y12.255
X72.29Y-6.794
X73.56Y-4.255
X78.64Y-4.255
X79.91Y-6.794
X129.44Y-6.794
X130.71Y-4.255
X135.79Y-4.255
X137.06Y-6.794
X72.34Y38.925
X73.61Y41.465
X78.69Y41.465
X79.96Y38.925
X34.29Y2.54
X35.56Y5.08
X40.64Y5.08
X41.91Y2.54
T9
X76.15Y17.335
X57.15Y12.573
X114.2Y-9.335
X95.15Y31.623
X57.15Y50.673
X19.05Y19.05
X95.15Y-28.384
X19.05Y0.0
X95.15Y12.573
X38.1Y38.1
X95.15Y-9.335
X38.1Y19.05
X133.25Y-28.384
X76.15Y55.435
X76.1Y-28.384
X114.2Y9.715
X76.1Y-9.335
X133.25Y-9.335
X76.15Y36.386
X38.1Y0.0
X95.15Y50.673
X57.15Y31.623
X114.2Y-28.384
X114.2Y28.765
X19.05Y38.1
X114.2Y47.816
T2
X135.2Y9.715G85X134.6Y9.715
G05
X136.3Y14.316G85X135.7Y14.316
G05
X140.3Y14.316G85X139.7Y14.316
G05
X143.3Y14.316G85X142.7Y14.316
G05
X135.2Y12.316G85X134.6Y12.316
G05
X136.3Y7.715G85X135.7Y7.715
G05
X140.3Y7.715G85X139.7Y7.715
G05
X143.3Y7.715G85X142.7Y7.715
G05
T0
M30
