%TF.GenerationSoftware,KiCad,Pcbnew,(6.0.8)*%
%TF.CreationDate,2022-10-22T23:29:10+01:00*%
%TF.ProjectId,bottom_plate,626f7474-6f6d-45f7-906c-6174652e6b69,v1.0.0*%
%TF.SameCoordinates,Original*%
%TF.FileFunction,Drillmap*%
%TF.FilePolarity,Positive*%
%FSLAX45Y45*%
G04 Gerber Fmt 4.5, Leading zero omitted, Abs format (unit mm)*
G04 Created by KiCad (PCBNEW (6.0.8)) date 2022-10-22 23:29:10*
%MOMM*%
%LPD*%
G01*
G04 APERTURE LIST*
%ADD10C,0.150000*%
%ADD11C,0.200000*%
G04 APERTURE END LIST*
D10*
X12477500Y-1885950D02*
G75*
G03*
X12477500Y-1885950I-105000J0D01*
G01*
X14620000Y-3690950D02*
X14620000Y5419050D01*
X2962500Y2857500D02*
G75*
G03*
X2962500Y2857500I-105000J0D01*
G01*
X14620000Y5419050D02*
G75*
G03*
X14420000Y5619050I-200000J0D01*
G01*
X10567500Y6019800D02*
G75*
G03*
X10467500Y6119800I-100000J0D01*
G01*
X10572500Y2209800D02*
G75*
G03*
X10572500Y2209800I-105000J0D01*
G01*
X8667500Y-1885950D02*
G75*
G03*
X8667500Y-1885950I-105000J0D01*
G01*
X6557500Y-1896838D02*
X4662500Y-1052500D01*
X852500Y-952500D02*
X852500Y4762500D01*
X10572500Y4114800D02*
G75*
G03*
X10572500Y4114800I-105000J0D01*
G01*
X12372500Y5834050D02*
X10567500Y5834050D01*
X12472500Y5734050D02*
G75*
G03*
X12372500Y5834050I-100000J0D01*
G01*
X952500Y-1052500D02*
X4662500Y-1052500D01*
X4762500Y6119800D02*
G75*
G03*
X4662500Y6019800I0J-100000D01*
G01*
X952500Y4862500D02*
X4662500Y4862500D01*
X10567500Y5834050D02*
X10567500Y6019800D01*
X14420000Y5619050D02*
X12472500Y5619050D01*
X8667500Y6119800D02*
X8667500Y6496050D01*
X10467500Y6119800D02*
X8667500Y6119800D01*
X8667500Y6496050D02*
G75*
G03*
X8567500Y6596050I-100000J0D01*
G01*
X14420000Y-3890950D02*
G75*
G03*
X14620000Y-3690950I0J200000D01*
G01*
X6557500Y-3790950D02*
X6557500Y-1896838D01*
X4662500Y6019800D02*
X4662500Y4862500D01*
X6662500Y6596050D02*
G75*
G03*
X6562500Y6496050I0J-100000D01*
G01*
X6657500Y-3890950D02*
X14420000Y-3890950D01*
X2962500Y952500D02*
G75*
G03*
X2962500Y952500I-105000J0D01*
G01*
X6557500Y-3790950D02*
G75*
G03*
X6657500Y-3890950I100000J0D01*
G01*
X6562500Y6496050D02*
X6562500Y6119800D01*
X6562500Y6119800D02*
X4762500Y6119800D01*
X952500Y4862500D02*
G75*
G03*
X852500Y4762500I0J-100000D01*
G01*
X8567500Y6596050D02*
X6662500Y6596050D01*
X852500Y-952500D02*
G75*
G03*
X952500Y-1052500I100000J0D01*
G01*
X12472500Y5619050D02*
X12472500Y5734050D01*
D11*
X1102619Y-4208926D02*
X1102619Y-4008926D01*
X1150238Y-4008926D01*
X1178810Y-4018450D01*
X1197857Y-4037498D01*
X1207381Y-4056545D01*
X1216905Y-4094640D01*
X1216905Y-4123212D01*
X1207381Y-4161307D01*
X1197857Y-4180355D01*
X1178810Y-4199402D01*
X1150238Y-4208926D01*
X1102619Y-4208926D01*
X1302619Y-4208926D02*
X1302619Y-4075593D01*
X1302619Y-4113688D02*
X1312143Y-4094640D01*
X1321667Y-4085117D01*
X1340714Y-4075593D01*
X1359762Y-4075593D01*
X1426428Y-4208926D02*
X1426428Y-4075593D01*
X1426428Y-4008926D02*
X1416905Y-4018450D01*
X1426428Y-4027974D01*
X1435952Y-4018450D01*
X1426428Y-4008926D01*
X1426428Y-4027974D01*
X1550238Y-4208926D02*
X1531190Y-4199402D01*
X1521667Y-4180355D01*
X1521667Y-4008926D01*
X1655000Y-4208926D02*
X1635952Y-4199402D01*
X1626428Y-4180355D01*
X1626428Y-4008926D01*
X1883571Y-4208926D02*
X1883571Y-4008926D01*
X1950238Y-4151783D01*
X2016905Y-4008926D01*
X2016905Y-4208926D01*
X2197857Y-4208926D02*
X2197857Y-4104164D01*
X2188333Y-4085117D01*
X2169286Y-4075593D01*
X2131190Y-4075593D01*
X2112143Y-4085117D01*
X2197857Y-4199402D02*
X2178810Y-4208926D01*
X2131190Y-4208926D01*
X2112143Y-4199402D01*
X2102619Y-4180355D01*
X2102619Y-4161307D01*
X2112143Y-4142259D01*
X2131190Y-4132736D01*
X2178810Y-4132736D01*
X2197857Y-4123212D01*
X2293095Y-4075593D02*
X2293095Y-4275593D01*
X2293095Y-4085117D02*
X2312143Y-4075593D01*
X2350238Y-4075593D01*
X2369286Y-4085117D01*
X2378810Y-4094640D01*
X2388333Y-4113688D01*
X2388333Y-4170831D01*
X2378810Y-4189878D01*
X2369286Y-4199402D01*
X2350238Y-4208926D01*
X2312143Y-4208926D01*
X2293095Y-4199402D01*
X2474048Y-4189878D02*
X2483571Y-4199402D01*
X2474048Y-4208926D01*
X2464524Y-4199402D01*
X2474048Y-4189878D01*
X2474048Y-4208926D01*
X2474048Y-4085117D02*
X2483571Y-4094640D01*
X2474048Y-4104164D01*
X2464524Y-4094640D01*
X2474048Y-4085117D01*
X2474048Y-4104164D01*
M02*
