%TF.GenerationSoftware,KiCad,Pcbnew,(6.0.8)*%
%TF.CreationDate,2022-10-22T23:39:20+01:00*%
%TF.ProjectId,top_plate,746f705f-706c-4617-9465-2e6b69636164,v1.0.0*%
%TF.SameCoordinates,Original*%
%TF.FileFunction,Legend,Top*%
%TF.FilePolarity,Positive*%
%FSLAX46Y46*%
G04 Gerber Fmt 4.6, Leading zero omitted, Abs format (unit mm)*
G04 Created by KiCad (PCBNEW (6.0.8)) date 2022-10-22 23:39:20*
%MOMM*%
%LPD*%
G01*
G04 APERTURE LIST*
%ADD10C,0.150000*%
G04 APERTURE END LIST*
D10*
X144608571Y-37240571D02*
X144656190Y-37097714D01*
X144703809Y-37050095D01*
X144799047Y-37002476D01*
X144941904Y-37002476D01*
X145037142Y-37050095D01*
X145084761Y-37097714D01*
X145132380Y-37192952D01*
X145132380Y-37573904D01*
X144132380Y-37573904D01*
X144132380Y-37240571D01*
X144180000Y-37145333D01*
X144227619Y-37097714D01*
X144322857Y-37050095D01*
X144418095Y-37050095D01*
X144513333Y-37097714D01*
X144560952Y-37145333D01*
X144608571Y-37240571D01*
X144608571Y-37573904D01*
X145132380Y-36145333D02*
X144608571Y-36145333D01*
X144513333Y-36192952D01*
X144465714Y-36288190D01*
X144465714Y-36478666D01*
X144513333Y-36573904D01*
X145084761Y-36145333D02*
X145132380Y-36240571D01*
X145132380Y-36478666D01*
X145084761Y-36573904D01*
X144989523Y-36621523D01*
X144894285Y-36621523D01*
X144799047Y-36573904D01*
X144751428Y-36478666D01*
X144751428Y-36240571D01*
X144703809Y-36145333D01*
X144465714Y-35764380D02*
X145132380Y-35526285D01*
X144465714Y-35288190D02*
X145132380Y-35526285D01*
X145370476Y-35621523D01*
X145418095Y-35669142D01*
X145465714Y-35764380D01*
X144465714Y-34478666D02*
X145275238Y-34478666D01*
X145370476Y-34526285D01*
X145418095Y-34573904D01*
X145465714Y-34669142D01*
X145465714Y-34812000D01*
X145418095Y-34907238D01*
X145084761Y-34478666D02*
X145132380Y-34573904D01*
X145132380Y-34764380D01*
X145084761Y-34859619D01*
X145037142Y-34907238D01*
X144941904Y-34954857D01*
X144656190Y-34954857D01*
X144560952Y-34907238D01*
X144513333Y-34859619D01*
X144465714Y-34764380D01*
X144465714Y-34573904D01*
X144513333Y-34478666D01*
X144465714Y-33573904D02*
X145132380Y-33573904D01*
X144465714Y-34002476D02*
X144989523Y-34002476D01*
X145084761Y-33954857D01*
X145132380Y-33859619D01*
X145132380Y-33716761D01*
X145084761Y-33621523D01*
X145037142Y-33573904D01*
X145132380Y-32954857D02*
X145084761Y-33050095D01*
X144989523Y-33097714D01*
X144132380Y-33097714D01*
X145132380Y-32431047D02*
X145084761Y-32526285D01*
X144989523Y-32573904D01*
X144132380Y-32573904D01*
X144608571Y-30954857D02*
X144656190Y-30812000D01*
X144703809Y-30764380D01*
X144799047Y-30716761D01*
X144941904Y-30716761D01*
X145037142Y-30764380D01*
X145084761Y-30812000D01*
X145132380Y-30907238D01*
X145132380Y-31288190D01*
X144132380Y-31288190D01*
X144132380Y-30954857D01*
X144180000Y-30859619D01*
X144227619Y-30812000D01*
X144322857Y-30764380D01*
X144418095Y-30764380D01*
X144513333Y-30812000D01*
X144560952Y-30859619D01*
X144608571Y-30954857D01*
X144608571Y-31288190D01*
X145132380Y-30145333D02*
X145084761Y-30240571D01*
X145037142Y-30288190D01*
X144941904Y-30335809D01*
X144656190Y-30335809D01*
X144560952Y-30288190D01*
X144513333Y-30240571D01*
X144465714Y-30145333D01*
X144465714Y-30002476D01*
X144513333Y-29907238D01*
X144560952Y-29859619D01*
X144656190Y-29812000D01*
X144941904Y-29812000D01*
X145037142Y-29859619D01*
X145084761Y-29907238D01*
X145132380Y-30002476D01*
X145132380Y-30145333D01*
X145132380Y-28954857D02*
X144608571Y-28954857D01*
X144513333Y-29002476D01*
X144465714Y-29097714D01*
X144465714Y-29288190D01*
X144513333Y-29383428D01*
X145084761Y-28954857D02*
X145132380Y-29050095D01*
X145132380Y-29288190D01*
X145084761Y-29383428D01*
X144989523Y-29431047D01*
X144894285Y-29431047D01*
X144799047Y-29383428D01*
X144751428Y-29288190D01*
X144751428Y-29050095D01*
X144703809Y-28954857D01*
X145132380Y-28478666D02*
X144465714Y-28478666D01*
X144656190Y-28478666D02*
X144560952Y-28431047D01*
X144513333Y-28383428D01*
X144465714Y-28288190D01*
X144465714Y-28192952D01*
X145132380Y-27431047D02*
X144132380Y-27431047D01*
X145084761Y-27431047D02*
X145132380Y-27526285D01*
X145132380Y-27716761D01*
X145084761Y-27812000D01*
X145037142Y-27859619D01*
X144941904Y-27907238D01*
X144656190Y-27907238D01*
X144560952Y-27859619D01*
X144513333Y-27812000D01*
X144465714Y-27716761D01*
X144465714Y-27526285D01*
X144513333Y-27431047D01*
X144465714Y-26288190D02*
X145132380Y-26050095D01*
X144465714Y-25812000D01*
X144132380Y-25240571D02*
X144132380Y-25145333D01*
X144180000Y-25050095D01*
X144227619Y-25002476D01*
X144322857Y-24954857D01*
X144513333Y-24907238D01*
X144751428Y-24907238D01*
X144941904Y-24954857D01*
X145037142Y-25002476D01*
X145084761Y-25050095D01*
X145132380Y-25145333D01*
X145132380Y-25240571D01*
X145084761Y-25335809D01*
X145037142Y-25383428D01*
X144941904Y-25431047D01*
X144751428Y-25478666D01*
X144513333Y-25478666D01*
X144322857Y-25431047D01*
X144227619Y-25383428D01*
X144180000Y-25335809D01*
X144132380Y-25240571D01*
X145037142Y-24478666D02*
X145084761Y-24431047D01*
X145132380Y-24478666D01*
X145084761Y-24526285D01*
X145037142Y-24478666D01*
X145132380Y-24478666D01*
X145132380Y-23478666D02*
X145132380Y-24050095D01*
X145132380Y-23764380D02*
X144132380Y-23764380D01*
X144275238Y-23859619D01*
X144370476Y-23954857D01*
X144418095Y-24050095D01*
X144227619Y-22335809D02*
X144180000Y-22288190D01*
X144132380Y-22192952D01*
X144132380Y-21954857D01*
X144180000Y-21859619D01*
X144227619Y-21812000D01*
X144322857Y-21764380D01*
X144418095Y-21764380D01*
X144560952Y-21812000D01*
X145132380Y-22383428D01*
X145132380Y-21764380D01*
X144132380Y-21145333D02*
X144132380Y-21050095D01*
X144180000Y-20954857D01*
X144227619Y-20907238D01*
X144322857Y-20859619D01*
X144513333Y-20812000D01*
X144751428Y-20812000D01*
X144941904Y-20859619D01*
X145037142Y-20907238D01*
X145084761Y-20954857D01*
X145132380Y-21050095D01*
X145132380Y-21145333D01*
X145084761Y-21240571D01*
X145037142Y-21288190D01*
X144941904Y-21335809D01*
X144751428Y-21383428D01*
X144513333Y-21383428D01*
X144322857Y-21335809D01*
X144227619Y-21288190D01*
X144180000Y-21240571D01*
X144132380Y-21145333D01*
X144227619Y-20431047D02*
X144180000Y-20383428D01*
X144132380Y-20288190D01*
X144132380Y-20050095D01*
X144180000Y-19954857D01*
X144227619Y-19907238D01*
X144322857Y-19859619D01*
X144418095Y-19859619D01*
X144560952Y-19907238D01*
X145132380Y-20478666D01*
X145132380Y-19859619D01*
X144227619Y-19478666D02*
X144180000Y-19431047D01*
X144132380Y-19335809D01*
X144132380Y-19097714D01*
X144180000Y-19002476D01*
X144227619Y-18954857D01*
X144322857Y-18907238D01*
X144418095Y-18907238D01*
X144560952Y-18954857D01*
X145132380Y-19526285D01*
X145132380Y-18907238D01*
X144751428Y-18478666D02*
X144751428Y-17716761D01*
X145132380Y-16716761D02*
X145132380Y-17288190D01*
X145132380Y-17002476D02*
X144132380Y-17002476D01*
X144275238Y-17097714D01*
X144370476Y-17192952D01*
X144418095Y-17288190D01*
X144132380Y-16097714D02*
X144132380Y-16002476D01*
X144180000Y-15907238D01*
X144227619Y-15859619D01*
X144322857Y-15812000D01*
X144513333Y-15764380D01*
X144751428Y-15764380D01*
X144941904Y-15812000D01*
X145037142Y-15859619D01*
X145084761Y-15907238D01*
X145132380Y-16002476D01*
X145132380Y-16097714D01*
X145084761Y-16192952D01*
X145037142Y-16240571D01*
X144941904Y-16288190D01*
X144751428Y-16335809D01*
X144513333Y-16335809D01*
X144322857Y-16288190D01*
X144227619Y-16240571D01*
X144180000Y-16192952D01*
X144132380Y-16097714D01*
X144751428Y-15335809D02*
X144751428Y-14573904D01*
X145132380Y-13573904D02*
X145132380Y-14145333D01*
X145132380Y-13859619D02*
X144132380Y-13859619D01*
X144275238Y-13954857D01*
X144370476Y-14050095D01*
X144418095Y-14145333D01*
X144132380Y-12716761D02*
X144132380Y-12907238D01*
X144180000Y-13002476D01*
X144227619Y-13050095D01*
X144370476Y-13145333D01*
X144560952Y-13192952D01*
X144941904Y-13192952D01*
X145037142Y-13145333D01*
X145084761Y-13097714D01*
X145132380Y-13002476D01*
X145132380Y-12812000D01*
X145084761Y-12716761D01*
X145037142Y-12669142D01*
X144941904Y-12621523D01*
X144703809Y-12621523D01*
X144608571Y-12669142D01*
X144560952Y-12716761D01*
X144513333Y-12812000D01*
X144513333Y-13002476D01*
X144560952Y-13097714D01*
X144608571Y-13145333D01*
X144703809Y-13192952D01*
X144132380Y-10618190D02*
X144846666Y-10618190D01*
X144989523Y-10665809D01*
X145084761Y-10761047D01*
X145132380Y-10903904D01*
X145132380Y-10999142D01*
X145132380Y-9665809D02*
X145132380Y-10142000D01*
X144132380Y-10142000D01*
X145037142Y-8761047D02*
X145084761Y-8808666D01*
X145132380Y-8951523D01*
X145132380Y-9046761D01*
X145084761Y-9189619D01*
X144989523Y-9284857D01*
X144894285Y-9332476D01*
X144703809Y-9380095D01*
X144560952Y-9380095D01*
X144370476Y-9332476D01*
X144275238Y-9284857D01*
X144180000Y-9189619D01*
X144132380Y-9046761D01*
X144132380Y-8951523D01*
X144180000Y-8808666D01*
X144227619Y-8761047D01*
X144132380Y-8046761D02*
X144846666Y-8046761D01*
X144989523Y-8094380D01*
X145084761Y-8189619D01*
X145132380Y-8332476D01*
X145132380Y-8427714D01*
X145132380Y-7094380D02*
X145132380Y-7570571D01*
X144132380Y-7570571D01*
X145037142Y-6189619D02*
X145084761Y-6237238D01*
X145132380Y-6380095D01*
X145132380Y-6475333D01*
X145084761Y-6618190D01*
X144989523Y-6713428D01*
X144894285Y-6761047D01*
X144703809Y-6808666D01*
X144560952Y-6808666D01*
X144370476Y-6761047D01*
X144275238Y-6713428D01*
X144180000Y-6618190D01*
X144132380Y-6475333D01*
X144132380Y-6380095D01*
X144180000Y-6237238D01*
X144227619Y-6189619D01*
X144132380Y-5475333D02*
X144846666Y-5475333D01*
X144989523Y-5522952D01*
X145084761Y-5618190D01*
X145132380Y-5761047D01*
X145132380Y-5856285D01*
X145132380Y-4522952D02*
X145132380Y-4999142D01*
X144132380Y-4999142D01*
X145037142Y-3618190D02*
X145084761Y-3665809D01*
X145132380Y-3808666D01*
X145132380Y-3903904D01*
X145084761Y-4046761D01*
X144989523Y-4142000D01*
X144894285Y-4189619D01*
X144703809Y-4237238D01*
X144560952Y-4237238D01*
X144370476Y-4189619D01*
X144275238Y-4142000D01*
X144180000Y-4046761D01*
X144132380Y-3903904D01*
X144132380Y-3808666D01*
X144180000Y-3665809D01*
X144227619Y-3618190D01*
X144132380Y-2903904D02*
X144846666Y-2903904D01*
X144989523Y-2951523D01*
X145084761Y-3046761D01*
X145132380Y-3189619D01*
X145132380Y-3284857D01*
X145132380Y-1951523D02*
X145132380Y-2427714D01*
X144132380Y-2427714D01*
X145037142Y-1046761D02*
X145084761Y-1094380D01*
X145132380Y-1237238D01*
X145132380Y-1332476D01*
X145084761Y-1475333D01*
X144989523Y-1570571D01*
X144894285Y-1618190D01*
X144703809Y-1665809D01*
X144560952Y-1665809D01*
X144370476Y-1618190D01*
X144275238Y-1570571D01*
X144180000Y-1475333D01*
X144132380Y-1332476D01*
X144132380Y-1237238D01*
X144180000Y-1094380D01*
X144227619Y-1046761D01*
X51102380Y-3409880D02*
X51340476Y-4409880D01*
X51530952Y-3695595D01*
X51721428Y-4409880D01*
X51959523Y-3409880D01*
X52340476Y-4409880D02*
X52340476Y-3409880D01*
X52769047Y-4409880D02*
X52769047Y-3886071D01*
X52721428Y-3790833D01*
X52626190Y-3743214D01*
X52483333Y-3743214D01*
X52388095Y-3790833D01*
X52340476Y-3838452D01*
X53150000Y-3743214D02*
X53388095Y-4409880D01*
X53626190Y-3743214D02*
X53388095Y-4409880D01*
X53292857Y-4647976D01*
X53245238Y-4695595D01*
X53150000Y-4743214D01*
X55197619Y-4409880D02*
X55197619Y-3409880D01*
X55197619Y-4362261D02*
X55102380Y-4409880D01*
X54911904Y-4409880D01*
X54816666Y-4362261D01*
X54769047Y-4314642D01*
X54721428Y-4219404D01*
X54721428Y-3933690D01*
X54769047Y-3838452D01*
X54816666Y-3790833D01*
X54911904Y-3743214D01*
X55102380Y-3743214D01*
X55197619Y-3790833D01*
X55816666Y-4409880D02*
X55721428Y-4362261D01*
X55673809Y-4314642D01*
X55626190Y-4219404D01*
X55626190Y-3933690D01*
X55673809Y-3838452D01*
X55721428Y-3790833D01*
X55816666Y-3743214D01*
X55959523Y-3743214D01*
X56054761Y-3790833D01*
X56102380Y-3838452D01*
X56150000Y-3933690D01*
X56150000Y-4219404D01*
X56102380Y-4314642D01*
X56054761Y-4362261D01*
X55959523Y-4409880D01*
X55816666Y-4409880D01*
X57292857Y-4362261D02*
X57388095Y-4409880D01*
X57578571Y-4409880D01*
X57673809Y-4362261D01*
X57721428Y-4267023D01*
X57721428Y-4219404D01*
X57673809Y-4124166D01*
X57578571Y-4076547D01*
X57435714Y-4076547D01*
X57340476Y-4028928D01*
X57292857Y-3933690D01*
X57292857Y-3886071D01*
X57340476Y-3790833D01*
X57435714Y-3743214D01*
X57578571Y-3743214D01*
X57673809Y-3790833D01*
X58530952Y-4362261D02*
X58435714Y-4409880D01*
X58245238Y-4409880D01*
X58150000Y-4362261D01*
X58102380Y-4267023D01*
X58102380Y-3886071D01*
X58150000Y-3790833D01*
X58245238Y-3743214D01*
X58435714Y-3743214D01*
X58530952Y-3790833D01*
X58578571Y-3886071D01*
X58578571Y-3981309D01*
X58102380Y-4076547D01*
X59435714Y-4409880D02*
X59435714Y-3886071D01*
X59388095Y-3790833D01*
X59292857Y-3743214D01*
X59102380Y-3743214D01*
X59007142Y-3790833D01*
X59435714Y-4362261D02*
X59340476Y-4409880D01*
X59102380Y-4409880D01*
X59007142Y-4362261D01*
X58959523Y-4267023D01*
X58959523Y-4171785D01*
X59007142Y-4076547D01*
X59102380Y-4028928D01*
X59340476Y-4028928D01*
X59435714Y-3981309D01*
X60340476Y-3743214D02*
X60340476Y-4552738D01*
X60292857Y-4647976D01*
X60245238Y-4695595D01*
X60150000Y-4743214D01*
X60007142Y-4743214D01*
X59911904Y-4695595D01*
X60340476Y-4362261D02*
X60245238Y-4409880D01*
X60054761Y-4409880D01*
X59959523Y-4362261D01*
X59911904Y-4314642D01*
X59864285Y-4219404D01*
X59864285Y-3933690D01*
X59911904Y-3838452D01*
X59959523Y-3790833D01*
X60054761Y-3743214D01*
X60245238Y-3743214D01*
X60340476Y-3790833D01*
X61245238Y-3743214D02*
X61245238Y-4409880D01*
X60816666Y-3743214D02*
X60816666Y-4267023D01*
X60864285Y-4362261D01*
X60959523Y-4409880D01*
X61102380Y-4409880D01*
X61197619Y-4362261D01*
X61245238Y-4314642D01*
X61864285Y-4409880D02*
X61769047Y-4362261D01*
X61721428Y-4267023D01*
X61721428Y-3409880D01*
X62388095Y-4409880D02*
X62292857Y-4362261D01*
X62245238Y-4267023D01*
X62245238Y-3409880D01*
X62721428Y-4362261D02*
X62816666Y-4409880D01*
X63007142Y-4409880D01*
X63102380Y-4362261D01*
X63150000Y-4267023D01*
X63150000Y-4219404D01*
X63102380Y-4124166D01*
X63007142Y-4076547D01*
X62864285Y-4076547D01*
X62769047Y-4028928D01*
X62721428Y-3933690D01*
X62721428Y-3886071D01*
X62769047Y-3790833D01*
X62864285Y-3743214D01*
X63007142Y-3743214D01*
X63102380Y-3790833D01*
X53007142Y-6019880D02*
X52911904Y-5972261D01*
X52864285Y-5877023D01*
X52864285Y-5019880D01*
X53388095Y-6019880D02*
X53388095Y-5353214D01*
X53388095Y-5019880D02*
X53340476Y-5067500D01*
X53388095Y-5115119D01*
X53435714Y-5067500D01*
X53388095Y-5019880D01*
X53388095Y-5115119D01*
X53769047Y-5353214D02*
X54007142Y-6019880D01*
X54245238Y-5353214D01*
X55007142Y-5972261D02*
X54911904Y-6019880D01*
X54721428Y-6019880D01*
X54626190Y-5972261D01*
X54578571Y-5877023D01*
X54578571Y-5496071D01*
X54626190Y-5400833D01*
X54721428Y-5353214D01*
X54911904Y-5353214D01*
X55007142Y-5400833D01*
X55054761Y-5496071D01*
X55054761Y-5591309D01*
X54578571Y-5686547D01*
X56673809Y-6019880D02*
X56673809Y-5496071D01*
X56626190Y-5400833D01*
X56530952Y-5353214D01*
X56340476Y-5353214D01*
X56245238Y-5400833D01*
X56673809Y-5972261D02*
X56578571Y-6019880D01*
X56340476Y-6019880D01*
X56245238Y-5972261D01*
X56197619Y-5877023D01*
X56197619Y-5781785D01*
X56245238Y-5686547D01*
X56340476Y-5638928D01*
X56578571Y-5638928D01*
X56673809Y-5591309D01*
X57007142Y-5353214D02*
X57388095Y-5353214D01*
X57150000Y-5019880D02*
X57150000Y-5877023D01*
X57197619Y-5972261D01*
X57292857Y-6019880D01*
X57388095Y-6019880D01*
X58435714Y-5972261D02*
X58530952Y-6019880D01*
X58721428Y-6019880D01*
X58816666Y-5972261D01*
X58864285Y-5877023D01*
X58864285Y-5829404D01*
X58816666Y-5734166D01*
X58721428Y-5686547D01*
X58578571Y-5686547D01*
X58483333Y-5638928D01*
X58435714Y-5543690D01*
X58435714Y-5496071D01*
X58483333Y-5400833D01*
X58578571Y-5353214D01*
X58721428Y-5353214D01*
X58816666Y-5400833D01*
X59673809Y-5972261D02*
X59578571Y-6019880D01*
X59388095Y-6019880D01*
X59292857Y-5972261D01*
X59245238Y-5877023D01*
X59245238Y-5496071D01*
X59292857Y-5400833D01*
X59388095Y-5353214D01*
X59578571Y-5353214D01*
X59673809Y-5400833D01*
X59721428Y-5496071D01*
X59721428Y-5591309D01*
X59245238Y-5686547D01*
X60578571Y-6019880D02*
X60578571Y-5496071D01*
X60530952Y-5400833D01*
X60435714Y-5353214D01*
X60245238Y-5353214D01*
X60150000Y-5400833D01*
X60578571Y-5972261D02*
X60483333Y-6019880D01*
X60245238Y-6019880D01*
X60150000Y-5972261D01*
X60102380Y-5877023D01*
X60102380Y-5781785D01*
X60150000Y-5686547D01*
X60245238Y-5638928D01*
X60483333Y-5638928D01*
X60578571Y-5591309D01*
X61197619Y-5924642D02*
X61245238Y-5972261D01*
X61197619Y-6019880D01*
X61150000Y-5972261D01*
X61197619Y-5924642D01*
X61197619Y-6019880D01*
X61007142Y-5067500D02*
X61102380Y-5019880D01*
X61340476Y-5019880D01*
X61435714Y-5067500D01*
X61483333Y-5162738D01*
X61483333Y-5257976D01*
X61435714Y-5353214D01*
X61388095Y-5400833D01*
X61292857Y-5448452D01*
X61245238Y-5496071D01*
X61197619Y-5591309D01*
X61197619Y-5638928D01*
M02*
