%TF.GenerationSoftware,KiCad,Pcbnew,(6.0.8)*%
%TF.CreationDate,2022-10-22T23:39:21+01:00*%
%TF.ProjectId,top_plate,746f705f-706c-4617-9465-2e6b69636164,v1.0.0*%
%TF.SameCoordinates,Original*%
%TF.FileFunction,Profile,NP*%
%FSLAX46Y46*%
G04 Gerber Fmt 4.6, Leading zero omitted, Abs format (unit mm)*
G04 Created by KiCad (PCBNEW (6.0.8)) date 2022-10-22 23:39:21*
%MOMM*%
%LPD*%
G01*
G04 APERTURE LIST*
%TA.AperFunction,Profile*%
%ADD10C,0.150000*%
%TD*%
G04 APERTURE END LIST*
D10*
X64150000Y57673000D02*
X50150000Y57673000D01*
X88150000Y-2334500D02*
X88150000Y-16334500D01*
X12050000Y31100000D02*
X26050000Y31100000D01*
X102150000Y19573000D02*
X88150000Y19573000D01*
X107200000Y-16334500D02*
X121200000Y-16334500D01*
X105675000Y58340500D02*
X105675000Y60198000D01*
X140250000Y-2334500D02*
X126250000Y-2334500D01*
X140250000Y-16334500D02*
X140250000Y-2334500D01*
X45100000Y45100000D02*
X31100000Y45100000D01*
X26050000Y-7000000D02*
X26050000Y7000000D01*
X69100000Y-2334500D02*
X69100000Y-16334500D01*
X26050000Y31100000D02*
X26050000Y45100000D01*
X69150000Y48435500D02*
X83150000Y48435500D01*
X83100000Y-16334500D02*
X83100000Y-2334500D01*
X102150000Y24623000D02*
X102150000Y38623000D01*
X50150000Y5573000D02*
X64150000Y5573000D01*
X45100000Y12050000D02*
X45100000Y26050000D01*
X83150000Y29385500D02*
X83150000Y43385500D01*
X31100000Y45100000D02*
X31100000Y31100000D01*
X64150000Y19573000D02*
X50150000Y19573000D01*
X121200000Y16715500D02*
X107200000Y16715500D01*
X12050000Y26050000D02*
X12050000Y12050000D01*
X8525000Y-9525000D02*
X8525000Y47625000D01*
X83100000Y-2334500D02*
X69100000Y-2334500D01*
X124725000Y57340500D02*
G75*
G03*
X123725000Y58340500I-1000000J0D01*
G01*
X64150000Y5573000D02*
X64150000Y19573000D01*
X107200000Y2715500D02*
X121200000Y2715500D01*
X26050000Y45100000D02*
X12050000Y45100000D01*
X83100000Y-35384500D02*
X83100000Y-21384500D01*
X26050000Y26050000D02*
X12050000Y26050000D01*
X140250000Y-21384500D02*
X126250000Y-21384500D01*
X83150000Y24335500D02*
X69150000Y24335500D01*
X86675000Y61198000D02*
X86675000Y64960500D01*
X69150000Y29385500D02*
X83150000Y29385500D01*
X66575000Y-38909500D02*
X144195000Y-38909500D01*
X88150000Y38623000D02*
X88150000Y24623000D01*
X126250000Y-21384500D02*
X126250000Y-35384500D01*
X124775000Y-18859500D02*
G75*
G03*
X124775000Y-18859500I-1050000J0D01*
G01*
X64150000Y43673000D02*
X64150000Y57673000D01*
X83100000Y-21384500D02*
X69100000Y-21384500D01*
X121200000Y21765500D02*
X121200000Y35765500D01*
X124725000Y1190500D02*
X124725000Y57340500D01*
X9525000Y48625000D02*
G75*
G03*
X8525000Y47625000I0J-1000000D01*
G01*
X140250000Y-35384500D02*
X140250000Y-21384500D01*
X107200000Y21765500D02*
X121200000Y21765500D01*
X126250000Y-16334500D02*
X140250000Y-16334500D01*
X85675000Y65960500D02*
X66625000Y65960500D01*
X126250000Y-35384500D02*
X140250000Y-35384500D01*
X88150000Y43673000D02*
X102150000Y43673000D01*
X102150000Y-35384500D02*
X102150000Y-21384500D01*
X47625000Y61198000D02*
G75*
G03*
X46625000Y60198000I0J-1000000D01*
G01*
X12050000Y45100000D02*
X12050000Y31100000D01*
X83150000Y43385500D02*
X69150000Y43385500D01*
X121200000Y-2334500D02*
X107200000Y-2334500D01*
X29625000Y9525000D02*
G75*
G03*
X29625000Y9525000I-1050000J0D01*
G01*
X69100000Y-35384500D02*
X83100000Y-35384500D01*
X66625000Y65960500D02*
G75*
G03*
X65625000Y64960500I0J-1000000D01*
G01*
X88150000Y5573000D02*
X102150000Y5573000D01*
X8525000Y-9525000D02*
G75*
G03*
X9525000Y-10525000I1000000J0D01*
G01*
X65625000Y64960500D02*
X65625000Y61198000D01*
X102150000Y5573000D02*
X102150000Y19573000D01*
X31100000Y26050000D02*
X31100000Y12050000D01*
X83150000Y48435500D02*
X83150000Y62435500D01*
X45100000Y-7000000D02*
X45100000Y7000000D01*
X31100000Y12050000D02*
X45100000Y12050000D01*
X107200000Y-2334500D02*
X107200000Y-16334500D01*
X29625000Y28575000D02*
G75*
G03*
X29625000Y28575000I-1050000J0D01*
G01*
X45100000Y31100000D02*
X45100000Y45100000D01*
X50150000Y57673000D02*
X50150000Y43673000D01*
X88150000Y57673000D02*
X88150000Y43673000D01*
X69150000Y62435500D02*
X69150000Y48435500D01*
X88150000Y-35384500D02*
X102150000Y-35384500D01*
X50150000Y43673000D02*
X64150000Y43673000D01*
X65625000Y61198000D02*
X47625000Y61198000D01*
X65575000Y-37909500D02*
X65575000Y-18968378D01*
X88150000Y-21384500D02*
X88150000Y-35384500D01*
X105675000Y60198000D02*
G75*
G03*
X104675000Y61198000I-1000000J0D01*
G01*
X126250000Y-2334500D02*
X126250000Y-16334500D01*
X104675000Y61198000D02*
X86675000Y61198000D01*
X88150000Y24623000D02*
X102150000Y24623000D01*
X121200000Y35765500D02*
X107200000Y35765500D01*
X121200000Y54815500D02*
X107200000Y54815500D01*
X102150000Y-16334500D02*
X102150000Y-2334500D01*
X105725000Y22098000D02*
G75*
G03*
X105725000Y22098000I-1050000J0D01*
G01*
X123725000Y58340500D02*
X105675000Y58340500D01*
X121200000Y40815500D02*
X121200000Y54815500D01*
X12050000Y7000000D02*
X12050000Y-7000000D01*
X46625000Y60198000D02*
X46625000Y48625000D01*
X9525000Y48625000D02*
X46625000Y48625000D01*
X69150000Y10335500D02*
X83150000Y10335500D01*
X107200000Y-21384500D02*
X107200000Y-35384500D01*
X86675000Y64960500D02*
G75*
G03*
X85675000Y65960500I-1000000J0D01*
G01*
X107200000Y54815500D02*
X107200000Y40815500D01*
X121200000Y2715500D02*
X121200000Y16715500D01*
X102150000Y38623000D02*
X88150000Y38623000D01*
X121200000Y-16334500D02*
X121200000Y-2334500D01*
X64150000Y24623000D02*
X64150000Y38623000D01*
X107200000Y16715500D02*
X107200000Y2715500D01*
X144195000Y-38909500D02*
G75*
G03*
X146195000Y-36909500I0J2000000D01*
G01*
X50150000Y38623000D02*
X50150000Y24623000D01*
X65575000Y-18968378D02*
X46625000Y-10525000D01*
X121200000Y-35384500D02*
X121200000Y-21384500D01*
X88150000Y19573000D02*
X88150000Y5573000D01*
X88150000Y-16334500D02*
X102150000Y-16334500D01*
X31100000Y7000000D02*
X31100000Y-7000000D01*
X69100000Y-21384500D02*
X69100000Y-35384500D01*
X107200000Y-35384500D02*
X121200000Y-35384500D01*
X83150000Y62435500D02*
X69150000Y62435500D01*
X69150000Y24335500D02*
X69150000Y10335500D01*
X26050000Y12050000D02*
X26050000Y26050000D01*
X121200000Y-21384500D02*
X107200000Y-21384500D01*
X65575000Y-37909500D02*
G75*
G03*
X66575000Y-38909500I1000000J0D01*
G01*
X50150000Y19573000D02*
X50150000Y5573000D01*
X105725000Y41148000D02*
G75*
G03*
X105725000Y41148000I-1050000J0D01*
G01*
X146195000Y-809500D02*
G75*
G03*
X144195000Y1190500I-2000000J0D01*
G01*
X102150000Y-21384500D02*
X88150000Y-21384500D01*
X102150000Y-2334500D02*
X88150000Y-2334500D01*
X31100000Y31100000D02*
X45100000Y31100000D01*
X86675000Y-18859500D02*
G75*
G03*
X86675000Y-18859500I-1050000J0D01*
G01*
X107200000Y40815500D02*
X121200000Y40815500D01*
X45100000Y7000000D02*
X31100000Y7000000D01*
X69150000Y43385500D02*
X69150000Y29385500D01*
X45100000Y26050000D02*
X31100000Y26050000D01*
X69100000Y-16334500D02*
X83100000Y-16334500D01*
X50150000Y24623000D02*
X64150000Y24623000D01*
X9525000Y-10525000D02*
X46625000Y-10525000D01*
X146195000Y-36909500D02*
X146195000Y-809500D01*
X107200000Y35765500D02*
X107200000Y21765500D01*
X12050000Y12050000D02*
X26050000Y12050000D01*
X64150000Y38623000D02*
X50150000Y38623000D01*
X31100000Y-7000000D02*
X45100000Y-7000000D01*
X26050000Y7000000D02*
X12050000Y7000000D01*
X102150000Y43673000D02*
X102150000Y57673000D01*
X124725000Y1190500D02*
X144195000Y1190500D01*
X102150000Y57673000D02*
X88150000Y57673000D01*
X83150000Y10335500D02*
X83150000Y24335500D01*
X12050000Y-7000000D02*
X26050000Y-7000000D01*
M02*
