0
SECTION
2
HEADER
9
$INSUNITS
70
4
0
ENDSEC
0
SECTION
2
TABLES
0
TABLE
2
LTYPE
0
LTYPE
72
65
70
64
2
CONTINUOUS
3
______
73
0
40
0
0
ENDTAB
0
TABLE
2
LAYER
0
ENDTAB
0
ENDSEC
0
SECTION
2
ENTITIES
0
LINE
8
0
10
10.525
20
-9.525
11
27.575
21
-9.525
0
ARC
8
0
10
27.575
20
-8.525
40
1
50
270
51
360
0
ARC
8
0
10
27.575
20
8.525
40
1
50
0
51
90
0
ARC
8
0
10
10.525
20
8.525
40
1
50
90
51
180
0
LINE
8
0
10
9.525
20
8.525
11
9.525
21
-8.525
0
ARC
8
0
10
10.525
20
-8.525
40
1
50
180
51
270
0
ARC
8
0
10
27.575
20
10.525
40
1
50
270
51
360
0
ARC
8
0
10
27.575
20
27.575
40
1
50
0
51
90
0
ARC
8
0
10
10.525
20
27.575
40
1
50
90
51
180
0
LINE
8
0
10
9.525
20
27.575
11
9.525
21
10.525
0
ARC
8
0
10
10.525
20
10.525
40
1
50
180
51
270
0
ARC
8
0
10
27.575
20
29.575
40
1
50
270
51
360
0
ARC
8
0
10
27.575
20
46.625
40
1
50
0
51
90
0
LINE
8
0
10
27.575
20
47.625
11
10.525
21
47.625
0
ARC
8
0
10
10.525
20
46.625
40
1
50
90
51
180
0
LINE
8
0
10
9.525
20
46.625
11
9.525
21
29.575
0
ARC
8
0
10
10.525
20
29.575
40
1
50
180
51
270
0
LINE
8
0
10
29.575
20
-9.525
11
46.625
21
-9.525
0
ARC
8
0
10
46.625
20
-8.525
40
1
50
270
51
360
0
LINE
8
0
10
47.625
20
-8.525
11
47.625
21
4.048
0
ARC
8
0
10
46.625
20
8.525
40
1
50
0
51
90
0
ARC
8
0
10
29.575
20
8.525
40
1
50
90
51
180
0
ARC
8
0
10
29.575
20
-8.525
40
1
50
180
51
270
0
ARC
8
0
10
46.625
20
10.525
40
1
50
270
51
360
0
LINE
8
0
10
47.625
20
21.098
11
47.625
21
23.098
0
ARC
8
0
10
46.625
20
27.575
40
1
50
0
51
90
0
ARC
8
0
10
29.575
20
27.575
40
1
50
90
51
180
0
ARC
8
0
10
29.575
20
10.525
40
1
50
180
51
270
0
ARC
8
0
10
46.625
20
29.575
40
1
50
270
51
360
0
LINE
8
0
10
47.625
20
40.148
11
47.625
21
42.148
0
ARC
8
0
10
46.625
20
46.625
40
1
50
0
51
90
0
LINE
8
0
10
46.625
20
47.625
11
29.575
21
47.625
0
ARC
8
0
10
29.575
20
46.625
40
1
50
90
51
180
0
ARC
8
0
10
29.575
20
29.575
40
1
50
180
51
270
0
LINE
8
0
10
48.625
20
3.048
11
65.675
21
3.048
0
ARC
8
0
10
65.675
20
4.048
40
1
50
270
51
360
0
LINE
8
0
10
66.675
20
4.048
11
66.675
21
8.4982501
0
ARC
8
0
10
65.675
20
21.098
40
1
50
18.1948723
51
90
0
ARC
8
0
10
48.625
20
21.098
40
1
50
90
51
180
0
LINE
8
0
10
47.625
20
10.525
11
47.625
21
8.525
0
ARC
8
0
10
48.625
20
4.048
40
1
50
180
51
270
0
ARC
8
0
10
65.675
20
23.098
40
1
50
270
51
341.8051277
0
LINE
8
0
10
66.675
20
26.1727499
11
66.675
21
27.5482501
0
ARC
8
0
10
65.675
20
40.148
40
1
50
18.1948723
51
90
0
ARC
8
0
10
48.625
20
40.148
40
1
50
90
51
180
0
LINE
8
0
10
47.625
20
29.575
11
47.625
21
27.575
0
ARC
8
0
10
48.625
20
23.098
40
1
50
180
51
270
0
ARC
8
0
10
65.675
20
42.148
40
1
50
270
51
341.8051277
0
LINE
8
0
10
66.675
20
45.2227499
11
66.675
21
46.5982501
0
ARC
8
0
10
65.675
20
59.198
40
1
50
18.1948723
51
90
0
LINE
8
0
10
65.675
20
60.198
11
48.625
21
60.198
0
ARC
8
0
10
48.625
20
59.198
40
1
50
90
51
180
0
LINE
8
0
10
47.625
20
59.198
11
47.625
21
46.625
0
ARC
8
0
10
48.625
20
42.148
40
1
50
180
51
270
0
LINE
8
0
10
67.625
20
7.8105
11
84.675
21
7.8105
0
ARC
8
0
10
84.675
20
8.8105
40
1
50
270
51
341.8051277
0
LINE
8
0
10
85.675
20
21.4102499
11
85.675
21
22.7857501
0
ARC
8
0
10
84.675
20
25.8605
40
1
50
18.1948723
51
90
0
ARC
8
0
10
67.625
20
25.8605
40
1
50
90
51
161.8051277
0
LINE
8
0
10
66.625
20
22.7857501
11
66.625
21
21.4102499
0
ARC
8
0
10
67.625
20
8.8105
40
1
50
198.1948723
51
270
0
ARC
8
0
10
84.675
20
27.8605
40
1
50
270
51
341.8051277
0
LINE
8
0
10
85.675
20
40.4602499
11
85.675
21
41.8357501
0
ARC
8
0
10
84.675
20
44.9105
40
1
50
18.1948723
51
90
0
ARC
8
0
10
67.625
20
44.9105
40
1
50
90
51
161.8051277
0
LINE
8
0
10
66.625
20
41.8357501
11
66.625
21
40.4602499
0
ARC
8
0
10
67.625
20
27.8605
40
1
50
198.1948723
51
270
0
ARC
8
0
10
84.675
20
46.9105
40
1
50
270
51
341.8051277
0
LINE
8
0
10
85.675
20
59.5102499
11
85.675
21
63.9605
0
ARC
8
0
10
84.675
20
63.9605
40
1
50
0
51
90
0
LINE
8
0
10
84.675
20
64.9605
11
67.625
21
64.9605
0
ARC
8
0
10
67.625
20
63.9605
40
1
50
90
51
180
0
LINE
8
0
10
66.625
20
63.9605
11
66.625
21
59.5102499
0
ARC
8
0
10
67.625
20
46.9105
40
1
50
198.1948723
51
270
0
LINE
8
0
10
86.625
20
3.048
11
103.675
21
3.048
0
ARC
8
0
10
103.675
20
4.048
40
1
50
270
51
360
0
LINE
8
0
10
104.675
20
18.2405
11
104.675
21
20.2405
0
ARC
8
0
10
103.675
20
21.098
40
1
50
0
51
90
0
ARC
8
0
10
86.625
20
21.098
40
1
50
90
51
161.8051277
0
LINE
8
0
10
85.625
20
8.4982501
11
85.625
21
4.048
0
ARC
8
0
10
86.625
20
4.048
40
1
50
180
51
270
0
ARC
8
0
10
103.675
20
23.098
40
1
50
270
51
360
0
LINE
8
0
10
104.675
20
37.2905
11
104.675
21
39.2905
0
ARC
8
0
10
103.675
20
40.148
40
1
50
0
51
90
0
ARC
8
0
10
86.625
20
40.148
40
1
50
90
51
161.8051277
0
LINE
8
0
10
85.625
20
27.5482501
11
85.625
21
26.1727499
0
ARC
8
0
10
86.625
20
23.098
40
1
50
198.1948723
51
270
0
ARC
8
0
10
103.675
20
42.148
40
1
50
270
51
360
0
LINE
8
0
10
104.675
20
56.3405
11
104.675
21
59.198
0
ARC
8
0
10
103.675
20
59.198
40
1
50
0
51
90
0
LINE
8
0
10
103.675
20
60.198
11
86.625
21
60.198
0
ARC
8
0
10
86.625
20
59.198
40
1
50
90
51
161.8051277
0
LINE
8
0
10
85.625
20
46.5982501
11
85.625
21
45.2227499
0
ARC
8
0
10
86.625
20
42.148
40
1
50
198.1948723
51
270
0
ARC
8
0
10
122.725
20
1.1905
40
1
50
270
51
360
0
LINE
8
0
10
123.725
20
1.1905
11
123.725
21
18.2405
0
ARC
8
0
10
122.725
20
18.2405
40
1
50
0
51
90
0
ARC
8
0
10
105.675
20
18.2405
40
1
50
90
51
180
0
LINE
8
0
10
104.675
20
4.048
11
104.675
21
1.1905
0
ARC
8
0
10
105.675
20
1.1905
40
1
50
180
51
270
0
ARC
8
0
10
122.725
20
20.2405
40
1
50
270
51
360
0
LINE
8
0
10
123.725
20
20.2405
11
123.725
21
37.2905
0
ARC
8
0
10
122.725
20
37.2905
40
1
50
0
51
90
0
ARC
8
0
10
105.675
20
37.2905
40
1
50
90
51
180
0
LINE
8
0
10
104.675
20
23.098
11
104.675
21
21.098
0
ARC
8
0
10
105.675
20
20.2405
40
1
50
180
51
270
0
ARC
8
0
10
122.725
20
39.2905
40
1
50
270
51
360
0
LINE
8
0
10
123.725
20
39.2905
11
123.725
21
56.3405
0
ARC
8
0
10
122.725
20
56.3405
40
1
50
0
51
90
0
LINE
8
0
10
122.725
20
57.3405
11
105.675
21
57.3405
0
ARC
8
0
10
105.675
20
56.3405
40
1
50
90
51
180
0
LINE
8
0
10
104.675
20
42.148
11
104.675
21
40.148
0
ARC
8
0
10
105.675
20
39.2905
40
1
50
180
51
270
0
ARC
8
0
10
84.625
20
-17.8595
40
1
50
270
51
360
0
ARC
8
0
10
84.625
20
-0.8095
40
1
50
0
51
90
0
LINE
8
0
10
84.625
20
0.1905
11
67.575
21
0.1905
0
ARC
8
0
10
67.575
20
-0.8095
40
1
50
90
51
180
0
LINE
8
0
10
66.575
20
-0.8095
11
66.575
21
-17.8595
0
ARC
8
0
10
67.575
20
-17.8595
40
1
50
180
51
270
0
LINE
8
0
10
67.575
20
-37.9095
11
84.625
21
-37.9095
0
ARC
8
0
10
84.625
20
-36.9095
40
1
50
270
51
360
0
ARC
8
0
10
84.625
20
-19.8595
40
1
50
0
51
90
0
ARC
8
0
10
67.575
20
-19.8595
40
1
50
90
51
180
0
LINE
8
0
10
66.575
20
-19.8595
11
66.575
21
-36.9095
0
ARC
8
0
10
67.575
20
-36.9095
40
1
50
180
51
270
0
ARC
8
0
10
103.675
20
-17.8595
40
1
50
270
51
360
0
ARC
8
0
10
103.675
20
-0.8095
40
1
50
0
51
90
0
LINE
8
0
10
103.675
20
0.1905
11
86.625
21
0.1905
0
ARC
8
0
10
86.625
20
-0.8095
40
1
50
90
51
180
0
ARC
8
0
10
86.625
20
-17.8595
40
1
50
180
51
270
0
LINE
8
0
10
86.625
20
-37.9095
11
103.675
21
-37.9095
0
ARC
8
0
10
103.675
20
-36.9095
40
1
50
270
51
360
0
ARC
8
0
10
103.675
20
-19.8595
40
1
50
0
51
90
0
ARC
8
0
10
86.625
20
-19.8595
40
1
50
90
51
180
0
ARC
8
0
10
86.625
20
-36.9095
40
1
50
180
51
270
0
ARC
8
0
10
122.725
20
-17.8595
40
1
50
270
51
360
0
ARC
8
0
10
122.725
20
-0.8095
40
1
50
0
51
90
0
ARC
8
0
10
105.675
20
-0.8095
40
1
50
90
51
180
0
ARC
8
0
10
105.675
20
-17.8595
40
1
50
180
51
270
0
LINE
8
0
10
105.675
20
-37.9095
11
122.725
21
-37.9095
0
ARC
8
0
10
122.725
20
-36.9095
40
1
50
270
51
360
0
ARC
8
0
10
122.725
20
-19.8595
40
1
50
0
51
90
0
ARC
8
0
10
105.675
20
-19.8595
40
1
50
90
51
180
0
ARC
8
0
10
105.675
20
-36.9095
40
1
50
180
51
270
0
ARC
8
0
10
141.775
20
-17.8595
40
1
50
270
51
360
0
LINE
8
0
10
142.775
20
-17.8595
11
142.775
21
-0.8095
0
ARC
8
0
10
141.775
20
-0.8095
40
1
50
0
51
90
0
LINE
8
0
10
141.775
20
0.1905
11
124.725
21
0.1905
0
ARC
8
0
10
124.725
20
-0.8095
40
1
50
90
51
180
0
ARC
8
0
10
124.725
20
-17.8595
40
1
50
180
51
270
0
LINE
8
0
10
124.725
20
-37.9095
11
141.775
21
-37.9095
0
ARC
8
0
10
141.775
20
-36.9095
40
1
50
270
51
360
0
LINE
8
0
10
142.775
20
-36.9095
11
142.775
21
-19.8595
0
ARC
8
0
10
141.775
20
-19.8595
40
1
50
0
51
90
0
ARC
8
0
10
124.725
20
-19.8595
40
1
50
90
51
180
0
ARC
8
0
10
124.725
20
-36.9095
40
1
50
180
51
270
0
ENDSEC
0
EOF