0
SECTION
2
HEADER
9
$INSUNITS
70
4
0
ENDSEC
0
SECTION
2
TABLES
0
TABLE
2
LTYPE
0
LTYPE
72
65
70
64
2
CONTINUOUS
3
______
73
0
40
0
0
ENDTAB
0
TABLE
2
LAYER
0
ENDTAB
0
ENDSEC
0
SECTION
2
ENTITIES
0
LINE
8
0
10
9.525
20
-10.525
11
46.625
21
-10.525
0
LINE
8
0
10
8.525
20
-9.525
11
8.525
21
47.625
0
ARC
8
0
10
9.525
20
-9.525
40
1
50
180
51
270
0
LINE
8
0
10
9.525
20
48.625
11
46.625
21
48.625
0
ARC
8
0
10
9.525
20
47.625
40
1
50
90
51
180
0
LINE
8
0
10
65.625
20
61.198
11
47.625
21
61.198
0
ARC
8
0
10
47.625
20
60.198
40
1
50
90
51
180
0
LINE
8
0
10
46.625
20
60.198
11
46.625
21
48.625
0
LINE
8
0
10
86.675
20
61.198
11
86.675
21
64.9605
0
ARC
8
0
10
85.675
20
64.9605
40
1
50
0
51
90
0
LINE
8
0
10
85.675
20
65.9605
11
66.625
21
65.9605
0
ARC
8
0
10
66.625
20
64.9605
40
1
50
90
51
180
0
LINE
8
0
10
65.625
20
64.9605
11
65.625
21
61.198
0
LINE
8
0
10
105.675
20
58.3405
11
105.675
21
60.198
0
ARC
8
0
10
104.675
20
60.198
40
1
50
0
51
90
0
LINE
8
0
10
104.675
20
61.198
11
86.675
21
61.198
0
LINE
8
0
10
124.725
20
1.1905
11
124.725
21
57.3405
0
ARC
8
0
10
123.725
20
57.3405
40
1
50
0
51
90
0
LINE
8
0
10
123.725
20
58.3405
11
105.675
21
58.3405
0
LINE
8
0
10
65.575
20
-37.9095
11
65.575
21
-18.9683783
0
LINE
8
0
10
66.575
20
-38.9095
11
144.195
21
-38.9095
0
ARC
8
0
10
66.575
20
-37.9095
40
1
50
180
51
270
0
LINE
8
0
10
124.725
20
1.1905
11
144.195
21
1.1905
0
LINE
8
0
10
65.575
20
-18.9683783
11
46.625
21
-10.525
0
LINE
8
0
10
12.05
20
-7
11
26.05
21
-7
0
LINE
8
0
10
26.05
20
-7
11
26.05
21
7
0
LINE
8
0
10
26.05
20
7
11
12.05
21
7
0
LINE
8
0
10
12.05
20
7
11
12.05
21
-7
0
LINE
8
0
10
12.05
20
12.05
11
26.05
21
12.05
0
LINE
8
0
10
26.05
20
12.05
11
26.05
21
26.05
0
LINE
8
0
10
26.05
20
26.05
11
12.05
21
26.05
0
LINE
8
0
10
12.05
20
26.05
11
12.05
21
12.05
0
LINE
8
0
10
12.05
20
31.1
11
26.05
21
31.1
0
LINE
8
0
10
26.05
20
31.1
11
26.05
21
45.1
0
LINE
8
0
10
26.05
20
45.1
11
12.05
21
45.1
0
LINE
8
0
10
12.05
20
45.1
11
12.05
21
31.1
0
LINE
8
0
10
31.1
20
-7
11
45.1
21
-7
0
LINE
8
0
10
45.1
20
-7
11
45.1
21
7
0
LINE
8
0
10
45.1
20
7
11
31.1
21
7
0
LINE
8
0
10
31.1
20
7
11
31.1
21
-7
0
LINE
8
0
10
31.1
20
12.05
11
45.1
21
12.05
0
LINE
8
0
10
45.1
20
12.05
11
45.1
21
26.05
0
LINE
8
0
10
45.1
20
26.05
11
31.1
21
26.05
0
LINE
8
0
10
31.1
20
26.05
11
31.1
21
12.05
0
LINE
8
0
10
31.1
20
31.1
11
45.1
21
31.1
0
LINE
8
0
10
45.1
20
31.1
11
45.1
21
45.1
0
LINE
8
0
10
45.1
20
45.1
11
31.1
21
45.1
0
LINE
8
0
10
31.1
20
45.1
11
31.1
21
31.1
0
LINE
8
0
10
50.15
20
5.573
11
64.15
21
5.573
0
LINE
8
0
10
64.15
20
5.573
11
64.15
21
19.573
0
LINE
8
0
10
64.15
20
19.573
11
50.15
21
19.573
0
LINE
8
0
10
50.15
20
19.573
11
50.15
21
5.573
0
LINE
8
0
10
50.15
20
24.623
11
64.15
21
24.623
0
LINE
8
0
10
64.15
20
24.623
11
64.15
21
38.623
0
LINE
8
0
10
64.15
20
38.623
11
50.15
21
38.623
0
LINE
8
0
10
50.15
20
38.623
11
50.15
21
24.623
0
LINE
8
0
10
50.15
20
43.673
11
64.15
21
43.673
0
LINE
8
0
10
64.15
20
43.673
11
64.15
21
57.673
0
LINE
8
0
10
64.15
20
57.673
11
50.15
21
57.673
0
LINE
8
0
10
50.15
20
57.673
11
50.15
21
43.673
0
LINE
8
0
10
69.15
20
10.3355
11
83.15
21
10.3355
0
LINE
8
0
10
83.15
20
10.3355
11
83.15
21
24.3355
0
LINE
8
0
10
83.15
20
24.3355
11
69.15
21
24.3355
0
LINE
8
0
10
69.15
20
24.3355
11
69.15
21
10.3355
0
LINE
8
0
10
69.15
20
29.3855
11
83.15
21
29.3855
0
LINE
8
0
10
83.15
20
29.3855
11
83.15
21
43.3855
0
LINE
8
0
10
83.15
20
43.3855
11
69.15
21
43.3855
0
LINE
8
0
10
69.15
20
43.3855
11
69.15
21
29.3855
0
LINE
8
0
10
69.15
20
48.4355
11
83.15
21
48.4355
0
LINE
8
0
10
83.15
20
48.4355
11
83.15
21
62.4355
0
LINE
8
0
10
83.15
20
62.4355
11
69.15
21
62.4355
0
LINE
8
0
10
69.15
20
62.4355
11
69.15
21
48.4355
0
LINE
8
0
10
88.15
20
5.573
11
102.15
21
5.573
0
LINE
8
0
10
102.15
20
5.573
11
102.15
21
19.573
0
LINE
8
0
10
102.15
20
19.573
11
88.15
21
19.573
0
LINE
8
0
10
88.15
20
19.573
11
88.15
21
5.573
0
LINE
8
0
10
88.15
20
24.623
11
102.15
21
24.623
0
LINE
8
0
10
102.15
20
24.623
11
102.15
21
38.623
0
LINE
8
0
10
102.15
20
38.623
11
88.15
21
38.623
0
LINE
8
0
10
88.15
20
38.623
11
88.15
21
24.623
0
LINE
8
0
10
88.15
20
43.673
11
102.15
21
43.673
0
LINE
8
0
10
102.15
20
43.673
11
102.15
21
57.673
0
LINE
8
0
10
102.15
20
57.673
11
88.15
21
57.673
0
LINE
8
0
10
88.15
20
57.673
11
88.15
21
43.673
0
LINE
8
0
10
107.2
20
2.7155
11
121.2
21
2.7155
0
LINE
8
0
10
121.2
20
2.7155
11
121.2
21
16.7155
0
LINE
8
0
10
121.2
20
16.7155
11
107.2
21
16.7155
0
LINE
8
0
10
107.2
20
16.7155
11
107.2
21
2.7155
0
LINE
8
0
10
107.2
20
21.7655
11
121.2
21
21.7655
0
LINE
8
0
10
121.2
20
21.7655
11
121.2
21
35.7655
0
LINE
8
0
10
121.2
20
35.7655
11
107.2
21
35.7655
0
LINE
8
0
10
107.2
20
35.7655
11
107.2
21
21.7655
0
LINE
8
0
10
107.2
20
40.8155
11
121.2
21
40.8155
0
LINE
8
0
10
121.2
20
40.8155
11
121.2
21
54.8155
0
LINE
8
0
10
121.2
20
54.8155
11
107.2
21
54.8155
0
LINE
8
0
10
107.2
20
54.8155
11
107.2
21
40.8155
0
LINE
8
0
10
69.1
20
-16.3345
11
83.1
21
-16.3345
0
LINE
8
0
10
83.1
20
-16.3345
11
83.1
21
-2.3345
0
LINE
8
0
10
83.1
20
-2.3345
11
69.1
21
-2.3345
0
LINE
8
0
10
69.1
20
-2.3345
11
69.1
21
-16.3345
0
LINE
8
0
10
69.1
20
-35.3845
11
83.1
21
-35.3845
0
LINE
8
0
10
83.1
20
-35.3845
11
83.1
21
-21.3845
0
LINE
8
0
10
83.1
20
-21.3845
11
69.1
21
-21.3845
0
LINE
8
0
10
69.1
20
-21.3845
11
69.1
21
-35.3845
0
LINE
8
0
10
88.15
20
-16.3345
11
102.15
21
-16.3345
0
LINE
8
0
10
102.15
20
-16.3345
11
102.15
21
-2.3345
0
LINE
8
0
10
102.15
20
-2.3345
11
88.15
21
-2.3345
0
LINE
8
0
10
88.15
20
-2.3345
11
88.15
21
-16.3345
0
LINE
8
0
10
88.15
20
-35.3845
11
102.15
21
-35.3845
0
LINE
8
0
10
102.15
20
-35.3845
11
102.15
21
-21.3845
0
LINE
8
0
10
102.15
20
-21.3845
11
88.15
21
-21.3845
0
LINE
8
0
10
88.15
20
-21.3845
11
88.15
21
-35.3845
0
LINE
8
0
10
107.2
20
-16.3345
11
121.2
21
-16.3345
0
LINE
8
0
10
121.2
20
-16.3345
11
121.2
21
-2.3345
0
LINE
8
0
10
121.2
20
-2.3345
11
107.2
21
-2.3345
0
LINE
8
0
10
107.2
20
-2.3345
11
107.2
21
-16.3345
0
LINE
8
0
10
107.2
20
-35.3845
11
121.2
21
-35.3845
0
LINE
8
0
10
121.2
20
-35.3845
11
121.2
21
-21.3845
0
LINE
8
0
10
121.2
20
-21.3845
11
107.2
21
-21.3845
0
LINE
8
0
10
107.2
20
-21.3845
11
107.2
21
-35.3845
0
LINE
8
0
10
126.25
20
-16.3345
11
140.25
21
-16.3345
0
LINE
8
0
10
140.25
20
-16.3345
11
140.25
21
-2.3345
0
LINE
8
0
10
140.25
20
-2.3345
11
126.25
21
-2.3345
0
LINE
8
0
10
126.25
20
-2.3345
11
126.25
21
-16.3345
0
LINE
8
0
10
126.25
20
-35.3845
11
140.25
21
-35.3845
0
LINE
8
0
10
140.25
20
-35.3845
11
140.25
21
-21.3845
0
LINE
8
0
10
140.25
20
-21.3845
11
126.25
21
-21.3845
0
LINE
8
0
10
126.25
20
-21.3845
11
126.25
21
-35.3845
0
CIRCLE
8
0
10
28.575
20
28.575
40
1.05
0
CIRCLE
8
0
10
28.575
20
9.525
40
1.05
0
CIRCLE
8
0
10
104.675
20
41.148
40
1.05
0
CIRCLE
8
0
10
104.675
20
22.098
40
1.05
0
CIRCLE
8
0
10
123.725
20
-18.8595
40
1.05
0
CIRCLE
8
0
10
85.625
20
-18.8595
40
1.05
0
ARC
8
0
10
144.195
20
-36.9095
40
2
50
270
51
360
0
LINE
8
0
10
146.195
20
-36.9095
11
146.195
21
-0.8095
0
ARC
8
0
10
144.195
20
-0.8095
40
2
50
0
51
90
0
ENDSEC
0
EOF