0
SECTION
2
HEADER
9
$INSUNITS
70
4
0
ENDSEC
0
SECTION
2
TABLES
0
TABLE
2
LTYPE
0
LTYPE
72
65
70
64
2
CONTINUOUS
3
______
73
0
40
0
0
ENDTAB
0
TABLE
2
LAYER
0
ENDTAB
0
ENDSEC
0
SECTION
2
ENTITIES
0
LINE
8
0
10
9.525
20
-10.525
11
47.625
21
-10.525
0
LINE
8
0
10
8.525
20
-9.525
11
8.525
21
47.625
0
ARC
8
0
10
9.525
20
-9.525
40
1
50
180
51
270
0
LINE
8
0
10
9.525
20
48.625
11
46.625
21
48.625
0
ARC
8
0
10
9.525
20
47.625
40
1
50
90
51
180
0
ARC
8
0
10
47.625
20
-9.525
40
1
50
270
51
360
0
LINE
8
0
10
48.625
20
-9.525
11
48.625
21
2.048
0
LINE
8
0
10
48.625
20
2.048
11
66.675
21
2.048
0
ARC
8
0
10
66.675
20
3.048
40
1
50
270
51
360
0
LINE
8
0
10
67.675
20
3.048
11
67.675
21
6.8105
0
LINE
8
0
10
65.625
20
61.198
11
47.625
21
61.198
0
ARC
8
0
10
47.625
20
60.198
40
1
50
90
51
180
0
LINE
8
0
10
46.625
20
60.198
11
46.625
21
48.625
0
LINE
8
0
10
67.675
20
6.8105
11
84.625
21
6.8105
0
LINE
8
0
10
86.675
20
61.198
11
86.675
21
64.9605
0
ARC
8
0
10
85.675
20
64.9605
40
1
50
0
51
90
0
LINE
8
0
10
85.675
20
65.9605
11
66.625
21
65.9605
0
ARC
8
0
10
66.625
20
64.9605
40
1
50
90
51
180
0
LINE
8
0
10
65.625
20
64.9605
11
65.625
21
61.198
0
LINE
8
0
10
85.625
20
2.048
11
103.675
21
2.048
0
LINE
8
0
10
84.625
20
6.8105
11
84.625
21
3.048
0
ARC
8
0
10
85.625
20
3.048
40
1
50
180
51
270
0
LINE
8
0
10
105.675
20
58.3405
11
105.675
21
60.198
0
ARC
8
0
10
104.675
20
60.198
40
1
50
0
51
90
0
LINE
8
0
10
104.675
20
61.198
11
86.675
21
61.198
0
LINE
8
0
10
124.725
20
1.1905
11
124.725
21
57.3405
0
LINE
8
0
10
103.675
20
2.048
11
103.675
21
1.1905
0
ARC
8
0
10
123.725
20
57.3405
40
1
50
0
51
90
0
LINE
8
0
10
123.725
20
58.3405
11
105.675
21
58.3405
0
LINE
8
0
10
66.575
20
1.1905
11
103.675
21
1.1905
0
ARC
8
0
10
66.575
20
0.1905
40
1
50
90
51
180
0
LINE
8
0
10
65.575
20
-37.9095
11
65.575
21
0.1905
0
LINE
8
0
10
66.575
20
-38.9095
11
142.775
21
-38.9095
0
ARC
8
0
10
66.575
20
-37.9095
40
1
50
180
51
270
0
LINE
8
0
10
143.775
20
-37.9095
11
143.775
21
0.1905
0
ARC
8
0
10
142.775
20
0.1905
40
1
50
0
51
90
0
LINE
8
0
10
142.775
20
1.1905
11
124.725
21
1.1905
0
ARC
8
0
10
142.775
20
-37.9095
40
1
50
270
51
360
0
ENDSEC
0
EOF