0
SECTION
2
HEADER
9
$INSUNITS
70
4
0
ENDSEC
0
SECTION
2
TABLES
0
TABLE
2
LTYPE
0
LTYPE
72
65
70
64
2
CONTINUOUS
3
______
73
0
40
0
0
ENDTAB
0
TABLE
2
LAYER
0
ENDTAB
0
ENDSEC
0
SECTION
2
ENTITIES
0
LINE
8
0
10
12.05
20
-7
11
26.05
21
-7
0
LINE
8
0
10
26.05
20
-7
11
26.05
21
7
0
LINE
8
0
10
26.05
20
7
11
12.05
21
7
0
LINE
8
0
10
12.05
20
7
11
12.05
21
-7
0
LINE
8
0
10
12.05
20
12.05
11
26.05
21
12.05
0
LINE
8
0
10
26.05
20
12.05
11
26.05
21
26.05
0
LINE
8
0
10
26.05
20
26.05
11
12.05
21
26.05
0
LINE
8
0
10
12.05
20
26.05
11
12.05
21
12.05
0
LINE
8
0
10
12.05
20
31.1
11
26.05
21
31.1
0
LINE
8
0
10
26.05
20
31.1
11
26.05
21
45.1
0
LINE
8
0
10
26.05
20
45.1
11
12.05
21
45.1
0
LINE
8
0
10
12.05
20
45.1
11
12.05
21
31.1
0
LINE
8
0
10
31.1
20
-7
11
45.1
21
-7
0
LINE
8
0
10
45.1
20
-7
11
45.1
21
7
0
LINE
8
0
10
45.1
20
7
11
31.1
21
7
0
LINE
8
0
10
31.1
20
7
11
31.1
21
-7
0
LINE
8
0
10
31.1
20
12.05
11
45.1
21
12.05
0
LINE
8
0
10
45.1
20
12.05
11
45.1
21
26.05
0
LINE
8
0
10
45.1
20
26.05
11
31.1
21
26.05
0
LINE
8
0
10
31.1
20
26.05
11
31.1
21
12.05
0
LINE
8
0
10
31.1
20
31.1
11
45.1
21
31.1
0
LINE
8
0
10
45.1
20
31.1
11
45.1
21
45.1
0
LINE
8
0
10
45.1
20
45.1
11
31.1
21
45.1
0
LINE
8
0
10
31.1
20
45.1
11
31.1
21
31.1
0
LINE
8
0
10
50.15
20
5.573
11
64.15
21
5.573
0
LINE
8
0
10
64.15
20
5.573
11
64.15
21
19.573
0
LINE
8
0
10
64.15
20
19.573
11
50.15
21
19.573
0
LINE
8
0
10
50.15
20
19.573
11
50.15
21
5.573
0
LINE
8
0
10
50.15
20
24.623
11
64.15
21
24.623
0
LINE
8
0
10
64.15
20
24.623
11
64.15
21
38.623
0
LINE
8
0
10
64.15
20
38.623
11
50.15
21
38.623
0
LINE
8
0
10
50.15
20
38.623
11
50.15
21
24.623
0
LINE
8
0
10
50.15
20
43.673
11
64.15
21
43.673
0
LINE
8
0
10
64.15
20
43.673
11
64.15
21
57.673
0
LINE
8
0
10
64.15
20
57.673
11
50.15
21
57.673
0
LINE
8
0
10
50.15
20
57.673
11
50.15
21
43.673
0
LINE
8
0
10
69.15
20
10.3355
11
83.15
21
10.3355
0
LINE
8
0
10
83.15
20
10.3355
11
83.15
21
24.3355
0
LINE
8
0
10
83.15
20
24.3355
11
69.15
21
24.3355
0
LINE
8
0
10
69.15
20
24.3355
11
69.15
21
10.3355
0
LINE
8
0
10
69.15
20
29.3855
11
83.15
21
29.3855
0
LINE
8
0
10
83.15
20
29.3855
11
83.15
21
43.3855
0
LINE
8
0
10
83.15
20
43.3855
11
69.15
21
43.3855
0
LINE
8
0
10
69.15
20
43.3855
11
69.15
21
29.3855
0
LINE
8
0
10
69.15
20
48.4355
11
83.15
21
48.4355
0
LINE
8
0
10
83.15
20
48.4355
11
83.15
21
62.4355
0
LINE
8
0
10
83.15
20
62.4355
11
69.15
21
62.4355
0
LINE
8
0
10
69.15
20
62.4355
11
69.15
21
48.4355
0
LINE
8
0
10
88.15
20
5.573
11
102.15
21
5.573
0
LINE
8
0
10
102.15
20
5.573
11
102.15
21
19.573
0
LINE
8
0
10
102.15
20
19.573
11
88.15
21
19.573
0
LINE
8
0
10
88.15
20
19.573
11
88.15
21
5.573
0
LINE
8
0
10
88.15
20
24.623
11
102.15
21
24.623
0
LINE
8
0
10
102.15
20
24.623
11
102.15
21
38.623
0
LINE
8
0
10
102.15
20
38.623
11
88.15
21
38.623
0
LINE
8
0
10
88.15
20
38.623
11
88.15
21
24.623
0
LINE
8
0
10
88.15
20
43.673
11
102.15
21
43.673
0
LINE
8
0
10
102.15
20
43.673
11
102.15
21
57.673
0
LINE
8
0
10
102.15
20
57.673
11
88.15
21
57.673
0
LINE
8
0
10
88.15
20
57.673
11
88.15
21
43.673
0
LINE
8
0
10
107.2
20
2.7155
11
121.2
21
2.7155
0
LINE
8
0
10
121.2
20
2.7155
11
121.2
21
16.7155
0
LINE
8
0
10
121.2
20
16.7155
11
107.2
21
16.7155
0
LINE
8
0
10
107.2
20
16.7155
11
107.2
21
2.7155
0
LINE
8
0
10
107.2
20
21.7655
11
121.2
21
21.7655
0
LINE
8
0
10
121.2
20
21.7655
11
121.2
21
35.7655
0
LINE
8
0
10
121.2
20
35.7655
11
107.2
21
35.7655
0
LINE
8
0
10
107.2
20
35.7655
11
107.2
21
21.7655
0
LINE
8
0
10
107.2
20
40.8155
11
121.2
21
40.8155
0
LINE
8
0
10
121.2
20
40.8155
11
121.2
21
54.8155
0
LINE
8
0
10
121.2
20
54.8155
11
107.2
21
54.8155
0
LINE
8
0
10
107.2
20
54.8155
11
107.2
21
40.8155
0
LINE
8
0
10
69.1
20
-16.3345
11
83.1
21
-16.3345
0
LINE
8
0
10
83.1
20
-16.3345
11
83.1
21
-2.3345
0
LINE
8
0
10
83.1
20
-2.3345
11
69.1
21
-2.3345
0
LINE
8
0
10
69.1
20
-2.3345
11
69.1
21
-16.3345
0
LINE
8
0
10
69.1
20
-35.3845
11
83.1
21
-35.3845
0
LINE
8
0
10
83.1
20
-35.3845
11
83.1
21
-21.3845
0
LINE
8
0
10
83.1
20
-21.3845
11
69.1
21
-21.3845
0
LINE
8
0
10
69.1
20
-21.3845
11
69.1
21
-35.3845
0
LINE
8
0
10
88.15
20
-16.3345
11
102.15
21
-16.3345
0
LINE
8
0
10
102.15
20
-16.3345
11
102.15
21
-2.3345
0
LINE
8
0
10
102.15
20
-2.3345
11
88.15
21
-2.3345
0
LINE
8
0
10
88.15
20
-2.3345
11
88.15
21
-16.3345
0
LINE
8
0
10
88.15
20
-35.3845
11
102.15
21
-35.3845
0
LINE
8
0
10
102.15
20
-35.3845
11
102.15
21
-21.3845
0
LINE
8
0
10
102.15
20
-21.3845
11
88.15
21
-21.3845
0
LINE
8
0
10
88.15
20
-21.3845
11
88.15
21
-35.3845
0
LINE
8
0
10
107.2
20
-16.3345
11
121.2
21
-16.3345
0
LINE
8
0
10
121.2
20
-16.3345
11
121.2
21
-2.3345
0
LINE
8
0
10
121.2
20
-2.3345
11
107.2
21
-2.3345
0
LINE
8
0
10
107.2
20
-2.3345
11
107.2
21
-16.3345
0
LINE
8
0
10
107.2
20
-35.3845
11
121.2
21
-35.3845
0
LINE
8
0
10
121.2
20
-35.3845
11
121.2
21
-21.3845
0
LINE
8
0
10
121.2
20
-21.3845
11
107.2
21
-21.3845
0
LINE
8
0
10
107.2
20
-21.3845
11
107.2
21
-35.3845
0
LINE
8
0
10
126.25
20
-16.3345
11
140.25
21
-16.3345
0
LINE
8
0
10
140.25
20
-16.3345
11
140.25
21
-2.3345
0
LINE
8
0
10
140.25
20
-2.3345
11
126.25
21
-2.3345
0
LINE
8
0
10
126.25
20
-2.3345
11
126.25
21
-16.3345
0
LINE
8
0
10
126.25
20
-35.3845
11
140.25
21
-35.3845
0
LINE
8
0
10
140.25
20
-35.3845
11
140.25
21
-21.3845
0
LINE
8
0
10
140.25
20
-21.3845
11
126.25
21
-21.3845
0
LINE
8
0
10
126.25
20
-21.3845
11
126.25
21
-35.3845
0
ENDSEC
0
EOF